<?xml version="1.0" encoding="utf-8" standalone="no"?>
<!DOCTYPE svg PUBLIC "-//W3C//DTD SVG 1.1//EN"
  "http://www.w3.org/Graphics/SVG/1.1/DTD/svg11.dtd">
<!-- Created with matplotlib (https://matplotlib.org/) -->
<svg height="248.064219pt" version="1.1" viewBox="0 0 361.041406 248.064219" width="361.041406pt" xmlns="http://www.w3.org/2000/svg" xmlns:xlink="http://www.w3.org/1999/xlink">
 <defs>
  <style type="text/css">
*{stroke-linecap:butt;stroke-linejoin:round;}
  </style>
 </defs>
 <g id="figure_1">
  <g id="patch_1">
   <path d="M 0 248.064219 
L 361.041406 248.064219 
L 361.041406 0 
L 0 0 
z
" style="fill:#ffffff;"/>
  </g>
  <g id="axes_1">
   <g id="patch_2">
    <path d="M 16.260937 228.218906 
L 351.060938 228.218906 
L 351.060938 10.778906 
L 16.260937 10.778906 
z
" style="fill:#ffffff;"/>
   </g>
   <g id="matplotlib.axis_1">
    <g id="xtick_1">
     <g id="line2d_1"/>
     <g id="text_1">
      <!-- 0 -->
      <defs>
       <path d="M 4.15625 35.296875 
Q 4.15625 48 6.765625 55.734375 
Q 9.375 63.484375 14.515625 67.671875 
Q 19.671875 71.875 27.484375 71.875 
Q 33.25 71.875 37.59375 69.546875 
Q 41.9375 67.234375 44.765625 62.859375 
Q 47.609375 58.5 49.21875 52.21875 
Q 50.828125 45.953125 50.828125 35.296875 
Q 50.828125 22.703125 48.234375 14.96875 
Q 45.65625 7.234375 40.5 3 
Q 35.359375 -1.21875 27.484375 -1.21875 
Q 17.140625 -1.21875 11.234375 6.203125 
Q 4.15625 15.140625 4.15625 35.296875 
z
M 13.1875 35.296875 
Q 13.1875 17.671875 17.3125 11.828125 
Q 21.4375 6 27.484375 6 
Q 33.546875 6 37.671875 11.859375 
Q 41.796875 17.71875 41.796875 35.296875 
Q 41.796875 52.984375 37.671875 58.78125 
Q 33.546875 64.59375 27.390625 64.59375 
Q 21.34375 64.59375 17.71875 59.46875 
Q 13.1875 52.9375 13.1875 35.296875 
z
" id="ArialMT-48"/>
      </defs>
      <g style="fill:#262626;" transform="translate(13.480469 238.876719)scale(0.1 -0.1)">
       <use xlink:href="#ArialMT-48"/>
      </g>
     </g>
    </g>
    <g id="xtick_2">
     <g id="line2d_2"/>
     <g id="text_2">
      <!-- 1 -->
      <defs>
       <path d="M 37.25 0 
L 28.46875 0 
L 28.46875 56 
Q 25.296875 52.984375 20.140625 49.953125 
Q 14.984375 46.921875 10.890625 45.40625 
L 10.890625 53.90625 
Q 18.265625 57.375 23.78125 62.296875 
Q 29.296875 67.234375 31.59375 71.875 
L 37.25 71.875 
z
" id="ArialMT-49"/>
      </defs>
      <g style="fill:#262626;" transform="translate(80.440469 238.876719)scale(0.1 -0.1)">
       <use xlink:href="#ArialMT-49"/>
      </g>
     </g>
    </g>
    <g id="xtick_3">
     <g id="line2d_3"/>
     <g id="text_3">
      <!-- 2 -->
      <defs>
       <path d="M 50.34375 8.453125 
L 50.34375 0 
L 3.03125 0 
Q 2.9375 3.171875 4.046875 6.109375 
Q 5.859375 10.9375 9.828125 15.625 
Q 13.8125 20.3125 21.34375 26.46875 
Q 33.015625 36.03125 37.109375 41.625 
Q 41.21875 47.21875 41.21875 52.203125 
Q 41.21875 57.421875 37.46875 61 
Q 33.734375 64.59375 27.734375 64.59375 
Q 21.390625 64.59375 17.578125 60.78125 
Q 13.765625 56.984375 13.71875 50.25 
L 4.6875 51.171875 
Q 5.609375 61.28125 11.65625 66.578125 
Q 17.71875 71.875 27.9375 71.875 
Q 38.234375 71.875 44.234375 66.15625 
Q 50.25 60.453125 50.25 52 
Q 50.25 47.703125 48.484375 43.546875 
Q 46.734375 39.40625 42.65625 34.8125 
Q 38.578125 30.21875 29.109375 22.21875 
Q 21.1875 15.578125 18.9375 13.203125 
Q 16.703125 10.84375 15.234375 8.453125 
z
" id="ArialMT-50"/>
      </defs>
      <g style="fill:#262626;" transform="translate(147.400469 238.876719)scale(0.1 -0.1)">
       <use xlink:href="#ArialMT-50"/>
      </g>
     </g>
    </g>
    <g id="xtick_4">
     <g id="line2d_4"/>
     <g id="text_4">
      <!-- 3 -->
      <defs>
       <path d="M 4.203125 18.890625 
L 12.984375 20.0625 
Q 14.5 12.59375 18.140625 9.296875 
Q 21.78125 6 27 6 
Q 33.203125 6 37.46875 10.296875 
Q 41.75 14.59375 41.75 20.953125 
Q 41.75 27 37.796875 30.921875 
Q 33.84375 34.859375 27.734375 34.859375 
Q 25.25 34.859375 21.53125 33.890625 
L 22.515625 41.609375 
Q 23.390625 41.5 23.921875 41.5 
Q 29.546875 41.5 34.03125 44.421875 
Q 38.53125 47.359375 38.53125 53.46875 
Q 38.53125 58.296875 35.25 61.46875 
Q 31.984375 64.65625 26.8125 64.65625 
Q 21.6875 64.65625 18.265625 61.421875 
Q 14.84375 58.203125 13.875 51.765625 
L 5.078125 53.328125 
Q 6.6875 62.15625 12.390625 67.015625 
Q 18.109375 71.875 26.609375 71.875 
Q 32.46875 71.875 37.390625 69.359375 
Q 42.328125 66.84375 44.9375 62.5 
Q 47.5625 58.15625 47.5625 53.265625 
Q 47.5625 48.640625 45.0625 44.828125 
Q 42.578125 41.015625 37.703125 38.765625 
Q 44.046875 37.3125 47.5625 32.6875 
Q 51.078125 28.078125 51.078125 21.140625 
Q 51.078125 11.765625 44.234375 5.25 
Q 37.40625 -1.265625 26.953125 -1.265625 
Q 17.53125 -1.265625 11.296875 4.34375 
Q 5.078125 9.96875 4.203125 18.890625 
z
" id="ArialMT-51"/>
      </defs>
      <g style="fill:#262626;" transform="translate(214.360469 238.876719)scale(0.1 -0.1)">
       <use xlink:href="#ArialMT-51"/>
      </g>
     </g>
    </g>
    <g id="xtick_5">
     <g id="line2d_5"/>
     <g id="text_5">
      <!-- 4 -->
      <defs>
       <path d="M 32.328125 0 
L 32.328125 17.140625 
L 1.265625 17.140625 
L 1.265625 25.203125 
L 33.9375 71.578125 
L 41.109375 71.578125 
L 41.109375 25.203125 
L 50.78125 25.203125 
L 50.78125 17.140625 
L 41.109375 17.140625 
L 41.109375 0 
z
M 32.328125 25.203125 
L 32.328125 57.46875 
L 9.90625 25.203125 
z
" id="ArialMT-52"/>
      </defs>
      <g style="fill:#262626;" transform="translate(281.320469 238.876719)scale(0.1 -0.1)">
       <use xlink:href="#ArialMT-52"/>
      </g>
     </g>
    </g>
    <g id="xtick_6">
     <g id="line2d_6"/>
     <g id="text_6">
      <!-- 5 -->
      <defs>
       <path d="M 4.15625 18.75 
L 13.375 19.53125 
Q 14.40625 12.796875 18.140625 9.390625 
Q 21.875 6 27.15625 6 
Q 33.5 6 37.890625 10.78125 
Q 42.28125 15.578125 42.28125 23.484375 
Q 42.28125 31 38.0625 35.34375 
Q 33.84375 39.703125 27 39.703125 
Q 22.75 39.703125 19.328125 37.765625 
Q 15.921875 35.84375 13.96875 32.765625 
L 5.71875 33.84375 
L 12.640625 70.609375 
L 48.25 70.609375 
L 48.25 62.203125 
L 19.671875 62.203125 
L 15.828125 42.96875 
Q 22.265625 47.46875 29.34375 47.46875 
Q 38.71875 47.46875 45.15625 40.96875 
Q 51.609375 34.46875 51.609375 24.265625 
Q 51.609375 14.546875 45.953125 7.46875 
Q 39.0625 -1.21875 27.15625 -1.21875 
Q 17.390625 -1.21875 11.203125 4.25 
Q 5.03125 9.71875 4.15625 18.75 
z
" id="ArialMT-53"/>
      </defs>
      <g style="fill:#262626;" transform="translate(348.280469 238.876719)scale(0.1 -0.1)">
       <use xlink:href="#ArialMT-53"/>
      </g>
     </g>
    </g>
   </g>
   <g id="matplotlib.axis_2">
    <g id="ytick_1">
     <g id="line2d_7"/>
     <g id="text_7">
      <!-- 0 -->
      <g style="fill:#262626;" transform="translate(7.2 231.797812)scale(0.1 -0.1)">
       <use xlink:href="#ArialMT-48"/>
      </g>
     </g>
    </g>
    <g id="ytick_2">
     <g id="line2d_8"/>
     <g id="text_8">
      <!-- 1 -->
      <g style="fill:#262626;" transform="translate(7.2 188.309812)scale(0.1 -0.1)">
       <use xlink:href="#ArialMT-49"/>
      </g>
     </g>
    </g>
    <g id="ytick_3">
     <g id="line2d_9"/>
     <g id="text_9">
      <!-- 2 -->
      <g style="fill:#262626;" transform="translate(7.2 144.821812)scale(0.1 -0.1)">
       <use xlink:href="#ArialMT-50"/>
      </g>
     </g>
    </g>
    <g id="ytick_4">
     <g id="line2d_10"/>
     <g id="text_10">
      <!-- 3 -->
      <g style="fill:#262626;" transform="translate(7.2 101.333812)scale(0.1 -0.1)">
       <use xlink:href="#ArialMT-51"/>
      </g>
     </g>
    </g>
    <g id="ytick_5">
     <g id="line2d_11"/>
     <g id="text_11">
      <!-- 4 -->
      <g style="fill:#262626;" transform="translate(7.2 57.845812)scale(0.1 -0.1)">
       <use xlink:href="#ArialMT-52"/>
      </g>
     </g>
    </g>
    <g id="ytick_6">
     <g id="line2d_12"/>
     <g id="text_12">
      <!-- 5 -->
      <g style="fill:#262626;" transform="translate(7.2 14.357812)scale(0.1 -0.1)">
       <use xlink:href="#ArialMT-53"/>
      </g>
     </g>
    </g>
   </g>
   <g id="LineCollection_1"/>
   <g id="LineCollection_2">
    <path clip-path="url(#pf07d7580df)" d="M 223.945463 10.778906 
L 228.073182 14.517075 
L 229.733717 16.354291 
L 234.905835 21.17442 
L 235.637128 21.929675 
L 241.332832 27.50506 
L 241.738489 27.902514 
L 246.126309 33.080445 
L 248.571142 35.701797 
L 251.176008 38.655829 
L 248.571142 41.365199 
L 244.079906 38.655829 
L 241.738489 37.280854 
L 236.360567 33.080445 
L 234.905835 32.065973 
L 230.129698 27.50506 
L 228.073182 25.842437 
L 224.505703 21.929675 
L 221.240529 18.947588 
L 219.084354 16.354291 
L 214.407876 11.6211 
L 213.750393 10.778906 
" style="fill:none;stroke:#000000;stroke-dasharray:5.55,2.4;stroke-dashoffset:0;stroke-width:1.5;"/>
    <path clip-path="url(#pf07d7580df)" d="M 214.407876 196.145163 
L 208.250817 194.766599 
L 207.575223 194.364875 
L 200.74257 190.608511 
L 197.983288 189.191214 
L 200.74257 184.610972 
L 207.575223 183.889282 
L 214.407876 184.851782 
L 221.240529 186.055111 
L 228.073182 187.288207 
L 234.905835 188.510154 
L 238.488283 189.191214 
L 241.738489 190.585489 
L 248.571142 193.018593 
L 254.551571 194.766599 
L 248.571142 199.425808 
L 241.738489 199.970705 
L 234.905835 199.476484 
L 228.073182 198.586285 
L 221.240529 197.462626 
L 214.407876 196.145163 
" style="fill:none;stroke:#000000;stroke-dasharray:5.55,2.4;stroke-dashoffset:0;stroke-width:1.5;"/>
    <path clip-path="url(#pf07d7580df)" d="M 241.738489 118.376435 
L 236.68887 116.711214 
L 234.905835 115.770533 
L 228.073182 112.35128 
L 225.653491 111.135829 
L 221.240529 108.204893 
L 216.7498 105.560445 
L 214.407876 103.685154 
L 209.290355 99.98506 
L 207.575223 98.289124 
L 203.410943 94.409675 
L 200.74257 91.125609 
L 198.889043 88.834291 
L 200.74257 85.993657 
L 207.575223 88.338581 
L 208.389902 88.834291 
L 214.407876 92.613813 
L 217.545379 94.409675 
L 221.240529 96.792779 
L 227.174008 99.98506 
L 228.073182 100.611748 
L 234.905835 104.842345 
L 236.196581 105.560445 
L 241.738489 109.481337 
L 244.767997 111.135829 
L 248.571142 114.411874 
L 252.495484 116.711214 
L 248.571142 120.195898 
L 241.738489 118.376435 
" style="fill:none;stroke:#000000;stroke-dasharray:5.55,2.4;stroke-dashoffset:0;stroke-width:1.5;"/>
    <path clip-path="url(#pf07d7580df)" d="M 255.403795 44.699776 
L 254.38673 44.231214 
L 255.403795 43.660742 
L 255.900039 44.231214 
L 255.403795 44.699776 
" style="fill:none;stroke:#000000;stroke-dasharray:5.55,2.4;stroke-dashoffset:0;stroke-width:1.5;"/>
   </g>
   <g id="LineCollection_3">
    <path clip-path="url(#pf07d7580df)" d="M 20.617355 10.778906 
L 20.754833 16.354291 
L 20.900199 21.929675 
L 21.054111 27.50506 
L 21.217303 33.080445 
L 21.390594 38.655829 
L 21.574902 44.231214 
L 21.771255 49.806599 
L 21.980815 55.381983 
L 22.204894 60.957368 
L 22.444985 66.532752 
L 22.702788 72.108137 
L 22.98025 77.683522 
L 23.093591 79.851878 
L 23.236631 83.258906 
L 23.486521 88.834291 
L 23.758946 94.409675 
L 24.057024 99.98506 
L 24.384418 105.560445 
L 24.745462 111.135829 
L 25.145309 116.711214 
L 25.590136 122.286599 
L 26.087405 127.861983 
L 26.646204 133.437368 
L 27.277706 139.012752 
L 27.995794 144.588137 
L 28.817914 150.163522 
L 29.766276 155.738906 
L 29.926244 156.610249 
L 30.757849 161.314291 
L 31.897149 166.889675 
L 33.245306 172.46506 
L 34.858714 178.040445 
L 36.758897 183.475819 
L 36.809449 183.615829 
L 39.005174 189.191214 
L 41.699192 194.766599 
L 43.59155 198.099864 
L 44.936321 200.341983 
L 48.732737 205.917368 
L 50.424203 208.125477 
L 53.037261 211.492752 
L 57.256856 216.484866 
L 57.709316 217.068137 
L 61.950723 222.643522 
L 64.089509 225.528838 
L 65.616002 228.218906 
" style="fill:none;stroke:#000000;stroke-dasharray:5.55,2.4;stroke-dashoffset:0;stroke-width:1.5;"/>
    <path clip-path="url(#pf07d7580df)" d="M 230.99313 10.778906 
L 234.905835 14.587666 
L 236.667345 16.354291 
L 241.738489 21.161009 
L 242.55489 21.929675 
L 248.571142 27.454984 
L 248.62759 27.50506 
L 254.692349 33.080445 
L 255.403795 33.739414 
L 260.952692 38.655829 
L 262.236448 39.853042 
L 267.268566 44.231214 
L 269.069101 45.970253 
L 273.351851 49.806599 
L 275.901754 52.518384 
L 278.735598 55.381983 
L 282.734407 60.661766 
L 282.957678 60.957368 
L 282.734407 62.461967 
L 275.901754 64.514628 
L 269.069101 61.998903 
L 267.141704 60.957368 
L 262.236448 58.197396 
L 257.512146 55.381983 
L 255.403795 54.075557 
L 248.918405 49.806599 
L 248.571142 49.571711 
L 241.738489 44.474581 
L 241.436647 44.231214 
L 234.905835 38.918026 
L 234.603787 38.655829 
L 228.291142 33.080445 
L 228.073182 32.890203 
L 222.599473 27.50506 
L 221.240529 26.218791 
L 217.207982 21.929675 
L 214.407876 19.062909 
L 212.021386 16.354291 
L 207.575223 11.441059 
L 207.021569 10.778906 
" style="fill:none;stroke:#000000;stroke-dasharray:5.55,2.4;stroke-dashoffset:0;stroke-width:1.5;"/>
    <path clip-path="url(#pf07d7580df)" d="M 234.905835 206.268644 
L 230.615857 205.917368 
L 228.073182 205.635809 
L 221.240529 204.747557 
L 214.407876 203.73967 
L 207.575223 202.592367 
L 200.74257 201.273627 
L 196.540631 200.341983 
L 193.909917 199.520661 
L 187.077264 197.164587 
L 181.259924 194.766599 
L 180.244611 194.115546 
L 173.809247 189.191214 
L 173.411958 188.617748 
L 170.60085 183.615829 
L 170.036628 178.040445 
L 173.411958 172.575665 
L 173.636838 172.46506 
L 180.244611 171.240943 
L 187.077264 171.649117 
L 192.500513 172.46506 
L 193.909917 172.702275 
L 200.74257 174.23317 
L 207.575223 175.723548 
L 214.407876 177.159697 
L 218.534542 178.040445 
L 221.240529 178.722486 
L 228.073182 180.408699 
L 234.905835 181.942364 
L 241.738489 183.384402 
L 242.82176 183.615829 
L 248.571142 185.190955 
L 255.403795 186.894637 
L 262.236448 188.501548 
L 265.09851 189.191214 
L 269.069101 190.686808 
L 275.901754 193.29768 
L 279.2201 194.766599 
L 282.734407 199.132743 
L 283.54611 200.341983 
L 282.734407 201.416771 
L 276.106554 205.917368 
L 275.901754 205.964133 
L 269.069101 206.77748 
L 262.236448 207.098016 
L 255.403795 207.139257 
L 248.571142 206.993365 
L 241.738489 206.698131 
L 234.905835 206.268644 
" style="fill:none;stroke:#000000;stroke-dasharray:5.55,2.4;stroke-dashoffset:0;stroke-width:1.5;"/>
    <path clip-path="url(#pf07d7580df)" d="M 269.069101 134.387968 
L 264.686918 133.437368 
L 262.236448 132.758239 
L 255.403795 130.52057 
L 248.571142 128.313491 
L 247.375623 127.861983 
L 241.738489 125.408805 
L 234.905835 122.593315 
L 234.235359 122.286599 
L 228.073182 119.095834 
L 223.337795 116.711214 
L 221.240529 115.483048 
L 214.407876 111.55806 
L 213.702578 111.135829 
L 207.575223 107.004642 
L 205.419078 105.560445 
L 200.74257 102.013237 
L 198.054291 99.98506 
L 193.909917 96.448873 
L 191.527387 94.409675 
L 187.077264 90.1264 
L 185.764303 88.834291 
L 180.804205 83.258906 
L 180.244611 82.528301 
L 176.900664 77.683522 
L 173.411958 72.306426 
L 173.30088 72.108137 
L 171.318128 66.532752 
L 170.510285 60.957368 
L 173.411958 56.392387 
L 180.244611 59.673647 
L 181.771587 60.957368 
L 187.077264 64.637926 
L 189.326591 66.532752 
L 193.909917 69.88045 
L 196.671346 72.108137 
L 200.74257 75.073269 
L 204.177934 77.683522 
L 207.575223 80.10007 
L 212.016964 83.258906 
L 214.407876 84.90948 
L 220.315585 88.834291 
L 221.240529 89.455439 
L 228.073182 93.873825 
L 228.932278 94.409675 
L 234.905835 98.265061 
L 237.848277 99.98506 
L 241.738489 102.451818 
L 247.350639 105.560445 
L 248.571142 106.345627 
L 255.403795 110.248304 
L 257.111927 111.135829 
L 262.236448 114.313805 
L 266.792394 116.711214 
L 269.069101 118.329545 
L 275.680932 122.286599 
L 275.901754 122.515173 
L 281.771302 127.861983 
L 282.734407 131.94719 
L 283.092264 133.437368 
L 282.734407 133.7188 
L 275.901754 135.073965 
L 269.069101 134.387968 
" style="fill:none;stroke:#000000;stroke-dasharray:5.55,2.4;stroke-dashoffset:0;stroke-width:1.5;"/>
   </g>
   <g id="LineCollection_4">
    <path clip-path="url(#pf07d7580df)" d="M 25.389337 10.778906 
L 25.623076 16.354291 
L 25.870466 21.929675 
L 26.132812 27.50506 
L 26.411568 33.080445 
L 26.708361 38.655829 
L 27.025013 44.231214 
L 27.363573 49.806599 
L 27.726353 55.381983 
L 28.115971 60.957368 
L 28.535402 66.532752 
L 28.988039 72.108137 
L 29.477766 77.683522 
L 29.926244 82.422755 
L 30.002809 83.258906 
L 30.533424 88.834291 
L 31.106162 94.409675 
L 31.727473 99.98506 
L 32.404889 105.560445 
L 33.147266 111.135829 
L 33.965089 116.711214 
L 34.870852 122.286599 
L 35.87956 127.861983 
L 36.758897 132.26223 
L 37.002782 133.437368 
L 38.231454 139.012752 
L 39.60724 144.588137 
L 41.161315 150.163522 
L 42.932277 155.738906 
L 43.59155 157.644678 
L 44.965699 161.314291 
L 47.287344 166.889675 
L 49.960603 172.46506 
L 50.424203 173.362384 
L 53.068581 178.040445 
L 56.624818 183.615829 
L 57.256856 184.542992 
L 60.569514 189.191214 
L 64.089509 193.764278 
L 64.817531 194.766599 
L 68.892598 200.341983 
L 70.922162 203.093177 
L 72.603202 205.917368 
L 75.767439 211.492752 
L 77.754815 215.235523 
L 78.47616 217.068137 
L 80.420224 222.643522 
L 82.073901 228.218906 
" style="fill:none;stroke:#000000;stroke-dasharray:5.55,2.4;stroke-dashoffset:0;stroke-width:1.5;"/>
    <path clip-path="url(#pf07d7580df)" d="M 235.807986 10.778906 
L 241.52224 16.354291 
L 241.738489 16.559263 
L 247.442415 21.929675 
L 248.571142 22.966295 
L 253.687467 27.50506 
L 255.403795 29.031406 
L 260.219959 33.080445 
L 262.236448 34.825294 
L 266.984261 38.655829 
L 269.069101 40.436854 
L 273.835883 44.231214 
L 275.901754 46.032092 
L 280.459866 49.806599 
L 282.734407 51.96031 
L 286.395764 55.381983 
L 289.56706 58.975725 
L 291.27071 60.957368 
L 294.413525 66.532752 
L 294.910885 72.108137 
L 289.56706 74.944136 
L 282.734407 73.801891 
L 278.586866 72.108137 
L 275.901754 71.006216 
L 269.069101 67.472278 
L 267.534842 66.532752 
L 262.236448 63.326929 
L 258.605268 60.957368 
L 255.403795 58.863896 
L 250.409888 55.381983 
L 248.571142 54.088841 
L 242.851273 49.806599 
L 241.738489 48.965081 
L 235.867202 44.231214 
L 234.905835 43.449087 
L 229.384047 38.655829 
L 228.073182 37.508512 
L 223.318978 33.080445 
L 221.240529 31.124232 
L 217.597426 27.50506 
L 214.407876 24.278856 
L 212.173117 21.929675 
L 207.575223 16.934642 
L 207.04839 16.354291 
L 202.356013 10.778906 
" style="fill:none;stroke:#000000;stroke-dasharray:5.55,2.4;stroke-dashoffset:0;stroke-width:1.5;"/>
    <path clip-path="url(#pf07d7580df)" d="M 248.571142 211.689684 
L 244.868929 211.492752 
L 241.738489 211.302599 
L 234.905835 210.816826 
L 228.073182 210.265699 
L 221.240529 209.644337 
L 214.407876 208.943919 
L 207.575223 208.151136 
L 200.74257 207.246269 
L 193.909917 206.195927 
L 192.29635 205.917368 
L 187.077264 204.818149 
L 180.244611 203.04854 
L 173.411958 200.541686 
L 173.023666 200.341983 
L 166.579305 195.968474 
L 165.358847 194.766599 
L 161.304897 189.191214 
L 159.746652 185.824487 
L 158.945196 183.615829 
L 157.946278 178.040445 
L 158.015503 172.46506 
L 159.411848 166.889675 
L 159.746652 166.243907 
L 165.798403 161.314291 
L 166.579305 160.971164 
L 173.411958 160.807084 
L 175.787717 161.314291 
L 180.244611 162.207574 
L 187.077264 164.143924 
L 193.909917 166.127564 
L 196.402963 166.889675 
L 200.74257 168.195079 
L 207.575223 170.163723 
L 214.407876 171.992683 
L 216.164047 172.46506 
L 221.240529 173.868116 
L 228.073182 175.615754 
L 234.905835 177.240753 
L 238.357283 178.040445 
L 241.738489 178.896274 
L 248.571142 180.511923 
L 255.403795 182.015292 
L 262.236448 183.474005 
L 262.89903 183.615829 
L 269.069101 185.174758 
L 275.901754 186.954039 
L 282.734407 189.068076 
L 283.045731 189.191214 
L 289.56706 192.857279 
L 292.126 194.766599 
L 295.400595 200.341983 
L 293.697749 205.917368 
L 289.56706 208.832176 
L 282.734407 211.248614 
L 281.1342 211.492752 
L 275.901754 212.029165 
L 269.069101 212.229796 
L 262.236448 212.171877 
L 255.403795 211.976153 
L 248.571142 211.689684 
" style="fill:none;stroke:#000000;stroke-dasharray:5.55,2.4;stroke-dashoffset:0;stroke-width:1.5;"/>
    <path clip-path="url(#pf07d7580df)" d="M 269.069101 139.851019 
L 266.28686 139.012752 
L 262.236448 137.716254 
L 255.403795 135.400002 
L 249.96745 133.437368 
L 248.571142 132.889864 
L 241.738489 130.088916 
L 236.483892 127.861983 
L 234.905835 127.132888 
L 228.073182 123.901262 
L 224.797078 122.286599 
L 221.240529 120.384237 
L 214.437601 116.711214 
L 214.407876 116.693388 
L 207.575223 112.53974 
L 205.301815 111.135829 
L 200.74257 108.038499 
L 197.113914 105.560445 
L 193.909917 103.127005 
L 189.780266 99.98506 
L 187.077264 97.681364 
L 183.272562 94.409675 
L 180.244611 91.474985 
L 177.6009 88.834291 
L 173.411958 84.079502 
L 172.731722 83.258906 
L 168.774011 77.683522 
L 166.579305 74.205968 
L 165.396983 72.108137 
L 162.82169 66.532752 
L 160.600375 60.957368 
L 159.746652 58.291261 
L 158.992043 55.381983 
L 158.181064 49.806599 
L 158.176104 44.231214 
L 159.712168 38.655829 
L 159.746652 38.602324 
L 160.118963 38.655829 
L 166.579305 39.2909 
L 173.181147 44.231214 
L 173.411958 44.362025 
L 179.170585 49.806599 
L 180.244611 50.629606 
L 185.101598 55.381983 
L 187.077264 57.026073 
L 191.230537 60.957368 
L 193.909917 63.193224 
L 197.652245 66.532752 
L 200.74257 69.033453 
L 204.433171 72.108137 
L 207.575223 74.539162 
L 211.632676 77.683522 
L 214.407876 79.725925 
L 219.314647 83.258906 
L 221.240529 84.607062 
L 227.556331 88.834291 
L 228.073182 89.179979 
L 234.905835 93.56197 
L 236.295719 94.409675 
L 241.738489 97.771246 
L 245.622617 99.98506 
L 248.571142 101.749851 
L 255.403795 105.437111 
L 255.642784 105.560445 
L 262.236448 109.183465 
L 266.130749 111.135829 
L 269.069101 112.80615 
L 275.901754 116.360984 
L 276.563767 116.711214 
L 282.734407 120.565411 
L 285.382351 122.286599 
L 289.56706 125.916553 
L 291.638609 127.861983 
L 295.001397 133.437368 
L 294.398046 139.012752 
L 289.56706 141.888073 
L 282.734407 142.404284 
L 275.901754 141.442687 
L 269.069101 139.851019 
" style="fill:none;stroke:#000000;stroke-dasharray:5.55,2.4;stroke-dashoffset:0;stroke-width:1.5;"/>
   </g>
   <g id="LineCollection_5">
    <path clip-path="url(#pf07d7580df)" d="M 29.586082 10.778906 
L 29.926244 16.070784 
L 29.94581 16.354291 
L 30.337483 21.929675 
L 30.743718 27.50506 
L 31.166869 33.080445 
L 31.609491 38.655829 
L 32.074386 44.231214 
L 32.564647 49.806599 
L 33.083712 55.381983 
L 33.635426 60.957368 
L 34.224118 66.532752 
L 34.854687 72.108137 
L 35.53271 77.683522 
L 36.264571 83.258906 
L 36.758897 86.787659 
L 37.075817 88.834291 
L 37.974255 94.409675 
L 38.932292 99.98506 
L 39.961673 105.560445 
L 41.07589 111.135829 
L 42.290621 116.711214 
L 43.59155 122.156059 
L 43.627198 122.286599 
L 45.207831 127.861983 
L 46.919965 133.437368 
L 48.795579 139.012752 
L 50.424203 143.434663 
L 50.9169 144.588137 
L 53.416034 150.163522 
L 56.150497 155.738906 
L 57.256856 157.844604 
L 59.318393 161.314291 
L 62.832209 166.889675 
L 64.089509 168.779515 
L 66.632259 172.46506 
L 70.611477 178.040445 
L 70.922162 178.466603 
L 74.287451 183.615829 
L 77.754815 188.940419 
L 77.888011 189.191214 
L 80.754442 194.766599 
L 83.476152 200.341983 
L 84.587468 202.754951 
L 85.73484 205.917368 
L 87.573325 211.492752 
L 89.196572 217.068137 
L 90.589526 222.643522 
L 91.420121 226.660906 
L 91.687891 228.218906 
" style="fill:none;stroke:#000000;stroke-width:1.5;"/>
    <path clip-path="url(#pf07d7580df)" d="M 93.14625 10.778906 
L 93.065299 16.354291 
L 92.735579 21.929675 
L 92.069328 27.50506 
L 91.420121 30.890885 
L 88.72571 33.080445 
L 84.587468 34.939737 
L 83.48517 33.080445 
L 79.970795 27.50506 
L 77.754815 24.432175 
L 76.900325 21.929675 
L 75.031519 16.354291 
L 73.145397 10.778906 
" style="fill:none;stroke:#000000;stroke-width:1.5;"/>
    <path clip-path="url(#pf07d7580df)" d="M 239.950998 10.778906 
L 241.738489 12.513332 
L 245.875144 16.354291 
L 248.571142 18.848834 
L 252.113166 21.929675 
L 255.403795 24.826176 
L 258.680489 27.50506 
L 262.236448 30.487973 
L 265.579642 33.080445 
L 269.069101 35.89782 
L 272.737124 38.655829 
L 275.901754 41.178895 
L 279.912153 44.231214 
L 282.734407 46.565872 
L 286.679893 49.806599 
L 289.56706 52.475603 
L 292.621432 55.381983 
L 296.399713 59.635985 
L 297.53094 60.957368 
L 301.118327 66.532752 
L 303.232366 71.6198 
L 303.434112 72.108137 
L 303.352183 77.683522 
L 303.232366 77.901488 
L 296.399713 82.168739 
L 289.56706 81.489571 
L 282.734407 79.175984 
L 279.824934 77.683522 
L 275.901754 75.810938 
L 269.404537 72.108137 
L 269.069101 71.923701 
L 262.236448 67.67146 
L 260.581548 66.532752 
L 255.403795 63.088858 
L 252.434347 60.957368 
L 248.571142 58.221918 
L 244.807106 55.381983 
L 241.738489 53.06434 
L 237.651739 49.806599 
L 234.905835 47.590087 
L 230.925807 44.231214 
L 228.073182 41.767288 
L 224.587518 38.655829 
L 221.240529 35.560789 
L 218.603942 33.080445 
L 214.407876 28.92588 
L 212.965648 27.50506 
L 207.701609 21.929675 
L 207.575223 21.792373 
L 202.638619 16.354291 
L 200.74257 14.143128 
L 197.794725 10.778906 
" style="fill:none;stroke:#000000;stroke-width:1.5;"/>
    <path clip-path="url(#pf07d7580df)" d="M 303.704738 10.778906 
L 303.232366 12.974481 
L 299.401278 16.354291 
L 296.399713 16.951997 
L 294.854687 16.354291 
L 289.56706 14.544741 
L 283.252945 10.778906 
" style="fill:none;stroke:#000000;stroke-width:1.5;"/>
    <path clip-path="url(#pf07d7580df)" d="M 193.909917 211.896324 
L 189.874225 211.492752 
L 187.077264 211.183451 
L 180.244611 210.268766 
L 173.411958 208.853446 
L 166.579305 206.292496 
L 165.959378 205.917368 
L 159.746652 201.243308 
L 158.956567 200.341983 
L 155.092781 194.766599 
L 152.913999 190.34952 
L 152.449684 189.191214 
L 150.854034 183.615829 
L 149.907863 178.040445 
L 149.578613 172.46506 
L 149.915349 166.889675 
L 151.072087 161.314291 
L 152.913999 156.711224 
L 153.631813 155.738906 
L 159.746652 151.040646 
L 166.579305 150.727082 
L 173.411958 152.478462 
L 180.244611 155.006568 
L 181.907093 155.738906 
L 187.077264 157.757346 
L 193.909917 160.403767 
L 196.237441 161.314291 
L 200.74257 162.926796 
L 207.575223 165.237268 
L 212.663019 166.889675 
L 214.407876 167.428755 
L 221.240529 169.448939 
L 228.073182 171.327075 
L 232.350971 172.46506 
L 234.905835 173.13237 
L 241.738489 174.796008 
L 248.571142 176.345126 
L 255.403795 177.837952 
L 256.374899 178.040445 
L 262.236448 179.277259 
L 269.069101 180.647035 
L 275.901754 182.086511 
L 281.874051 183.615829 
L 282.734407 183.864788 
L 289.56706 186.363052 
L 294.913797 189.191214 
L 296.399713 190.293331 
L 301.003646 194.766599 
L 303.232366 199.428305 
L 303.611653 200.341983 
L 303.232366 204.632292 
L 303.091298 205.917368 
L 298.455956 211.492752 
L 296.399713 212.824189 
L 289.56706 215.379423 
L 282.734407 216.468901 
L 275.901754 216.759548 
L 269.069101 216.662344 
L 262.236448 216.400692 
L 255.403795 216.075505 
L 248.571142 215.721825 
L 241.738489 215.347091 
L 234.905835 214.950281 
L 228.073182 214.528502 
L 221.240529 214.078319 
L 214.407876 213.595819 
L 207.575223 213.076478 
L 200.74257 212.514281 
L 193.909917 211.896324 
" style="fill:none;stroke:#000000;stroke-width:1.5;"/>
    <path clip-path="url(#pf07d7580df)" d="M 275.901754 146.315469 
L 270.096595 144.588137 
L 269.069101 144.292791 
L 262.236448 142.029836 
L 255.403795 139.600451 
L 253.909209 139.012752 
L 248.571142 136.969516 
L 241.738489 134.231696 
L 239.904183 133.437368 
L 234.905835 131.270175 
L 228.073182 128.158692 
L 227.455498 127.861983 
L 221.240529 124.819558 
L 216.333094 122.286599 
L 214.407876 121.237838 
L 207.575223 117.440808 
L 206.29777 116.711214 
L 200.74257 113.332023 
L 197.216737 111.135829 
L 193.909917 108.893295 
L 189.044517 105.560445 
L 187.077264 104.067179 
L 181.742649 99.98506 
L 180.244611 98.694438 
L 175.38001 94.409675 
L 173.411958 92.42447 
L 170.02325 88.834291 
L 166.579305 84.565355 
L 165.598684 83.258906 
L 161.973839 77.683522 
L 159.746652 73.71096 
L 158.915093 72.108137 
L 156.451516 66.532752 
L 154.372847 60.957368 
L 152.913999 56.466126 
L 152.588808 55.381983 
L 151.301521 49.806599 
L 150.386383 44.231214 
L 149.874358 38.655829 
L 149.895881 33.080445 
L 150.790969 27.50506 
L 152.913999 22.814291 
L 159.746652 23.546521 
L 164.329499 27.50506 
L 166.579305 29.023001 
L 170.222715 33.080445 
L 173.411958 36.048512 
L 175.62257 38.655829 
L 180.244611 43.432067 
L 180.935591 44.231214 
L 186.183421 49.806599 
L 187.077264 50.64822 
L 191.691678 55.381983 
L 193.909917 57.428804 
L 197.584434 60.957368 
L 200.74257 63.739569 
L 203.872378 66.532752 
L 207.575223 69.609616 
L 210.596214 72.108137 
L 214.407876 75.079757 
L 217.809093 77.683522 
L 221.240529 80.190174 
L 225.571911 83.258906 
L 228.073182 84.974469 
L 233.953453 88.834291 
L 234.905835 89.451067 
L 241.738489 93.628964 
L 243.070176 94.409675 
L 248.571142 97.595723 
L 252.943534 99.98506 
L 255.403795 101.354787 
L 262.236448 104.857212 
L 263.671471 105.560445 
L 269.069101 108.272437 
L 274.931584 111.135829 
L 275.901754 111.651099 
L 282.734407 115.189693 
L 285.390746 116.711214 
L 289.56706 119.419344 
L 293.460693 122.286599 
L 296.399713 125.032028 
L 299.107826 127.861983 
L 302.603021 133.437368 
L 303.232366 136.440775 
L 303.753232 139.012752 
L 303.232366 140.701666 
L 301.185117 144.588137 
L 296.399713 147.428722 
L 289.56706 148.434465 
L 282.734407 147.799801 
L 275.901754 146.315469 
" style="fill:none;stroke:#000000;stroke-width:1.5;"/>
   </g>
   <g id="LineCollection_6">
    <path clip-path="url(#pf07d7580df)" d="M 34.004655 10.778906 
L 34.451648 16.354291 
L 34.920275 21.929675 
L 35.413209 27.50506 
L 35.933387 33.080445 
L 36.484048 38.655829 
L 36.758897 41.310229 
L 37.142366 44.231214 
L 37.885306 49.806599 
L 38.645655 55.381983 
L 39.430523 60.957368 
L 40.247242 66.532752 
L 41.103548 72.108137 
L 42.007773 77.683522 
L 42.969051 83.258906 
L 43.59155 86.66828 
L 44.093993 88.834291 
L 45.415528 94.409675 
L 46.783187 99.98506 
L 48.217247 105.560445 
L 49.739036 111.135829 
L 50.424203 113.510705 
L 51.598801 116.711214 
L 53.695947 122.286599 
L 55.882721 127.861983 
L 57.256856 131.188069 
L 58.425793 133.437368 
L 61.370141 139.012752 
L 64.089509 144.007847 
L 64.460651 144.588137 
L 68.051293 150.163522 
L 70.922162 154.601296 
L 71.662904 155.738906 
L 75.276195 161.314291 
L 77.754815 165.182663 
L 78.705498 166.889675 
L 81.76668 172.46506 
L 84.587468 177.778897 
L 84.702798 178.040445 
L 87.122267 183.615829 
L 89.404823 189.191214 
L 91.420121 194.41699 
L 91.537054 194.766599 
L 93.298341 200.341983 
L 94.882148 205.917368 
L 96.283901 211.492752 
L 97.49772 217.068137 
L 98.252774 221.172469 
L 98.508219 222.643522 
L 99.293154 228.218906 
" style="fill:none;stroke:#000000;stroke-width:1.5;"/>
    <path clip-path="url(#pf07d7580df)" d="M 99.542119 10.778906 
L 99.933167 16.354291 
L 100.207981 21.929675 
L 100.348229 27.50506 
L 100.327592 33.080445 
L 100.109972 38.655829 
L 99.647179 44.231214 
L 98.876229 49.806599 
L 98.252774 52.948919 
L 97.164419 55.381983 
L 93.431558 60.957368 
L 91.420121 63.149687 
L 86.920794 60.957368 
L 84.587468 59.9158 
L 81.895651 55.381983 
L 78.692416 49.806599 
L 77.754815 48.198369 
L 76.272446 44.231214 
L 74.314253 38.655829 
L 72.455433 33.080445 
L 70.922162 28.397654 
L 70.673779 27.50506 
L 69.177014 21.929675 
L 67.796384 16.354291 
L 66.496726 10.778906 
" style="fill:none;stroke:#000000;stroke-width:1.5;"/>
    <path clip-path="url(#pf07d7580df)" d="M 157.732186 10.778906 
L 159.746652 12.050149 
L 163.497608 16.354291 
L 166.579305 19.459789 
L 168.476032 21.929675 
L 173.039009 27.50506 
L 173.411958 27.905333 
L 177.509487 33.080445 
L 180.244611 36.258133 
L 182.193633 38.655829 
L 186.974404 44.231214 
L 187.077264 44.338898 
L 192.068844 49.806599 
L 193.909917 51.671627 
L 197.54133 55.381983 
L 200.74257 58.44573 
L 203.394786 60.957368 
L 207.575223 64.689667 
L 209.681184 66.532752 
L 214.407876 70.443022 
L 216.470137 72.108137 
L 221.240529 75.754223 
L 223.833004 77.683522 
L 228.073182 80.679 
L 231.83446 83.258906 
L 234.905835 85.272107 
L 240.532671 88.834291 
L 241.738489 89.573057 
L 248.571142 93.48608 
L 250.243296 94.409675 
L 255.403795 97.128093 
L 260.955563 99.98506 
L 262.236448 100.6327 
L 269.069101 103.743821 
L 272.965872 105.560445 
L 275.901754 106.90011 
L 282.734407 110.076724 
L 284.698783 111.135829 
L 289.56706 113.734934 
L 294.023164 116.711214 
L 296.399713 118.439433 
L 300.847191 122.286599 
L 303.232366 124.823505 
L 305.837306 127.861983 
L 309.126096 133.437368 
L 310.065019 136.718769 
L 310.753496 139.012752 
L 310.254564 144.588137 
L 310.065019 144.958467 
L 306.079014 150.163522 
L 303.232366 152.054051 
L 296.399713 154.021246 
L 289.56706 154.088308 
L 282.734407 152.983674 
L 275.901754 151.050697 
L 273.548737 150.163522 
L 269.069101 148.771917 
L 262.236448 146.366452 
L 257.815963 144.588137 
L 255.403795 143.722157 
L 248.571142 141.132853 
L 243.564511 139.012752 
L 241.738489 138.286936 
L 234.905835 135.466724 
L 230.457508 133.437368 
L 228.073182 132.381929 
L 221.240529 129.237603 
L 218.453494 127.861983 
L 214.407876 125.876258 
L 207.60664 122.286599 
L 207.575223 122.269443 
L 200.74257 118.617447 
L 197.363935 116.711214 
L 193.909917 114.653859 
L 188.175352 111.135829 
L 187.077264 110.403643 
L 180.244611 105.813874 
L 179.870996 105.560445 
L 173.411958 100.59566 
L 172.678532 99.98506 
L 166.903778 94.409675 
L 166.579305 94.050211 
L 162.221248 88.834291 
L 159.746652 85.215791 
L 158.501612 83.258906 
L 155.403196 77.683522 
L 152.913999 72.300727 
L 152.826337 72.108137 
L 150.535949 66.532752 
L 148.644017 60.957368 
L 147.031084 55.381983 
L 146.081346 51.620602 
L 145.608416 49.806599 
L 144.440803 44.231214 
L 143.557662 38.655829 
L 142.945689 33.080445 
L 142.626741 27.50506 
L 142.673271 21.929675 
L 143.245842 16.354291 
L 144.683095 10.778906 
" style="fill:none;stroke:#000000;stroke-width:1.5;"/>
    <path clip-path="url(#pf07d7580df)" d="M 244.395892 10.778906 
L 248.571142 14.698709 
L 250.524178 16.354291 
L 255.403795 20.633534 
L 257.046398 21.929675 
L 262.236448 26.174141 
L 264.03389 27.50506 
L 269.069101 31.374129 
L 271.469073 33.080445 
L 275.901754 36.363838 
L 279.108975 38.655829 
L 282.734407 41.382195 
L 286.453044 44.231214 
L 289.56706 46.79152 
L 293.016868 49.806599 
L 296.399713 53.087288 
L 298.617173 55.381983 
L 303.221338 60.957368 
L 303.232366 60.973771 
L 306.966199 66.532752 
L 309.557193 72.108137 
L 310.065019 74.478044 
L 310.806675 77.683522 
L 310.065019 82.420067 
L 309.849683 83.258906 
L 303.232366 88.307094 
L 296.399713 88.685204 
L 289.56706 87.14557 
L 282.734407 84.286197 
L 281.029229 83.258906 
L 275.901754 80.627667 
L 271.302307 77.683522 
L 269.069101 76.39377 
L 262.615823 72.108137 
L 262.236448 71.871458 
L 255.403795 67.238531 
L 254.456135 66.532752 
L 248.571142 62.360792 
L 246.735289 60.957368 
L 241.738489 57.213042 
L 239.426746 55.381983 
L 234.905835 51.785586 
L 232.50614 49.806599 
L 228.073182 46.052787 
L 225.953752 44.231214 
L 221.240529 39.976493 
L 219.762119 38.655829 
L 214.407876 33.500496 
L 213.952411 33.080445 
L 208.36729 27.50506 
L 207.575223 26.665574 
L 202.941209 21.929675 
L 200.74257 19.43665 
L 197.796237 16.354291 
L 193.909917 11.642927 
L 193.08834 10.778906 
" style="fill:none;stroke:#000000;stroke-width:1.5;"/>
    <path clip-path="url(#pf07d7580df)" d="M 309.89045 10.778906 
L 310.065019 11.893187 
L 310.800763 16.354291 
L 310.065019 19.737429 
L 308.853094 21.929675 
L 303.232366 24.515784 
L 296.399713 23.441265 
L 293.453142 21.929675 
L 289.56706 20.202817 
L 284.004106 16.354291 
L 282.734407 15.563827 
L 276.85267 10.778906 
" style="fill:none;stroke:#000000;stroke-width:1.5;"/>
    <path clip-path="url(#pf07d7580df)" d="M 180.244611 217.393064 
L 174.781351 217.068137 
L 173.411958 216.984905 
L 166.579305 215.798602 
L 159.746652 212.721021 
L 158.261281 211.492752 
L 152.913999 206.190205 
L 152.723159 205.917368 
L 149.353375 200.341983 
L 146.849998 194.766599 
L 146.081346 192.539698 
L 145.029358 189.191214 
L 143.748808 183.615829 
L 142.912465 178.040445 
L 142.480709 172.46506 
L 142.452212 166.889675 
L 142.867876 161.314291 
L 143.821397 155.738906 
L 145.478855 150.163522 
L 146.081346 148.735911 
L 148.966076 144.588137 
L 152.913999 140.885728 
L 159.746652 139.57736 
L 166.579305 141.186133 
L 173.411958 144.330273 
L 173.832186 144.588137 
L 180.244611 147.832573 
L 184.44024 150.163522 
L 187.077264 151.403827 
L 193.909917 154.668607 
L 196.133847 155.738906 
L 200.74257 157.64205 
L 207.575223 160.349494 
L 210.040763 161.314291 
L 214.407876 162.808712 
L 221.240529 165.014275 
L 227.186135 166.889675 
L 228.073182 167.142722 
L 234.905835 168.951355 
L 241.738489 170.647709 
L 248.571142 172.302583 
L 249.293547 172.46506 
L 255.403795 173.690674 
L 262.236448 174.9323 
L 269.069101 176.114141 
L 275.901754 177.373005 
L 278.946527 178.040445 
L 282.734407 178.803097 
L 289.56706 180.67839 
L 296.075585 183.615829 
L 296.399713 183.775836 
L 303.232366 188.49988 
L 303.994853 189.191214 
L 308.49939 194.766599 
L 310.065019 198.808277 
L 310.636176 200.341983 
L 310.505765 205.917368 
L 310.065019 206.943274 
L 307.767607 211.492752 
L 303.232366 215.779894 
L 301.130506 217.068137 
L 296.399713 219.373534 
L 289.56706 221.031031 
L 282.734407 221.56518 
L 275.901754 221.492918 
L 269.069101 221.149941 
L 262.236448 220.722494 
L 255.403795 220.292878 
L 248.571142 219.886382 
L 241.738489 219.505522 
L 234.905835 219.147776 
L 228.073182 218.811764 
L 221.240529 218.4986 
L 214.407876 218.212332 
L 207.575223 217.960655 
L 200.74257 217.755431 
L 193.909917 217.609115 
L 187.077264 217.515319 
L 180.244611 217.393064 
" style="fill:none;stroke:#000000;stroke-width:1.5;"/>
   </g>
   <g id="LineCollection_7">
    <path clip-path="url(#pf07d7580df)" d="M 346.435423 228.218906 
L 349.760556 222.643522 
L 351.060938 221.362055 
" style="fill:none;stroke:#000000;stroke-width:1.5;"/>
    <path clip-path="url(#pf07d7580df)" d="M 351.060938 190.434807 
L 349.895759 189.191214 
L 346.638399 183.615829 
L 345.601528 178.040445 
L 346.62187 172.46506 
L 350.813051 166.889675 
L 351.060938 166.684429 
" style="fill:none;stroke:#000000;stroke-width:1.5;"/>
    <path clip-path="url(#pf07d7580df)" d="M 351.060938 135.737445 
L 349.199413 133.437368 
L 346.500247 127.861983 
L 345.624466 122.286599 
L 346.886497 116.711214 
L 351.060938 112.126485 
" style="fill:none;stroke:#000000;stroke-width:1.5;"/>
    <path clip-path="url(#pf07d7580df)" d="M 351.060938 81.053491 
L 348.689924 77.683522 
L 346.406643 72.108137 
L 345.671909 66.532752 
L 347.268569 60.957368 
L 351.060938 57.499791 
" style="fill:none;stroke:#000000;stroke-width:1.5;"/>
    <path clip-path="url(#pf07d7580df)" d="M 351.060938 26.420807 
L 348.309837 21.929675 
L 346.349552 16.354291 
L 345.748064 10.778906 
" style="fill:none;stroke:#000000;stroke-width:1.5;"/>
    <path clip-path="url(#pf07d7580df)" d="M 39.28475 10.778906 
L 39.931145 16.354291 
L 40.579389 21.929675 
L 41.236376 27.50506 
L 41.9085 33.080445 
L 42.601896 38.655829 
L 43.322653 44.231214 
L 43.59155 46.221048 
L 44.390933 49.806599 
L 45.583595 55.381983 
L 46.733355 60.957368 
L 47.867728 66.532752 
L 49.009014 72.108137 
L 50.17647 77.683522 
L 50.424203 78.815539 
L 52.004572 83.258906 
L 53.858639 88.834291 
L 55.635183 94.409675 
L 57.256856 99.528395 
L 57.506812 99.98506 
L 60.404758 105.560445 
L 62.984724 111.135829 
L 64.089509 113.556672 
L 66.306256 116.711214 
L 69.709765 122.286599 
L 70.922162 124.381903 
L 73.350228 127.861983 
L 76.726019 133.437368 
L 77.754815 135.199558 
L 79.777493 139.012752 
L 82.542972 144.588137 
L 84.587468 148.896152 
L 85.086632 150.163522 
L 87.359849 155.738906 
L 89.553027 161.314291 
L 91.420121 166.146938 
L 91.675636 166.889675 
L 93.636213 172.46506 
L 95.507831 178.040445 
L 97.285528 183.615829 
L 98.252774 186.769638 
L 98.994727 189.191214 
L 100.592724 194.766599 
L 102.018657 200.341983 
L 103.274305 205.917368 
L 104.361414 211.492752 
L 105.085427 215.845587 
L 105.312984 217.068137 
L 106.171351 222.643522 
L 106.826283 228.218906 
" style="fill:none;stroke:#000000;stroke-width:1.5;"/>
    <path clip-path="url(#pf07d7580df)" d="M 105.22172 10.778906 
L 105.926595 16.354291 
L 106.50802 21.929675 
L 106.972005 27.50506 
L 107.31879 33.080445 
L 107.54304 38.655829 
L 107.633578 44.231214 
L 107.572647 49.806599 
L 107.334693 55.381983 
L 106.884602 60.957368 
L 106.175343 66.532752 
L 105.145027 72.108137 
L 105.085427 72.36556 
L 103.25883 77.683522 
L 100.651492 83.258906 
L 98.252774 87.371031 
L 95.758108 88.834291 
L 91.420121 91.464667 
L 84.843297 88.834291 
L 84.587468 88.724546 
L 80.666978 83.258906 
L 77.754815 78.117348 
L 77.568318 77.683522 
L 75.256871 72.108137 
L 73.325688 66.532752 
L 71.620083 60.957368 
L 70.922162 58.624216 
L 69.921692 55.381983 
L 68.363516 49.806599 
L 67.000976 44.231214 
L 65.771215 38.655829 
L 64.632155 33.080445 
L 64.089509 30.384892 
L 63.379865 27.50506 
L 62.124812 21.929675 
L 61.026587 16.354291 
L 60.041433 10.778906 
" style="fill:none;stroke:#000000;stroke-width:1.5;"/>
    <path clip-path="url(#pf07d7580df)" d="M 169.107585 10.778906 
L 172.578698 16.354291 
L 173.411958 17.529055 
L 176.540308 21.929675 
L 180.110751 27.50506 
L 180.244611 27.681718 
L 184.383158 33.080445 
L 187.077264 36.678417 
L 188.674387 38.655829 
L 193.157345 44.231214 
L 193.909917 45.076323 
L 198.274949 49.806599 
L 200.74257 52.406623 
L 203.709105 55.381983 
L 207.575223 59.142421 
L 209.538206 60.957368 
L 214.407876 65.282153 
L 215.879839 66.532752 
L 221.240529 70.850888 
L 222.855004 72.108137 
L 228.073182 75.913186 
L 230.556861 77.683522 
L 234.905835 80.56303 
L 239.03674 83.258906 
L 241.738489 84.895616 
L 248.315117 88.834291 
L 248.571142 88.977827 
L 255.403795 92.275159 
L 259.658793 94.409675 
L 262.236448 95.571076 
L 269.069101 98.288241 
L 273.086508 99.98506 
L 275.901754 100.993822 
L 282.734407 103.30986 
L 286.949952 105.560445 
L 289.56706 106.682307 
L 296.116491 111.135829 
L 296.399713 111.312558 
L 302.825282 116.711214 
L 303.232366 117.0682 
L 308.315975 122.286599 
L 310.065019 124.465881 
L 312.757184 127.861983 
L 315.819754 133.437368 
L 316.897672 136.975913 
L 317.635021 139.012752 
L 317.916465 144.588137 
L 316.897672 147.975439 
L 316.154807 150.163522 
L 311.176995 155.738906 
L 310.065019 156.585824 
L 303.232366 159.883141 
L 296.399713 161.146394 
L 289.56706 160.967538 
L 282.734407 159.616968 
L 275.901754 157.045838 
L 273.516182 155.738906 
L 269.069101 154.222952 
L 262.236448 151.386078 
L 259.7635 150.163522 
L 255.403795 148.579058 
L 248.571142 145.775249 
L 246.027104 144.588137 
L 241.738489 142.963909 
L 234.905835 140.080465 
L 232.614814 139.012752 
L 228.073182 137.180009 
L 221.240529 134.089 
L 219.865247 133.437368 
L 214.407876 131.091562 
L 207.860688 127.861983 
L 207.575223 127.725256 
L 200.74257 124.661365 
L 195.963765 122.286599 
L 193.909917 121.262698 
L 187.077264 117.989295 
L 184.368154 116.711214 
L 180.244611 114.672797 
L 173.919372 111.135829 
L 173.411958 110.822017 
L 166.579305 106.143219 
L 165.966187 105.560445 
L 160.642055 99.98506 
L 159.746652 98.876424 
L 156.663566 94.409675 
L 153.567661 88.834291 
L 152.913999 87.57433 
L 150.751062 83.258906 
L 148.364824 77.683522 
L 146.360664 72.108137 
L 146.081346 71.282326 
L 144.312906 66.532752 
L 142.573776 60.957368 
L 141.11725 55.381983 
L 139.869918 49.806599 
L 139.248693 46.655876 
L 138.657688 44.231214 
L 137.548632 38.655829 
L 136.690823 33.080445 
L 136.04816 27.50506 
L 135.605016 21.929675 
L 135.366586 16.354291 
L 135.363838 10.778906 
" style="fill:none;stroke:#000000;stroke-width:1.5;"/>
    <path clip-path="url(#pf07d7580df)" d="M 249.402031 10.778906 
L 255.403795 15.968263 
L 255.939562 16.354291 
L 262.236448 21.222777 
L 263.30699 21.929675 
L 269.069101 25.928942 
L 271.575648 27.50506 
L 275.901754 30.307208 
L 280.191119 33.080445 
L 282.734407 34.752608 
L 288.095755 38.655829 
L 289.56706 39.745523 
L 294.727324 44.231214 
L 296.399713 45.737437 
L 300.298252 49.806599 
L 303.232366 53.112615 
L 305.108575 55.381983 
L 309.26788 60.957368 
L 310.065019 62.209946 
L 313.043671 66.532752 
L 315.728407 72.108137 
L 316.897672 76.046218 
L 317.503445 77.683522 
L 317.956551 83.258906 
L 316.897672 87.185096 
L 316.29575 88.834291 
L 310.065019 94.270598 
L 309.588268 94.409675 
L 303.232366 96.201873 
L 296.399713 96.181338 
L 291.189958 94.409675 
L 289.56706 94.032178 
L 282.734407 91.053283 
L 279.860125 88.834291 
L 275.901754 86.657025 
L 271.404549 83.258906 
L 269.069101 81.837105 
L 263.456321 77.683522 
L 262.236448 76.898497 
L 255.72729 72.108137 
L 255.403795 71.889993 
L 248.571142 66.898025 
L 248.11417 66.532752 
L 241.738489 61.769114 
L 240.725861 60.957368 
L 234.905835 56.393837 
L 233.662111 55.381983 
L 228.073182 50.755884 
L 226.928284 49.806599 
L 221.240529 44.821802 
L 220.539806 44.231214 
L 214.499547 38.655829 
L 214.407876 38.567565 
L 208.458149 33.080445 
L 207.575223 32.174013 
L 202.611897 27.50506 
L 200.74257 25.461881 
L 196.985318 21.929675 
L 193.909917 18.361217 
L 191.697789 16.354291 
L 187.13017 10.778906 
" style="fill:none;stroke:#000000;stroke-width:1.5;"/>
    <path clip-path="url(#pf07d7580df)" d="M 315.638331 10.778906 
L 316.897672 15.100336 
L 317.365195 16.354291 
L 317.965366 21.929675 
L 316.897672 26.466256 
L 316.478706 27.50506 
L 310.065019 31.984862 
L 303.232366 32.304642 
L 296.399713 30.874609 
L 290.440126 27.50506 
L 289.56706 27.096775 
L 282.811641 21.929675 
L 282.734407 21.877825 
L 276.480222 16.354291 
L 275.901754 15.883969 
L 270.525399 10.778906 
" style="fill:none;stroke:#000000;stroke-width:1.5;"/>
    <path clip-path="url(#pf07d7580df)" d="M 159.746652 226.447791 
L 154.541256 222.643522 
L 152.913999 221.458964 
L 149.393404 217.068137 
L 146.081346 212.225801 
L 145.678269 211.492752 
L 142.887778 205.917368 
L 140.721749 200.341983 
L 139.248693 195.46113 
L 139.027398 194.766599 
L 137.578895 189.191214 
L 136.53085 183.615829 
L 135.809224 178.040445 
L 135.36898 172.46506 
L 135.190021 166.889675 
L 135.275941 161.314291 
L 135.656082 155.738906 
L 136.391684 150.163522 
L 137.587406 144.588137 
L 139.248693 139.447156 
L 139.428532 139.012752 
L 142.559591 133.437368 
L 146.081346 129.080227 
L 148.388755 127.861983 
L 152.913999 125.551054 
L 159.746652 125.797973 
L 163.651769 127.861983 
L 166.579305 129.068198 
L 172.396012 133.437368 
L 173.411958 134.035405 
L 179.861638 139.012752 
L 180.244611 139.246838 
L 187.077264 143.906168 
L 187.99971 144.588137 
L 193.909917 147.952766 
L 197.627279 150.163522 
L 200.74257 151.6398 
L 207.575223 154.84777 
L 209.453095 155.738906 
L 214.407876 157.601359 
L 221.240529 160.115271 
L 224.489958 161.314291 
L 228.073182 162.375527 
L 234.905835 164.243367 
L 241.738489 166.09347 
L 244.817123 166.889675 
L 248.571142 167.652288 
L 255.403795 168.820042 
L 262.236448 169.81597 
L 269.069101 170.649403 
L 275.901754 171.407392 
L 282.462005 172.46506 
L 282.734407 172.494394 
L 289.56706 173.619171 
L 296.399713 176.280903 
L 298.791644 178.040445 
L 303.232366 180.636595 
L 306.737391 183.615829 
L 310.065019 186.71507 
L 312.357907 189.191214 
L 315.914988 194.766599 
L 316.897672 197.884071 
L 317.752713 200.341983 
L 317.845401 205.917368 
L 316.897672 208.817422 
L 316.036994 211.492752 
L 311.980389 217.068137 
L 310.065019 218.863773 
L 304.630708 222.643522 
L 303.232366 223.652735 
L 296.399713 226.722087 
L 289.56706 227.902856 
L 282.734407 227.932928 
L 275.901754 227.375134 
L 269.069101 226.608192 
L 262.236448 225.841531 
L 255.403795 225.162623 
L 248.571142 224.592733 
L 241.738489 224.129091 
L 234.905835 223.766834 
L 228.073182 223.506533 
L 221.240529 223.355899 
L 214.407876 223.330797 
L 207.575223 223.457163 
L 200.74257 223.773427 
L 193.909917 224.32878 
L 187.077264 225.162958 
L 180.244611 226.243271 
L 173.411958 227.336818 
L 166.579305 227.818583 
L 159.746652 226.447791 
" style="fill:none;stroke:#000000;stroke-width:1.5;"/>
   </g>
   <g id="LineCollection_8">
    <path clip-path="url(#pf07d7580df)" d="M 140.391385 228.218906 
L 139.248693 225.435961 
L 137.993048 222.643522 
L 135.565905 217.068137 
L 133.600849 211.492752 
L 132.41604 207.328656 
L 131.802821 205.917368 
L 129.908256 200.341983 
L 128.640317 194.766599 
L 127.766012 189.191214 
L 127.154582 183.615829 
L 126.729751 178.040445 
L 126.446587 172.46506 
L 126.279859 166.889675 
L 126.218319 161.314291 
L 126.262537 155.738906 
L 126.42549 150.163522 
L 126.736254 144.588137 
L 127.248517 139.012752 
L 128.058353 133.437368 
L 129.342141 127.861983 
L 131.443537 122.286599 
L 132.41604 120.431139 
L 134.385521 116.711214 
L 138.150491 111.135829 
L 139.248693 109.504762 
L 141.588926 105.560445 
L 143.066702 99.98506 
L 142.952543 94.409675 
L 142.009295 88.834291 
L 140.777736 83.258906 
L 139.515673 77.683522 
L 139.248693 76.591865 
L 137.677249 72.108137 
L 135.9754 66.532752 
L 134.572717 60.957368 
L 133.40643 55.381983 
L 132.418996 49.806599 
L 132.41604 49.788747 
L 130.65061 44.231214 
L 129.404486 38.655829 
L 128.495506 33.080445 
L 127.815222 27.50506 
L 127.298671 21.929675 
L 126.906277 16.354291 
L 126.614681 10.778906 
" style="fill:none;stroke:#000000;stroke-width:1.5;"/>
    <path clip-path="url(#pf07d7580df)" d="M 337.145269 228.218906 
L 337.395631 227.600068 
L 338.876372 222.643522 
L 343.412825 217.068137 
L 344.228284 216.396649 
L 349.99163 211.492752 
L 351.060938 209.957248 
" style="fill:none;stroke:#000000;stroke-width:1.5;"/>
    <path clip-path="url(#pf07d7580df)" d="M 351.060938 201.821904 
L 350.145776 200.341983 
L 344.536812 194.766599 
L 344.228284 194.393106 
L 339.636727 189.191214 
L 337.621291 183.615829 
L 337.395631 181.971632 
L 336.545187 178.040445 
L 336.863712 172.46506 
L 337.395631 170.876621 
L 338.510512 166.889675 
L 343.261401 161.314291 
L 344.228284 160.605535 
L 351.060938 155.911936 
" style="fill:none;stroke:#000000;stroke-width:1.5;"/>
    <path clip-path="url(#pf07d7580df)" d="M 351.060938 147.348217 
L 349.124427 144.588137 
L 344.504447 139.012752 
L 344.228284 138.607579 
L 339.949868 133.437368 
L 337.879922 127.861983 
L 337.395631 124.9249 
L 336.657348 122.286599 
L 336.669887 116.711214 
L 337.395631 114.049687 
L 338.127703 111.135829 
L 343.066081 105.560445 
L 344.228284 104.814553 
L 351.060938 100.936466 
" style="fill:none;stroke:#000000;stroke-width:1.5;"/>
    <path clip-path="url(#pf07d7580df)" d="M 351.060938 92.55918 
L 348.323088 88.834291 
L 344.480898 83.258906 
L 344.228284 82.822078 
L 340.227387 77.683522 
L 338.144678 72.108137 
L 337.395631 68.100955 
L 336.846531 66.532752 
L 336.545572 60.957368 
L 337.395631 56.996412 
L 337.739216 55.381983 
L 342.808567 49.806599 
L 344.228284 49.023699 
L 351.060938 46.011232 
" style="fill:none;stroke:#000000;stroke-width:1.5;"/>
    <path clip-path="url(#pf07d7580df)" d="M 351.060938 37.640376 
L 347.698073 33.080445 
L 344.463375 27.50506 
L 344.228284 27.036603 
L 340.470995 21.929675 
L 338.407612 16.354291 
L 337.395631 11.378823 
L 337.136919 10.778906 
" style="fill:none;stroke:#000000;stroke-width:1.5;"/>
    <path clip-path="url(#pf07d7580df)" d="M 112.795243 10.778906 
L 113.916794 16.354291 
L 114.754064 21.929675 
L 115.391022 27.50506 
L 115.878868 33.080445 
L 116.249567 38.655829 
L 116.522882 44.231214 
L 116.71014 49.806599 
L 116.816142 55.381983 
L 116.839878 60.957368 
L 116.774263 66.532752 
L 116.604811 72.108137 
L 116.306809 77.683522 
L 115.839977 83.258906 
L 115.138415 88.834291 
L 114.090779 94.409675 
L 112.498346 99.98506 
L 111.91808 101.526085 
L 110.423011 105.560445 
L 107.878509 111.135829 
L 105.085427 116.345196 
L 104.889285 116.711214 
L 102.426487 122.286599 
L 100.71556 127.861983 
L 99.793723 133.437368 
L 99.570762 139.012752 
L 99.897954 144.588137 
L 100.620764 150.163522 
L 101.605891 155.738906 
L 102.749159 161.314291 
L 103.973511 166.889675 
L 105.085427 171.802843 
L 105.294732 172.46506 
L 107.077341 178.040445 
L 108.651743 183.615829 
L 110.021406 189.191214 
L 111.199585 194.766599 
L 111.91808 198.663183 
L 112.4558 200.341983 
L 113.867242 205.917368 
L 114.864423 211.492752 
L 115.580921 217.068137 
L 116.096181 222.643522 
L 116.4593 228.218906 
" style="fill:none;stroke:#000000;stroke-width:1.5;"/>
    <path clip-path="url(#pf07d7580df)" d="M 323.037069 10.778906 
L 323.730325 13.005623 
L 325.730028 16.354291 
L 327.075381 21.929675 
L 327.293042 27.50506 
L 326.43549 33.080445 
L 323.730325 37.821352 
L 322.826923 38.655829 
L 316.897672 41.87711 
L 311.258148 44.231214 
L 310.58734 49.806599 
L 313.891451 55.381983 
L 316.897672 60.76321 
L 317.047494 60.957368 
L 321.188972 66.532752 
L 323.633337 72.108137 
L 323.730325 72.429524 
L 326.384152 77.683522 
L 327.27748 83.258906 
L 327.156008 88.834291 
L 325.732481 94.409675 
L 323.730325 97.298489 
L 321.077417 99.98506 
L 316.897672 102.755507 
L 311.938875 105.560445 
L 310.15122 111.135829 
L 313.588971 116.711214 
L 316.897672 121.512881 
L 317.556705 122.286599 
L 321.852668 127.861983 
L 323.730325 131.951717 
L 324.844268 133.437368 
L 326.850259 139.012752 
L 327.355419 144.588137 
L 326.863896 150.163522 
L 324.674415 155.738906 
L 323.730325 156.87883 
L 319.803121 161.314291 
L 316.897672 163.61822 
L 312.503203 166.889675 
L 310.065019 172.036097 
L 309.893885 172.46506 
L 310.065019 172.70288 
L 313.23515 178.040445 
L 316.897672 182.300791 
L 318.160617 183.615829 
L 322.630263 189.191214 
L 323.730325 191.523266 
L 325.799318 194.766599 
L 327.157101 200.341983 
L 327.305784 205.917368 
L 326.387354 211.492752 
L 323.730325 216.348631 
L 323.395417 217.068137 
L 318.854689 222.643522 
L 316.897672 224.461133 
L 312.97296 228.218906 
" style="fill:none;stroke:#000000;stroke-width:1.5;"/>
    <path clip-path="url(#pf07d7580df)" d="M 228.073182 155.885164 
L 234.905835 157.438667 
L 241.738489 158.795429 
L 248.571142 159.734608 
L 253.438575 155.738906 
L 248.571142 153.723269 
L 243.14039 150.163522 
L 241.738489 149.650805 
L 234.905835 147.080745 
L 230.233439 144.588137 
L 228.073182 143.822779 
L 221.240529 141.424017 
L 216.058264 139.012752 
L 214.407876 138.45011 
L 207.575223 136.660648 
L 200.74257 135.465266 
L 198.396543 139.012752 
L 200.74257 140.853464 
L 204.635082 144.588137 
L 207.575223 146.158332 
L 213.94354 150.163522 
L 214.407876 150.355738 
L 221.240529 152.833705 
L 227.578504 155.738906 
L 228.073182 155.885164 
" style="fill:none;stroke:#000000;stroke-width:1.5;"/>
    <path clip-path="url(#pf07d7580df)" d="M 255.403795 83.511725 
L 255.966786 83.258906 
L 255.403795 82.707023 
L 254.499809 83.258906 
L 255.403795 83.511725 
" style="fill:none;stroke:#000000;stroke-width:1.5;"/>
    <path clip-path="url(#pf07d7580df)" d="M 241.738489 78.205667 
L 248.571142 80.75291 
L 251.774203 77.683522 
L 248.571142 75.073082 
L 245.630544 72.108137 
L 241.738489 69.06575 
L 238.885006 66.532752 
L 234.905835 63.39756 
L 231.978155 60.957368 
L 228.073182 57.789359 
L 225.063251 55.381983 
L 221.240529 52.161395 
L 218.15802 49.806599 
L 214.407876 46.526958 
L 211.13903 44.231214 
L 207.575223 41.037492 
L 203.392527 38.655829 
L 200.74257 36.343361 
L 199.275045 38.655829 
L 200.74257 41.495838 
L 202.879417 44.231214 
L 206.755171 49.806599 
L 207.575223 50.724096 
L 212.288444 55.381983 
L 214.407876 57.500132 
L 218.241543 60.957368 
L 221.240529 63.576188 
L 224.863333 66.532752 
L 228.073182 68.953516 
L 232.367195 72.108137 
L 234.905835 73.766725 
L 240.830299 77.683522 
L 241.738489 78.205667 
" style="fill:none;stroke:#000000;stroke-width:1.5;"/>
   </g>
   <g id="LineCollection_9"/>
   <g id="patch_3">
    <path d="M 16.260937 228.218906 
L 16.260937 10.778906 
" style="fill:none;stroke:#262626;stroke-linecap:square;stroke-linejoin:miter;stroke-width:1.25;"/>
   </g>
   <g id="patch_4">
    <path d="M 351.060938 228.218906 
L 351.060938 10.778906 
" style="fill:none;stroke:#262626;stroke-linecap:square;stroke-linejoin:miter;stroke-width:1.25;"/>
   </g>
   <g id="patch_5">
    <path d="M 16.260937 228.218906 
L 351.060938 228.218906 
" style="fill:none;stroke:#262626;stroke-linecap:square;stroke-linejoin:miter;stroke-width:1.25;"/>
   </g>
   <g id="patch_6">
    <path d="M 16.260937 10.778906 
L 351.060938 10.778906 
" style="fill:none;stroke:#262626;stroke-linecap:square;stroke-linejoin:miter;stroke-width:1.25;"/>
   </g>
  </g>
 </g>
 <defs>
  <clipPath id="pf07d7580df">
   <rect height="217.44" width="334.8" x="16.260937" y="10.778906"/>
  </clipPath>
 </defs>
</svg>
