<?xml version="1.0" encoding="utf-8" standalone="no"?>
<!DOCTYPE svg PUBLIC "-//W3C//DTD SVG 1.1//EN"
  "http://www.w3.org/Graphics/SVG/1.1/DTD/svg11.dtd">
<!-- Created with matplotlib (https://matplotlib.org/) -->
<svg height="244.485312pt" version="1.1" viewBox="0 0 378.001562 244.485312" width="378.001562pt" xmlns="http://www.w3.org/2000/svg" xmlns:xlink="http://www.w3.org/1999/xlink">
 <defs>
  <style type="text/css">
*{stroke-linecap:butt;stroke-linejoin:round;}
  </style>
 </defs>
 <g id="figure_1">
  <g id="patch_1">
   <path d="M 0 244.485312 
L 378.001562 244.485312 
L 378.001562 0 
L 0 0 
z
" style="fill:#ffffff;"/>
  </g>
  <g id="axes_1">
   <g id="patch_2">
    <path d="M 36.001563 224.64 
L 370.801562 224.64 
L 370.801562 7.2 
L 36.001563 7.2 
z
" style="fill:#ffffff;"/>
   </g>
   <g id="matplotlib.axis_1">
    <g id="xtick_1">
     <g id="line2d_1">
      <path clip-path="url(#p7da4f82def)" d="M 51.219744 224.64 
L 51.219744 7.2 
" style="fill:none;stroke:#cccccc;stroke-linecap:round;stroke-width:0.8;"/>
     </g>
     <g id="line2d_2"/>
     <g id="text_1">
      <!-- 0 -->
      <defs>
       <path d="M 4.15625 35.296875 
Q 4.15625 48 6.765625 55.734375 
Q 9.375 63.484375 14.515625 67.671875 
Q 19.671875 71.875 27.484375 71.875 
Q 33.25 71.875 37.59375 69.546875 
Q 41.9375 67.234375 44.765625 62.859375 
Q 47.609375 58.5 49.21875 52.21875 
Q 50.828125 45.953125 50.828125 35.296875 
Q 50.828125 22.703125 48.234375 14.96875 
Q 45.65625 7.234375 40.5 3 
Q 35.359375 -1.21875 27.484375 -1.21875 
Q 17.140625 -1.21875 11.234375 6.203125 
Q 4.15625 15.140625 4.15625 35.296875 
z
M 13.1875 35.296875 
Q 13.1875 17.671875 17.3125 11.828125 
Q 21.4375 6 27.484375 6 
Q 33.546875 6 37.671875 11.859375 
Q 41.796875 17.71875 41.796875 35.296875 
Q 41.796875 52.984375 37.671875 58.78125 
Q 33.546875 64.59375 27.390625 64.59375 
Q 21.34375 64.59375 17.71875 59.46875 
Q 13.1875 52.9375 13.1875 35.296875 
z
" id="ArialMT-48"/>
      </defs>
      <g style="fill:#262626;" transform="translate(48.439276 235.297812)scale(0.1 -0.1)">
       <use xlink:href="#ArialMT-48"/>
      </g>
     </g>
    </g>
    <g id="xtick_2">
     <g id="line2d_3">
      <path clip-path="url(#p7da4f82def)" d="M 112.092472 224.64 
L 112.092472 7.2 
" style="fill:none;stroke:#cccccc;stroke-linecap:round;stroke-width:0.8;"/>
     </g>
     <g id="line2d_4"/>
     <g id="text_2">
      <!-- 2 -->
      <defs>
       <path d="M 50.34375 8.453125 
L 50.34375 0 
L 3.03125 0 
Q 2.9375 3.171875 4.046875 6.109375 
Q 5.859375 10.9375 9.828125 15.625 
Q 13.8125 20.3125 21.34375 26.46875 
Q 33.015625 36.03125 37.109375 41.625 
Q 41.21875 47.21875 41.21875 52.203125 
Q 41.21875 57.421875 37.46875 61 
Q 33.734375 64.59375 27.734375 64.59375 
Q 21.390625 64.59375 17.578125 60.78125 
Q 13.765625 56.984375 13.71875 50.25 
L 4.6875 51.171875 
Q 5.609375 61.28125 11.65625 66.578125 
Q 17.71875 71.875 27.9375 71.875 
Q 38.234375 71.875 44.234375 66.15625 
Q 50.25 60.453125 50.25 52 
Q 50.25 47.703125 48.484375 43.546875 
Q 46.734375 39.40625 42.65625 34.8125 
Q 38.578125 30.21875 29.109375 22.21875 
Q 21.1875 15.578125 18.9375 13.203125 
Q 16.703125 10.84375 15.234375 8.453125 
z
" id="ArialMT-50"/>
      </defs>
      <g style="fill:#262626;" transform="translate(109.312003 235.297812)scale(0.1 -0.1)">
       <use xlink:href="#ArialMT-50"/>
      </g>
     </g>
    </g>
    <g id="xtick_3">
     <g id="line2d_5">
      <path clip-path="url(#p7da4f82def)" d="M 172.965199 224.64 
L 172.965199 7.2 
" style="fill:none;stroke:#cccccc;stroke-linecap:round;stroke-width:0.8;"/>
     </g>
     <g id="line2d_6"/>
     <g id="text_3">
      <!-- 4 -->
      <defs>
       <path d="M 32.328125 0 
L 32.328125 17.140625 
L 1.265625 17.140625 
L 1.265625 25.203125 
L 33.9375 71.578125 
L 41.109375 71.578125 
L 41.109375 25.203125 
L 50.78125 25.203125 
L 50.78125 17.140625 
L 41.109375 17.140625 
L 41.109375 0 
z
M 32.328125 25.203125 
L 32.328125 57.46875 
L 9.90625 25.203125 
z
" id="ArialMT-52"/>
      </defs>
      <g style="fill:#262626;" transform="translate(170.18473 235.297812)scale(0.1 -0.1)">
       <use xlink:href="#ArialMT-52"/>
      </g>
     </g>
    </g>
    <g id="xtick_4">
     <g id="line2d_7">
      <path clip-path="url(#p7da4f82def)" d="M 233.837926 224.64 
L 233.837926 7.2 
" style="fill:none;stroke:#cccccc;stroke-linecap:round;stroke-width:0.8;"/>
     </g>
     <g id="line2d_8"/>
     <g id="text_4">
      <!-- 6 -->
      <defs>
       <path d="M 49.75 54.046875 
L 41.015625 53.375 
Q 39.84375 58.546875 37.703125 60.890625 
Q 34.125 64.65625 28.90625 64.65625 
Q 24.703125 64.65625 21.53125 62.3125 
Q 17.390625 59.28125 14.984375 53.46875 
Q 12.59375 47.65625 12.5 36.921875 
Q 15.671875 41.75 20.265625 44.09375 
Q 24.859375 46.4375 29.890625 46.4375 
Q 38.671875 46.4375 44.84375 39.96875 
Q 51.03125 33.5 51.03125 23.25 
Q 51.03125 16.5 48.125 10.71875 
Q 45.21875 4.9375 40.140625 1.859375 
Q 35.0625 -1.21875 28.609375 -1.21875 
Q 17.625 -1.21875 10.6875 6.859375 
Q 3.765625 14.9375 3.765625 33.5 
Q 3.765625 54.25 11.421875 63.671875 
Q 18.109375 71.875 29.4375 71.875 
Q 37.890625 71.875 43.28125 67.140625 
Q 48.6875 62.40625 49.75 54.046875 
z
M 13.875 23.1875 
Q 13.875 18.65625 15.796875 14.5 
Q 17.71875 10.359375 21.1875 8.171875 
Q 24.65625 6 28.46875 6 
Q 34.03125 6 38.03125 10.484375 
Q 42.046875 14.984375 42.046875 22.703125 
Q 42.046875 30.125 38.078125 34.390625 
Q 34.125 38.671875 28.125 38.671875 
Q 22.171875 38.671875 18.015625 34.390625 
Q 13.875 30.125 13.875 23.1875 
z
" id="ArialMT-54"/>
      </defs>
      <g style="fill:#262626;" transform="translate(231.057457 235.297812)scale(0.1 -0.1)">
       <use xlink:href="#ArialMT-54"/>
      </g>
     </g>
    </g>
    <g id="xtick_5">
     <g id="line2d_9">
      <path clip-path="url(#p7da4f82def)" d="M 294.710653 224.64 
L 294.710653 7.2 
" style="fill:none;stroke:#cccccc;stroke-linecap:round;stroke-width:0.8;"/>
     </g>
     <g id="line2d_10"/>
     <g id="text_5">
      <!-- 8 -->
      <defs>
       <path d="M 17.671875 38.8125 
Q 12.203125 40.828125 9.5625 44.53125 
Q 6.9375 48.25 6.9375 53.421875 
Q 6.9375 61.234375 12.546875 66.546875 
Q 18.171875 71.875 27.484375 71.875 
Q 36.859375 71.875 42.578125 66.421875 
Q 48.296875 60.984375 48.296875 53.171875 
Q 48.296875 48.1875 45.671875 44.5 
Q 43.0625 40.828125 37.75 38.8125 
Q 44.34375 36.671875 47.78125 31.875 
Q 51.21875 27.09375 51.21875 20.453125 
Q 51.21875 11.28125 44.71875 5.03125 
Q 38.234375 -1.21875 27.640625 -1.21875 
Q 17.046875 -1.21875 10.546875 5.046875 
Q 4.046875 11.328125 4.046875 20.703125 
Q 4.046875 27.6875 7.59375 32.390625 
Q 11.140625 37.109375 17.671875 38.8125 
z
M 15.921875 53.71875 
Q 15.921875 48.640625 19.1875 45.40625 
Q 22.46875 42.1875 27.6875 42.1875 
Q 32.765625 42.1875 36.015625 45.375 
Q 39.265625 48.578125 39.265625 53.21875 
Q 39.265625 58.0625 35.90625 61.359375 
Q 32.5625 64.65625 27.59375 64.65625 
Q 22.5625 64.65625 19.234375 61.421875 
Q 15.921875 58.203125 15.921875 53.71875 
z
M 13.09375 20.65625 
Q 13.09375 16.890625 14.875 13.375 
Q 16.65625 9.859375 20.171875 7.921875 
Q 23.6875 6 27.734375 6 
Q 34.03125 6 38.125 10.046875 
Q 42.234375 14.109375 42.234375 20.359375 
Q 42.234375 26.703125 38.015625 30.859375 
Q 33.796875 35.015625 27.4375 35.015625 
Q 21.234375 35.015625 17.15625 30.90625 
Q 13.09375 26.8125 13.09375 20.65625 
z
" id="ArialMT-56"/>
      </defs>
      <g style="fill:#262626;" transform="translate(291.930185 235.297812)scale(0.1 -0.1)">
       <use xlink:href="#ArialMT-56"/>
      </g>
     </g>
    </g>
    <g id="xtick_6">
     <g id="line2d_11">
      <path clip-path="url(#p7da4f82def)" d="M 355.583381 224.64 
L 355.583381 7.2 
" style="fill:none;stroke:#cccccc;stroke-linecap:round;stroke-width:0.8;"/>
     </g>
     <g id="line2d_12"/>
     <g id="text_6">
      <!-- 10 -->
      <defs>
       <path d="M 37.25 0 
L 28.46875 0 
L 28.46875 56 
Q 25.296875 52.984375 20.140625 49.953125 
Q 14.984375 46.921875 10.890625 45.40625 
L 10.890625 53.90625 
Q 18.265625 57.375 23.78125 62.296875 
Q 29.296875 67.234375 31.59375 71.875 
L 37.25 71.875 
z
" id="ArialMT-49"/>
      </defs>
      <g style="fill:#262626;" transform="translate(350.022443 235.297812)scale(0.1 -0.1)">
       <use xlink:href="#ArialMT-49"/>
       <use x="55.615234" xlink:href="#ArialMT-48"/>
      </g>
     </g>
    </g>
   </g>
   <g id="matplotlib.axis_2">
    <g id="ytick_1">
     <g id="line2d_13">
      <path clip-path="url(#p7da4f82def)" d="M 36.001563 214.756482 
L 370.801562 214.756482 
" style="fill:none;stroke:#cccccc;stroke-linecap:round;stroke-width:0.8;"/>
     </g>
     <g id="line2d_14"/>
     <g id="text_7">
      <!-- −1.00 -->
      <defs>
       <path d="M 52.828125 31.203125 
L 5.5625 31.203125 
L 5.5625 39.40625 
L 52.828125 39.40625 
z
" id="ArialMT-8722"/>
       <path d="M 9.078125 0 
L 9.078125 10.015625 
L 19.09375 10.015625 
L 19.09375 0 
z
" id="ArialMT-46"/>
      </defs>
      <g style="fill:#262626;" transform="translate(7.2 218.335389)scale(0.1 -0.1)">
       <use xlink:href="#ArialMT-8722"/>
       <use x="58.398438" xlink:href="#ArialMT-49"/>
       <use x="114.013672" xlink:href="#ArialMT-46"/>
       <use x="141.796875" xlink:href="#ArialMT-48"/>
       <use x="197.412109" xlink:href="#ArialMT-48"/>
      </g>
     </g>
    </g>
    <g id="ytick_2">
     <g id="line2d_15">
      <path clip-path="url(#p7da4f82def)" d="M 36.001563 190.047377 
L 370.801562 190.047377 
" style="fill:none;stroke:#cccccc;stroke-linecap:round;stroke-width:0.8;"/>
     </g>
     <g id="line2d_16"/>
     <g id="text_8">
      <!-- −0.75 -->
      <defs>
       <path d="M 4.734375 62.203125 
L 4.734375 70.65625 
L 51.078125 70.65625 
L 51.078125 63.8125 
Q 44.234375 56.546875 37.515625 44.484375 
Q 30.8125 32.421875 27.15625 19.671875 
Q 24.515625 10.6875 23.78125 0 
L 14.75 0 
Q 14.890625 8.453125 18.0625 20.40625 
Q 21.234375 32.375 27.171875 43.484375 
Q 33.109375 54.59375 39.796875 62.203125 
z
" id="ArialMT-55"/>
       <path d="M 4.15625 18.75 
L 13.375 19.53125 
Q 14.40625 12.796875 18.140625 9.390625 
Q 21.875 6 27.15625 6 
Q 33.5 6 37.890625 10.78125 
Q 42.28125 15.578125 42.28125 23.484375 
Q 42.28125 31 38.0625 35.34375 
Q 33.84375 39.703125 27 39.703125 
Q 22.75 39.703125 19.328125 37.765625 
Q 15.921875 35.84375 13.96875 32.765625 
L 5.71875 33.84375 
L 12.640625 70.609375 
L 48.25 70.609375 
L 48.25 62.203125 
L 19.671875 62.203125 
L 15.828125 42.96875 
Q 22.265625 47.46875 29.34375 47.46875 
Q 38.71875 47.46875 45.15625 40.96875 
Q 51.609375 34.46875 51.609375 24.265625 
Q 51.609375 14.546875 45.953125 7.46875 
Q 39.0625 -1.21875 27.15625 -1.21875 
Q 17.390625 -1.21875 11.203125 4.25 
Q 5.03125 9.71875 4.15625 18.75 
z
" id="ArialMT-53"/>
      </defs>
      <g style="fill:#262626;" transform="translate(7.2 193.626283)scale(0.1 -0.1)">
       <use xlink:href="#ArialMT-8722"/>
       <use x="58.398438" xlink:href="#ArialMT-48"/>
       <use x="114.013672" xlink:href="#ArialMT-46"/>
       <use x="141.796875" xlink:href="#ArialMT-55"/>
       <use x="197.412109" xlink:href="#ArialMT-53"/>
      </g>
     </g>
    </g>
    <g id="ytick_3">
     <g id="line2d_17">
      <path clip-path="url(#p7da4f82def)" d="M 36.001563 165.338271 
L 370.801562 165.338271 
" style="fill:none;stroke:#cccccc;stroke-linecap:round;stroke-width:0.8;"/>
     </g>
     <g id="line2d_18"/>
     <g id="text_9">
      <!-- −0.50 -->
      <g style="fill:#262626;" transform="translate(7.2 168.917177)scale(0.1 -0.1)">
       <use xlink:href="#ArialMT-8722"/>
       <use x="58.398438" xlink:href="#ArialMT-48"/>
       <use x="114.013672" xlink:href="#ArialMT-46"/>
       <use x="141.796875" xlink:href="#ArialMT-53"/>
       <use x="197.412109" xlink:href="#ArialMT-48"/>
      </g>
     </g>
    </g>
    <g id="ytick_4">
     <g id="line2d_19">
      <path clip-path="url(#p7da4f82def)" d="M 36.001563 140.629165 
L 370.801562 140.629165 
" style="fill:none;stroke:#cccccc;stroke-linecap:round;stroke-width:0.8;"/>
     </g>
     <g id="line2d_20"/>
     <g id="text_10">
      <!-- −0.25 -->
      <g style="fill:#262626;" transform="translate(7.2 144.208071)scale(0.1 -0.1)">
       <use xlink:href="#ArialMT-8722"/>
       <use x="58.398438" xlink:href="#ArialMT-48"/>
       <use x="114.013672" xlink:href="#ArialMT-46"/>
       <use x="141.796875" xlink:href="#ArialMT-50"/>
       <use x="197.412109" xlink:href="#ArialMT-53"/>
      </g>
     </g>
    </g>
    <g id="ytick_5">
     <g id="line2d_21">
      <path clip-path="url(#p7da4f82def)" d="M 36.001563 115.920059 
L 370.801562 115.920059 
" style="fill:none;stroke:#cccccc;stroke-linecap:round;stroke-width:0.8;"/>
     </g>
     <g id="line2d_22"/>
     <g id="text_11">
      <!-- 0.00 -->
      <g style="fill:#262626;" transform="translate(13.040625 119.498966)scale(0.1 -0.1)">
       <use xlink:href="#ArialMT-48"/>
       <use x="55.615234" xlink:href="#ArialMT-46"/>
       <use x="83.398438" xlink:href="#ArialMT-48"/>
       <use x="139.013672" xlink:href="#ArialMT-48"/>
      </g>
     </g>
    </g>
    <g id="ytick_6">
     <g id="line2d_23">
      <path clip-path="url(#p7da4f82def)" d="M 36.001563 91.210954 
L 370.801562 91.210954 
" style="fill:none;stroke:#cccccc;stroke-linecap:round;stroke-width:0.8;"/>
     </g>
     <g id="line2d_24"/>
     <g id="text_12">
      <!-- 0.25 -->
      <g style="fill:#262626;" transform="translate(13.040625 94.78986)scale(0.1 -0.1)">
       <use xlink:href="#ArialMT-48"/>
       <use x="55.615234" xlink:href="#ArialMT-46"/>
       <use x="83.398438" xlink:href="#ArialMT-50"/>
       <use x="139.013672" xlink:href="#ArialMT-53"/>
      </g>
     </g>
    </g>
    <g id="ytick_7">
     <g id="line2d_25">
      <path clip-path="url(#p7da4f82def)" d="M 36.001563 66.501848 
L 370.801562 66.501848 
" style="fill:none;stroke:#cccccc;stroke-linecap:round;stroke-width:0.8;"/>
     </g>
     <g id="line2d_26"/>
     <g id="text_13">
      <!-- 0.50 -->
      <g style="fill:#262626;" transform="translate(13.040625 70.080754)scale(0.1 -0.1)">
       <use xlink:href="#ArialMT-48"/>
       <use x="55.615234" xlink:href="#ArialMT-46"/>
       <use x="83.398438" xlink:href="#ArialMT-53"/>
       <use x="139.013672" xlink:href="#ArialMT-48"/>
      </g>
     </g>
    </g>
    <g id="ytick_8">
     <g id="line2d_27">
      <path clip-path="url(#p7da4f82def)" d="M 36.001563 41.792742 
L 370.801562 41.792742 
" style="fill:none;stroke:#cccccc;stroke-linecap:round;stroke-width:0.8;"/>
     </g>
     <g id="line2d_28"/>
     <g id="text_14">
      <!-- 0.75 -->
      <g style="fill:#262626;" transform="translate(13.040625 45.371648)scale(0.1 -0.1)">
       <use xlink:href="#ArialMT-48"/>
       <use x="55.615234" xlink:href="#ArialMT-46"/>
       <use x="83.398438" xlink:href="#ArialMT-55"/>
       <use x="139.013672" xlink:href="#ArialMT-53"/>
      </g>
     </g>
    </g>
    <g id="ytick_9">
     <g id="line2d_29">
      <path clip-path="url(#p7da4f82def)" d="M 36.001563 17.083636 
L 370.801562 17.083636 
" style="fill:none;stroke:#cccccc;stroke-linecap:round;stroke-width:0.8;"/>
     </g>
     <g id="line2d_30"/>
     <g id="text_15">
      <!-- 1.00 -->
      <g style="fill:#262626;" transform="translate(13.040625 20.662543)scale(0.1 -0.1)">
       <use xlink:href="#ArialMT-49"/>
       <use x="55.615234" xlink:href="#ArialMT-46"/>
       <use x="83.398438" xlink:href="#ArialMT-48"/>
       <use x="139.013672" xlink:href="#ArialMT-48"/>
      </g>
     </g>
    </g>
   </g>
   <g id="line2d_31">
    <path clip-path="url(#p7da4f82def)" d="M 51.219744 115.920059 
L 59.750457 88.579434 
L 64.320481 74.679375 
L 67.976501 64.213142 
L 71.327852 55.270212 
L 74.374535 47.775047 
L 77.11655 41.610717 
L 79.553897 36.63584 
L 81.991243 32.169126 
L 84.123921 28.700194 
L 86.256599 25.65932 
L 88.084609 23.404928 
L 89.912619 21.484156 
L 91.740629 19.903933 
L 93.26397 18.851369 
L 94.787312 18.041913 
L 96.310653 17.47759 
L 97.833995 17.159816 
L 99.357336 17.089385 
L 100.880678 17.266474 
L 102.40402 17.690639 
L 103.927361 18.360818 
L 105.450703 19.275333 
L 106.974044 20.431893 
L 108.802054 22.135144 
L 110.630064 24.176596 
L 112.458074 26.548886 
L 114.590752 29.723223 
L 116.72343 33.320597 
L 119.160776 37.927147 
L 121.598123 43.033584 
L 124.340137 49.334978 
L 127.38682 56.967552 
L 130.738172 66.041957 
L 134.394191 76.626307 
L 138.659548 89.679248 
L 144.448246 108.166451 
L 156.025641 145.302925 
L 160.290997 158.196343 
L 163.947017 168.597265 
L 167.298368 177.468015 
L 170.345051 184.888098 
L 173.087066 190.977785 
L 175.524413 195.881197 
L 177.961759 200.272108 
L 180.094437 203.671534 
L 182.227115 206.640293 
L 184.055125 208.831064 
L 185.883135 210.686787 
L 187.711145 212.200769 
L 189.234486 213.197392 
L 190.757828 213.950385 
L 192.281169 214.457863 
L 193.804511 214.718555 
L 195.327852 214.731807 
L 196.851194 214.497587 
L 198.374535 214.016481 
L 199.897877 213.289694 
L 201.421219 212.319046 
L 202.94456 211.106969 
L 204.77257 209.338105 
L 206.60058 207.232363 
L 208.42859 204.797338 
L 210.561268 201.552077 
L 212.693946 197.88655 
L 215.131292 193.205934 
L 217.568639 188.029963 
L 220.310653 181.656314 
L 223.357336 173.951554 
L 226.708688 164.80842 
L 230.364707 154.16279 
L 234.934732 140.099486 
L 241.332766 119.570154 
L 251.082152 88.285036 
L 255.652177 74.40104 
L 259.308196 63.952189 
L 262.659548 55.028503 
L 265.706231 47.553381 
L 268.448246 41.408993 
L 270.885592 36.45322 
L 273.322938 32.006781 
L 275.455617 28.556449 
L 277.588295 25.534879 
L 279.416305 23.297523 
L 281.244314 21.394176 
L 283.072324 19.831701 
L 284.595666 18.794129 
L 286.119007 17.999808 
L 287.642349 17.450726 
L 289.16569 17.14826 
L 290.689032 17.093165 
L 292.212373 17.285582 
L 293.735715 17.725027 
L 295.259056 18.410399 
L 296.782398 19.339984 
L 298.305739 20.511451 
L 300.133749 22.232325 
L 301.961759 24.291049 
L 303.789769 26.680198 
L 305.922447 29.873602 
L 308.055125 33.489305 
L 310.492472 38.115783 
L 312.929818 43.240939 
L 315.671833 49.561798 
L 318.718516 57.213836 
L 322.069867 66.306796 
L 325.725887 76.907723 
L 329.991243 89.974864 
L 336.084609 109.45893 
L 347.052668 144.650238 
L 351.622693 158.473176 
L 355.278712 168.856342 
L 355.583381 169.68916 
L 355.583381 169.68916 
" style="fill:none;stroke:#0000ff;stroke-dasharray:5.55,2.4;stroke-dashoffset:0;stroke-width:1.5;"/>
   </g>
   <g id="line2d_32">
    <path clip-path="url(#p7da4f82def)" d="M 51.219744 17.083636 
L 52.743086 17.207404 
L 54.266427 17.578395 
L 55.789769 18.195682 
L 57.31311 19.057718 
L 58.836452 20.162344 
L 60.664462 21.804176 
L 62.492472 23.785403 
L 64.320481 26.098879 
L 66.45316 29.206665 
L 68.585838 32.740024 
L 70.718516 36.681614 
L 73.155862 41.66126 
L 75.897877 47.830566 
L 78.639892 54.552127 
L 81.686575 62.60179 
L 85.037926 72.069697 
L 88.998614 83.93441 
L 94.177975 100.233637 
L 110.630064 152.686557 
L 114.590752 164.28062 
L 117.942103 173.459725 
L 120.988786 181.202368 
L 123.730801 187.614009 
L 126.472816 193.444159 
L 128.910162 198.10001 
L 131.04284 201.742739 
L 133.175518 204.964267 
L 135.308196 207.748784 
L 137.136206 209.777268 
L 138.964216 211.467292 
L 140.487558 212.612664 
L 142.010899 213.515871 
L 143.534241 214.174651 
L 145.057582 214.587354 
L 146.580924 214.752946 
L 148.104265 214.671013 
L 149.627607 214.341759 
L 151.150948 213.76601 
L 152.67429 212.945207 
L 154.197631 211.881406 
L 155.720973 210.577271 
L 157.548983 208.69971 
L 159.376992 206.487573 
L 161.205002 203.948838 
L 163.33768 200.586476 
L 165.470359 196.808587 
L 167.907705 192.006066 
L 170.345051 186.71588 
L 173.087066 180.223842 
L 176.133749 172.401203 
L 179.485101 163.14637 
L 183.14112 152.401887 
L 187.711145 138.250835 
L 194.718516 115.690192 
L 203.249228 88.35861 
L 207.819253 74.470586 
L 211.475273 64.01738 
L 214.826624 55.088876 
L 217.873307 47.608736 
L 220.615322 41.459357 
L 223.052668 36.498803 
L 225.490015 32.047292 
L 227.622693 28.592306 
L 229.755371 25.565908 
L 231.583381 23.324291 
L 233.411391 21.416586 
L 235.2394 19.849672 
L 236.762742 18.808351 
L 238.286083 18.010246 
L 239.809425 17.457353 
L 241.332766 17.15106 
L 242.856108 17.092131 
L 244.379449 17.280716 
L 245.902791 17.716341 
L 247.426133 18.397916 
L 248.949474 19.323734 
L 250.472816 20.491476 
L 252.300825 22.207945 
L 254.128835 24.262353 
L 255.956845 26.64729 
L 258.089523 29.835929 
L 260.222201 33.447054 
L 262.659548 38.068554 
L 265.096894 43.189035 
L 267.838909 49.505033 
L 270.885592 57.152212 
L 274.236943 66.240541 
L 277.892963 76.837334 
L 282.158319 89.900936 
L 287.947017 108.39563 
L 299.524413 145.52232 
L 303.789769 158.404006 
L 307.445789 168.79162 
L 310.79714 177.647706 
L 313.843823 185.052563 
L 316.585838 191.127135 
L 319.023184 196.016091 
L 321.460531 200.39168 
L 323.593209 203.777068 
L 325.725887 206.731271 
L 327.553897 208.909207 
L 329.381906 210.751813 
L 331.209916 212.252444 
L 332.733258 213.237796 
L 334.256599 213.979418 
L 335.779941 214.475452 
L 337.303282 214.724655 
L 338.826624 214.726404 
L 340.349965 214.480694 
L 341.873307 213.98814 
L 343.396648 213.249976 
L 344.91999 212.268051 
L 346.443332 211.044824 
L 348.271341 209.262788 
L 350.099351 207.144146 
L 351.927361 204.696539 
L 354.060039 201.437061 
L 355.583381 198.850888 
L 355.583381 198.850888 
" style="fill:none;stroke:#ff0000;stroke-linecap:round;stroke-width:1.5;"/>
   </g>
   <g id="patch_3">
    <path d="M 36.001563 224.64 
L 36.001563 7.2 
" style="fill:none;stroke:#cccccc;stroke-linecap:square;stroke-linejoin:miter;"/>
   </g>
   <g id="patch_4">
    <path d="M 370.801562 224.64 
L 370.801562 7.2 
" style="fill:none;stroke:#cccccc;stroke-linecap:square;stroke-linejoin:miter;"/>
   </g>
   <g id="patch_5">
    <path d="M 36.001563 224.64 
L 370.801562 224.64 
" style="fill:none;stroke:#cccccc;stroke-linecap:square;stroke-linejoin:miter;"/>
   </g>
   <g id="patch_6">
    <path d="M 36.001563 7.2 
L 370.801562 7.2 
" style="fill:none;stroke:#cccccc;stroke-linecap:square;stroke-linejoin:miter;"/>
   </g>
  </g>
 </g>
 <defs>
  <clipPath id="p7da4f82def">
   <rect height="217.44" width="334.8" x="36.001563" y="7.2"/>
  </clipPath>
 </defs>
</svg>
