<?xml version="1.0" encoding="utf-8" standalone="no"?>
<!DOCTYPE svg PUBLIC "-//W3C//DTD SVG 1.1//EN"
  "http://www.w3.org/Graphics/SVG/1.1/DTD/svg11.dtd">
<!-- Created with matplotlib (https://matplotlib.org/) -->
<svg height="262.689766pt" version="1.1" viewBox="0 0 386.724063 262.689766" width="386.724063pt" xmlns="http://www.w3.org/2000/svg" xmlns:xlink="http://www.w3.org/1999/xlink">
 <defs>
  <style type="text/css">
*{stroke-linecap:butt;stroke-linejoin:round;}
  </style>
 </defs>
 <g id="figure_1">
  <g id="patch_1">
   <path d="M 0 262.689766 
L 386.724063 262.689766 
L 386.724063 0 
L 0 0 
z
" style="fill:#ffffff;"/>
  </g>
  <g id="axes_1">
   <g id="patch_2">
    <path d="M 38.607031 235.429922 
L 373.407031 235.429922 
L 373.407031 12.229922 
L 38.607031 12.229922 
z
" style="fill:#eaeaf2;"/>
   </g>
   <g id="matplotlib.axis_1">
    <g id="xtick_1">
     <g id="line2d_1">
      <path clip-path="url(#p9a22233773)" d="M 38.607031 235.429922 
L 38.607031 12.229922 
" style="fill:none;stroke:#ffffff;stroke-linecap:round;"/>
     </g>
     <g id="text_1">
      <!-- −10 -->
      <defs>
       <path d="M 52.828125 31.203125 
L 5.5625 31.203125 
L 5.5625 39.40625 
L 52.828125 39.40625 
z
" id="ArialMT-8722"/>
       <path d="M 37.25 0 
L 28.46875 0 
L 28.46875 56 
Q 25.296875 52.984375 20.140625 49.953125 
Q 14.984375 46.921875 10.890625 45.40625 
L 10.890625 53.90625 
Q 18.265625 57.375 23.78125 62.296875 
Q 29.296875 67.234375 31.59375 71.875 
L 37.25 71.875 
z
" id="ArialMT-49"/>
       <path d="M 4.15625 35.296875 
Q 4.15625 48 6.765625 55.734375 
Q 9.375 63.484375 14.515625 67.671875 
Q 19.671875 71.875 27.484375 71.875 
Q 33.25 71.875 37.59375 69.546875 
Q 41.9375 67.234375 44.765625 62.859375 
Q 47.609375 58.5 49.21875 52.21875 
Q 50.828125 45.953125 50.828125 35.296875 
Q 50.828125 22.703125 48.234375 14.96875 
Q 45.65625 7.234375 40.5 3 
Q 35.359375 -1.21875 27.484375 -1.21875 
Q 17.140625 -1.21875 11.234375 6.203125 
Q 4.15625 15.140625 4.15625 35.296875 
z
M 13.1875 35.296875 
Q 13.1875 17.671875 17.3125 11.828125 
Q 21.4375 6 27.484375 6 
Q 33.546875 6 37.671875 11.859375 
Q 41.796875 17.71875 41.796875 35.296875 
Q 41.796875 52.984375 37.671875 58.78125 
Q 33.546875 64.59375 27.390625 64.59375 
Q 21.34375 64.59375 17.71875 59.46875 
Q 13.1875 52.9375 13.1875 35.296875 
z
" id="ArialMT-48"/>
      </defs>
      <g style="fill:#262626;" transform="translate(29.277656 253.303516)scale(0.11 -0.11)">
       <use xlink:href="#ArialMT-8722"/>
       <use x="58.398438" xlink:href="#ArialMT-49"/>
       <use x="114.013672" xlink:href="#ArialMT-48"/>
      </g>
     </g>
    </g>
    <g id="xtick_2">
     <g id="line2d_2">
      <path clip-path="url(#p9a22233773)" d="M 122.307031 235.429922 
L 122.307031 12.229922 
" style="fill:none;stroke:#ffffff;stroke-linecap:round;"/>
     </g>
     <g id="text_2">
      <!-- −5 -->
      <defs>
       <path d="M 4.15625 18.75 
L 13.375 19.53125 
Q 14.40625 12.796875 18.140625 9.390625 
Q 21.875 6 27.15625 6 
Q 33.5 6 37.890625 10.78125 
Q 42.28125 15.578125 42.28125 23.484375 
Q 42.28125 31 38.0625 35.34375 
Q 33.84375 39.703125 27 39.703125 
Q 22.75 39.703125 19.328125 37.765625 
Q 15.921875 35.84375 13.96875 32.765625 
L 5.71875 33.84375 
L 12.640625 70.609375 
L 48.25 70.609375 
L 48.25 62.203125 
L 19.671875 62.203125 
L 15.828125 42.96875 
Q 22.265625 47.46875 29.34375 47.46875 
Q 38.71875 47.46875 45.15625 40.96875 
Q 51.609375 34.46875 51.609375 24.265625 
Q 51.609375 14.546875 45.953125 7.46875 
Q 39.0625 -1.21875 27.15625 -1.21875 
Q 17.390625 -1.21875 11.203125 4.25 
Q 5.03125 9.71875 4.15625 18.75 
z
" id="ArialMT-53"/>
      </defs>
      <g style="fill:#262626;" transform="translate(116.036172 253.303516)scale(0.11 -0.11)">
       <use xlink:href="#ArialMT-8722"/>
       <use x="58.398438" xlink:href="#ArialMT-53"/>
      </g>
     </g>
    </g>
    <g id="xtick_3">
     <g id="line2d_3">
      <path clip-path="url(#p9a22233773)" d="M 206.007031 235.429922 
L 206.007031 12.229922 
" style="fill:none;stroke:#ffffff;stroke-linecap:round;"/>
     </g>
     <g id="text_3">
      <!-- 0 -->
      <g style="fill:#262626;" transform="translate(202.948516 253.303516)scale(0.11 -0.11)">
       <use xlink:href="#ArialMT-48"/>
      </g>
     </g>
    </g>
    <g id="xtick_4">
     <g id="line2d_4">
      <path clip-path="url(#p9a22233773)" d="M 289.707031 235.429922 
L 289.707031 12.229922 
" style="fill:none;stroke:#ffffff;stroke-linecap:round;"/>
     </g>
     <g id="text_4">
      <!-- 5 -->
      <g style="fill:#262626;" transform="translate(286.648516 253.303516)scale(0.11 -0.11)">
       <use xlink:href="#ArialMT-53"/>
      </g>
     </g>
    </g>
    <g id="xtick_5">
     <g id="line2d_5">
      <path clip-path="url(#p9a22233773)" d="M 373.407031 235.429922 
L 373.407031 12.229922 
" style="fill:none;stroke:#ffffff;stroke-linecap:round;"/>
     </g>
     <g id="text_5">
      <!-- 10 -->
      <g style="fill:#262626;" transform="translate(367.29 253.303516)scale(0.11 -0.11)">
       <use xlink:href="#ArialMT-49"/>
       <use x="55.615234" xlink:href="#ArialMT-48"/>
      </g>
     </g>
    </g>
   </g>
   <g id="matplotlib.axis_2">
    <g id="ytick_1">
     <g id="line2d_6">
      <path clip-path="url(#p9a22233773)" d="M 38.607031 235.429922 
L 373.407031 235.429922 
" style="fill:none;stroke:#ffffff;stroke-linecap:round;"/>
     </g>
     <g id="text_6">
      <!-- 0.00 -->
      <defs>
       <path d="M 9.078125 0 
L 9.078125 10.015625 
L 19.09375 10.015625 
L 19.09375 0 
z
" id="ArialMT-46"/>
      </defs>
      <g style="fill:#262626;" transform="translate(7.2 238.273594)scale(0.11 -0.11)">
       <use xlink:href="#ArialMT-48"/>
       <use x="55.615234" xlink:href="#ArialMT-46"/>
       <use x="83.398438" xlink:href="#ArialMT-48"/>
       <use x="139.013672" xlink:href="#ArialMT-48"/>
      </g>
     </g>
    </g>
    <g id="ytick_2">
     <g id="line2d_7">
      <path clip-path="url(#p9a22233773)" d="M 38.607031 198.229922 
L 373.407031 198.229922 
" style="fill:none;stroke:#ffffff;stroke-linecap:round;"/>
     </g>
     <g id="text_7">
      <!-- 0.05 -->
      <g style="fill:#262626;" transform="translate(7.2 201.073594)scale(0.11 -0.11)">
       <use xlink:href="#ArialMT-48"/>
       <use x="55.615234" xlink:href="#ArialMT-46"/>
       <use x="83.398438" xlink:href="#ArialMT-48"/>
       <use x="139.013672" xlink:href="#ArialMT-53"/>
      </g>
     </g>
    </g>
    <g id="ytick_3">
     <g id="line2d_8">
      <path clip-path="url(#p9a22233773)" d="M 38.607031 161.029922 
L 373.407031 161.029922 
" style="fill:none;stroke:#ffffff;stroke-linecap:round;"/>
     </g>
     <g id="text_8">
      <!-- 0.10 -->
      <g style="fill:#262626;" transform="translate(7.2 163.873594)scale(0.11 -0.11)">
       <use xlink:href="#ArialMT-48"/>
       <use x="55.615234" xlink:href="#ArialMT-46"/>
       <use x="83.398438" xlink:href="#ArialMT-49"/>
       <use x="139.013672" xlink:href="#ArialMT-48"/>
      </g>
     </g>
    </g>
    <g id="ytick_4">
     <g id="line2d_9">
      <path clip-path="url(#p9a22233773)" d="M 38.607031 123.829922 
L 373.407031 123.829922 
" style="fill:none;stroke:#ffffff;stroke-linecap:round;"/>
     </g>
     <g id="text_9">
      <!-- 0.15 -->
      <g style="fill:#262626;" transform="translate(7.2 126.673594)scale(0.11 -0.11)">
       <use xlink:href="#ArialMT-48"/>
       <use x="55.615234" xlink:href="#ArialMT-46"/>
       <use x="83.398438" xlink:href="#ArialMT-49"/>
       <use x="139.013672" xlink:href="#ArialMT-53"/>
      </g>
     </g>
    </g>
    <g id="ytick_5">
     <g id="line2d_10">
      <path clip-path="url(#p9a22233773)" d="M 38.607031 86.629922 
L 373.407031 86.629922 
" style="fill:none;stroke:#ffffff;stroke-linecap:round;"/>
     </g>
     <g id="text_10">
      <!-- 0.20 -->
      <defs>
       <path d="M 50.34375 8.453125 
L 50.34375 0 
L 3.03125 0 
Q 2.9375 3.171875 4.046875 6.109375 
Q 5.859375 10.9375 9.828125 15.625 
Q 13.8125 20.3125 21.34375 26.46875 
Q 33.015625 36.03125 37.109375 41.625 
Q 41.21875 47.21875 41.21875 52.203125 
Q 41.21875 57.421875 37.46875 61 
Q 33.734375 64.59375 27.734375 64.59375 
Q 21.390625 64.59375 17.578125 60.78125 
Q 13.765625 56.984375 13.71875 50.25 
L 4.6875 51.171875 
Q 5.609375 61.28125 11.65625 66.578125 
Q 17.71875 71.875 27.9375 71.875 
Q 38.234375 71.875 44.234375 66.15625 
Q 50.25 60.453125 50.25 52 
Q 50.25 47.703125 48.484375 43.546875 
Q 46.734375 39.40625 42.65625 34.8125 
Q 38.578125 30.21875 29.109375 22.21875 
Q 21.1875 15.578125 18.9375 13.203125 
Q 16.703125 10.84375 15.234375 8.453125 
z
" id="ArialMT-50"/>
      </defs>
      <g style="fill:#262626;" transform="translate(7.2 89.473594)scale(0.11 -0.11)">
       <use xlink:href="#ArialMT-48"/>
       <use x="55.615234" xlink:href="#ArialMT-46"/>
       <use x="83.398438" xlink:href="#ArialMT-50"/>
       <use x="139.013672" xlink:href="#ArialMT-48"/>
      </g>
     </g>
    </g>
    <g id="ytick_6">
     <g id="line2d_11">
      <path clip-path="url(#p9a22233773)" d="M 38.607031 49.429922 
L 373.407031 49.429922 
" style="fill:none;stroke:#ffffff;stroke-linecap:round;"/>
     </g>
     <g id="text_11">
      <!-- 0.25 -->
      <g style="fill:#262626;" transform="translate(7.2 52.273594)scale(0.11 -0.11)">
       <use xlink:href="#ArialMT-48"/>
       <use x="55.615234" xlink:href="#ArialMT-46"/>
       <use x="83.398438" xlink:href="#ArialMT-50"/>
       <use x="139.013672" xlink:href="#ArialMT-53"/>
      </g>
     </g>
    </g>
    <g id="ytick_7">
     <g id="line2d_12">
      <path clip-path="url(#p9a22233773)" d="M 38.607031 12.229922 
L 373.407031 12.229922 
" style="fill:none;stroke:#ffffff;stroke-linecap:round;"/>
     </g>
     <g id="text_12">
      <!-- 0.30 -->
      <defs>
       <path d="M 4.203125 18.890625 
L 12.984375 20.0625 
Q 14.5 12.59375 18.140625 9.296875 
Q 21.78125 6 27 6 
Q 33.203125 6 37.46875 10.296875 
Q 41.75 14.59375 41.75 20.953125 
Q 41.75 27 37.796875 30.921875 
Q 33.84375 34.859375 27.734375 34.859375 
Q 25.25 34.859375 21.53125 33.890625 
L 22.515625 41.609375 
Q 23.390625 41.5 23.921875 41.5 
Q 29.546875 41.5 34.03125 44.421875 
Q 38.53125 47.359375 38.53125 53.46875 
Q 38.53125 58.296875 35.25 61.46875 
Q 31.984375 64.65625 26.8125 64.65625 
Q 21.6875 64.65625 18.265625 61.421875 
Q 14.84375 58.203125 13.875 51.765625 
L 5.078125 53.328125 
Q 6.6875 62.15625 12.390625 67.015625 
Q 18.109375 71.875 26.609375 71.875 
Q 32.46875 71.875 37.390625 69.359375 
Q 42.328125 66.84375 44.9375 62.5 
Q 47.5625 58.15625 47.5625 53.265625 
Q 47.5625 48.640625 45.0625 44.828125 
Q 42.578125 41.015625 37.703125 38.765625 
Q 44.046875 37.3125 47.5625 32.6875 
Q 51.078125 28.078125 51.078125 21.140625 
Q 51.078125 11.765625 44.234375 5.25 
Q 37.40625 -1.265625 26.953125 -1.265625 
Q 17.53125 -1.265625 11.296875 4.34375 
Q 5.078125 9.96875 4.203125 18.890625 
z
" id="ArialMT-51"/>
      </defs>
      <g style="fill:#262626;" transform="translate(7.2 15.073594)scale(0.11 -0.11)">
       <use xlink:href="#ArialMT-48"/>
       <use x="55.615234" xlink:href="#ArialMT-46"/>
       <use x="83.398438" xlink:href="#ArialMT-51"/>
       <use x="139.013672" xlink:href="#ArialMT-48"/>
      </g>
     </g>
    </g>
   </g>
   <g id="PolyCollection_1">
    <defs>
     <path d="M 55.98067 -27.270418 
L 55.98067 -27.259844 
L 58.257653 -27.259844 
L 60.534636 -27.259844 
L 62.81162 -27.259844 
L 65.088603 -27.259844 
L 67.365587 -27.259844 
L 69.64257 -27.259844 
L 71.919553 -27.259844 
L 74.196537 -27.259844 
L 76.47352 -27.259844 
L 78.750504 -27.259844 
L 81.027487 -27.259844 
L 83.30447 -27.259844 
L 85.581454 -27.259844 
L 87.858437 -27.259844 
L 90.135421 -27.259844 
L 92.412404 -27.259844 
L 94.689387 -27.259844 
L 96.966371 -27.259844 
L 99.243354 -27.259844 
L 101.520338 -27.259844 
L 103.797321 -27.259844 
L 106.074304 -27.259844 
L 108.351288 -27.259844 
L 110.628271 -27.259844 
L 112.905255 -27.259844 
L 115.182238 -27.259844 
L 117.459221 -27.259844 
L 119.736205 -27.259844 
L 122.013188 -27.259844 
L 124.290172 -27.259844 
L 126.567155 -27.259844 
L 128.844139 -27.259844 
L 131.121122 -27.259844 
L 133.398105 -27.259844 
L 135.675089 -27.259844 
L 137.952072 -27.259844 
L 140.229056 -27.259844 
L 142.506039 -27.259844 
L 144.783022 -27.259844 
L 147.060006 -27.259844 
L 149.336989 -27.259844 
L 151.613973 -27.259844 
L 153.890956 -27.259844 
L 156.167939 -27.259844 
L 158.444923 -27.259844 
L 160.721906 -27.259844 
L 162.99889 -27.259844 
L 165.275873 -27.259844 
L 167.552856 -27.259844 
L 169.82984 -27.259844 
L 172.106823 -27.259844 
L 174.383807 -27.259844 
L 176.66079 -27.259844 
L 178.937773 -27.259844 
L 181.214757 -27.259844 
L 183.49174 -27.259844 
L 185.768724 -27.259844 
L 188.045707 -27.259844 
L 190.32269 -27.259844 
L 192.599674 -27.259844 
L 194.876657 -27.259844 
L 197.153641 -27.259844 
L 199.430624 -27.259844 
L 201.707608 -27.259844 
L 203.984591 -27.259844 
L 206.261574 -27.259844 
L 208.538558 -27.259844 
L 210.815541 -27.259844 
L 213.092525 -27.259844 
L 215.369508 -27.259844 
L 217.646491 -27.259844 
L 219.923475 -27.259844 
L 222.200458 -27.259844 
L 224.477442 -27.259844 
L 226.754425 -27.259844 
L 229.031408 -27.259844 
L 231.308392 -27.259844 
L 233.585375 -27.259844 
L 235.862359 -27.259844 
L 238.139342 -27.259844 
L 240.416325 -27.259844 
L 242.693309 -27.259844 
L 244.970292 -27.259844 
L 247.247276 -27.259844 
L 249.524259 -27.259844 
L 251.801242 -27.259844 
L 254.078226 -27.259844 
L 256.355209 -27.259844 
L 258.632193 -27.259844 
L 260.909176 -27.259844 
L 263.186159 -27.259844 
L 265.463143 -27.259844 
L 267.740126 -27.259844 
L 270.01711 -27.259844 
L 272.294093 -27.259844 
L 274.571077 -27.259844 
L 276.84806 -27.259844 
L 279.125043 -27.259844 
L 281.402027 -27.259844 
L 283.67901 -27.259844 
L 285.955994 -27.259844 
L 288.232977 -27.259844 
L 290.50996 -27.259844 
L 292.786944 -27.259844 
L 295.063927 -27.259844 
L 297.340911 -27.259844 
L 299.617894 -27.259844 
L 301.894877 -27.259844 
L 304.171861 -27.259844 
L 306.448844 -27.259844 
L 308.725828 -27.259844 
L 311.002811 -27.259844 
L 313.279794 -27.259844 
L 315.556778 -27.259844 
L 317.833761 -27.259844 
L 320.110745 -27.259844 
L 322.387728 -27.259844 
L 324.664711 -27.259844 
L 326.941695 -27.259844 
L 329.218678 -27.259844 
L 331.495662 -27.259844 
L 333.772645 -27.259844 
L 336.049628 -27.259844 
L 338.326612 -27.259844 
L 340.603595 -27.259844 
L 342.880579 -27.259844 
L 345.157562 -27.259844 
L 345.157562 -27.270092 
L 345.157562 -27.270092 
L 342.880579 -27.276043 
L 340.603595 -27.290224 
L 338.326612 -27.31667 
L 336.049628 -27.361307 
L 333.772645 -27.431391 
L 331.495662 -27.534397 
L 329.218678 -27.676402 
L 326.941695 -27.860325 
L 324.664711 -28.084663 
L 322.387728 -28.343511 
L 320.110745 -28.628357 
L 317.833761 -28.931571 
L 315.556778 -29.250725 
L 313.279794 -29.592295 
L 311.002811 -29.973161 
L 308.725828 -30.418916 
L 306.448844 -30.959107 
L 304.171861 -31.620785 
L 301.894877 -32.422675 
L 299.617894 -33.372245 
L 297.340911 -34.467127 
L 295.063927 -35.700688 
L 292.786944 -37.069974 
L 290.50996 -38.583195 
L 288.232977 -40.263861 
L 285.955994 -42.149609 
L 283.67901 -44.285228 
L 281.402027 -46.711026 
L 279.125043 -49.449295 
L 276.84806 -52.492941 
L 274.571077 -55.801066 
L 272.294093 -59.30536 
L 270.01711 -62.927882 
L 267.740126 -66.605584 
L 265.463143 -70.311991 
L 263.186159 -74.065273 
L 260.909176 -77.916528 
L 258.632193 -81.921289 
L 256.355209 -86.106343 
L 254.078226 -90.447242 
L 251.801242 -94.867071 
L 249.524259 -99.256468 
L 247.247276 -103.504871 
L 244.970292 -107.529175 
L 242.693309 -111.289917 
L 240.416325 -114.793359 
L 238.139342 -118.084697 
L 235.862359 -121.23911 
L 233.585375 -124.35356 
L 231.308392 -127.536962 
L 229.031408 -130.894101 
L 226.754425 -134.501375 
L 224.477442 -138.378513 
L 222.200458 -142.465721 
L 219.923475 -146.616622 
L 217.646491 -150.612975 
L 215.369508 -154.199571 
L 213.092525 -157.130325 
L 210.815541 -159.21254 
L 208.538558 -160.336866 
L 206.261574 -160.485384 
L 203.984591 -159.717647 
L 201.707608 -158.142002 
L 199.430624 -155.884002 
L 197.153641 -153.063393 
L 194.876657 -149.785698 
L 192.599674 -146.146487 
L 190.32269 -142.239884 
L 188.045707 -138.161436 
L 185.768724 -134.000085 
L 183.49174 -129.822088 
L 181.214757 -125.656573 
L 178.937773 -121.493577 
L 176.66079 -117.299564 
L 174.383807 -113.045586 
L 172.106823 -108.735067 
L 169.82984 -104.416788 
L 167.552856 -100.175371 
L 165.275873 -96.102673 
L 162.99889 -92.26293 
L 160.721906 -88.667157 
L 158.444923 -85.267439 
L 156.167939 -81.972695 
L 153.890956 -78.679131 
L 151.613973 -75.304109 
L 149.336989 -71.812285 
L 147.060006 -68.22628 
L 144.783022 -64.619305 
L 142.506039 -61.092916 
L 140.229056 -57.747939 
L 137.952072 -54.658875 
L 135.675089 -51.860428 
L 133.398105 -49.349458 
L 131.121122 -47.099049 
L 128.844139 -45.076623 
L 126.567155 -43.257541 
L 124.290172 -41.629196 
L 122.013188 -40.186016 
L 119.736205 -38.920178 
L 117.459221 -37.814141 
L 115.182238 -36.839192 
L 112.905255 -35.960578 
L 110.628271 -35.146393 
L 108.351288 -34.375843 
L 106.074304 -33.643183 
L 103.797321 -32.955861 
L 101.520338 -32.327953 
L 99.243354 -31.771791 
L 96.966371 -31.291085 
L 94.689387 -30.877947 
L 92.412404 -30.514561 
L 90.135421 -30.178473 
L 87.858437 -29.849283 
L 85.581454 -29.514278 
L 83.30447 -29.171199 
L 81.027487 -28.827576 
L 78.750504 -28.497291 
L 76.47352 -28.195866 
L 74.196537 -27.936099 
L 71.919553 -27.725263 
L 69.64257 -27.564309 
L 67.365587 -27.44882 
L 65.088603 -27.370988 
L 62.81162 -27.321794 
L 60.534636 -27.292786 
L 58.257653 -27.277197 
L 55.98067 -27.270418 
z
" id="m3b2c630265" style="stroke:#ffffff;stroke-opacity:0.25;"/>
    </defs>
    <g clip-path="url(#p9a22233773)">
     <use style="fill:#4c72b0;fill-opacity:0.25;stroke:#ffffff;stroke-opacity:0.25;" x="0" xlink:href="#m3b2c630265" y="262.689766"/>
    </g>
   </g>
   <g id="PolyCollection_2">
    <defs>
     <path d="M 111.835411 -27.268895 
L 111.835411 -27.259844 
L 113.325343 -27.259844 
L 114.815276 -27.259844 
L 116.305209 -27.259844 
L 117.795141 -27.259844 
L 119.285074 -27.259844 
L 120.775007 -27.259844 
L 122.264939 -27.259844 
L 123.754872 -27.259844 
L 125.244805 -27.259844 
L 126.734737 -27.259844 
L 128.22467 -27.259844 
L 129.714603 -27.259844 
L 131.204535 -27.259844 
L 132.694468 -27.259844 
L 134.184401 -27.259844 
L 135.674333 -27.259844 
L 137.164266 -27.259844 
L 138.654199 -27.259844 
L 140.144131 -27.259844 
L 141.634064 -27.259844 
L 143.123997 -27.259844 
L 144.613929 -27.259844 
L 146.103862 -27.259844 
L 147.593795 -27.259844 
L 149.083727 -27.259844 
L 150.57366 -27.259844 
L 152.063593 -27.259844 
L 153.553525 -27.259844 
L 155.043458 -27.259844 
L 156.533391 -27.259844 
L 158.023323 -27.259844 
L 159.513256 -27.259844 
L 161.003189 -27.259844 
L 162.493121 -27.259844 
L 163.983054 -27.259844 
L 165.472987 -27.259844 
L 166.962919 -27.259844 
L 168.452852 -27.259844 
L 169.942784 -27.259844 
L 171.432717 -27.259844 
L 172.92265 -27.259844 
L 174.412582 -27.259844 
L 175.902515 -27.259844 
L 177.392448 -27.259844 
L 178.88238 -27.259844 
L 180.372313 -27.259844 
L 181.862246 -27.259844 
L 183.352178 -27.259844 
L 184.842111 -27.259844 
L 186.332044 -27.259844 
L 187.821976 -27.259844 
L 189.311909 -27.259844 
L 190.801842 -27.259844 
L 192.291774 -27.259844 
L 193.781707 -27.259844 
L 195.27164 -27.259844 
L 196.761572 -27.259844 
L 198.251505 -27.259844 
L 199.741438 -27.259844 
L 201.23137 -27.259844 
L 202.721303 -27.259844 
L 204.211236 -27.259844 
L 205.701168 -27.259844 
L 207.191101 -27.259844 
L 208.681034 -27.259844 
L 210.170966 -27.259844 
L 211.660899 -27.259844 
L 213.150832 -27.259844 
L 214.640764 -27.259844 
L 216.130697 -27.259844 
L 217.62063 -27.259844 
L 219.110562 -27.259844 
L 220.600495 -27.259844 
L 222.090428 -27.259844 
L 223.58036 -27.259844 
L 225.070293 -27.259844 
L 226.560226 -27.259844 
L 228.050158 -27.259844 
L 229.540091 -27.259844 
L 231.030023 -27.259844 
L 232.519956 -27.259844 
L 234.009889 -27.259844 
L 235.499821 -27.259844 
L 236.989754 -27.259844 
L 238.479687 -27.259844 
L 239.969619 -27.259844 
L 241.459552 -27.259844 
L 242.949485 -27.259844 
L 244.439417 -27.259844 
L 245.92935 -27.259844 
L 247.419283 -27.259844 
L 248.909215 -27.259844 
L 250.399148 -27.259844 
L 251.889081 -27.259844 
L 253.379013 -27.259844 
L 254.868946 -27.259844 
L 256.358879 -27.259844 
L 257.848811 -27.259844 
L 259.338744 -27.259844 
L 260.828677 -27.259844 
L 262.318609 -27.259844 
L 263.808542 -27.259844 
L 265.298475 -27.259844 
L 266.788407 -27.259844 
L 268.27834 -27.259844 
L 269.768273 -27.259844 
L 271.258205 -27.259844 
L 272.748138 -27.259844 
L 274.238071 -27.259844 
L 275.728003 -27.259844 
L 277.217936 -27.259844 
L 278.707869 -27.259844 
L 280.197801 -27.259844 
L 281.687734 -27.259844 
L 283.177667 -27.259844 
L 284.667599 -27.259844 
L 286.157532 -27.259844 
L 287.647465 -27.259844 
L 289.137397 -27.259844 
L 290.62733 -27.259844 
L 292.117262 -27.259844 
L 293.607195 -27.259844 
L 295.097128 -27.259844 
L 296.58706 -27.259844 
L 298.076993 -27.259844 
L 299.566926 -27.259844 
L 301.056858 -27.259844 
L 301.056858 -27.268472 
L 301.056858 -27.268472 
L 299.566926 -27.27405 
L 298.076993 -27.287648 
L 296.58706 -27.313497 
L 295.097128 -27.357822 
L 293.607195 -27.42821 
L 292.117262 -27.532422 
L 290.62733 -27.676719 
L 289.137397 -27.864132 
L 287.647465 -28.093349 
L 286.157532 -28.358967 
L 284.667599 -28.653679 
L 283.177667 -28.97235 
L 281.687734 -29.31703 
L 280.197801 -29.700886 
L 278.707869 -30.148439 
L 277.217936 -30.690192 
L 275.728003 -31.351998 
L 274.238071 -32.142605 
L 272.748138 -33.044972 
L 271.258205 -34.016472 
L 269.768273 -34.999771 
L 268.27834 -35.941515 
L 266.788407 -36.812343 
L 265.298475 -37.620978 
L 263.808542 -38.41738 
L 262.318609 -39.284088 
L 260.828677 -40.319235 
L 259.338744 -41.61782 
L 257.848811 -43.258373 
L 256.358879 -45.299539 
L 254.868946 -47.786047 
L 253.379013 -50.758399 
L 251.889081 -54.258598 
L 250.399148 -58.326927 
L 248.909215 -62.99062 
L 247.419283 -68.250139 
L 245.92935 -74.069708 
L 244.439417 -80.375879 
L 242.949485 -87.064372 
L 241.459552 -94.013837 
L 239.969619 -101.105334 
L 238.479687 -108.245755 
L 236.989754 -115.39067 
L 235.499821 -122.558493 
L 234.009889 -129.82702 
L 232.519956 -137.307714 
L 231.030023 -145.101846 
L 229.540091 -153.251599 
L 228.050158 -161.703792 
L 226.560226 -170.301011 
L 225.070293 -178.805467 
L 223.58036 -186.948656 
L 222.090428 -194.490219 
L 220.600495 -201.266853 
L 219.110562 -207.217639 
L 217.62063 -212.382691 
L 216.130697 -216.881314 
L 214.640764 -220.8787 
L 213.150832 -224.546517 
L 211.660899 -228.01782 
L 210.170966 -231.337634 
L 208.681034 -234.419005 
L 207.191101 -237.02417 
L 205.701168 -238.791368 
L 204.211236 -239.314038 
L 202.721303 -238.255613 
L 201.23137 -235.462667 
L 199.741438 -231.033967 
L 198.251505 -225.316383 
L 196.761572 -218.824463 
L 195.27164 -212.108 
L 193.781707 -205.610842 
L 192.291774 -199.567766 
L 190.801842 -193.972409 
L 189.311909 -188.622464 
L 187.821976 -183.219415 
L 186.332044 -177.48163 
L 184.842111 -171.229737 
L 183.352178 -164.419906 
L 181.862246 -157.124362 
L 180.372313 -149.47798 
L 178.88238 -141.618632 
L 177.392448 -133.646426 
L 175.902515 -125.615934 
L 174.412582 -117.559943 
L 172.92265 -109.528663 
L 171.432717 -101.620871 
L 169.942784 -93.987955 
L 168.452852 -86.806744 
L 166.962919 -80.234235 
L 165.472987 -74.366419 
L 163.983054 -69.219504 
L 162.493121 -64.738668 
L 161.003189 -60.826239 
L 159.513256 -57.375004 
L 158.023323 -54.294215 
L 156.533391 -51.521958 
L 155.043458 -49.023731 
L 153.553525 -46.781303 
L 152.063593 -44.778329 
L 150.57366 -42.989608 
L 149.083727 -41.378735 
L 147.593795 -39.904536 
L 146.103862 -38.531895 
L 144.613929 -37.240359 
L 143.123997 -36.025724 
L 141.634064 -34.89452 
L 140.144131 -33.855588 
L 138.654199 -32.913883 
L 137.164266 -32.069017 
L 135.674333 -31.31731 
L 134.184401 -30.654148 
L 132.694468 -30.074473 
L 131.204535 -29.571703 
L 129.714603 -29.137012 
L 128.22467 -28.7604 
L 126.734737 -28.433179 
L 125.244805 -28.150144 
L 123.754872 -27.909859 
L 122.264939 -27.712916 
L 120.775007 -27.559332 
L 119.285074 -27.446603 
L 117.795141 -27.369295 
L 116.305209 -27.320017 
L 114.815276 -27.291007 
L 113.325343 -27.275561 
L 111.835411 -27.268895 
z
" id="m958cab7720" style="stroke:#ffffff;stroke-opacity:0.25;"/>
    </defs>
    <g clip-path="url(#p9a22233773)">
     <use style="fill:#dd8452;fill-opacity:0.25;stroke:#ffffff;stroke-opacity:0.25;" x="0" xlink:href="#m958cab7720" y="262.689766"/>
    </g>
   </g>
   <g id="line2d_13">
    <path clip-path="url(#p9a22233773)" d="M 55.98067 235.419347 
L 65.088603 235.318777 
L 69.64257 235.125457 
L 74.196537 234.753666 
L 78.750504 234.192475 
L 94.689387 231.811818 
L 99.243354 230.917975 
L 103.797321 229.733904 
L 108.351288 228.313923 
L 112.905255 226.729187 
L 117.459221 224.875625 
L 119.736205 223.769588 
L 122.013188 222.50375 
L 124.290172 221.060569 
L 126.567155 219.432225 
L 128.844139 217.613143 
L 131.121122 215.590717 
L 133.398105 213.340308 
L 135.675089 210.829338 
L 137.952072 208.03089 
L 140.229056 204.941827 
L 144.783022 198.070461 
L 151.613973 187.385657 
L 162.99889 170.426836 
L 165.275873 166.587093 
L 169.82984 158.272978 
L 178.937773 141.196188 
L 190.32269 120.449881 
L 192.599674 116.543278 
L 194.876657 112.904068 
L 197.153641 109.626373 
L 199.430624 106.805763 
L 201.707608 104.547764 
L 203.984591 102.972118 
L 206.261574 102.204382 
L 208.538558 102.352899 
L 210.815541 103.477226 
L 213.092525 105.559441 
L 215.369508 108.490195 
L 217.646491 112.076791 
L 222.200458 120.224044 
L 226.754425 128.18839 
L 229.031408 131.795664 
L 233.585375 138.336206 
L 238.139342 144.605069 
L 240.416325 147.896406 
L 242.693309 151.399848 
L 244.970292 155.160591 
L 249.524259 163.433297 
L 258.632193 180.768477 
L 263.186159 188.624492 
L 270.01711 199.761884 
L 274.571077 206.8887 
L 276.84806 210.196825 
L 279.125043 213.240471 
L 281.402027 215.97874 
L 283.67901 218.404538 
L 285.955994 220.540156 
L 288.232977 222.425905 
L 290.50996 224.106571 
L 292.786944 225.619792 
L 295.063927 226.989078 
L 297.340911 228.222638 
L 299.617894 229.317521 
L 301.894877 230.267091 
L 304.171861 231.06898 
L 306.448844 231.730659 
L 311.002811 232.716605 
L 317.833761 233.758195 
L 324.664711 234.605103 
L 329.218678 235.013363 
L 336.049628 235.328458 
L 345.157562 235.419673 
L 345.157562 235.419673 
" style="fill:none;stroke:#4c72b0;stroke-linecap:round;stroke-width:1.5;"/>
   </g>
   <g id="line2d_14">
    <path clip-path="url(#p9a22233773)" d="M 111.835411 235.420871 
L 117.795141 235.320471 
L 120.775007 235.130434 
L 123.754872 234.779907 
L 126.734737 234.256586 
L 129.714603 233.552753 
L 132.694468 232.615292 
L 135.674333 231.372456 
L 138.654199 229.775883 
L 141.634064 227.795246 
L 144.613929 225.449407 
L 147.593795 222.785229 
L 150.57366 219.700158 
L 152.063593 217.911436 
L 153.553525 215.908463 
L 155.043458 213.666034 
L 156.533391 211.167808 
L 158.023323 208.395551 
L 159.513256 205.314761 
L 161.003189 201.863527 
L 162.493121 197.951098 
L 163.983054 193.470261 
L 165.472987 188.323347 
L 166.962919 182.455531 
L 168.452852 175.883021 
L 171.432717 161.068895 
L 183.352178 98.26986 
L 184.842111 91.460028 
L 186.332044 85.208136 
L 189.311909 74.067301 
L 192.291774 63.121999 
L 195.27164 50.581766 
L 198.251505 37.373383 
L 199.741438 31.655799 
L 201.23137 27.227098 
L 202.721303 24.434152 
L 204.211236 23.375728 
L 205.701168 23.898398 
L 207.191101 25.665596 
L 208.681034 28.270761 
L 211.660899 34.671945 
L 214.640764 41.811066 
L 216.130697 45.808452 
L 217.62063 50.307074 
L 219.110562 55.472127 
L 220.600495 61.422912 
L 222.090428 68.199547 
L 223.58036 75.74111 
L 226.560226 92.388755 
L 231.030023 117.58792 
L 234.009889 132.862746 
L 241.459552 168.675929 
L 244.439417 182.313886 
L 245.92935 188.620057 
L 247.419283 194.439627 
L 248.909215 199.699146 
L 250.399148 204.362839 
L 251.889081 208.431168 
L 253.379013 211.931366 
L 254.868946 214.903719 
L 256.358879 217.390227 
L 257.848811 219.431393 
L 259.338744 221.071946 
L 260.828677 222.370531 
L 262.318609 223.405678 
L 271.258205 228.673294 
L 274.238071 230.547161 
L 275.728003 231.337768 
L 278.707869 232.541326 
L 281.687734 233.372736 
L 286.157532 234.330799 
L 289.137397 234.825633 
L 292.117262 235.157344 
L 296.58706 235.376269 
L 301.056858 235.421293 
L 301.056858 235.421293 
" style="fill:none;stroke:#dd8452;stroke-linecap:round;stroke-width:1.5;"/>
   </g>
   <g id="patch_3">
    <path d="M 38.607031 235.429922 
L 38.607031 12.229922 
" style="fill:none;stroke:#ffffff;stroke-linecap:square;stroke-linejoin:miter;stroke-width:1.25;"/>
   </g>
   <g id="patch_4">
    <path d="M 373.407031 235.429922 
L 373.407031 12.229922 
" style="fill:none;stroke:#ffffff;stroke-linecap:square;stroke-linejoin:miter;stroke-width:1.25;"/>
   </g>
   <g id="patch_5">
    <path d="M 38.607031 235.429922 
L 373.407031 235.429922 
" style="fill:none;stroke:#ffffff;stroke-linecap:square;stroke-linejoin:miter;stroke-width:1.25;"/>
   </g>
   <g id="patch_6">
    <path d="M 38.607031 12.229922 
L 373.407031 12.229922 
" style="fill:none;stroke:#ffffff;stroke-linecap:square;stroke-linejoin:miter;stroke-width:1.25;"/>
   </g>
   <g id="legend_1">
    <g id="patch_7">
     <path d="M 322.807031 52.278516 
L 367.907031 52.278516 
L 367.907031 17.729922 
L 322.807031 17.729922 
z
" style="fill:#eaeaf2;stroke:#ffffff;stroke-linejoin:miter;"/>
    </g>
    <g id="line2d_15">
     <path d="M 330.507031 26.153516 
L 345.907031 26.153516 
" style="fill:none;stroke:#4c72b0;stroke-linecap:round;stroke-width:1.5;"/>
    </g>
    <g id="line2d_16"/>
    <g id="text_13">
     <!-- x -->
     <defs>
      <path d="M 0.734375 0 
L 19.671875 26.953125 
L 2.15625 51.859375 
L 13.140625 51.859375 
L 21.09375 39.703125 
Q 23.34375 36.234375 24.703125 33.890625 
Q 26.859375 37.109375 28.65625 39.59375 
L 37.40625 51.859375 
L 47.90625 51.859375 
L 29.984375 27.4375 
L 49.265625 0 
L 38.484375 0 
L 27.828125 16.109375 
L 25 20.453125 
L 11.375 0 
z
" id="ArialMT-120"/>
     </defs>
     <g style="fill:#262626;" transform="translate(358.007031 30.003516)scale(0.11 -0.11)">
      <use xlink:href="#ArialMT-120"/>
     </g>
    </g>
    <g id="line2d_17">
     <path d="M 330.507031 41.713359 
L 345.907031 41.713359 
" style="fill:none;stroke:#dd8452;stroke-linecap:round;stroke-width:1.5;"/>
    </g>
    <g id="line2d_18"/>
    <g id="text_14">
     <!-- y -->
     <defs>
      <path d="M 6.203125 -19.96875 
L 5.21875 -11.71875 
Q 8.109375 -12.5 10.25 -12.5 
Q 13.1875 -12.5 14.9375 -11.515625 
Q 16.703125 -10.546875 17.828125 -8.796875 
Q 18.65625 -7.46875 20.515625 -2.25 
Q 20.75 -1.515625 21.296875 -0.09375 
L 1.609375 51.859375 
L 11.078125 51.859375 
L 21.875 21.828125 
Q 23.96875 16.109375 25.640625 9.8125 
Q 27.15625 15.875 29.25 21.625 
L 40.328125 51.859375 
L 49.125 51.859375 
L 29.390625 -0.875 
Q 26.21875 -9.421875 24.46875 -12.640625 
Q 22.125 -17 19.09375 -19.015625 
Q 16.0625 -21.046875 11.859375 -21.046875 
Q 9.328125 -21.046875 6.203125 -19.96875 
z
" id="ArialMT-121"/>
     </defs>
     <g style="fill:#262626;" transform="translate(358.007031 45.563359)scale(0.11 -0.11)">
      <use xlink:href="#ArialMT-121"/>
     </g>
    </g>
   </g>
  </g>
 </g>
 <defs>
  <clipPath id="p9a22233773">
   <rect height="223.2" width="334.8" x="38.607031" y="12.229922"/>
  </clipPath>
 </defs>
</svg>
