<?xml version="1.0" encoding="utf-8" standalone="no"?>
<!DOCTYPE svg PUBLIC "-//W3C//DTD SVG 1.1//EN"
  "http://www.w3.org/Graphics/SVG/1.1/DTD/svg11.dtd">
<!-- Created with matplotlib (https://matplotlib.org/) -->
<svg height="256.117188pt" version="1.1" viewBox="0 0 380.667188 256.117188" width="380.667188pt" xmlns="http://www.w3.org/2000/svg" xmlns:xlink="http://www.w3.org/1999/xlink">
 <defs>
  <style type="text/css">
*{stroke-linecap:butt;stroke-linejoin:round;}
  </style>
 </defs>
 <g id="figure_1">
  <g id="patch_1">
   <path d="M 0 256.117188 
L 380.667188 256.117188 
L 380.667188 0 
L 0 0 
z
" style="fill:none;"/>
  </g>
  <g id="axes_1">
   <g id="patch_2">
    <path d="M 32.304688 235.239062 
L 367.104688 235.239062 
L 367.104688 12.039062 
L 32.304688 12.039062 
z
" style="fill:#ffffff;"/>
   </g>
   <g id="line2d_1">
    <path clip-path="url(#p84aed9f7e2)" d="M 32.304688 106.864213 
L 32.975629 104.507993 
L 33.646571 102.62062 
L 34.317513 101.844212 
L 34.988455 96.21522 
L 35.659397 95.830951 
L 36.330339 92.77983 
L 37.672223 101.013847 
L 38.343164 101.083739 
L 39.014106 102.751441 
L 39.685048 106.794332 
L 40.35599 103.968619 
L 41.026932 104.741269 
L 41.697874 101.050404 
L 42.368816 102.050282 
L 43.039758 102.024242 
L 43.7107 105.175045 
L 44.381641 100.406149 
L 45.052583 101.070797 
L 45.723525 100.137262 
L 46.394467 101.216443 
L 47.065409 102.888788 
L 47.736351 101.906691 
L 48.407293 95.996492 
L 49.078235 96.165731 
L 51.09106 88.070797 
L 51.762002 90.635719 
L 52.432944 91.513624 
L 53.103886 94.252495 
L 53.774828 94.349916 
L 54.44577 88.985091 
L 55.116712 87.397565 
L 55.787653 85.140321 
L 56.458595 85.182532 
L 57.129537 86.33225 
L 57.800479 87.813593 
L 58.471421 90.680926 
L 59.142363 92.26177 
L 59.813305 89.403987 
L 60.484247 89.051944 
L 61.155189 92.977631 
L 61.82613 97.779605 
L 62.497072 96.78997 
L 63.168014 95.56549 
L 63.838956 97.281774 
L 64.509898 95.571025 
L 65.18084 95.90818 
L 67.193665 105.251856 
L 67.864607 105.404689 
L 68.535549 108.27493 
L 69.206491 106.421903 
L 69.877433 110.776512 
L 70.548375 112.482349 
L 71.219317 111.047616 
L 71.890259 112.665304 
L 72.561201 110.93313 
L 73.232142 111.405951 
L 73.903084 109.318705 
L 74.574026 109.831826 
L 75.244968 109.736022 
L 75.91591 108.329143 
L 77.257794 104.300167 
L 77.928736 104.7591 
L 78.599677 100.461951 
L 80.612503 93.662995 
L 81.954387 89.505529 
L 82.625329 92.121007 
L 83.967213 94.372981 
L 84.638154 100.048758 
L 85.309096 95.736354 
L 85.980038 93.823267 
L 86.65098 90.070214 
L 87.321922 87.341508 
L 87.992864 89.866252 
L 88.663806 90.72793 
L 89.334748 88.507684 
L 90.00569 87.270933 
L 90.676631 91.440354 
L 91.347573 97.316929 
L 92.018515 100.490558 
L 92.689457 99.961128 
L 94.031341 94.949878 
L 94.702283 98.292733 
L 95.373225 100.100763 
L 96.044166 98.975384 
L 96.715108 100.973338 
L 97.38605 103.800048 
L 98.056992 104.773173 
L 98.727934 103.900758 
L 99.398876 107.745823 
L 100.069818 108.019837 
L 100.74076 106.519139 
L 101.411702 103.329899 
L 102.082643 104.260263 
L 102.753585 105.964765 
L 103.424527 108.241417 
L 104.095469 105.67608 
L 104.766411 107.165711 
L 105.437353 106.606202 
L 106.108295 108.919399 
L 106.779237 108.977488 
L 107.450178 113.802832 
L 108.12112 110.273833 
L 108.792062 111.901863 
L 109.463004 111.082032 
L 110.133946 111.940731 
L 110.804888 113.896631 
L 112.146772 107.466337 
L 112.817714 108.425776 
L 113.488655 110.739093 
L 114.159597 111.997737 
L 114.830539 112.256509 
L 115.501481 114.15545 
L 116.843365 110.576152 
L 117.514307 108.782863 
L 118.185249 104.195877 
L 118.856191 105.101214 
L 119.527132 101.407611 
L 120.198074 100.095579 
L 120.869016 102.321133 
L 121.539958 103.374298 
L 122.2109 101.040822 
L 122.881842 102.361397 
L 123.552784 104.017325 
L 124.223726 106.094766 
L 124.894667 102.694714 
L 125.565609 102.566808 
L 126.236551 101.972643 
L 126.907493 100.098407 
L 127.578435 100.961352 
L 128.249377 102.288822 
L 128.920319 101.724888 
L 129.591261 99.043075 
L 130.262203 99.594818 
L 130.933144 99.44628 
L 131.604086 98.773778 
L 132.94597 105.925236 
L 133.616912 107.218753 
L 134.287854 104.663267 
L 134.958796 103.788281 
L 135.629738 103.676349 
L 136.300679 99.726278 
L 136.971621 102.22322 
L 138.984447 98.460322 
L 139.655389 99.366889 
L 140.326331 99.336553 
L 140.997273 98.777111 
L 141.668215 99.133188 
L 142.339156 101.459131 
L 143.010098 100.365369 
L 143.68104 100.857399 
L 144.351982 101.904739 
L 145.022924 102.027063 
L 145.693866 103.98756 
L 146.364808 101.46871 
L 147.03575 104.061611 
L 147.706692 104.574834 
L 148.377633 103.576323 
L 149.048575 100.021609 
L 149.719517 101.807061 
L 150.390459 105.151126 
L 151.061401 104.599417 
L 151.732343 103.894317 
L 152.403285 103.677239 
L 153.074227 104.672457 
L 153.745168 107.259419 
L 154.41611 111.323661 
L 155.087052 110.460201 
L 155.757994 111.864972 
L 156.428936 112.018864 
L 157.099878 112.436035 
L 157.77082 114.952803 
L 158.441762 115.669536 
L 159.112704 115.987576 
L 159.783645 119.661066 
L 160.454587 120.082067 
L 161.125529 119.569474 
L 161.796471 115.481184 
L 162.467413 113.41621 
L 163.138355 112.937908 
L 163.809297 111.894031 
L 164.480239 112.639218 
L 165.15118 110.2583 
L 165.822122 106.804854 
L 166.493064 109.027851 
L 167.164006 106.867865 
L 167.834948 106.393067 
L 168.50589 109.356635 
L 169.176832 109.758936 
L 170.518716 104.799795 
L 171.189657 103.474976 
L 172.531541 105.043165 
L 173.202483 104.716862 
L 173.873425 108.641448 
L 174.544367 104.628674 
L 175.215309 107.896613 
L 175.886251 109.77016 
L 176.557193 108.524386 
L 177.228134 108.010355 
L 177.899076 107.218164 
L 178.570018 105.946329 
L 179.24096 107.8866 
L 179.911902 108.692438 
L 180.582844 105.44694 
L 181.253786 105.18677 
L 181.924728 107.598329 
L 182.595669 106.188551 
L 183.266611 108.469285 
L 183.937553 109.491719 
L 184.608495 111.408193 
L 185.279437 110.274065 
L 185.950379 111.541162 
L 186.621321 108.961748 
L 187.292263 109.771619 
L 187.963205 109.388041 
L 188.634146 107.481489 
L 189.305088 108.67249 
L 189.97603 108.971098 
L 190.646972 104.852791 
L 191.317914 102.128999 
L 191.988856 104.880503 
L 192.659798 106.071521 
L 193.33074 105.705883 
L 194.001681 113.132523 
L 194.672623 112.293724 
L 195.343565 115.698869 
L 196.014507 115.419727 
L 196.685449 113.221228 
L 197.356391 114.532825 
L 198.027333 117.518088 
L 198.698275 110.870273 
L 199.369217 116.222283 
L 200.040158 116.189448 
L 200.7111 115.944753 
L 201.382042 119.622303 
L 202.723926 119.476536 
L 204.06581 127.422043 
L 204.736752 125.247761 
L 205.407694 126.315306 
L 206.078635 125.78809 
L 206.749577 121.850442 
L 207.420519 121.962323 
L 208.091461 125.946293 
L 211.44617 138.484131 
L 212.117112 139.476996 
L 213.458996 142.95773 
L 214.129938 143.413444 
L 214.80088 142.315186 
L 215.471822 143.63453 
L 216.142764 142.632868 
L 217.484647 137.327504 
L 218.155589 141.390795 
L 218.826531 141.343868 
L 219.497473 140.390746 
L 220.168415 140.141304 
L 220.839357 139.515523 
L 221.510299 134.175785 
L 222.181241 134.079292 
L 222.852182 136.542828 
L 223.523124 134.80897 
L 224.194066 135.064938 
L 224.865008 131.192965 
L 225.53595 130.050195 
L 226.206892 129.698514 
L 226.877834 132.136647 
L 227.548776 137.397165 
L 228.219718 135.080399 
L 228.890659 131.906465 
L 230.232543 130.893499 
L 230.903485 128.156338 
L 231.574427 132.189617 
L 232.245369 132.155521 
L 232.916311 134.778055 
L 233.587253 132.749471 
L 234.258195 136.87662 
L 234.929136 134.474134 
L 235.600078 137.698994 
L 236.27102 139.987596 
L 236.941962 140.233136 
L 237.612904 138.898079 
L 238.283846 140.97912 
L 238.954788 140.508657 
L 239.62573 140.439807 
L 240.296671 142.277157 
L 240.967613 140.90292 
L 241.638555 142.715487 
L 242.309497 140.349096 
L 242.980439 142.412918 
L 243.651381 146.686524 
L 244.322323 142.505759 
L 244.993265 142.859625 
L 245.664207 144.074143 
L 247.00609 137.015215 
L 247.677032 137.855146 
L 248.347974 138.924265 
L 249.018916 136.793687 
L 249.689858 136.691803 
L 250.3608 139.114504 
L 251.031742 138.078358 
L 251.702683 137.584864 
L 252.373625 137.509109 
L 253.044567 138.33691 
L 253.715509 140.293884 
L 254.386451 139.257606 
L 255.057393 135.996065 
L 255.728335 138.827981 
L 256.399277 139.028393 
L 257.070219 138.107885 
L 257.74116 136.349914 
L 258.412102 136.732013 
L 259.083044 136.666922 
L 259.753986 132.810239 
L 260.424928 135.826109 
L 261.09587 137.004543 
L 261.766812 139.204066 
L 262.437754 138.690167 
L 263.108696 141.988298 
L 263.779637 138.301078 
L 264.450579 138.607729 
L 265.121521 141.119158 
L 265.792463 136.371869 
L 266.463405 133.692119 
L 267.134347 133.693154 
L 267.805289 131.952731 
L 268.476231 132.110612 
L 269.147172 133.726719 
L 269.818114 136.708858 
L 270.489056 138.654883 
L 271.159998 137.551825 
L 271.83094 139.385525 
L 272.501882 138.653738 
L 273.172824 138.495275 
L 273.843766 140.664438 
L 274.514708 141.4943 
L 275.185649 140.562 
L 275.856591 140.92814 
L 276.527533 143.439034 
L 277.198475 143.46665 
L 277.869417 145.006936 
L 278.540359 142.282453 
L 279.211301 142.831958 
L 279.882243 145.328224 
L 280.553184 141.806961 
L 281.224126 139.356125 
L 281.895068 143.941969 
L 282.56601 145.39122 
L 283.236952 150.399679 
L 283.907894 148.923334 
L 284.578836 149.720056 
L 285.249778 153.496521 
L 285.92072 152.784123 
L 286.591661 151.552518 
L 287.933545 156.580002 
L 288.604487 155.730782 
L 289.275429 159.110875 
L 289.946371 157.966432 
L 290.617313 156.064296 
L 291.288255 156.188501 
L 291.959197 161.008274 
L 292.630138 159.727336 
L 293.30108 159.116703 
L 293.972022 157.753058 
L 295.313906 152.724768 
L 295.984848 151.712743 
L 296.65579 153.331591 
L 297.326732 149.617258 
L 298.668615 152.19949 
L 299.339557 152.834947 
L 300.010499 154.264027 
L 300.681441 153.886628 
L 301.352383 155.462496 
L 302.023325 153.891332 
L 302.694267 151.563641 
L 304.03615 150.999348 
L 304.707092 151.972914 
L 305.378034 150.158666 
L 306.048976 149.405598 
L 306.719918 151.114439 
L 307.39086 153.433554 
L 308.061802 154.898632 
L 308.732744 160.636789 
L 309.403685 158.657964 
L 310.074627 161.756324 
L 310.745569 161.407113 
L 311.416511 159.954203 
L 312.087453 155.23571 
L 312.758395 160.849588 
L 313.429337 161.875822 
L 314.100279 161.622419 
L 314.771221 159.819026 
L 315.442162 162.353371 
L 316.113104 162.816364 
L 316.784046 157.38859 
L 317.454988 161.013701 
L 318.12593 158.873419 
L 318.796872 155.597848 
L 319.467814 158.726348 
L 320.138756 160.958066 
L 321.480639 168.278519 
L 322.151581 166.405996 
L 322.822523 168.942676 
L 323.493465 169.381977 
L 324.164407 170.202883 
L 324.835349 170.810686 
L 325.506291 173.036262 
L 326.177233 168.140494 
L 326.848174 167.53386 
L 327.519116 166.167904 
L 328.861 161.339324 
L 329.531942 159.727746 
L 330.202884 160.046644 
L 330.873826 161.981738 
L 331.544768 158.900353 
L 332.21571 162.669889 
L 332.886651 163.675461 
L 333.557593 162.648955 
L 334.228535 167.395181 
L 334.899477 168.945791 
L 335.570419 167.943091 
L 336.241361 165.928504 
L 336.912303 169.416524 
L 337.583245 167.748385 
L 338.254186 166.593724 
L 338.925128 169.081823 
L 339.59607 170.335068 
L 340.267012 170.476376 
L 340.937954 169.303857 
L 341.608896 172.19169 
L 342.279838 171.677501 
L 342.95078 170.446976 
L 343.621722 172.294634 
L 344.292663 173.144014 
L 344.963605 175.381153 
L 345.634547 175.505419 
L 346.305489 175.240922 
L 346.976431 177.968849 
L 347.647373 177.913762 
L 348.318315 179.027374 
L 348.989257 182.48618 
L 349.660199 184.69002 
L 350.33114 184.186875 
L 351.002082 182.507305 
L 351.673024 180.252518 
L 352.343966 181.226713 
L 353.014908 178.184586 
L 353.68585 177.847229 
L 354.356792 179.560958 
L 355.027734 180.903529 
L 355.698675 178.447529 
L 356.369617 179.512004 
L 357.711501 184.325479 
L 358.382443 185.020989 
L 359.053385 185.247331 
L 359.724327 184.867176 
L 360.395269 187.956408 
L 361.066211 187.635113 
L 361.737152 191.112893 
L 362.408094 191.827459 
L 363.079036 192.112564 
L 363.749978 191.337231 
L 364.42092 193.694516 
L 365.091862 192.27856 
L 365.762804 197.605894 
L 366.433746 199.248129 
L 367.104688 198.45445 
L 367.104688 198.45445 
" style="fill:none;stroke:#0000ff;stroke-linecap:square;"/>
   </g>
   <g id="line2d_2">
    <path clip-path="url(#p84aed9f7e2)" d="M 32.304688 110.246673 
L 32.975629 110.622038 
L 33.646571 110.320284 
L 34.317513 112.438442 
L 34.988455 116.045269 
L 35.659397 115.107426 
L 36.330339 112.125524 
L 37.001281 107.287601 
L 37.672223 107.815197 
L 38.343164 106.752934 
L 39.014106 107.644625 
L 39.685048 106.496925 
L 40.35599 109.559293 
L 41.026932 109.420003 
L 41.697874 104.718198 
L 42.368816 101.686534 
L 43.039758 97.257576 
L 43.7107 94.853472 
L 44.381641 91.181795 
L 45.052583 89.191703 
L 45.723525 91.918217 
L 46.394467 87.332043 
L 47.065409 87.253103 
L 47.736351 89.963896 
L 48.407293 87.621587 
L 49.078235 83.372497 
L 49.749176 86.050727 
L 50.420118 85.8336 
L 51.09106 85.047582 
L 51.762002 83.357228 
L 52.432944 86.767107 
L 53.103886 86.637738 
L 53.774828 89.53461 
L 54.44577 86.22002 
L 55.116712 90.230071 
L 56.458595 88.503074 
L 57.129537 87.309 
L 57.800479 87.899046 
L 58.471421 85.961674 
L 59.142363 86.946908 
L 59.813305 84.269454 
L 60.484247 85.061389 
L 61.155189 83.547648 
L 61.82613 83.079477 
L 62.497072 89.955507 
L 63.168014 90.243445 
L 64.509898 83.204651 
L 65.18084 80.38516 
L 65.851782 76.272996 
L 66.522724 79.612856 
L 67.193665 81.424937 
L 67.864607 81.691054 
L 68.535549 82.465538 
L 69.206491 85.414122 
L 69.877433 84.295804 
L 70.548375 87.306716 
L 71.219317 86.439573 
L 71.890259 87.732123 
L 72.561201 87.722771 
L 73.232142 88.701998 
L 73.903084 89.320655 
L 74.574026 87.137811 
L 75.244968 91.246465 
L 75.91591 91.798699 
L 76.586852 88.968767 
L 77.257794 88.08516 
L 77.928736 90.088129 
L 79.270619 86.946649 
L 79.941561 93.741048 
L 80.612503 93.054406 
L 81.283445 92.860321 
L 81.954387 93.145787 
L 82.625329 91.111573 
L 83.296271 96.571147 
L 83.967213 96.121428 
L 84.638154 95.497746 
L 85.980038 90.47864 
L 86.65098 89.106872 
L 87.321922 85.887778 
L 87.992864 86.080858 
L 88.663806 87.522404 
L 89.334748 84.112493 
L 90.00569 81.513522 
L 90.676631 83.718171 
L 91.347573 81.575321 
L 92.018515 83.02719 
L 92.689457 86.024453 
L 93.360399 92.371231 
L 94.031341 93.034866 
L 94.702283 94.923568 
L 95.373225 94.436106 
L 96.044166 98.973862 
L 96.715108 101.747275 
L 97.38605 99.800581 
L 98.056992 107.355015 
L 99.398876 105.379561 
L 100.069818 109.498096 
L 100.74076 107.277117 
L 101.411702 111.014473 
L 102.082643 114.05544 
L 102.753585 114.346777 
L 103.424527 113.720585 
L 104.095469 116.191193 
L 104.766411 112.341629 
L 105.437353 111.226343 
L 106.108295 114.358753 
L 106.779237 111.68235 
L 107.450178 113.946053 
L 108.12112 112.963758 
L 108.792062 119.993454 
L 109.463004 117.639322 
L 110.133946 119.61002 
L 110.804888 116.895317 
L 111.47583 116.370805 
L 112.146772 116.621983 
L 112.817714 117.887509 
L 113.488655 114.804077 
L 114.830539 119.862984 
L 115.501481 118.484632 
L 116.172423 122.605396 
L 116.843365 124.36001 
L 117.514307 124.298972 
L 118.185249 124.830106 
L 118.856191 129.272598 
L 119.527132 127.979765 
L 120.198074 126.931646 
L 120.869016 123.676719 
L 121.539958 125.735031 
L 122.2109 124.730125 
L 122.881842 123.130388 
L 123.552784 118.959222 
L 124.894667 121.689767 
L 125.565609 119.538921 
L 126.236551 120.456028 
L 126.907493 121.793077 
L 127.578435 125.149482 
L 128.249377 125.086477 
L 128.920319 127.607989 
L 129.591261 129.173801 
L 130.262203 131.303922 
L 130.933144 131.83098 
L 131.604086 133.818692 
L 132.275028 128.863761 
L 132.94597 130.558691 
L 133.616912 133.496714 
L 134.287854 138.574077 
L 134.958796 138.952957 
L 135.629738 133.150688 
L 136.300679 133.791948 
L 136.971621 129.621638 
L 137.642563 122.778437 
L 138.313505 123.066687 
L 138.984447 122.45624 
L 139.655389 120.129771 
L 140.997273 112.792926 
L 141.668215 113.740349 
L 142.339156 112.666242 
L 143.010098 112.222835 
L 144.351982 111.729548 
L 145.022924 111.136744 
L 145.693866 113.386849 
L 146.364808 111.648266 
L 147.03575 114.338709 
L 147.706692 116.020386 
L 148.377633 120.424588 
L 149.048575 119.386961 
L 149.719517 121.603026 
L 150.390459 118.465867 
L 151.061401 118.685038 
L 151.732343 117.654845 
L 152.403285 115.326752 
L 153.074227 116.112058 
L 154.41611 120.056227 
L 155.087052 118.411347 
L 155.757994 119.174422 
L 156.428936 116.051687 
L 157.099878 115.11447 
L 157.77082 116.608253 
L 158.441762 121.564879 
L 159.112704 122.238872 
L 159.783645 125.394817 
L 160.454587 125.727466 
L 161.125529 124.41048 
L 161.796471 128.254516 
L 162.467413 127.443391 
L 163.138355 130.312794 
L 163.809297 129.701221 
L 165.15118 131.61461 
L 165.822122 129.041397 
L 166.493064 133.908973 
L 167.164006 136.08634 
L 167.834948 133.902672 
L 168.50589 135.143688 
L 169.176832 133.235501 
L 169.847774 132.047345 
L 170.518716 131.487261 
L 171.189657 130.698906 
L 171.860599 135.016642 
L 173.202483 141.6351 
L 173.873425 136.070967 
L 174.544367 138.115502 
L 175.215309 136.773802 
L 175.886251 139.752781 
L 176.557193 141.891203 
L 177.228134 141.128027 
L 177.899076 141.469719 
L 178.570018 142.278989 
L 179.24096 140.728695 
L 179.911902 142.492734 
L 180.582844 142.556715 
L 181.253786 142.224611 
L 181.924728 138.885983 
L 182.595669 139.711356 
L 183.266611 133.156875 
L 183.937553 134.157454 
L 185.950379 127.66202 
L 186.621321 127.253703 
L 187.292263 127.274064 
L 187.963205 124.690974 
L 188.634146 125.735866 
L 189.305088 127.033529 
L 190.646972 134.215409 
L 191.317914 134.55725 
L 191.988856 135.915095 
L 192.659798 133.593548 
L 193.33074 136.017661 
L 194.001681 133.832936 
L 194.672623 132.216519 
L 195.343565 134.864519 
L 196.014507 136.49027 
L 196.685449 137.165157 
L 197.356391 136.734352 
L 198.027333 135.700084 
L 198.698275 136.198089 
L 199.369217 132.928083 
L 200.040158 133.230506 
L 200.7111 132.741497 
L 201.382042 135.988839 
L 202.052984 136.217277 
L 202.723926 130.681876 
L 203.394868 128.58763 
L 204.06581 129.85501 
L 204.736752 134.38575 
L 205.407694 131.535289 
L 206.078635 127.698651 
L 206.749577 129.29393 
L 207.420519 129.097708 
L 208.091461 132.502881 
L 208.762403 133.285577 
L 209.433345 132.102448 
L 210.104287 132.189984 
L 210.775229 128.687848 
L 211.44617 130.725291 
L 212.117112 134.376652 
L 212.788054 135.776161 
L 213.458996 138.552839 
L 214.129938 136.507785 
L 214.80088 135.966161 
L 215.471822 138.337682 
L 216.142764 133.534635 
L 216.813706 133.997673 
L 217.484647 136.256582 
L 218.155589 140.662026 
L 218.826531 140.865471 
L 219.497473 138.361385 
L 220.168415 137.024265 
L 220.839357 137.993444 
L 221.510299 136.832048 
L 222.181241 135.278169 
L 222.852182 130.21383 
L 223.523124 130.954754 
L 224.865008 135.894072 
L 225.53595 136.888518 
L 226.206892 132.341598 
L 226.877834 134.569436 
L 227.548776 139.129776 
L 228.219718 142.580709 
L 228.890659 144.777906 
L 229.561601 141.560498 
L 230.232543 144.056284 
L 230.903485 143.062968 
L 231.574427 143.397328 
L 232.245369 147.972187 
L 232.916311 149.351029 
L 233.587253 150.042737 
L 234.258195 150.356629 
L 235.600078 154.161463 
L 236.27102 157.760783 
L 236.941962 160.366404 
L 237.612904 160.719669 
L 238.283846 158.264168 
L 238.954788 154.041794 
L 239.62573 155.097139 
L 240.967613 158.267613 
L 241.638555 162.339037 
L 242.309497 160.989558 
L 242.980439 160.562157 
L 243.651381 156.104259 
L 244.322323 160.191414 
L 244.993265 163.235952 
L 245.664207 163.928608 
L 246.335148 163.790987 
L 247.00609 167.861532 
L 247.677032 162.815321 
L 248.347974 161.394897 
L 249.018916 163.402771 
L 249.689858 161.930976 
L 250.3608 163.393134 
L 251.031742 166.46887 
L 251.702683 161.536815 
L 253.044567 161.678207 
L 254.386451 161.774357 
L 255.057393 162.576531 
L 255.728335 165.827738 
L 256.399277 167.573308 
L 257.070219 170.028068 
L 257.74116 168.979478 
L 258.412102 166.019321 
L 259.083044 166.302872 
L 259.753986 164.781823 
L 260.424928 164.432957 
L 261.09587 161.276032 
L 261.766812 159.097838 
L 262.437754 157.650585 
L 263.108696 158.532212 
L 263.779637 158.426118 
L 264.450579 157.173793 
L 265.121521 159.721489 
L 266.463405 167.840098 
L 267.134347 166.912193 
L 267.805289 166.730446 
L 268.476231 170.648673 
L 269.818114 168.364804 
L 270.489056 169.197044 
L 271.159998 166.661511 
L 271.83094 167.593892 
L 272.501882 170.318837 
L 273.172824 174.304991 
L 273.843766 176.002307 
L 275.185649 180.449323 
L 276.527533 174.541016 
L 277.198475 171.207712 
L 277.869417 166.905973 
L 278.540359 167.221099 
L 279.211301 166.168953 
L 279.882243 171.484357 
L 280.553184 173.877821 
L 281.224126 175.152301 
L 281.895068 171.655619 
L 282.56601 170.748953 
L 283.236952 173.189791 
L 283.907894 170.302695 
L 284.578836 171.514339 
L 285.249778 170.133068 
L 285.92072 170.1402 
L 286.591661 167.63011 
L 287.262603 167.119734 
L 287.933545 167.205232 
L 288.604487 167.759329 
L 289.275429 169.722885 
L 289.946371 169.838158 
L 290.617313 172.382656 
L 291.288255 174.474823 
L 291.959197 173.214241 
L 292.630138 172.199189 
L 293.30108 174.475791 
L 293.972022 174.473559 
L 294.642964 170.945499 
L 295.313906 173.88402 
L 296.65579 181.544599 
L 297.326732 180.142737 
L 297.997673 177.913298 
L 298.668615 174.194559 
L 299.339557 172.067557 
L 300.010499 170.642527 
L 300.681441 171.57036 
L 301.352383 169.455343 
L 302.023325 170.965204 
L 302.694267 173.492947 
L 303.365209 174.850389 
L 304.03615 176.526132 
L 304.707092 179.234833 
L 305.378034 178.442102 
L 306.048976 175.877888 
L 306.719918 177.237144 
L 307.39086 176.290221 
L 308.061802 173.879735 
L 310.074627 179.929041 
L 310.745569 178.75479 
L 311.416511 175.936547 
L 312.087453 177.860194 
L 312.758395 176.930145 
L 313.429337 179.650519 
L 314.100279 178.398132 
L 314.771221 178.494617 
L 316.113104 184.183934 
L 316.784046 184.728971 
L 317.454988 188.569985 
L 318.12593 190.032436 
L 318.796872 193.236599 
L 320.138756 190.766308 
L 320.809698 195.611431 
L 321.480639 193.116286 
L 322.151581 196.579693 
L 322.822523 199.433409 
L 323.493465 201.642418 
L 324.164407 200.525701 
L 324.835349 202.456816 
L 325.506291 199.142953 
L 326.177233 197.957988 
L 326.848174 199.892198 
L 327.519116 198.415548 
L 328.190058 200.548668 
L 328.861 200.68571 
L 330.202884 198.477993 
L 330.873826 194.871984 
L 331.544768 197.883243 
L 332.21571 198.420244 
L 332.886651 197.344076 
L 333.557593 197.83829 
L 334.228535 203.506329 
L 334.899477 205.332827 
L 336.241361 202.727301 
L 336.912303 203.160863 
L 337.583245 202.516478 
L 338.254186 204.679431 
L 338.925128 204.246349 
L 339.59607 209.251689 
L 340.267012 210.234228 
L 340.937954 211.541416 
L 341.608896 214.71213 
L 342.279838 212.829421 
L 342.95078 211.398571 
L 343.621722 208.888165 
L 344.292663 211.366751 
L 344.963605 210.570672 
L 345.634547 209.500221 
L 346.305489 205.733092 
L 346.976431 206.735886 
L 348.318315 204.170513 
L 348.989257 203.24504 
L 349.660199 203.581848 
L 350.33114 200.490044 
L 351.002082 200.569184 
L 351.673024 200.368998 
L 352.343966 201.202958 
L 353.014908 199.550398 
L 353.68585 201.62941 
L 354.356792 207.099063 
L 355.027734 206.872089 
L 355.698675 202.838539 
L 356.369617 208.448903 
L 357.040559 212.406431 
L 357.711501 213.38981 
L 358.382443 216.316919 
L 359.053385 217.312814 
L 359.724327 215.591375 
L 360.395269 218.495927 
L 361.066211 221.982725 
L 361.737152 222.744255 
L 362.408094 220.979027 
L 363.079036 219.749318 
L 363.749978 220.229108 
L 364.42092 221.379819 
L 365.091862 218.720514 
L 365.762804 221.282762 
L 366.433746 225.195228 
L 367.104688 220.03887 
L 367.104688 220.03887 
" style="fill:none;stroke:#008000;stroke-linecap:square;"/>
   </g>
   <g id="line2d_3">
    <path clip-path="url(#p84aed9f7e2)" d="M 32.304688 108.811792 
L 32.975629 109.067775 
L 33.646571 107.966994 
L 34.317513 114.298409 
L 34.988455 114.184928 
L 35.659397 116.386637 
L 36.330339 117.347207 
L 37.001281 118.611144 
L 37.672223 120.831901 
L 38.343164 120.666939 
L 39.685048 124.933642 
L 40.35599 123.935834 
L 41.026932 126.825406 
L 41.697874 123.902033 
L 42.368816 123.385511 
L 43.039758 123.070769 
L 43.7107 125.980115 
L 44.381641 121.348568 
L 45.052583 118.999384 
L 45.723525 118.259753 
L 46.394467 116.592462 
L 47.065409 118.16936 
L 47.736351 121.867679 
L 48.407293 124.131478 
L 49.078235 125.97847 
L 50.420118 131.863272 
L 51.09106 129.579542 
L 51.762002 131.571998 
L 53.103886 135.002288 
L 53.774828 133.704562 
L 54.44577 134.620133 
L 55.116712 134.680462 
L 55.787653 132.730369 
L 56.458595 127.127282 
L 57.800479 134.48013 
L 58.471421 130.773808 
L 59.142363 131.103352 
L 59.813305 133.120496 
L 60.484247 131.405479 
L 61.155189 134.35385 
L 61.82613 133.054601 
L 62.497072 128.203938 
L 63.168014 133.240036 
L 63.838956 132.529903 
L 64.509898 134.08756 
L 65.18084 133.845203 
L 65.851782 134.138249 
L 66.522724 132.417692 
L 67.193665 133.372194 
L 67.864607 135.156813 
L 68.535549 135.547827 
L 69.206491 133.63016 
L 69.877433 135.326507 
L 70.548375 136.419995 
L 71.219317 138.315072 
L 71.890259 142.885884 
L 72.561201 140.5749 
L 73.232142 141.238879 
L 73.903084 141.116132 
L 74.574026 145.327434 
L 75.244968 147.771501 
L 75.91591 148.648012 
L 76.586852 145.010896 
L 77.257794 149.396872 
L 77.928736 152.984278 
L 78.599677 152.064632 
L 79.270619 157.259247 
L 79.941561 158.671141 
L 80.612503 161.079481 
L 81.283445 162.059649 
L 82.625329 159.776695 
L 83.296271 159.28243 
L 83.967213 160.529416 
L 84.638154 165.530104 
L 85.309096 162.258645 
L 85.980038 164.512377 
L 86.65098 164.625723 
L 87.321922 157.939088 
L 87.992864 156.989911 
L 88.663806 161.038845 
L 89.334748 164.34273 
L 90.676631 163.037264 
L 91.347573 168.591482 
L 92.689457 169.840571 
L 93.360399 166.910753 
L 94.031341 168.592256 
L 94.702283 163.60434 
L 95.373225 162.724541 
L 96.044166 162.632767 
L 96.715108 162.957781 
L 97.38605 164.332468 
L 98.056992 162.985055 
L 98.727934 164.150737 
L 99.398876 166.49277 
L 100.069818 166.207204 
L 100.74076 166.534337 
L 101.411702 164.856714 
L 102.082643 164.402033 
L 102.753585 163.24594 
L 103.424527 161.211542 
L 104.095469 164.23203 
L 104.766411 163.520507 
L 105.437353 163.68735 
L 106.108295 162.565177 
L 106.779237 167.535632 
L 107.450178 166.991249 
L 108.12112 168.457927 
L 108.792062 163.208286 
L 109.463004 166.934229 
L 110.804888 165.860913 
L 112.146772 169.600908 
L 112.817714 169.144773 
L 113.488655 167.129342 
L 114.159597 160.936285 
L 114.830539 163.856804 
L 115.501481 163.831138 
L 116.172423 162.719614 
L 116.843365 162.620992 
L 117.514307 160.835433 
L 118.185249 162.072994 
L 118.856191 162.218289 
L 119.527132 160.700709 
L 120.198074 164.072965 
L 120.869016 166.203217 
L 121.539958 162.70351 
L 122.2109 161.46834 
L 122.881842 158.958971 
L 123.552784 161.073384 
L 124.223726 162.72933 
L 124.894667 161.923653 
L 125.565609 164.027488 
L 126.236551 161.6156 
L 126.907493 163.474832 
L 127.578435 166.035787 
L 128.249377 163.17341 
L 128.920319 163.458053 
L 129.591261 164.056571 
L 130.262203 163.930204 
L 132.275028 169.5495 
L 132.94597 168.637989 
L 133.616912 166.255469 
L 134.958796 172.518234 
L 135.629738 173.203788 
L 136.300679 172.439126 
L 136.971621 174.403997 
L 137.642563 174.589174 
L 138.313505 176.938945 
L 138.984447 174.797417 
L 139.655389 174.061518 
L 140.326331 172.349254 
L 140.997273 167.354385 
L 141.668215 166.462814 
L 142.339156 167.46955 
L 143.010098 169.452117 
L 143.68104 172.298192 
L 144.351982 171.73262 
L 145.022924 174.213439 
L 145.693866 173.657294 
L 146.364808 174.692638 
L 147.03575 171.921721 
L 147.706692 170.051822 
L 148.377633 165.91208 
L 149.048575 164.831925 
L 149.719517 165.218864 
L 150.390459 165.964808 
L 151.061401 165.720831 
L 151.732343 168.278908 
L 153.745168 163.612837 
L 154.41611 158.281892 
L 155.087052 161.021341 
L 155.757994 160.354161 
L 156.428936 158.607966 
L 157.099878 155.323556 
L 157.77082 153.038463 
L 158.441762 155.880544 
L 159.112704 155.341939 
L 159.783645 151.575416 
L 160.454587 148.546381 
L 161.125529 147.9533 
L 161.796471 149.083747 
L 162.467413 145.037385 
L 163.138355 143.126116 
L 163.809297 144.677498 
L 164.480239 149.370555 
L 165.15118 150.057076 
L 165.822122 150.010472 
L 166.493064 146.080117 
L 167.164006 142.865666 
L 167.834948 143.991785 
L 168.50589 143.364832 
L 169.176832 142.545111 
L 169.847774 144.475006 
L 170.518716 145.837763 
L 171.189657 144.759439 
L 171.860599 146.694594 
L 172.531541 153.582445 
L 173.202483 154.449904 
L 173.873425 157.978436 
L 174.544367 156.930436 
L 175.215309 157.141523 
L 175.886251 155.843834 
L 177.228134 155.050453 
L 177.899076 157.424179 
L 178.570018 155.929464 
L 179.24096 157.947182 
L 179.911902 158.909804 
L 180.582844 156.069554 
L 181.253786 157.588866 
L 181.924728 158.748249 
L 183.266611 156.217291 
L 183.937553 160.755762 
L 184.608495 163.862194 
L 185.279437 161.950518 
L 185.950379 166.434715 
L 186.621321 164.23945 
L 187.292263 165.535546 
L 187.963205 165.63293 
L 188.634146 166.796821 
L 189.305088 164.264184 
L 189.97603 165.087797 
L 190.646972 172.03726 
L 191.317914 171.974304 
L 191.988856 170.322705 
L 193.33074 166.135051 
L 194.001681 161.650884 
L 194.672623 161.647236 
L 195.343565 157.279296 
L 196.014507 157.111855 
L 196.685449 156.405574 
L 197.356391 155.000541 
L 198.027333 153.294596 
L 198.698275 155.771741 
L 199.369217 156.365196 
L 200.040158 155.524329 
L 200.7111 152.897942 
L 201.382042 150.869644 
L 202.052984 147.508146 
L 202.723926 147.768496 
L 203.394868 150.776408 
L 204.06581 146.459647 
L 204.736752 147.459554 
L 205.407694 146.721719 
L 206.078635 146.871232 
L 206.749577 149.682542 
L 207.420519 147.573226 
L 208.091461 142.943852 
L 208.762403 141.397687 
L 209.433345 142.280446 
L 210.104287 141.68226 
L 211.44617 148.945399 
L 212.117112 146.680659 
L 212.788054 146.116841 
L 213.458996 148.092844 
L 214.129938 151.348711 
L 214.80088 152.202318 
L 215.471822 151.790976 
L 216.813706 159.569305 
L 217.484647 156.09025 
L 218.155589 155.555678 
L 219.497473 160.422604 
L 220.168415 160.208885 
L 220.839357 157.208457 
L 221.510299 156.928867 
L 222.181241 160.792703 
L 222.852182 160.698171 
L 223.523124 163.431701 
L 224.194066 162.820012 
L 224.865008 164.45667 
L 225.53595 166.865173 
L 226.206892 165.983029 
L 226.877834 163.99394 
L 227.548776 159.116366 
L 228.219718 156.96123 
L 228.890659 155.967033 
L 229.561601 153.483732 
L 230.232543 153.937337 
L 230.903485 156.064439 
L 231.574427 157.512991 
L 232.245369 158.408552 
L 232.916311 158.342241 
L 233.587253 154.791953 
L 234.258195 155.693278 
L 235.600078 159.504187 
L 236.27102 159.44998 
L 236.941962 160.208743 
L 237.612904 160.705619 
L 238.283846 164.09022 
L 238.954788 163.922487 
L 239.62573 160.395988 
L 240.296671 161.984987 
L 240.967613 162.134686 
L 241.638555 161.451033 
L 242.309497 160.341947 
L 242.980439 164.432005 
L 243.651381 165.317047 
L 244.322323 164.576237 
L 244.993265 164.481681 
L 245.664207 161.362475 
L 246.335148 157.67986 
L 247.00609 158.064349 
L 247.677032 155.449988 
L 248.347974 153.769646 
L 249.018916 151.603833 
L 249.689858 151.578573 
L 250.3608 156.982323 
L 251.031742 154.750188 
L 253.044567 146.908251 
L 253.715509 147.304902 
L 254.386451 150.429174 
L 255.057393 149.93856 
L 255.728335 153.740205 
L 256.399277 155.65175 
L 257.070219 154.055544 
L 257.74116 161.785349 
L 258.412102 162.028788 
L 259.083044 160.184776 
L 259.753986 160.893954 
L 260.424928 162.738261 
L 261.09587 166.944667 
L 261.766812 166.730265 
L 262.437754 159.466106 
L 263.108696 162.435727 
L 263.779637 161.191263 
L 264.450579 156.916496 
L 265.121521 156.114572 
L 265.792463 152.080481 
L 267.134347 149.933507 
L 267.805289 151.079004 
L 268.476231 158.102393 
L 269.147172 154.870504 
L 269.818114 155.368755 
L 270.489056 150.666223 
L 271.159998 151.901788 
L 271.83094 157.784829 
L 272.501882 161.257464 
L 273.172824 163.65303 
L 273.843766 165.417018 
L 274.514708 166.161035 
L 275.185649 164.152878 
L 275.856591 168.331006 
L 276.527533 168.91266 
L 277.198475 167.672619 
L 277.869417 170.396377 
L 278.540359 168.379015 
L 279.211301 170.484716 
L 279.882243 166.028358 
L 280.553184 164.343029 
L 281.224126 166.249775 
L 281.895068 169.647027 
L 282.56601 173.783121 
L 283.907894 174.824942 
L 284.578836 173.999602 
L 285.249778 178.55828 
L 286.591661 178.758508 
L 287.262603 181.998681 
L 287.933545 181.81844 
L 288.604487 175.706922 
L 289.275429 176.371586 
L 290.617313 178.586674 
L 291.959197 175.527818 
L 292.630138 176.567141 
L 293.30108 178.183745 
L 293.972022 182.00862 
L 294.642964 177.144777 
L 295.313906 181.621801 
L 295.984848 188.366606 
L 296.65579 187.945309 
L 297.326732 192.408741 
L 297.997673 191.141772 
L 298.668615 190.879302 
L 299.339557 191.153566 
L 300.010499 192.36834 
L 300.681441 192.4017 
L 301.352383 190.741185 
L 302.023325 191.301969 
L 302.694267 190.030814 
L 303.365209 191.396797 
L 304.03615 194.795815 
L 304.707092 193.063163 
L 305.378034 194.079602 
L 306.719918 185.244621 
L 307.39086 184.256846 
L 308.061802 187.216126 
L 308.732744 191.042571 
L 310.074627 187.721778 
L 310.745569 183.120768 
L 311.416511 181.455158 
L 312.087453 181.921621 
L 312.758395 182.125833 
L 313.429337 184.425693 
L 314.100279 181.129871 
L 314.771221 181.240477 
L 315.442162 183.314033 
L 316.113104 180.475541 
L 316.784046 178.241745 
L 317.454988 177.927855 
L 318.12593 178.603736 
L 318.796872 179.890059 
L 319.467814 177.192944 
L 320.138756 177.329067 
L 320.809698 176.595535 
L 321.480639 176.704766 
L 322.151581 178.588315 
L 322.822523 177.098814 
L 324.164407 181.574324 
L 324.835349 185.754072 
L 325.506291 182.425034 
L 326.177233 182.574176 
L 326.848174 182.353267 
L 327.519116 181.250031 
L 328.190058 186.183419 
L 328.861 189.904234 
L 329.531942 190.412536 
L 330.202884 189.859729 
L 330.873826 190.496766 
L 332.21571 194.612019 
L 332.886651 195.067324 
L 333.557593 193.407231 
L 334.228535 197.379796 
L 334.899477 196.003277 
L 336.241361 201.563632 
L 336.912303 199.877371 
L 337.583245 201.705591 
L 338.925128 196.350988 
L 339.59607 198.615529 
L 340.267012 196.752987 
L 340.937954 198.082937 
L 341.608896 200.674081 
L 342.279838 200.424682 
L 342.95078 203.171646 
L 343.621722 206.960173 
L 344.292663 204.99135 
L 344.963605 208.44355 
L 345.634547 207.012752 
L 346.305489 205.069065 
L 346.976431 206.892599 
L 347.647373 206.545427 
L 348.318315 204.398925 
L 349.660199 199.178816 
L 350.33114 197.441129 
L 351.002082 197.871678 
L 351.673024 200.44351 
L 352.343966 196.664558 
L 353.014908 194.615766 
L 353.68585 193.22337 
L 354.356792 192.112654 
L 355.027734 189.500123 
L 355.698675 186.294361 
L 356.369617 189.574739 
L 357.040559 189.897692 
L 357.711501 192.021324 
L 358.382443 189.511146 
L 359.053385 188.117354 
L 359.724327 188.932598 
L 360.395269 187.465115 
L 361.066211 184.540154 
L 361.737152 188.790664 
L 362.408094 191.116774 
L 363.079036 194.391677 
L 363.749978 191.313255 
L 364.42092 191.752826 
L 365.091862 193.002026 
L 365.762804 192.748233 
L 366.433746 193.592822 
L 367.104688 195.843337 
L 367.104688 195.843337 
" style="fill:none;stroke:#ff0000;stroke-linecap:square;"/>
   </g>
   <g id="line2d_4">
    <path clip-path="url(#p84aed9f7e2)" d="M 32.304688 105.681647 
L 33.646571 103.835851 
L 34.317513 102.214877 
L 34.988455 102.679093 
L 35.659397 107.591468 
L 36.330339 108.341179 
L 37.001281 109.427603 
L 37.672223 108.468085 
L 38.343164 107.717954 
L 39.014106 111.999135 
L 39.685048 111.870311 
L 40.35599 113.56864 
L 41.026932 111.33459 
L 41.697874 111.780804 
L 42.368816 109.358739 
L 43.039758 108.361805 
L 43.7107 103.541625 
L 44.381641 101.294634 
L 45.052583 101.679059 
L 45.723525 98.389622 
L 46.394467 97.379117 
L 47.065409 95.701562 
L 47.736351 94.611871 
L 48.407293 91.84167 
L 49.078235 93.891238 
L 49.749176 94.977031 
L 50.420118 92.883011 
L 51.09106 92.092567 
L 51.762002 93.80265 
L 52.432944 99.31669 
L 53.103886 95.490014 
L 53.774828 95.915449 
L 54.44577 96.509109 
L 55.116712 98.339426 
L 55.787653 99.496145 
L 56.458595 99.600943 
L 57.129537 99.444053 
L 57.800479 100.667486 
L 58.471421 105.801049 
L 59.142363 106.539571 
L 59.813305 110.176303 
L 60.484247 108.453325 
L 61.155189 109.71023 
L 61.82613 109.490943 
L 62.497072 108.523511 
L 63.168014 103.403569 
L 63.838956 101.893636 
L 64.509898 103.086584 
L 65.18084 101.640858 
L 65.851782 103.3277 
L 66.522724 103.723443 
L 67.193665 103.489451 
L 67.864607 105.505673 
L 68.535549 99.908999 
L 69.206491 102.845023 
L 69.877433 98.729337 
L 70.548375 99.424619 
L 71.219317 102.990341 
L 71.890259 104.175717 
L 72.561201 103.332604 
L 73.232142 106.130072 
L 73.903084 104.905357 
L 74.574026 103.944901 
L 75.91591 111.603908 
L 76.586852 109.489579 
L 77.257794 108.607984 
L 77.928736 106.623245 
L 79.270619 105.964102 
L 80.612503 104.513992 
L 81.954387 109.781593 
L 82.625329 109.089435 
L 83.296271 109.214932 
L 83.967213 103.232047 
L 84.638154 104.569895 
L 85.309096 106.758293 
L 85.980038 107.810601 
L 86.65098 107.263742 
L 87.992864 107.531996 
L 88.663806 111.42006 
L 89.334748 116.302249 
L 90.00569 111.980431 
L 90.676631 114.184457 
L 91.347573 113.188739 
L 92.018515 113.640706 
L 92.689457 109.875419 
L 93.360399 111.44254 
L 94.031341 108.223882 
L 94.702283 108.334479 
L 95.373225 106.8046 
L 96.044166 104.900202 
L 96.715108 102.090164 
L 97.38605 103.257346 
L 98.056992 102.168519 
L 98.727934 102.706013 
L 99.398876 102.115517 
L 100.069818 103.055803 
L 100.74076 102.051994 
L 101.411702 102.999376 
L 102.082643 98.855438 
L 102.753585 99.773639 
L 103.424527 96.400966 
L 104.095469 97.157276 
L 104.766411 102.91235 
L 105.437353 106.181972 
L 106.108295 105.939189 
L 107.450178 104.029739 
L 108.12112 101.24118 
L 109.463004 109.644772 
L 110.133946 106.961573 
L 110.804888 101.673833 
L 111.47583 99.987495 
L 112.817714 102.095067 
L 113.488655 100.638664 
L 114.159597 106.207061 
L 114.830539 109.034748 
L 115.501481 107.249065 
L 116.172423 103.042534 
L 116.843365 106.928681 
L 117.514307 109.663889 
L 118.185249 109.610938 
L 118.856191 110.398444 
L 119.527132 113.725356 
L 120.198074 113.82803 
L 120.869016 116.057407 
L 121.539958 114.108613 
L 122.2109 114.17357 
L 122.881842 115.805289 
L 123.552784 115.748349 
L 124.223726 114.937481 
L 124.894667 112.464629 
L 125.565609 113.272289 
L 126.236551 107.980296 
L 126.907493 107.89893 
L 127.578435 108.982066 
L 128.249377 108.554255 
L 128.920319 107.788552 
L 129.591261 109.966464 
L 130.262203 114.416153 
L 130.933144 116.617847 
L 131.604086 115.446674 
L 132.275028 119.269811 
L 132.94597 118.797838 
L 133.616912 115.501763 
L 134.287854 113.102496 
L 134.958796 109.937829 
L 135.629738 110.58158 
L 136.300679 113.999227 
L 136.971621 115.31761 
L 138.313505 114.069773 
L 138.984447 116.065563 
L 140.326331 112.03145 
L 140.997273 112.792229 
L 141.668215 113.150755 
L 142.339156 111.354321 
L 143.010098 110.757168 
L 143.68104 111.645291 
L 144.351982 111.145621 
L 145.022924 106.994136 
L 145.693866 111.157283 
L 146.364808 113.879075 
L 147.03575 115.165947 
L 147.706692 112.523965 
L 148.377633 111.775032 
L 149.048575 113.261108 
L 149.719517 110.659357 
L 150.390459 112.297666 
L 151.061401 111.351754 
L 151.732343 114.898132 
L 153.074227 119.946066 
L 153.745168 119.817551 
L 154.41611 120.041356 
L 155.087052 120.118078 
L 155.757994 118.816282 
L 156.428936 122.525567 
L 157.099878 122.952625 
L 157.77082 121.809805 
L 159.112704 121.499117 
L 159.783645 124.403595 
L 160.454587 124.881843 
L 161.796471 117.878186 
L 162.467413 116.941344 
L 163.138355 117.264834 
L 163.809297 114.804335 
L 164.480239 115.245311 
L 165.15118 112.458026 
L 165.822122 113.930594 
L 167.164006 110.794815 
L 167.834948 110.581654 
L 168.50589 111.593531 
L 169.176832 111.953811 
L 169.847774 107.64661 
L 170.518716 110.371065 
L 171.189657 109.031631 
L 171.860599 108.359271 
L 172.531541 105.502971 
L 173.873425 95.717395 
L 174.544367 94.359643 
L 175.886251 97.092316 
L 176.557193 99.454876 
L 177.228134 104.312077 
L 177.899076 107.65617 
L 179.24096 110.424572 
L 179.911902 110.573193 
L 180.582844 109.713887 
L 181.924728 113.893485 
L 182.595669 116.294586 
L 183.266611 110.614228 
L 184.608495 113.793973 
L 185.279437 113.190915 
L 185.950379 112.170807 
L 186.621321 108.51587 
L 187.292263 105.929285 
L 187.963205 108.282639 
L 188.634146 106.110913 
L 189.305088 104.353349 
L 189.97603 106.142499 
L 190.646972 109.089791 
L 191.317914 107.57602 
L 191.988856 113.861715 
L 192.659798 116.832985 
L 193.33074 115.257132 
L 194.001681 114.174269 
L 194.672623 116.075697 
L 196.014507 112.277081 
L 196.685449 113.044338 
L 197.356391 112.681503 
L 198.027333 112.557857 
L 198.698275 114.393396 
L 199.369217 115.005444 
L 200.040158 116.467732 
L 200.7111 119.003691 
L 201.382042 118.412955 
L 202.052984 119.400362 
L 202.723926 116.009173 
L 203.394868 115.305425 
L 204.06581 116.033267 
L 204.736752 113.678742 
L 205.407694 113.569566 
L 206.078635 112.879926 
L 206.749577 110.407962 
L 207.420519 112.48899 
L 208.091461 110.610468 
L 208.762403 108.401602 
L 209.433345 102.101828 
L 210.104287 99.304925 
L 210.775229 100.633993 
L 211.44617 99.314696 
L 212.117112 93.830661 
L 214.129938 82.479228 
L 214.80088 83.105951 
L 215.471822 79.80968 
L 216.142764 78.861818 
L 216.813706 76.861539 
L 217.484647 76.028645 
L 218.155589 74.619986 
L 218.826531 72.105335 
L 219.497473 71.853846 
L 220.168415 66.420419 
L 220.839357 69.907558 
L 221.510299 68.277534 
L 222.852182 70.970698 
L 223.523124 71.03158 
L 224.194066 69.523759 
L 224.865008 68.995476 
L 225.53595 65.45821 
L 226.206892 66.64188 
L 226.877834 71.22128 
L 227.548776 71.70794 
L 228.219718 71.25117 
L 228.890659 71.27512 
L 229.561601 69.794033 
L 230.232543 67.571337 
L 230.903485 67.23541 
L 231.574427 66.404348 
L 232.245369 64.894121 
L 232.916311 64.439165 
L 233.587253 60.812873 
L 234.258195 58.880826 
L 234.929136 62.469238 
L 235.600078 63.137325 
L 236.27102 63.031828 
L 236.941962 64.119245 
L 237.612904 68.370079 
L 238.283846 68.424317 
L 238.954788 69.57261 
L 239.62573 68.440829 
L 240.296671 71.253922 
L 242.309497 76.302078 
L 242.980439 72.833644 
L 243.651381 71.480414 
L 244.322323 69.222013 
L 244.993265 67.950473 
L 246.335148 78.392575 
L 247.00609 78.228746 
L 247.677032 75.870678 
L 249.018916 69.653517 
L 249.689858 64.201742 
L 250.3608 65.763275 
L 251.031742 61.293714 
L 251.702683 65.172197 
L 252.373625 66.932636 
L 253.044567 65.859198 
L 253.715509 67.922453 
L 254.386451 67.851474 
L 255.057393 67.609052 
L 255.728335 71.854738 
L 256.399277 73.047235 
L 257.74116 69.74053 
L 258.412102 71.939333 
L 259.083044 71.417642 
L 259.753986 67.705303 
L 260.424928 68.099653 
L 261.09587 66.288798 
L 262.437754 65.121798 
L 263.108696 61.435527 
L 263.779637 61.574654 
L 264.450579 59.806374 
L 265.121521 63.202464 
L 265.792463 63.726831 
L 267.134347 68.053101 
L 267.805289 69.606797 
L 268.476231 72.293695 
L 269.818114 71.671047 
L 270.489056 73.654517 
L 271.159998 74.724424 
L 271.83094 78.151152 
L 272.501882 77.717945 
L 273.172824 79.514237 
L 273.843766 76.716905 
L 274.514708 74.545642 
L 275.185649 71.867413 
L 275.856591 73.105966 
L 276.527533 75.247088 
L 277.198475 78.797947 
L 278.540359 76.204105 
L 279.211301 72.162945 
L 279.882243 72.669705 
L 280.553184 73.7207 
L 281.224126 76.620057 
L 281.895068 74.686995 
L 283.907894 70.213311 
L 284.578836 67.69921 
L 285.249778 66.079677 
L 285.92072 66.288551 
L 286.591661 62.274772 
L 287.262603 64.688744 
L 287.933545 65.199213 
L 288.604487 64.71851 
L 289.275429 65.950098 
L 290.617313 65.846982 
L 291.288255 66.750123 
L 291.959197 64.452143 
L 292.630138 63.46732 
L 293.30108 67.868687 
L 293.972022 65.73056 
L 294.642964 65.909712 
L 295.313906 63.850355 
L 295.984848 66.569927 
L 296.65579 66.344679 
L 297.326732 69.08431 
L 297.997673 65.825207 
L 298.668615 67.959271 
L 299.339557 69.031703 
L 300.010499 67.397873 
L 300.681441 65.375503 
L 301.352383 62.884543 
L 302.023325 58.108545 
L 302.694267 58.999154 
L 303.365209 57.034891 
L 304.03615 56.264691 
L 304.707092 54.97106 
L 305.378034 56.095337 
L 306.048976 51.968932 
L 306.719918 53.70324 
L 307.39086 56.817562 
L 308.061802 55.948902 
L 308.732744 56.945277 
L 309.403685 52.904673 
L 310.074627 52.518808 
L 310.745569 49.00798 
L 312.087453 53.99257 
L 312.758395 55.182035 
L 313.429337 52.978954 
L 314.771221 51.793424 
L 315.442162 50.200741 
L 316.113104 50.247284 
L 317.454988 46.070043 
L 318.12593 44.24099 
L 318.796872 44.943816 
L 319.467814 43.110341 
L 320.138756 41.814398 
L 320.809698 39.724778 
L 321.480639 34.865064 
L 322.151581 35.486941 
L 322.822523 35.519801 
L 323.493465 33.233403 
L 324.164407 30.172726 
L 324.835349 29.421258 
L 325.506291 28.930582 
L 326.177233 31.078681 
L 326.848174 31.398981 
L 327.519116 31.408313 
L 328.190058 35.228897 
L 328.861 37.258787 
L 329.531942 37.690324 
L 330.202884 43.040568 
L 330.873826 42.312759 
L 331.544768 43.784689 
L 332.21571 41.971081 
L 332.886651 41.164588 
L 333.557593 39.332843 
L 334.228535 39.426852 
L 334.899477 37.80016 
L 335.570419 39.584703 
L 336.241361 38.314282 
L 336.912303 43.678764 
L 337.583245 45.361022 
L 338.254186 46.086655 
L 338.925128 43.513792 
L 339.59607 43.956365 
L 340.267012 46.186165 
L 340.937954 43.185769 
L 341.608896 41.226805 
L 342.279838 43.595063 
L 342.95078 43.012319 
L 343.621722 40.709039 
L 344.292663 42.443093 
L 344.963605 40.974423 
L 345.634547 38.944906 
L 346.305489 34.229583 
L 346.976431 35.801874 
L 347.647373 36.655108 
L 348.318315 33.495477 
L 348.989257 33.866459 
L 349.660199 34.901684 
L 350.33114 33.173991 
L 351.002082 30.946354 
L 351.673024 33.70636 
L 353.014908 33.991654 
L 353.68585 37.115453 
L 354.356792 38.989714 
L 355.027734 40.386965 
L 355.698675 36.630057 
L 356.369617 37.741799 
L 357.040559 38.211555 
L 358.382443 31.654281 
L 359.053385 34.153898 
L 359.724327 32.507264 
L 360.395269 33.688301 
L 361.066211 31.613444 
L 361.737152 30.608844 
L 362.408094 29.929995 
L 363.079036 28.692266 
L 363.749978 29.078893 
L 364.42092 30.020188 
L 365.091862 31.475988 
L 365.762804 32.031737 
L 366.433746 35.263723 
L 367.104688 35.740885 
L 367.104688 35.740885 
" style="fill:none;stroke:#00bfbf;stroke-linecap:square;"/>
   </g>
   <g id="line2d_5">
    <path clip-path="url(#p84aed9f7e2)" d="M 32.304688 106.607519 
L 32.975629 106.250291 
L 33.646571 102.544975 
L 34.317513 100.401173 
L 34.988455 96.59988 
L 35.659397 97.462702 
L 36.330339 100.063114 
L 37.001281 103.170046 
L 37.672223 104.436843 
L 38.343164 106.009962 
L 39.014106 105.569945 
L 39.685048 103.7618 
L 40.35599 105.921377 
L 41.026932 104.766534 
L 41.697874 107.422001 
L 42.368816 106.538212 
L 43.039758 101.867999 
L 43.7107 102.893774 
L 44.381641 105.029613 
L 45.052583 103.506697 
L 46.394467 107.138617 
L 47.065409 105.708671 
L 47.736351 105.295321 
L 48.407293 108.558772 
L 49.078235 108.802934 
L 49.749176 110.038054 
L 50.420118 112.518588 
L 51.09106 110.393648 
L 51.762002 111.523369 
L 52.432944 109.972795 
L 53.103886 113.17908 
L 53.774828 111.26504 
L 54.44577 108.537884 
L 55.116712 107.843671 
L 56.458595 112.556641 
L 57.129537 112.168505 
L 57.800479 113.514801 
L 58.471421 112.45768 
L 59.142363 113.224032 
L 59.813305 111.931791 
L 60.484247 113.731272 
L 61.155189 115.210131 
L 61.82613 115.981129 
L 62.497072 117.599102 
L 63.168014 117.873243 
L 63.838956 120.465471 
L 64.509898 114.751758 
L 65.18084 115.742392 
L 65.851782 114.089762 
L 66.522724 114.421341 
L 67.193665 114.525927 
L 67.864607 113.845126 
L 68.535549 115.592783 
L 69.206491 122.18753 
L 69.877433 119.537627 
L 70.548375 120.442067 
L 71.219317 117.058028 
L 71.890259 118.247574 
L 72.561201 118.286466 
L 73.232142 117.59097 
L 73.903084 115.99555 
L 74.574026 121.58935 
L 75.244968 117.501975 
L 75.91591 118.225732 
L 76.586852 119.710393 
L 77.257794 117.690384 
L 77.928736 118.456988 
L 78.599677 114.687401 
L 79.270619 115.010066 
L 79.941561 116.167843 
L 80.612503 114.130311 
L 81.283445 114.343419 
L 81.954387 116.284339 
L 82.625329 115.443857 
L 83.296271 116.727304 
L 83.967213 119.109355 
L 84.638154 119.793018 
L 85.309096 116.994105 
L 85.980038 114.854867 
L 86.65098 117.409106 
L 87.321922 119.042317 
L 87.992864 116.323377 
L 88.663806 119.247689 
L 89.334748 120.884629 
L 90.00569 121.436691 
L 90.676631 119.113569 
L 91.347573 116.07589 
L 92.018515 116.579074 
L 92.689457 117.532995 
L 93.360399 117.126452 
L 94.031341 122.989603 
L 94.702283 122.50583 
L 95.373225 122.484433 
L 96.044166 121.021531 
L 96.715108 125.862006 
L 98.056992 126.944502 
L 98.727934 129.25129 
L 99.398876 132.738078 
L 100.069818 137.059122 
L 100.74076 136.50399 
L 101.411702 137.060152 
L 102.082643 137.199362 
L 102.753585 138.324796 
L 103.424527 138.548943 
L 104.095469 135.997183 
L 104.766411 135.210625 
L 105.437353 136.129971 
L 106.108295 137.241421 
L 106.779237 138.594786 
L 107.450178 140.923461 
L 108.12112 139.050079 
L 108.792062 139.138784 
L 109.463004 140.459887 
L 110.133946 144.043339 
L 110.804888 141.720954 
L 111.47583 143.447844 
L 112.146772 140.913803 
L 112.817714 144.886356 
L 113.488655 146.139645 
L 114.159597 144.740904 
L 114.830539 140.388538 
L 115.501481 144.912695 
L 116.172423 144.949542 
L 116.843365 146.068773 
L 117.514307 146.320983 
L 118.185249 148.600384 
L 118.856191 152.648794 
L 119.527132 151.466086 
L 120.198074 153.345605 
L 120.869016 153.160631 
L 121.539958 153.303156 
L 122.2109 157.489966 
L 122.881842 156.328371 
L 123.552784 156.356012 
L 124.223726 155.537525 
L 124.894667 155.461632 
L 126.236551 153.287048 
L 126.907493 159.692383 
L 127.578435 163.766937 
L 128.249377 163.714703 
L 128.920319 167.114188 
L 129.591261 165.379724 
L 130.262203 162.0901 
L 131.604086 157.460418 
L 132.275028 151.026245 
L 133.616912 155.165916 
L 134.287854 155.303191 
L 134.958796 152.017156 
L 135.629738 151.113242 
L 136.300679 151.886943 
L 136.971621 150.979638 
L 137.642563 150.296148 
L 138.313505 146.820813 
L 138.984447 141.001129 
L 139.655389 142.231462 
L 140.326331 143.863119 
L 141.668215 145.767517 
L 142.339156 142.332069 
L 143.010098 141.61505 
L 144.351982 138.895144 
L 145.022924 138.494477 
L 145.693866 137.961362 
L 146.364808 133.714845 
L 147.03575 135.584032 
L 147.706692 133.140445 
L 148.377633 131.632217 
L 149.048575 131.550154 
L 149.719517 123.686137 
L 150.390459 123.16571 
L 151.061401 122.998329 
L 151.732343 123.151192 
L 152.403285 125.284643 
L 153.074227 126.279705 
L 153.745168 128.460023 
L 154.41611 126.645509 
L 155.087052 122.729923 
L 155.757994 119.586742 
L 156.428936 113.321349 
L 157.099878 111.510077 
L 158.441762 107.174159 
L 159.112704 103.690886 
L 159.783645 101.794933 
L 160.454587 101.877565 
L 161.125529 101.74074 
L 161.796471 99.419139 
L 162.467413 98.824269 
L 163.809297 89.581362 
L 164.480239 88.958886 
L 165.15118 89.389077 
L 165.822122 94.37854 
L 166.493064 97.20328 
L 167.164006 95.872521 
L 167.834948 94.007693 
L 168.50589 89.60654 
L 169.176832 91.482644 
L 169.847774 95.070157 
L 170.518716 89.314574 
L 171.189657 87.498162 
L 171.860599 84.906504 
L 172.531541 86.367792 
L 173.202483 85.114432 
L 173.873425 90.359771 
L 174.544367 92.377982 
L 175.215309 89.980397 
L 175.886251 89.734369 
L 176.557193 85.745234 
L 177.228134 89.332358 
L 177.899076 90.328221 
L 178.570018 90.962996 
L 179.24096 91.144333 
L 179.911902 93.128118 
L 180.582844 91.2082 
L 181.253786 94.904058 
L 181.924728 93.360211 
L 182.595669 91.29846 
L 183.266611 87.329796 
L 183.937553 86.717816 
L 184.608495 87.852765 
L 185.279437 86.88466 
L 185.950379 88.083119 
L 187.292263 86.091219 
L 187.963205 85.764078 
L 188.634146 89.149682 
L 189.305088 83.070632 
L 189.97603 84.183574 
L 190.646972 85.681096 
L 191.317914 84.971785 
L 191.988856 88.382243 
L 192.659798 87.373733 
L 193.33074 86.028059 
L 194.001681 85.550091 
L 194.672623 88.040811 
L 195.343565 89.590879 
L 196.685449 89.750272 
L 197.356391 88.51343 
L 198.027333 85.170301 
L 198.698275 86.572735 
L 200.040158 91.47113 
L 200.7111 93.592126 
L 201.382042 93.33115 
L 202.052984 93.731357 
L 202.723926 97.83661 
L 203.394868 98.536456 
L 204.06581 96.261746 
L 204.736752 96.666618 
L 205.407694 95.071843 
L 206.078635 96.666366 
L 206.749577 97.035306 
L 207.420519 99.544505 
L 208.091461 99.569445 
L 208.762403 98.297412 
L 210.104287 93.814342 
L 210.775229 92.746029 
L 211.44617 89.619819 
L 212.117112 94.077509 
L 212.788054 91.576188 
L 213.458996 91.729311 
L 214.129938 91.34125 
L 214.80088 93.496029 
L 215.471822 93.615924 
L 216.142764 93.107309 
L 216.813706 95.178587 
L 217.484647 94.387173 
L 218.155589 94.182298 
L 218.826531 98.473383 
L 219.497473 93.088893 
L 220.168415 90.649476 
L 220.839357 94.629227 
L 221.510299 96.23392 
L 222.181241 94.138331 
L 222.852182 98.33541 
L 224.194066 102.490621 
L 224.865008 101.004185 
L 225.53595 94.83285 
L 226.206892 93.676229 
L 226.877834 92.177969 
L 227.548776 91.963243 
L 228.219718 92.810605 
L 228.890659 97.267573 
L 229.561601 99.289457 
L 230.903485 99.158554 
L 231.574427 105.203714 
L 232.245369 109.150504 
L 233.587253 111.381127 
L 234.258195 115.125088 
L 234.929136 108.626064 
L 235.600078 106.579141 
L 236.27102 102.782429 
L 236.941962 103.700436 
L 237.612904 102.476199 
L 238.283846 103.148793 
L 238.954788 102.040173 
L 239.62573 103.351276 
L 240.967613 99.638853 
L 241.638555 99.677985 
L 242.309497 98.521586 
L 242.980439 99.508408 
L 243.651381 99.134379 
L 244.322323 99.208422 
L 245.664207 98.938918 
L 246.335148 97.799148 
L 247.00609 99.028721 
L 247.677032 97.641659 
L 248.347974 98.800913 
L 249.018916 97.669653 
L 249.689858 100.126517 
L 250.3608 101.746663 
L 251.031742 102.26321 
L 252.373625 102.173576 
L 253.044567 104.179195 
L 253.715509 105.662608 
L 255.057393 98.857128 
L 255.728335 98.742713 
L 256.399277 96.997821 
L 257.070219 96.316696 
L 257.74116 101.062777 
L 258.412102 101.428214 
L 259.083044 101.442914 
L 259.753986 98.508778 
L 260.424928 97.913437 
L 261.09587 102.519995 
L 261.766812 105.045328 
L 262.437754 102.624755 
L 263.108696 103.642097 
L 263.779637 102.306774 
L 264.450579 101.49879 
L 265.121521 103.399283 
L 265.792463 103.436496 
L 266.463405 102.02094 
L 267.805289 94.0292 
L 269.147172 94.706409 
L 269.818114 94.823658 
L 271.159998 96.213839 
L 271.83094 96.4927 
L 272.501882 100.591653 
L 273.172824 102.50917 
L 273.843766 102.249197 
L 274.514708 101.623566 
L 275.185649 98.910031 
L 275.856591 102.448837 
L 276.527533 105.017139 
L 277.198475 106.577011 
L 277.869417 108.712826 
L 278.540359 106.843239 
L 279.211301 108.770765 
L 279.882243 109.881593 
L 280.553184 111.361337 
L 281.224126 108.624648 
L 281.895068 108.169745 
L 282.56601 104.30836 
L 283.236952 104.572858 
L 283.907894 110.968904 
L 284.578836 109.712365 
L 285.249778 110.179719 
L 285.92072 109.139299 
L 286.591661 107.722947 
L 287.262603 107.130011 
L 287.933545 108.066327 
L 288.604487 105.258954 
L 289.275429 101.944717 
L 289.946371 97.693869 
L 290.617313 96.884459 
L 291.288255 96.292528 
L 291.959197 91.827381 
L 292.630138 90.588256 
L 293.30108 91.762191 
L 293.972022 92.056286 
L 294.642964 91.284698 
L 295.313906 92.578505 
L 295.984848 92.537606 
L 296.65579 93.73146 
L 297.326732 92.721777 
L 297.997673 93.786216 
L 298.668615 97.83164 
L 299.339557 95.160587 
L 300.010499 96.640942 
L 300.681441 95.622649 
L 301.352383 97.424036 
L 302.023325 92.583669 
L 302.694267 95.208927 
L 303.365209 94.851543 
L 304.03615 96.108994 
L 304.707092 94.876699 
L 306.048976 90.428742 
L 306.719918 89.47105 
L 307.39086 86.438314 
L 308.061802 89.653288 
L 308.732744 90.683061 
L 309.403685 90.338182 
L 310.074627 88.01493 
L 310.745569 88.76574 
L 311.416511 92.782558 
L 312.087453 89.861541 
L 312.758395 90.608256 
L 313.429337 91.909616 
L 314.100279 93.5457 
L 314.771221 93.718944 
L 315.442162 93.077126 
L 316.113104 89.894157 
L 316.784046 91.270871 
L 317.454988 89.688571 
L 318.12593 88.614437 
L 318.796872 86.58943 
L 319.467814 85.053926 
L 320.138756 88.194456 
L 320.809698 87.585327 
L 321.480639 85.248388 
L 322.151581 85.481663 
L 322.822523 85.049217 
L 323.493465 87.766482 
L 324.164407 84.17086 
L 324.835349 82.351545 
L 325.506291 80.858179 
L 326.848174 79.444432 
L 327.519116 83.923154 
L 328.190058 83.14437 
L 328.861 81.113648 
L 329.531942 76.508035 
L 330.202884 74.895825 
L 330.873826 72.241332 
L 331.544768 70.599559 
L 332.21571 71.450782 
L 332.886651 77.882386 
L 333.557593 74.647935 
L 334.228535 75.038052 
L 334.899477 75.674545 
L 335.570419 78.726299 
L 336.241361 78.513408 
L 336.912303 79.495793 
L 337.583245 79.702349 
L 338.254186 75.492929 
L 338.925128 75.098134 
L 339.59607 74.133409 
L 340.267012 72.05629 
L 340.937954 74.850231 
L 341.608896 72.116571 
L 342.279838 75.763167 
L 342.95078 74.203248 
L 343.621722 71.522229 
L 344.292663 71.41312 
L 344.963605 73.81111 
L 345.634547 79.648138 
L 346.305489 80.949987 
L 346.976431 81.925741 
L 347.647373 83.221736 
L 348.318315 85.200039 
L 348.989257 82.539902 
L 349.660199 83.664713 
L 351.002082 84.668523 
L 351.673024 84.431901 
L 352.343966 88.024099 
L 353.014908 89.826345 
L 353.68585 90.651587 
L 354.356792 87.363831 
L 355.027734 84.847282 
L 355.698675 80.868552 
L 356.369617 81.815255 
L 357.040559 83.817989 
L 357.711501 83.220317 
L 358.382443 80.115352 
L 359.053385 81.791564 
L 359.724327 79.752814 
L 360.395269 84.000135 
L 361.066211 83.656047 
L 362.408094 90.614092 
L 363.079036 89.854708 
L 363.749978 91.687848 
L 364.42092 91.193343 
L 365.091862 92.131225 
L 365.762804 87.251255 
L 366.433746 86.093713 
L 367.104688 89.100752 
L 367.104688 89.100752 
" style="fill:none;stroke:#bf00bf;stroke-linecap:square;"/>
   </g>
   <g id="line2d_6">
    <path clip-path="url(#p84aed9f7e2)" d="M 32.304688 113.662712 
L 32.975629 110.056113 
L 33.646571 110.564906 
L 34.317513 112.405475 
L 34.988455 108.761465 
L 35.659397 108.37372 
L 36.330339 111.895364 
L 37.001281 109.967188 
L 37.672223 112.895156 
L 39.014106 114.791171 
L 39.685048 114.471293 
L 40.35599 115.90684 
L 41.026932 119.716725 
L 41.697874 117.101685 
L 42.368816 115.349383 
L 43.039758 118.691826 
L 43.7107 120.545513 
L 44.381641 115.808552 
L 45.052583 113.52148 
L 45.723525 113.892574 
L 46.394467 112.555236 
L 47.065409 113.071816 
L 47.736351 111.496938 
L 48.407293 112.641668 
L 49.078235 114.287094 
L 49.749176 109.501855 
L 50.420118 113.332887 
L 51.09106 114.947431 
L 51.762002 114.904082 
L 52.432944 118.877185 
L 53.103886 118.214899 
L 53.774828 116.172609 
L 54.44577 114.547555 
L 55.116712 114.790968 
L 56.458595 116.665926 
L 57.129537 116.090117 
L 57.800479 115.058313 
L 58.471421 113.379581 
L 59.142363 117.53607 
L 59.813305 118.964025 
L 60.484247 122.394767 
L 61.155189 122.525134 
L 61.82613 122.283582 
L 62.497072 123.253146 
L 63.168014 120.723118 
L 63.838956 117.719477 
L 64.509898 120.348317 
L 65.18084 119.430578 
L 65.851782 120.573163 
L 66.522724 117.900358 
L 67.193665 118.611839 
L 67.864607 120.821308 
L 68.535549 118.482021 
L 69.206491 116.978349 
L 69.877433 118.102746 
L 70.548375 117.71412 
L 71.219317 119.423954 
L 71.890259 117.885466 
L 72.561201 117.486364 
L 73.232142 119.94931 
L 73.903084 123.844456 
L 74.574026 126.380273 
L 75.244968 125.972989 
L 75.91591 127.861489 
L 76.586852 130.628914 
L 77.257794 130.482778 
L 77.928736 131.061776 
L 78.599677 126.797194 
L 79.270619 126.56419 
L 79.941561 130.078117 
L 80.612503 130.064992 
L 81.283445 129.583145 
L 81.954387 129.85691 
L 82.625329 124.844722 
L 83.296271 127.272221 
L 84.638154 130.999277 
L 85.309096 129.769195 
L 85.980038 136.35513 
L 86.65098 137.222989 
L 87.321922 138.49829 
L 87.992864 139.079145 
L 88.663806 135.851603 
L 89.334748 135.415572 
L 90.00569 137.680009 
L 90.676631 134.177436 
L 91.347573 134.016593 
L 92.018515 134.289102 
L 92.689457 135.389816 
L 93.360399 135.150939 
L 94.031341 135.10051 
L 94.702283 139.518786 
L 95.373225 138.211815 
L 96.044166 139.114185 
L 96.715108 140.750717 
L 97.38605 139.646141 
L 98.056992 142.334552 
L 98.727934 142.777453 
L 99.398876 144.240796 
L 100.069818 147.472838 
L 100.74076 146.655373 
L 101.411702 147.404953 
L 102.082643 147.408387 
L 102.753585 146.408291 
L 103.424527 143.01665 
L 104.095469 143.195922 
L 104.766411 141.906221 
L 105.437353 144.251348 
L 106.108295 145.861707 
L 106.779237 150.535479 
L 108.12112 145.862097 
L 108.792062 139.957849 
L 109.463004 137.252789 
L 110.133946 140.254936 
L 110.804888 140.341972 
L 111.47583 141.062157 
L 112.146772 142.432458 
L 113.488655 146.655829 
L 114.159597 149.841519 
L 114.830539 150.17133 
L 115.501481 149.418393 
L 116.172423 147.381306 
L 116.843365 146.7224 
L 117.514307 146.674587 
L 118.185249 146.196557 
L 118.856191 146.36305 
L 119.527132 145.994895 
L 120.198074 146.119104 
L 120.869016 148.790309 
L 121.539958 149.760528 
L 122.2109 150.039443 
L 122.881842 145.734463 
L 123.552784 145.705946 
L 124.223726 140.185604 
L 124.894667 140.358315 
L 125.565609 139.585926 
L 126.236551 140.065005 
L 126.907493 142.926802 
L 127.578435 143.93386 
L 128.249377 143.687213 
L 128.920319 141.540393 
L 130.262203 146.564449 
L 130.933144 147.868037 
L 131.604086 148.302822 
L 132.275028 149.304822 
L 132.94597 144.784467 
L 133.616912 148.259809 
L 134.287854 148.914373 
L 134.958796 148.405149 
L 135.629738 144.75627 
L 136.300679 146.84019 
L 137.642563 140.062661 
L 138.313505 141.080408 
L 138.984447 144.252728 
L 139.655389 144.438244 
L 140.326331 142.035415 
L 140.997273 144.178247 
L 141.668215 141.538075 
L 142.339156 142.289759 
L 143.010098 141.265839 
L 143.68104 139.052504 
L 144.351982 143.561337 
L 145.022924 139.684093 
L 145.693866 139.442989 
L 146.364808 141.407435 
L 147.03575 141.065964 
L 147.706692 139.164003 
L 148.377633 136.398896 
L 149.048575 138.517216 
L 149.719517 138.047257 
L 150.390459 141.124006 
L 151.061401 141.083488 
L 151.732343 144.636672 
L 152.403285 143.822485 
L 153.074227 145.806689 
L 153.745168 146.379821 
L 154.41611 146.542232 
L 155.087052 148.515074 
L 155.757994 147.276318 
L 156.428936 142.886913 
L 157.099878 140.147558 
L 157.77082 140.476327 
L 158.441762 139.159005 
L 159.112704 138.795832 
L 159.783645 139.461396 
L 160.454587 143.257789 
L 161.125529 142.516325 
L 161.796471 140.833942 
L 162.467413 140.439724 
L 163.138355 140.627338 
L 163.809297 140.663985 
L 164.480239 138.048185 
L 165.15118 139.313059 
L 165.822122 137.850594 
L 166.493064 140.862309 
L 167.164006 139.858664 
L 167.834948 138.46245 
L 168.50589 139.43747 
L 169.176832 138.689715 
L 169.847774 142.614775 
L 170.518716 142.32439 
L 171.189657 143.254942 
L 171.860599 141.769324 
L 172.531541 142.881517 
L 173.202483 141.990579 
L 173.873425 138.505273 
L 174.544367 142.099084 
L 175.215309 140.839076 
L 175.886251 136.929854 
L 176.557193 138.32257 
L 177.899076 140.606219 
L 178.570018 141.469374 
L 179.24096 144.686876 
L 179.911902 145.232663 
L 180.582844 147.153322 
L 181.253786 143.442895 
L 181.924728 145.008251 
L 182.595669 143.798079 
L 183.266611 144.266389 
L 183.937553 140.482015 
L 184.608495 139.559923 
L 185.279437 135.620367 
L 185.950379 135.613991 
L 186.621321 132.709809 
L 187.292263 133.96775 
L 187.963205 138.879553 
L 188.634146 134.050748 
L 189.305088 134.574539 
L 189.97603 138.900125 
L 190.646972 141.751019 
L 191.317914 139.324172 
L 191.988856 138.081711 
L 192.659798 135.1015 
L 194.001681 131.598804 
L 194.672623 134.07432 
L 195.343565 135.042493 
L 196.014507 134.209174 
L 196.685449 135.014505 
L 197.356391 136.844576 
L 198.027333 134.593483 
L 198.698275 133.412925 
L 199.369217 133.696205 
L 200.040158 132.336351 
L 200.7111 129.218446 
L 201.382042 129.445762 
L 202.052984 124.995529 
L 202.723926 124.61449 
L 203.394868 127.486834 
L 204.736752 127.84271 
L 205.407694 126.383912 
L 206.078635 126.011626 
L 207.420519 125.562815 
L 208.091461 122.492557 
L 208.762403 128.79483 
L 209.433345 127.410787 
L 210.104287 124.848973 
L 211.44617 125.46968 
L 212.117112 128.106994 
L 212.788054 126.798553 
L 213.458996 127.906707 
L 214.129938 128.44324 
L 214.80088 126.815391 
L 215.471822 128.323482 
L 216.142764 125.442878 
L 216.813706 127.790794 
L 217.484647 127.028777 
L 218.155589 129.066183 
L 219.497473 125.964158 
L 220.168415 126.176483 
L 220.839357 122.55887 
L 221.510299 122.134186 
L 222.181241 123.809659 
L 222.852182 122.00088 
L 223.523124 124.337272 
L 224.194066 127.73052 
L 224.865008 128.366186 
L 225.53595 124.160181 
L 226.206892 124.394275 
L 226.877834 128.435642 
L 227.548776 124.915889 
L 228.219718 124.855648 
L 228.890659 126.845236 
L 229.561601 122.378225 
L 230.232543 120.178801 
L 230.903485 115.567622 
L 231.574427 112.802609 
L 232.245369 112.794618 
L 232.916311 112.118083 
L 233.587253 113.699927 
L 234.258195 114.387858 
L 234.929136 116.241592 
L 235.600078 116.981433 
L 236.27102 116.752163 
L 236.941962 119.131116 
L 237.612904 117.923318 
L 238.283846 121.189911 
L 238.954788 120.927726 
L 239.62573 121.195575 
L 240.967613 122.533438 
L 241.638555 123.752929 
L 242.309497 119.500146 
L 242.980439 117.559351 
L 243.651381 118.192918 
L 244.322323 118.485982 
L 245.664207 119.974059 
L 246.335148 119.279515 
L 247.00609 116.262403 
L 247.677032 118.900368 
L 248.347974 121.033548 
L 249.018916 121.920344 
L 249.689858 124.406962 
L 250.3608 124.212247 
L 251.031742 120.307807 
L 251.702683 117.693081 
L 252.373625 116.890489 
L 253.044567 119.628716 
L 253.715509 123.398414 
L 254.386451 125.233455 
L 255.057393 124.840539 
L 255.728335 127.217307 
L 256.399277 124.913027 
L 257.070219 126.410006 
L 257.74116 124.764373 
L 258.412102 122.136054 
L 259.083044 118.748225 
L 259.753986 116.96536 
L 260.424928 116.716965 
L 261.09587 115.768121 
L 261.766812 117.391455 
L 262.437754 121.252651 
L 263.108696 117.82484 
L 263.779637 116.626152 
L 264.450579 116.316724 
L 265.121521 113.138576 
L 265.792463 113.419837 
L 268.476231 98.380202 
L 269.147172 101.625936 
L 269.818114 99.978859 
L 270.489056 101.440538 
L 271.159998 100.12655 
L 271.83094 97.899847 
L 272.501882 95.256348 
L 273.172824 98.951382 
L 273.843766 101.41466 
L 274.514708 95.746369 
L 275.856591 100.772861 
L 276.527533 100.421526 
L 277.198475 97.767746 
L 277.869417 99.031542 
L 278.540359 101.234249 
L 279.211301 101.978258 
L 279.882243 102.471071 
L 280.553184 101.064767 
L 281.224126 102.491402 
L 281.895068 101.777372 
L 282.56601 99.584984 
L 283.236952 100.808156 
L 283.907894 103.133179 
L 284.578836 104.676298 
L 285.249778 107.592369 
L 285.92072 105.299773 
L 287.262603 108.155695 
L 287.933545 106.036181 
L 288.604487 107.427414 
L 289.275429 107.725116 
L 289.946371 109.629628 
L 290.617313 105.951469 
L 291.288255 106.239701 
L 292.630138 112.225894 
L 293.30108 112.730749 
L 293.972022 111.51959 
L 294.642964 114.193926 
L 295.313906 112.26546 
L 295.984848 115.295465 
L 296.65579 111.830743 
L 297.326732 113.389566 
L 297.997673 109.979007 
L 298.668615 110.726658 
L 300.010499 111.837167 
L 300.681441 110.644362 
L 301.352383 111.072059 
L 302.023325 107.997006 
L 302.694267 109.259341 
L 303.365209 108.680365 
L 304.03615 113.667105 
L 304.707092 115.316408 
L 305.378034 116.490946 
L 306.048976 120.225606 
L 306.719918 119.975456 
L 307.39086 125.150001 
L 308.061802 125.380701 
L 308.732744 127.051388 
L 309.403685 129.17841 
L 310.074627 127.267989 
L 310.745569 124.813584 
L 311.416511 123.393469 
L 312.087453 129.110283 
L 312.758395 127.778553 
L 313.429337 131.214041 
L 314.100279 130.038502 
L 314.771221 129.418219 
L 315.442162 126.838427 
L 316.113104 125.355519 
L 316.784046 125.783276 
L 317.454988 124.940015 
L 318.12593 125.461283 
L 318.796872 125.455368 
L 319.467814 130.103665 
L 320.809698 130.338003 
L 321.480639 135.310714 
L 322.151581 134.324753 
L 322.822523 139.765087 
L 323.493465 142.475471 
L 324.164407 144.66146 
L 324.835349 139.672036 
L 326.177233 134.96639 
L 326.848174 139.087774 
L 327.519116 139.135695 
L 328.190058 138.210962 
L 328.861 137.862532 
L 329.531942 136.83414 
L 330.202884 132.318211 
L 330.873826 134.103814 
L 331.544768 134.949183 
L 332.886651 134.532481 
L 333.557593 134.272548 
L 334.228535 133.587473 
L 334.899477 133.682895 
L 336.241361 136.164962 
L 336.912303 130.574338 
L 337.583245 126.599237 
L 338.254186 128.004412 
L 338.925128 130.454892 
L 339.59607 131.296739 
L 340.267012 126.433754 
L 340.937954 128.799189 
L 341.608896 130.52793 
L 342.279838 128.02207 
L 342.95078 127.243266 
L 343.621722 123.343887 
L 344.292663 124.131193 
L 344.963605 128.425887 
L 345.634547 130.918645 
L 346.305489 130.238091 
L 346.976431 130.231352 
L 347.647373 130.993038 
L 348.318315 129.828995 
L 349.660199 135.111882 
L 350.33114 136.508889 
L 351.002082 138.586574 
L 351.673024 132.789798 
L 352.343966 136.690333 
L 353.68585 137.734837 
L 354.356792 138.582953 
L 355.027734 135.011 
L 355.698675 134.494988 
L 356.369617 134.873918 
L 357.040559 136.714456 
L 357.711501 139.125804 
L 358.382443 141.964642 
L 359.053385 142.98942 
L 359.724327 143.518194 
L 360.395269 141.998072 
L 361.066211 145.158384 
L 361.737152 144.7494 
L 362.408094 142.776437 
L 363.079036 141.874467 
L 363.749978 142.020108 
L 364.42092 137.194619 
L 365.091862 135.079454 
L 365.762804 133.9692 
L 366.433746 133.569656 
L 367.104688 133.769541 
L 367.104688 133.769541 
" style="fill:none;stroke:#bfbf00;stroke-linecap:square;"/>
   </g>
   <g id="patch_3">
    <path d="M 32.304688 235.239062 
L 32.304688 12.039062 
" style="fill:none;stroke:#000000;stroke-linecap:square;stroke-linejoin:miter;"/>
   </g>
   <g id="patch_4">
    <path d="M 367.104688 235.239062 
L 367.104688 12.039062 
" style="fill:none;stroke:#000000;stroke-linecap:square;stroke-linejoin:miter;"/>
   </g>
   <g id="patch_5">
    <path d="M 32.304688 235.239062 
L 367.104688 235.239062 
" style="fill:none;stroke:#000000;stroke-linecap:square;stroke-linejoin:miter;"/>
   </g>
   <g id="patch_6">
    <path d="M 32.304688 12.039062 
L 367.104688 12.039062 
" style="fill:none;stroke:#000000;stroke-linecap:square;stroke-linejoin:miter;"/>
   </g>
   <g id="matplotlib.axis_1">
    <g id="xtick_1">
     <g id="line2d_7">
      <defs>
       <path d="M 0 0 
L 0 -4 
" id="m9c22d94c1b" style="stroke:#000000;stroke-width:0.5;"/>
      </defs>
      <g>
       <use style="stroke:#000000;stroke-width:0.5;" x="32.304688" xlink:href="#m9c22d94c1b" y="235.239062"/>
      </g>
     </g>
     <g id="line2d_8">
      <defs>
       <path d="M 0 0 
L 0 4 
" id="mb58ac51a20" style="stroke:#000000;stroke-width:0.5;"/>
      </defs>
      <g>
       <use style="stroke:#000000;stroke-width:0.5;" x="32.304688" xlink:href="#mb58ac51a20" y="12.039062"/>
      </g>
     </g>
     <g id="text_1">
      <!-- 0 -->
      <defs>
       <path d="M 31.78125 66.40625 
Q 24.171875 66.40625 20.328125 58.90625 
Q 16.5 51.421875 16.5 36.375 
Q 16.5 21.390625 20.328125 13.890625 
Q 24.171875 6.390625 31.78125 6.390625 
Q 39.453125 6.390625 43.28125 13.890625 
Q 47.125 21.390625 47.125 36.375 
Q 47.125 51.421875 43.28125 58.90625 
Q 39.453125 66.40625 31.78125 66.40625 
z
M 31.78125 74.21875 
Q 44.046875 74.21875 50.515625 64.515625 
Q 56.984375 54.828125 56.984375 36.375 
Q 56.984375 17.96875 50.515625 8.265625 
Q 44.046875 -1.421875 31.78125 -1.421875 
Q 19.53125 -1.421875 13.0625 8.265625 
Q 6.59375 17.96875 6.59375 36.375 
Q 6.59375 54.828125 13.0625 64.515625 
Q 19.53125 74.21875 31.78125 74.21875 
z
" id="DejaVuSans-48"/>
      </defs>
      <g transform="translate(29.123438 246.8375)scale(0.1 -0.1)">
       <use xlink:href="#DejaVuSans-48"/>
      </g>
     </g>
    </g>
    <g id="xtick_2">
     <g id="line2d_9">
      <g>
       <use style="stroke:#000000;stroke-width:0.5;" x="99.264688" xlink:href="#m9c22d94c1b" y="235.239062"/>
      </g>
     </g>
     <g id="line2d_10">
      <g>
       <use style="stroke:#000000;stroke-width:0.5;" x="99.264688" xlink:href="#mb58ac51a20" y="12.039062"/>
      </g>
     </g>
     <g id="text_2">
      <!-- 2 -->
      <defs>
       <path d="M 19.1875 8.296875 
L 53.609375 8.296875 
L 53.609375 0 
L 7.328125 0 
L 7.328125 8.296875 
Q 12.9375 14.109375 22.625 23.890625 
Q 32.328125 33.6875 34.8125 36.53125 
Q 39.546875 41.84375 41.421875 45.53125 
Q 43.3125 49.21875 43.3125 52.78125 
Q 43.3125 58.59375 39.234375 62.25 
Q 35.15625 65.921875 28.609375 65.921875 
Q 23.96875 65.921875 18.8125 64.3125 
Q 13.671875 62.703125 7.8125 59.421875 
L 7.8125 69.390625 
Q 13.765625 71.78125 18.9375 73 
Q 24.125 74.21875 28.421875 74.21875 
Q 39.75 74.21875 46.484375 68.546875 
Q 53.21875 62.890625 53.21875 53.421875 
Q 53.21875 48.921875 51.53125 44.890625 
Q 49.859375 40.875 45.40625 35.40625 
Q 44.1875 33.984375 37.640625 27.21875 
Q 31.109375 20.453125 19.1875 8.296875 
z
" id="DejaVuSans-50"/>
      </defs>
      <g transform="translate(96.083438 246.8375)scale(0.1 -0.1)">
       <use xlink:href="#DejaVuSans-50"/>
      </g>
     </g>
    </g>
    <g id="xtick_3">
     <g id="line2d_11">
      <g>
       <use style="stroke:#000000;stroke-width:0.5;" x="166.224688" xlink:href="#m9c22d94c1b" y="235.239062"/>
      </g>
     </g>
     <g id="line2d_12">
      <g>
       <use style="stroke:#000000;stroke-width:0.5;" x="166.224688" xlink:href="#mb58ac51a20" y="12.039062"/>
      </g>
     </g>
     <g id="text_3">
      <!-- 4 -->
      <defs>
       <path d="M 37.796875 64.3125 
L 12.890625 25.390625 
L 37.796875 25.390625 
z
M 35.203125 72.90625 
L 47.609375 72.90625 
L 47.609375 25.390625 
L 58.015625 25.390625 
L 58.015625 17.1875 
L 47.609375 17.1875 
L 47.609375 0 
L 37.796875 0 
L 37.796875 17.1875 
L 4.890625 17.1875 
L 4.890625 26.703125 
z
" id="DejaVuSans-52"/>
      </defs>
      <g transform="translate(163.043438 246.8375)scale(0.1 -0.1)">
       <use xlink:href="#DejaVuSans-52"/>
      </g>
     </g>
    </g>
    <g id="xtick_4">
     <g id="line2d_13">
      <g>
       <use style="stroke:#000000;stroke-width:0.5;" x="233.184688" xlink:href="#m9c22d94c1b" y="235.239062"/>
      </g>
     </g>
     <g id="line2d_14">
      <g>
       <use style="stroke:#000000;stroke-width:0.5;" x="233.184688" xlink:href="#mb58ac51a20" y="12.039062"/>
      </g>
     </g>
     <g id="text_4">
      <!-- 6 -->
      <defs>
       <path d="M 33.015625 40.375 
Q 26.375 40.375 22.484375 35.828125 
Q 18.609375 31.296875 18.609375 23.390625 
Q 18.609375 15.53125 22.484375 10.953125 
Q 26.375 6.390625 33.015625 6.390625 
Q 39.65625 6.390625 43.53125 10.953125 
Q 47.40625 15.53125 47.40625 23.390625 
Q 47.40625 31.296875 43.53125 35.828125 
Q 39.65625 40.375 33.015625 40.375 
z
M 52.59375 71.296875 
L 52.59375 62.3125 
Q 48.875 64.0625 45.09375 64.984375 
Q 41.3125 65.921875 37.59375 65.921875 
Q 27.828125 65.921875 22.671875 59.328125 
Q 17.53125 52.734375 16.796875 39.40625 
Q 19.671875 43.65625 24.015625 45.921875 
Q 28.375 48.1875 33.59375 48.1875 
Q 44.578125 48.1875 50.953125 41.515625 
Q 57.328125 34.859375 57.328125 23.390625 
Q 57.328125 12.15625 50.6875 5.359375 
Q 44.046875 -1.421875 33.015625 -1.421875 
Q 20.359375 -1.421875 13.671875 8.265625 
Q 6.984375 17.96875 6.984375 36.375 
Q 6.984375 53.65625 15.1875 63.9375 
Q 23.390625 74.21875 37.203125 74.21875 
Q 40.921875 74.21875 44.703125 73.484375 
Q 48.484375 72.75 52.59375 71.296875 
z
" id="DejaVuSans-54"/>
      </defs>
      <g transform="translate(230.003438 246.8375)scale(0.1 -0.1)">
       <use xlink:href="#DejaVuSans-54"/>
      </g>
     </g>
    </g>
    <g id="xtick_5">
     <g id="line2d_15">
      <g>
       <use style="stroke:#000000;stroke-width:0.5;" x="300.144688" xlink:href="#m9c22d94c1b" y="235.239062"/>
      </g>
     </g>
     <g id="line2d_16">
      <g>
       <use style="stroke:#000000;stroke-width:0.5;" x="300.144688" xlink:href="#mb58ac51a20" y="12.039062"/>
      </g>
     </g>
     <g id="text_5">
      <!-- 8 -->
      <defs>
       <path d="M 31.78125 34.625 
Q 24.75 34.625 20.71875 30.859375 
Q 16.703125 27.09375 16.703125 20.515625 
Q 16.703125 13.921875 20.71875 10.15625 
Q 24.75 6.390625 31.78125 6.390625 
Q 38.8125 6.390625 42.859375 10.171875 
Q 46.921875 13.96875 46.921875 20.515625 
Q 46.921875 27.09375 42.890625 30.859375 
Q 38.875 34.625 31.78125 34.625 
z
M 21.921875 38.8125 
Q 15.578125 40.375 12.03125 44.71875 
Q 8.5 49.078125 8.5 55.328125 
Q 8.5 64.0625 14.71875 69.140625 
Q 20.953125 74.21875 31.78125 74.21875 
Q 42.671875 74.21875 48.875 69.140625 
Q 55.078125 64.0625 55.078125 55.328125 
Q 55.078125 49.078125 51.53125 44.71875 
Q 48 40.375 41.703125 38.8125 
Q 48.828125 37.15625 52.796875 32.3125 
Q 56.78125 27.484375 56.78125 20.515625 
Q 56.78125 9.90625 50.3125 4.234375 
Q 43.84375 -1.421875 31.78125 -1.421875 
Q 19.734375 -1.421875 13.25 4.234375 
Q 6.78125 9.90625 6.78125 20.515625 
Q 6.78125 27.484375 10.78125 32.3125 
Q 14.796875 37.15625 21.921875 38.8125 
z
M 18.3125 54.390625 
Q 18.3125 48.734375 21.84375 45.5625 
Q 25.390625 42.390625 31.78125 42.390625 
Q 38.140625 42.390625 41.71875 45.5625 
Q 45.3125 48.734375 45.3125 54.390625 
Q 45.3125 60.0625 41.71875 63.234375 
Q 38.140625 66.40625 31.78125 66.40625 
Q 25.390625 66.40625 21.84375 63.234375 
Q 18.3125 60.0625 18.3125 54.390625 
z
" id="DejaVuSans-56"/>
      </defs>
      <g transform="translate(296.963438 246.8375)scale(0.1 -0.1)">
       <use xlink:href="#DejaVuSans-56"/>
      </g>
     </g>
    </g>
    <g id="xtick_6">
     <g id="line2d_17">
      <g>
       <use style="stroke:#000000;stroke-width:0.5;" x="367.104688" xlink:href="#m9c22d94c1b" y="235.239062"/>
      </g>
     </g>
     <g id="line2d_18">
      <g>
       <use style="stroke:#000000;stroke-width:0.5;" x="367.104688" xlink:href="#mb58ac51a20" y="12.039062"/>
      </g>
     </g>
     <g id="text_6">
      <!-- 10 -->
      <defs>
       <path d="M 12.40625 8.296875 
L 28.515625 8.296875 
L 28.515625 63.921875 
L 10.984375 60.40625 
L 10.984375 69.390625 
L 28.421875 72.90625 
L 38.28125 72.90625 
L 38.28125 8.296875 
L 54.390625 8.296875 
L 54.390625 0 
L 12.40625 0 
z
" id="DejaVuSans-49"/>
      </defs>
      <g transform="translate(360.742188 246.8375)scale(0.1 -0.1)">
       <use xlink:href="#DejaVuSans-49"/>
       <use x="63.623047" xlink:href="#DejaVuSans-48"/>
      </g>
     </g>
    </g>
   </g>
   <g id="matplotlib.axis_2">
    <g id="ytick_1">
     <g id="line2d_19">
      <defs>
       <path d="M 0 0 
L 4 0 
" id="ma13e24c53a" style="stroke:#000000;stroke-width:0.5;"/>
      </defs>
      <g>
       <use style="stroke:#000000;stroke-width:0.5;" x="32.304688" xlink:href="#ma13e24c53a" y="235.239062"/>
      </g>
     </g>
     <g id="line2d_20">
      <defs>
       <path d="M 0 0 
L -4 0 
" id="mfbf07a0ecb" style="stroke:#000000;stroke-width:0.5;"/>
      </defs>
      <g>
       <use style="stroke:#000000;stroke-width:0.5;" x="367.104688" xlink:href="#mfbf07a0ecb" y="235.239062"/>
      </g>
     </g>
     <g id="text_7">
      <!-- 50 -->
      <defs>
       <path d="M 10.59375 35.5 
L 73.1875 35.5 
L 73.1875 27.203125 
L 10.59375 27.203125 
z
" id="DejaVuSans-8722"/>
       <path d="M 10.796875 72.90625 
L 49.515625 72.90625 
L 49.515625 64.59375 
L 19.828125 64.59375 
L 19.828125 46.734375 
Q 21.96875 47.46875 24.109375 47.828125 
Q 26.265625 48.1875 28.421875 48.1875 
Q 40.625 48.1875 47.75 41.5 
Q 54.890625 34.8125 54.890625 23.390625 
Q 54.890625 11.625 47.5625 5.09375 
Q 40.234375 -1.421875 26.90625 -1.421875 
Q 22.3125 -1.421875 17.546875 -0.640625 
Q 12.796875 0.140625 7.71875 1.703125 
L 7.71875 11.625 
Q 12.109375 9.234375 16.796875 8.0625 
Q 21.484375 6.890625 26.703125 6.890625 
Q 35.15625 6.890625 40.078125 11.328125 
Q 45.015625 15.765625 45.015625 23.390625 
Q 45.015625 31 40.078125 35.4375 
Q 35.15625 39.890625 26.703125 39.890625 
Q 22.75 39.890625 18.8125 39.015625 
Q 14.890625 38.140625 10.796875 36.28125 
z
" id="DejaVuSans-53"/>
      </defs>
      <g transform="translate(7.2 237.998437)scale(0.1 -0.1)">
       <use xlink:href="#DejaVuSans-8722"/>
       <use x="83.789062" xlink:href="#DejaVuSans-53"/>
       <use x="147.412109" xlink:href="#DejaVuSans-48"/>
      </g>
     </g>
    </g>
    <g id="ytick_2">
     <g id="line2d_21">
      <g>
       <use style="stroke:#000000;stroke-width:0.5;" x="32.304688" xlink:href="#ma13e24c53a" y="210.439062"/>
      </g>
     </g>
     <g id="line2d_22">
      <g>
       <use style="stroke:#000000;stroke-width:0.5;" x="367.104688" xlink:href="#mfbf07a0ecb" y="210.439062"/>
      </g>
     </g>
     <g id="text_8">
      <!-- 40 -->
      <g transform="translate(7.2 213.198437)scale(0.1 -0.1)">
       <use xlink:href="#DejaVuSans-8722"/>
       <use x="83.789062" xlink:href="#DejaVuSans-52"/>
       <use x="147.412109" xlink:href="#DejaVuSans-48"/>
      </g>
     </g>
    </g>
    <g id="ytick_3">
     <g id="line2d_23">
      <g>
       <use style="stroke:#000000;stroke-width:0.5;" x="32.304688" xlink:href="#ma13e24c53a" y="185.639062"/>
      </g>
     </g>
     <g id="line2d_24">
      <g>
       <use style="stroke:#000000;stroke-width:0.5;" x="367.104688" xlink:href="#mfbf07a0ecb" y="185.639062"/>
      </g>
     </g>
     <g id="text_9">
      <!-- 30 -->
      <defs>
       <path d="M 40.578125 39.3125 
Q 47.65625 37.796875 51.625 33 
Q 55.609375 28.21875 55.609375 21.1875 
Q 55.609375 10.40625 48.1875 4.484375 
Q 40.765625 -1.421875 27.09375 -1.421875 
Q 22.515625 -1.421875 17.65625 -0.515625 
Q 12.796875 0.390625 7.625 2.203125 
L 7.625 11.71875 
Q 11.71875 9.328125 16.59375 8.109375 
Q 21.484375 6.890625 26.8125 6.890625 
Q 36.078125 6.890625 40.9375 10.546875 
Q 45.796875 14.203125 45.796875 21.1875 
Q 45.796875 27.640625 41.28125 31.265625 
Q 36.765625 34.90625 28.71875 34.90625 
L 20.21875 34.90625 
L 20.21875 43.015625 
L 29.109375 43.015625 
Q 36.375 43.015625 40.234375 45.921875 
Q 44.09375 48.828125 44.09375 54.296875 
Q 44.09375 59.90625 40.109375 62.90625 
Q 36.140625 65.921875 28.71875 65.921875 
Q 24.65625 65.921875 20.015625 65.03125 
Q 15.375 64.15625 9.8125 62.3125 
L 9.8125 71.09375 
Q 15.4375 72.65625 20.34375 73.4375 
Q 25.25 74.21875 29.59375 74.21875 
Q 40.828125 74.21875 47.359375 69.109375 
Q 53.90625 64.015625 53.90625 55.328125 
Q 53.90625 49.265625 50.4375 45.09375 
Q 46.96875 40.921875 40.578125 39.3125 
z
" id="DejaVuSans-51"/>
      </defs>
      <g transform="translate(7.2 188.398438)scale(0.1 -0.1)">
       <use xlink:href="#DejaVuSans-8722"/>
       <use x="83.789062" xlink:href="#DejaVuSans-51"/>
       <use x="147.412109" xlink:href="#DejaVuSans-48"/>
      </g>
     </g>
    </g>
    <g id="ytick_4">
     <g id="line2d_25">
      <g>
       <use style="stroke:#000000;stroke-width:0.5;" x="32.304688" xlink:href="#ma13e24c53a" y="160.839062"/>
      </g>
     </g>
     <g id="line2d_26">
      <g>
       <use style="stroke:#000000;stroke-width:0.5;" x="367.104688" xlink:href="#mfbf07a0ecb" y="160.839062"/>
      </g>
     </g>
     <g id="text_10">
      <!-- 20 -->
      <g transform="translate(7.2 163.598437)scale(0.1 -0.1)">
       <use xlink:href="#DejaVuSans-8722"/>
       <use x="83.789062" xlink:href="#DejaVuSans-50"/>
       <use x="147.412109" xlink:href="#DejaVuSans-48"/>
      </g>
     </g>
    </g>
    <g id="ytick_5">
     <g id="line2d_27">
      <g>
       <use style="stroke:#000000;stroke-width:0.5;" x="32.304688" xlink:href="#ma13e24c53a" y="136.039062"/>
      </g>
     </g>
     <g id="line2d_28">
      <g>
       <use style="stroke:#000000;stroke-width:0.5;" x="367.104688" xlink:href="#mfbf07a0ecb" y="136.039062"/>
      </g>
     </g>
     <g id="text_11">
      <!-- 10 -->
      <g transform="translate(7.2 138.798437)scale(0.1 -0.1)">
       <use xlink:href="#DejaVuSans-8722"/>
       <use x="83.789062" xlink:href="#DejaVuSans-49"/>
       <use x="147.412109" xlink:href="#DejaVuSans-48"/>
      </g>
     </g>
    </g>
    <g id="ytick_6">
     <g id="line2d_29">
      <g>
       <use style="stroke:#000000;stroke-width:0.5;" x="32.304688" xlink:href="#ma13e24c53a" y="111.239062"/>
      </g>
     </g>
     <g id="line2d_30">
      <g>
       <use style="stroke:#000000;stroke-width:0.5;" x="367.104688" xlink:href="#mfbf07a0ecb" y="111.239062"/>
      </g>
     </g>
     <g id="text_12">
      <!-- 0 -->
      <g transform="translate(21.942187 113.998437)scale(0.1 -0.1)">
       <use xlink:href="#DejaVuSans-48"/>
      </g>
     </g>
    </g>
    <g id="ytick_7">
     <g id="line2d_31">
      <g>
       <use style="stroke:#000000;stroke-width:0.5;" x="32.304688" xlink:href="#ma13e24c53a" y="86.439062"/>
      </g>
     </g>
     <g id="line2d_32">
      <g>
       <use style="stroke:#000000;stroke-width:0.5;" x="367.104688" xlink:href="#mfbf07a0ecb" y="86.439062"/>
      </g>
     </g>
     <g id="text_13">
      <!-- 10 -->
      <g transform="translate(15.579687 89.198437)scale(0.1 -0.1)">
       <use xlink:href="#DejaVuSans-49"/>
       <use x="63.623047" xlink:href="#DejaVuSans-48"/>
      </g>
     </g>
    </g>
    <g id="ytick_8">
     <g id="line2d_33">
      <g>
       <use style="stroke:#000000;stroke-width:0.5;" x="32.304688" xlink:href="#ma13e24c53a" y="61.639062"/>
      </g>
     </g>
     <g id="line2d_34">
      <g>
       <use style="stroke:#000000;stroke-width:0.5;" x="367.104688" xlink:href="#mfbf07a0ecb" y="61.639062"/>
      </g>
     </g>
     <g id="text_14">
      <!-- 20 -->
      <g transform="translate(15.579687 64.398438)scale(0.1 -0.1)">
       <use xlink:href="#DejaVuSans-50"/>
       <use x="63.623047" xlink:href="#DejaVuSans-48"/>
      </g>
     </g>
    </g>
    <g id="ytick_9">
     <g id="line2d_35">
      <g>
       <use style="stroke:#000000;stroke-width:0.5;" x="32.304688" xlink:href="#ma13e24c53a" y="36.839062"/>
      </g>
     </g>
     <g id="line2d_36">
      <g>
       <use style="stroke:#000000;stroke-width:0.5;" x="367.104688" xlink:href="#mfbf07a0ecb" y="36.839062"/>
      </g>
     </g>
     <g id="text_15">
      <!-- 30 -->
      <g transform="translate(15.579687 39.598437)scale(0.1 -0.1)">
       <use xlink:href="#DejaVuSans-51"/>
       <use x="63.623047" xlink:href="#DejaVuSans-48"/>
      </g>
     </g>
    </g>
    <g id="ytick_10">
     <g id="line2d_37">
      <g>
       <use style="stroke:#000000;stroke-width:0.5;" x="32.304688" xlink:href="#ma13e24c53a" y="12.039062"/>
      </g>
     </g>
     <g id="line2d_38">
      <g>
       <use style="stroke:#000000;stroke-width:0.5;" x="367.104688" xlink:href="#mfbf07a0ecb" y="12.039062"/>
      </g>
     </g>
     <g id="text_16">
      <!-- 40 -->
      <g transform="translate(15.579687 14.798438)scale(0.1 -0.1)">
       <use xlink:href="#DejaVuSans-52"/>
       <use x="63.623047" xlink:href="#DejaVuSans-48"/>
      </g>
     </g>
    </g>
   </g>
   <g id="legend_1">
    <g id="patch_7">
     <path d="M 38.304688 74.480312 
L 156.724063 74.480312 
L 156.724063 18.039062 
L 38.304688 18.039062 
z
" style="fill:#ffffff;stroke:#000000;stroke-linejoin:miter;"/>
    </g>
    <g id="line2d_39">
     <path d="M 46.704687 27.757187 
L 63.504687 27.757187 
" style="fill:none;stroke:#0000ff;stroke-linecap:square;"/>
    </g>
    <g id="line2d_40"/>
    <g id="text_17">
     <!-- A -->
     <defs>
      <path d="M 34.1875 63.1875 
L 20.796875 26.90625 
L 47.609375 26.90625 
z
M 28.609375 72.90625 
L 39.796875 72.90625 
L 67.578125 0 
L 57.328125 0 
L 50.6875 18.703125 
L 17.828125 18.703125 
L 11.1875 0 
L 0.78125 0 
z
" id="DejaVuSans-65"/>
     </defs>
     <g transform="translate(76.704688 31.957187)scale(0.12 -0.12)">
      <use xlink:href="#DejaVuSans-65"/>
     </g>
    </g>
    <g id="line2d_41">
     <path d="M 46.704687 45.370937 
L 63.504687 45.370937 
" style="fill:none;stroke:#008000;stroke-linecap:square;"/>
    </g>
    <g id="line2d_42"/>
    <g id="text_18">
     <!-- B -->
     <defs>
      <path d="M 19.671875 34.8125 
L 19.671875 8.109375 
L 35.5 8.109375 
Q 43.453125 8.109375 47.28125 11.40625 
Q 51.125 14.703125 51.125 21.484375 
Q 51.125 28.328125 47.28125 31.5625 
Q 43.453125 34.8125 35.5 34.8125 
z
M 19.671875 64.796875 
L 19.671875 42.828125 
L 34.28125 42.828125 
Q 41.5 42.828125 45.03125 45.53125 
Q 48.578125 48.25 48.578125 53.8125 
Q 48.578125 59.328125 45.03125 62.0625 
Q 41.5 64.796875 34.28125 64.796875 
z
M 9.8125 72.90625 
L 35.015625 72.90625 
Q 46.296875 72.90625 52.390625 68.21875 
Q 58.5 63.53125 58.5 54.890625 
Q 58.5 48.1875 55.375 44.234375 
Q 52.25 40.28125 46.1875 39.3125 
Q 53.46875 37.75 57.5 32.78125 
Q 61.53125 27.828125 61.53125 20.40625 
Q 61.53125 10.640625 54.890625 5.3125 
Q 48.25 0 35.984375 0 
L 9.8125 0 
z
" id="DejaVuSans-66"/>
     </defs>
     <g transform="translate(76.704688 49.570937)scale(0.12 -0.12)">
      <use xlink:href="#DejaVuSans-66"/>
     </g>
    </g>
    <g id="line2d_43">
     <path d="M 46.704687 62.984687 
L 63.504687 62.984687 
" style="fill:none;stroke:#ff0000;stroke-linecap:square;"/>
    </g>
    <g id="line2d_44"/>
    <g id="text_19">
     <!-- C -->
     <defs>
      <path d="M 64.40625 67.28125 
L 64.40625 56.890625 
Q 59.421875 61.53125 53.78125 63.8125 
Q 48.140625 66.109375 41.796875 66.109375 
Q 29.296875 66.109375 22.65625 58.46875 
Q 16.015625 50.828125 16.015625 36.375 
Q 16.015625 21.96875 22.65625 14.328125 
Q 29.296875 6.6875 41.796875 6.6875 
Q 48.140625 6.6875 53.78125 8.984375 
Q 59.421875 11.28125 64.40625 15.921875 
L 64.40625 5.609375 
Q 59.234375 2.09375 53.4375 0.328125 
Q 47.65625 -1.421875 41.21875 -1.421875 
Q 24.65625 -1.421875 15.125 8.703125 
Q 5.609375 18.84375 5.609375 36.375 
Q 5.609375 53.953125 15.125 64.078125 
Q 24.65625 74.21875 41.21875 74.21875 
Q 47.75 74.21875 53.53125 72.484375 
Q 59.328125 70.75 64.40625 67.28125 
z
" id="DejaVuSans-67"/>
     </defs>
     <g transform="translate(76.704688 67.184687)scale(0.12 -0.12)">
      <use xlink:href="#DejaVuSans-67"/>
     </g>
    </g>
    <g id="line2d_45">
     <path d="M 112.684062 27.757187 
L 129.484062 27.757187 
" style="fill:none;stroke:#00bfbf;stroke-linecap:square;"/>
    </g>
    <g id="line2d_46"/>
    <g id="text_20">
     <!-- D -->
     <defs>
      <path d="M 19.671875 64.796875 
L 19.671875 8.109375 
L 31.59375 8.109375 
Q 46.6875 8.109375 53.6875 14.9375 
Q 60.6875 21.78125 60.6875 36.53125 
Q 60.6875 51.171875 53.6875 57.984375 
Q 46.6875 64.796875 31.59375 64.796875 
z
M 9.8125 72.90625 
L 30.078125 72.90625 
Q 51.265625 72.90625 61.171875 64.09375 
Q 71.09375 55.28125 71.09375 36.53125 
Q 71.09375 17.671875 61.125 8.828125 
Q 51.171875 0 30.078125 0 
L 9.8125 0 
z
" id="DejaVuSans-68"/>
     </defs>
     <g transform="translate(142.684063 31.957187)scale(0.12 -0.12)">
      <use xlink:href="#DejaVuSans-68"/>
     </g>
    </g>
    <g id="line2d_47">
     <path d="M 112.684062 45.370937 
L 129.484062 45.370937 
" style="fill:none;stroke:#bf00bf;stroke-linecap:square;"/>
    </g>
    <g id="line2d_48"/>
    <g id="text_21">
     <!-- E -->
     <defs>
      <path d="M 9.8125 72.90625 
L 55.90625 72.90625 
L 55.90625 64.59375 
L 19.671875 64.59375 
L 19.671875 43.015625 
L 54.390625 43.015625 
L 54.390625 34.71875 
L 19.671875 34.71875 
L 19.671875 8.296875 
L 56.78125 8.296875 
L 56.78125 0 
L 9.8125 0 
z
" id="DejaVuSans-69"/>
     </defs>
     <g transform="translate(142.684063 49.570937)scale(0.12 -0.12)">
      <use xlink:href="#DejaVuSans-69"/>
     </g>
    </g>
    <g id="line2d_49">
     <path d="M 112.684062 62.984687 
L 129.484062 62.984687 
" style="fill:none;stroke:#bfbf00;stroke-linecap:square;"/>
    </g>
    <g id="line2d_50"/>
    <g id="text_22">
     <!-- F -->
     <defs>
      <path d="M 9.8125 72.90625 
L 51.703125 72.90625 
L 51.703125 64.59375 
L 19.671875 64.59375 
L 19.671875 43.109375 
L 48.578125 43.109375 
L 48.578125 34.8125 
L 19.671875 34.8125 
L 19.671875 0 
L 9.8125 0 
z
" id="DejaVuSans-70"/>
     </defs>
     <g transform="translate(142.684063 67.184687)scale(0.12 -0.12)">
      <use xlink:href="#DejaVuSans-70"/>
     </g>
    </g>
   </g>
  </g>
 </g>
 <defs>
  <clipPath id="p84aed9f7e2">
   <rect height="223.2" width="334.8" x="32.304688" y="12.039062"/>
  </clipPath>
 </defs>
</svg>
