<?xml version="1.0" encoding="utf-8" standalone="no"?>
<!DOCTYPE svg PUBLIC "-//W3C//DTD SVG 1.1//EN"
  "http://www.w3.org/Graphics/SVG/1.1/DTD/svg11.dtd">
<!-- Created with matplotlib (https://matplotlib.org/) -->
<svg height="375.61375pt" version="1.1" viewBox="0 0 490.125625 375.61375" width="490.125625pt" xmlns="http://www.w3.org/2000/svg" xmlns:xlink="http://www.w3.org/1999/xlink">
 <defs>
  <style type="text/css">
*{stroke-linecap:butt;stroke-linejoin:round;}
  </style>
 </defs>
 <g id="figure_1">
  <g id="patch_1">
   <path d="M 0 375.61375 
L 490.125625 375.61375 
L 490.125625 0 
L 0 0 
z
" style="fill:#bfbfbf;"/>
  </g>
  <g id="axes_1">
   <g id="patch_2">
    <path d="M 28.890625 352.8 
L 475.290625 352.8 
L 475.290625 7.2 
L 28.890625 7.2 
z
" style="fill:#ffffff;"/>
   </g>
   <g id="line2d_1">
    <path clip-path="url(#pc30718a532)" d="M 28.890625 180 
L 40.95549 168.081481 
L 47.658193 161.780439 
L 53.020355 157.028276 
L 57.93567 152.961362 
L 62.404139 149.547133 
L 66.42576 146.73409 
L 70.447382 144.190857 
L 74.022157 142.173442 
L 77.596931 140.398472 
L 81.171706 138.877324 
L 84.746481 137.619747 
L 87.874409 136.741957 
L 91.002337 136.07647 
L 94.130265 135.62655 
L 97.258193 135.394407 
L 100.38612 135.381179 
L 103.514048 135.586932 
L 106.641976 136.010656 
L 109.769904 136.650271 
L 112.897832 137.502637 
L 116.02576 138.563573 
L 119.600535 140.024736 
L 123.17531 141.742116 
L 126.750084 143.704706 
L 130.771706 146.190001 
L 134.793328 148.94952 
L 139.261796 152.309981 
L 143.730265 155.947665 
L 148.64558 160.225769 
L 154.454589 165.586259 
L 161.604139 172.508436 
L 186.627562 197.051714 
L 192.436571 202.260912 
L 197.351886 206.378033 
L 201.820355 209.844867 
L 205.841976 212.710475 
L 209.863598 215.310777 
L 213.438373 217.382329 
L 217.013148 219.214283 
L 220.587922 220.794898 
L 224.162697 222.114042 
L 227.290625 223.047116 
L 230.418553 223.768924 
L 233.546481 224.275922 
L 236.674409 224.565622 
L 239.802337 224.636604 
L 242.930265 224.488517 
L 246.058193 224.122089 
L 249.18612 223.539119 
L 252.314048 222.742467 
L 255.441976 221.736043 
L 259.016751 220.335364 
L 262.591526 218.676159 
L 266.166301 216.769064 
L 269.741075 214.626301 
L 273.762697 211.951153 
L 277.784319 209.016858 
L 282.252787 205.481604 
L 287.168102 201.299609 
L 292.530265 196.445045 
L 299.232967 190.052099 
L 309.063598 180.308417 
L 321.57531 167.948136 
L 328.278012 161.654153 
L 333.640175 156.909695 
L 338.55549 152.851347 
L 343.023958 149.446064 
L 347.04558 146.641941 
L 351.067202 144.108376 
L 354.641976 142.100118 
L 358.216751 140.334776 
L 361.791526 138.823663 
L 365.366301 137.576466 
L 368.494229 136.707988 
L 371.622157 136.051979 
L 374.750084 135.611659 
L 377.878012 135.389187 
L 381.00594 135.385657 
L 384.133868 135.601086 
L 387.261796 136.034416 
L 390.389724 136.68352 
L 393.517652 137.545213 
L 396.64558 138.615266 
L 400.220355 140.086536 
L 403.79513 141.813627 
L 407.369904 143.785469 
L 411.391526 146.280552 
L 415.413148 149.049123 
L 419.881616 152.418692 
L 424.350084 156.064396 
L 429.2654 160.349969 
L 435.074409 165.717341 
L 442.223958 172.644937 
L 466.800535 196.766278 
L 472.609544 201.993048 
L 475.290625 204.285102 
L 475.290625 204.285102 
" style="fill:none;stroke:#000000;stroke-linecap:square;"/>
   </g>
   <g id="line2d_2">
    <path clip-path="url(#pc30718a532)" d="M 28.890625 224.64 
L 32.018553 224.530458 
L 35.146481 224.202369 
L 38.274409 223.657343 
L 41.402337 222.898055 
L 44.530265 221.928233 
L 48.105039 220.568217 
L 51.679814 218.948185 
L 55.254589 217.078518 
L 58.829364 214.9712 
L 62.850985 212.333274 
L 66.872607 209.433102 
L 71.341075 205.931792 
L 76.256391 201.781918 
L 81.618553 196.95572 
L 87.874409 191.021404 
L 96.811346 182.198737 
L 111.557292 167.618207 
L 117.813148 161.748851 
L 123.17531 156.99861 
L 128.090625 152.933834 
L 132.559093 149.521838 
L 136.580715 146.711022 
L 140.602337 144.170205 
L 144.177111 142.155077 
L 147.751886 140.382512 
L 151.326661 138.863872 
L 154.901436 137.608889 
L 158.029364 136.733426 
L 161.157292 136.070307 
L 164.28522 135.622787 
L 167.413148 135.393062 
L 170.541075 135.382259 
L 173.669003 135.590431 
L 176.796931 136.016556 
L 179.924859 136.658544 
L 183.052787 137.513243 
L 186.180715 138.576459 
L 189.75549 140.04015 
L 193.330265 141.759959 
L 196.905039 143.724864 
L 200.926661 146.212608 
L 204.948283 148.974393 
L 209.416751 152.337134 
L 213.88522 155.976826 
L 218.800535 160.256801 
L 224.609544 165.619017 
L 231.759093 172.542555 
L 256.782517 197.083691 
L 262.591526 202.290902 
L 267.506841 206.405944 
L 271.97531 209.870593 
L 275.996931 212.734014 
L 280.018553 215.331939 
L 283.593328 217.401233 
L 287.168102 219.230807 
L 290.742877 220.808936 
L 294.317652 222.125505 
L 297.44558 223.056265 
L 300.573508 223.775714 
L 303.701436 224.280319 
L 306.829364 224.567606 
L 309.957292 224.636163 
L 313.08522 224.485655 
L 316.213148 224.11682 
L 319.341075 223.531468 
L 322.469003 222.732471 
L 325.596931 221.723753 
L 329.171706 220.320525 
L 332.746481 218.658867 
L 336.321256 216.749429 
L 339.89603 214.60445 
L 343.917652 211.926976 
L 347.939274 208.990551 
L 352.407742 205.453181 
L 357.323057 201.269189 
L 362.68522 196.412867 
L 369.387922 190.018378 
L 379.218553 180.27381 
L 391.730265 167.914818 
L 398.432967 161.622609 
L 403.79513 156.880084 
L 408.710445 152.823884 
L 413.178913 149.420843 
L 417.200535 146.618954 
L 421.222157 144.08781 
L 424.796931 142.081844 
L 428.371706 140.318911 
L 431.946481 138.81031 
L 435.521256 137.565709 
L 438.649184 136.699561 
L 441.777111 136.045923 
L 444.905039 135.608002 
L 448.032967 135.38795 
L 451.160895 135.386844 
L 454.288823 135.604691 
L 457.416751 136.040422 
L 460.544679 136.691898 
L 463.672607 137.555921 
L 466.800535 138.628252 
L 470.37531 140.102046 
L 473.950084 141.831562 
L 475.290625 142.543847 
L 475.290625 142.543847 
" style="fill:none;stroke:#000000;stroke-dasharray:6,6;stroke-dashoffset:0;"/>
   </g>
   <g id="line2d_3">
    <path clip-path="url(#pc30718a532)" d="M 28.890625 180 
L 40.95549 191.918519 
L 47.658193 198.219561 
L 53.020355 202.971724 
L 57.93567 207.038638 
L 62.404139 210.452867 
L 66.42576 213.26591 
L 70.447382 215.809143 
L 74.022157 217.826558 
L 77.596931 219.601528 
L 81.171706 221.122676 
L 84.746481 222.380253 
L 87.874409 223.258043 
L 91.002337 223.92353 
L 94.130265 224.37345 
L 97.258193 224.605593 
L 100.38612 224.618821 
L 103.514048 224.413068 
L 106.641976 223.989344 
L 109.769904 223.349729 
L 112.897832 222.497363 
L 116.02576 221.436427 
L 119.600535 219.975264 
L 123.17531 218.257884 
L 126.750084 216.295294 
L 130.771706 213.809999 
L 134.793328 211.05048 
L 139.261796 207.690019 
L 143.730265 204.052335 
L 148.64558 199.774231 
L 154.454589 194.413741 
L 161.604139 187.491564 
L 186.627562 162.948286 
L 192.436571 157.739088 
L 197.351886 153.621967 
L 201.820355 150.155133 
L 205.841976 147.289525 
L 209.863598 144.689223 
L 213.438373 142.617671 
L 217.013148 140.785717 
L 220.587922 139.205102 
L 224.162697 137.885958 
L 227.290625 136.952884 
L 230.418553 136.231076 
L 233.546481 135.724078 
L 236.674409 135.434378 
L 239.802337 135.363396 
L 242.930265 135.511483 
L 246.058193 135.877911 
L 249.18612 136.460881 
L 252.314048 137.257533 
L 255.441976 138.263957 
L 259.016751 139.664636 
L 262.591526 141.323841 
L 266.166301 143.230936 
L 269.741075 145.373699 
L 273.762697 148.048847 
L 277.784319 150.983142 
L 282.252787 154.518396 
L 287.168102 158.700391 
L 292.530265 163.554955 
L 299.232967 169.947901 
L 309.063598 179.691583 
L 321.57531 192.051864 
L 328.278012 198.345847 
L 333.640175 203.090305 
L 338.55549 207.148653 
L 343.023958 210.553936 
L 347.04558 213.358059 
L 351.067202 215.891624 
L 354.641976 217.899882 
L 358.216751 219.665224 
L 361.791526 221.176337 
L 365.366301 222.423534 
L 368.494229 223.292012 
L 371.622157 223.948021 
L 374.750084 224.388341 
L 377.878012 224.610813 
L 381.00594 224.614343 
L 384.133868 224.398914 
L 387.261796 223.965584 
L 390.389724 223.31648 
L 393.517652 222.454787 
L 396.64558 221.384734 
L 400.220355 219.913464 
L 403.79513 218.186373 
L 407.369904 216.214531 
L 411.391526 213.719448 
L 415.413148 210.950877 
L 419.881616 207.581308 
L 424.350084 203.935604 
L 429.2654 199.650031 
L 435.074409 194.282659 
L 442.223958 187.355063 
L 466.800535 163.233722 
L 472.609544 158.006952 
L 475.290625 155.714898 
L 475.290625 155.714898 
" style="fill:none;stroke:#000000;stroke-dasharray:3,5,1,5;stroke-dashoffset:0;"/>
   </g>
   <g id="line2d_4">
    <path clip-path="url(#pc30718a532)" d="M 28.890625 135.36 
L 32.018553 135.469542 
L 35.146481 135.797631 
L 38.274409 136.342657 
L 41.402337 137.101945 
L 44.530265 138.071767 
L 48.105039 139.431783 
L 51.679814 141.051815 
L 55.254589 142.921482 
L 58.829364 145.0288 
L 62.850985 147.666726 
L 66.872607 150.566898 
L 71.341075 154.068208 
L 76.256391 158.218082 
L 81.618553 163.04428 
L 87.874409 168.978596 
L 96.811346 177.801263 
L 111.557292 192.381793 
L 117.813148 198.251149 
L 123.17531 203.00139 
L 128.090625 207.066166 
L 132.559093 210.478162 
L 136.580715 213.288978 
L 140.602337 215.829795 
L 144.177111 217.844923 
L 147.751886 219.617488 
L 151.326661 221.136128 
L 154.901436 222.391111 
L 158.029364 223.266574 
L 161.157292 223.929693 
L 164.28522 224.377213 
L 167.413148 224.606938 
L 170.541075 224.617741 
L 173.669003 224.409569 
L 176.796931 223.983444 
L 179.924859 223.341456 
L 183.052787 222.486757 
L 186.180715 221.423541 
L 189.75549 219.95985 
L 193.330265 218.240041 
L 196.905039 216.275136 
L 200.926661 213.787392 
L 204.948283 211.025607 
L 209.416751 207.662866 
L 213.88522 204.023174 
L 218.800535 199.743199 
L 224.609544 194.380983 
L 231.759093 187.457445 
L 256.782517 162.916309 
L 262.591526 157.709098 
L 267.506841 153.594056 
L 271.97531 150.129407 
L 275.996931 147.265986 
L 280.018553 144.668061 
L 283.593328 142.598767 
L 287.168102 140.769193 
L 290.742877 139.191064 
L 294.317652 137.874495 
L 297.44558 136.943735 
L 300.573508 136.224286 
L 303.701436 135.719681 
L 306.829364 135.432394 
L 309.957292 135.363837 
L 313.08522 135.514345 
L 316.213148 135.88318 
L 319.341075 136.468532 
L 322.469003 137.267529 
L 325.596931 138.276247 
L 329.171706 139.679475 
L 332.746481 141.341133 
L 336.321256 143.250571 
L 339.89603 145.39555 
L 343.917652 148.073024 
L 347.939274 151.009449 
L 352.407742 154.546819 
L 357.323057 158.730811 
L 362.68522 163.587133 
L 369.387922 169.981622 
L 379.218553 179.72619 
L 391.730265 192.085182 
L 398.432967 198.377391 
L 403.79513 203.119916 
L 408.710445 207.176116 
L 413.178913 210.579157 
L 417.200535 213.381046 
L 421.222157 215.91219 
L 424.796931 217.918156 
L 428.371706 219.681089 
L 431.946481 221.18969 
L 435.521256 222.434291 
L 438.649184 223.300439 
L 441.777111 223.954077 
L 444.905039 224.391998 
L 448.032967 224.61205 
L 451.160895 224.613156 
L 454.288823 224.395309 
L 457.416751 223.959578 
L 460.544679 223.308102 
L 463.672607 222.444079 
L 466.800535 221.371748 
L 470.37531 219.897954 
L 473.950084 218.168438 
L 475.290625 217.456153 
L 475.290625 217.456153 
" style="fill:none;stroke:#000000;stroke-dasharray:1,3;stroke-dashoffset:0;"/>
   </g>
   <g id="patch_3">
    <path d="M 28.890625 352.8 
L 28.890625 7.2 
" style="fill:none;stroke:#000000;stroke-linecap:square;stroke-linejoin:miter;"/>
   </g>
   <g id="patch_4">
    <path d="M 475.290625 352.8 
L 475.290625 7.2 
" style="fill:none;stroke:#000000;stroke-linecap:square;stroke-linejoin:miter;"/>
   </g>
   <g id="patch_5">
    <path d="M 28.890625 352.8 
L 475.290625 352.8 
" style="fill:none;stroke:#000000;stroke-linecap:square;stroke-linejoin:miter;"/>
   </g>
   <g id="patch_6">
    <path d="M 28.890625 7.2 
L 475.290625 7.2 
" style="fill:none;stroke:#000000;stroke-linecap:square;stroke-linejoin:miter;"/>
   </g>
   <g id="matplotlib.axis_1">
    <g id="xtick_1">
     <g id="line2d_5">
      <defs>
       <path d="M 0 0 
L 0 -4 
" id="m83c8a5d09a" style="stroke:#000000;stroke-width:0.5;"/>
      </defs>
      <g>
       <use style="stroke:#000000;stroke-width:0.5;" x="28.890625" xlink:href="#m83c8a5d09a" y="352.8"/>
      </g>
     </g>
     <g id="line2d_6">
      <defs>
       <path d="M 0 0 
L 0 4 
" id="m2818224086" style="stroke:#000000;stroke-width:0.5;"/>
      </defs>
      <g>
       <use style="stroke:#000000;stroke-width:0.5;" x="28.890625" xlink:href="#m2818224086" y="7.2"/>
      </g>
     </g>
     <g id="text_1">
      <!-- 0 -->
      <defs>
       <path d="M 31.78125 66.40625 
Q 24.171875 66.40625 20.328125 58.90625 
Q 16.5 51.421875 16.5 36.375 
Q 16.5 21.390625 20.328125 13.890625 
Q 24.171875 6.390625 31.78125 6.390625 
Q 39.453125 6.390625 43.28125 13.890625 
Q 47.125 21.390625 47.125 36.375 
Q 47.125 51.421875 43.28125 58.90625 
Q 39.453125 66.40625 31.78125 66.40625 
z
M 31.78125 74.21875 
Q 44.046875 74.21875 50.515625 64.515625 
Q 56.984375 54.828125 56.984375 36.375 
Q 56.984375 17.96875 50.515625 8.265625 
Q 44.046875 -1.421875 31.78125 -1.421875 
Q 19.53125 -1.421875 13.0625 8.265625 
Q 6.59375 17.96875 6.59375 36.375 
Q 6.59375 54.828125 13.0625 64.515625 
Q 19.53125 74.21875 31.78125 74.21875 
z
" id="DejaVuSans-48"/>
      </defs>
      <g transform="translate(25.073125 365.918125)scale(0.12 -0.12)">
       <use xlink:href="#DejaVuSans-48"/>
      </g>
     </g>
    </g>
    <g id="xtick_2">
     <g id="line2d_7">
      <g>
       <use style="stroke:#000000;stroke-width:0.5;" x="118.170625" xlink:href="#m83c8a5d09a" y="352.8"/>
      </g>
     </g>
     <g id="line2d_8">
      <g>
       <use style="stroke:#000000;stroke-width:0.5;" x="118.170625" xlink:href="#m2818224086" y="7.2"/>
      </g>
     </g>
     <g id="text_2">
      <!-- 2 -->
      <defs>
       <path d="M 19.1875 8.296875 
L 53.609375 8.296875 
L 53.609375 0 
L 7.328125 0 
L 7.328125 8.296875 
Q 12.9375 14.109375 22.625 23.890625 
Q 32.328125 33.6875 34.8125 36.53125 
Q 39.546875 41.84375 41.421875 45.53125 
Q 43.3125 49.21875 43.3125 52.78125 
Q 43.3125 58.59375 39.234375 62.25 
Q 35.15625 65.921875 28.609375 65.921875 
Q 23.96875 65.921875 18.8125 64.3125 
Q 13.671875 62.703125 7.8125 59.421875 
L 7.8125 69.390625 
Q 13.765625 71.78125 18.9375 73 
Q 24.125 74.21875 28.421875 74.21875 
Q 39.75 74.21875 46.484375 68.546875 
Q 53.21875 62.890625 53.21875 53.421875 
Q 53.21875 48.921875 51.53125 44.890625 
Q 49.859375 40.875 45.40625 35.40625 
Q 44.1875 33.984375 37.640625 27.21875 
Q 31.109375 20.453125 19.1875 8.296875 
z
" id="DejaVuSans-50"/>
      </defs>
      <g transform="translate(114.353125 365.918125)scale(0.12 -0.12)">
       <use xlink:href="#DejaVuSans-50"/>
      </g>
     </g>
    </g>
    <g id="xtick_3">
     <g id="line2d_9">
      <g>
       <use style="stroke:#000000;stroke-width:0.5;" x="207.450625" xlink:href="#m83c8a5d09a" y="352.8"/>
      </g>
     </g>
     <g id="line2d_10">
      <g>
       <use style="stroke:#000000;stroke-width:0.5;" x="207.450625" xlink:href="#m2818224086" y="7.2"/>
      </g>
     </g>
     <g id="text_3">
      <!-- 4 -->
      <defs>
       <path d="M 37.796875 64.3125 
L 12.890625 25.390625 
L 37.796875 25.390625 
z
M 35.203125 72.90625 
L 47.609375 72.90625 
L 47.609375 25.390625 
L 58.015625 25.390625 
L 58.015625 17.1875 
L 47.609375 17.1875 
L 47.609375 0 
L 37.796875 0 
L 37.796875 17.1875 
L 4.890625 17.1875 
L 4.890625 26.703125 
z
" id="DejaVuSans-52"/>
      </defs>
      <g transform="translate(203.633125 365.918125)scale(0.12 -0.12)">
       <use xlink:href="#DejaVuSans-52"/>
      </g>
     </g>
    </g>
    <g id="xtick_4">
     <g id="line2d_11">
      <g>
       <use style="stroke:#000000;stroke-width:0.5;" x="296.730625" xlink:href="#m83c8a5d09a" y="352.8"/>
      </g>
     </g>
     <g id="line2d_12">
      <g>
       <use style="stroke:#000000;stroke-width:0.5;" x="296.730625" xlink:href="#m2818224086" y="7.2"/>
      </g>
     </g>
     <g id="text_4">
      <!-- 6 -->
      <defs>
       <path d="M 33.015625 40.375 
Q 26.375 40.375 22.484375 35.828125 
Q 18.609375 31.296875 18.609375 23.390625 
Q 18.609375 15.53125 22.484375 10.953125 
Q 26.375 6.390625 33.015625 6.390625 
Q 39.65625 6.390625 43.53125 10.953125 
Q 47.40625 15.53125 47.40625 23.390625 
Q 47.40625 31.296875 43.53125 35.828125 
Q 39.65625 40.375 33.015625 40.375 
z
M 52.59375 71.296875 
L 52.59375 62.3125 
Q 48.875 64.0625 45.09375 64.984375 
Q 41.3125 65.921875 37.59375 65.921875 
Q 27.828125 65.921875 22.671875 59.328125 
Q 17.53125 52.734375 16.796875 39.40625 
Q 19.671875 43.65625 24.015625 45.921875 
Q 28.375 48.1875 33.59375 48.1875 
Q 44.578125 48.1875 50.953125 41.515625 
Q 57.328125 34.859375 57.328125 23.390625 
Q 57.328125 12.15625 50.6875 5.359375 
Q 44.046875 -1.421875 33.015625 -1.421875 
Q 20.359375 -1.421875 13.671875 8.265625 
Q 6.984375 17.96875 6.984375 36.375 
Q 6.984375 53.65625 15.1875 63.9375 
Q 23.390625 74.21875 37.203125 74.21875 
Q 40.921875 74.21875 44.703125 73.484375 
Q 48.484375 72.75 52.59375 71.296875 
z
" id="DejaVuSans-54"/>
      </defs>
      <g transform="translate(292.913125 365.918125)scale(0.12 -0.12)">
       <use xlink:href="#DejaVuSans-54"/>
      </g>
     </g>
    </g>
    <g id="xtick_5">
     <g id="line2d_13">
      <g>
       <use style="stroke:#000000;stroke-width:0.5;" x="386.010625" xlink:href="#m83c8a5d09a" y="352.8"/>
      </g>
     </g>
     <g id="line2d_14">
      <g>
       <use style="stroke:#000000;stroke-width:0.5;" x="386.010625" xlink:href="#m2818224086" y="7.2"/>
      </g>
     </g>
     <g id="text_5">
      <!-- 8 -->
      <defs>
       <path d="M 31.78125 34.625 
Q 24.75 34.625 20.71875 30.859375 
Q 16.703125 27.09375 16.703125 20.515625 
Q 16.703125 13.921875 20.71875 10.15625 
Q 24.75 6.390625 31.78125 6.390625 
Q 38.8125 6.390625 42.859375 10.171875 
Q 46.921875 13.96875 46.921875 20.515625 
Q 46.921875 27.09375 42.890625 30.859375 
Q 38.875 34.625 31.78125 34.625 
z
M 21.921875 38.8125 
Q 15.578125 40.375 12.03125 44.71875 
Q 8.5 49.078125 8.5 55.328125 
Q 8.5 64.0625 14.71875 69.140625 
Q 20.953125 74.21875 31.78125 74.21875 
Q 42.671875 74.21875 48.875 69.140625 
Q 55.078125 64.0625 55.078125 55.328125 
Q 55.078125 49.078125 51.53125 44.71875 
Q 48 40.375 41.703125 38.8125 
Q 48.828125 37.15625 52.796875 32.3125 
Q 56.78125 27.484375 56.78125 20.515625 
Q 56.78125 9.90625 50.3125 4.234375 
Q 43.84375 -1.421875 31.78125 -1.421875 
Q 19.734375 -1.421875 13.25 4.234375 
Q 6.78125 9.90625 6.78125 20.515625 
Q 6.78125 27.484375 10.78125 32.3125 
Q 14.796875 37.15625 21.921875 38.8125 
z
M 18.3125 54.390625 
Q 18.3125 48.734375 21.84375 45.5625 
Q 25.390625 42.390625 31.78125 42.390625 
Q 38.140625 42.390625 41.71875 45.5625 
Q 45.3125 48.734375 45.3125 54.390625 
Q 45.3125 60.0625 41.71875 63.234375 
Q 38.140625 66.40625 31.78125 66.40625 
Q 25.390625 66.40625 21.84375 63.234375 
Q 18.3125 60.0625 18.3125 54.390625 
z
" id="DejaVuSans-56"/>
      </defs>
      <g transform="translate(382.193125 365.918125)scale(0.12 -0.12)">
       <use xlink:href="#DejaVuSans-56"/>
      </g>
     </g>
    </g>
    <g id="xtick_6">
     <g id="line2d_15">
      <g>
       <use style="stroke:#000000;stroke-width:0.5;" x="475.290625" xlink:href="#m83c8a5d09a" y="352.8"/>
      </g>
     </g>
     <g id="line2d_16">
      <g>
       <use style="stroke:#000000;stroke-width:0.5;" x="475.290625" xlink:href="#m2818224086" y="7.2"/>
      </g>
     </g>
     <g id="text_6">
      <!-- 10 -->
      <defs>
       <path d="M 12.40625 8.296875 
L 28.515625 8.296875 
L 28.515625 63.921875 
L 10.984375 60.40625 
L 10.984375 69.390625 
L 28.421875 72.90625 
L 38.28125 72.90625 
L 38.28125 8.296875 
L 54.390625 8.296875 
L 54.390625 0 
L 12.40625 0 
z
" id="DejaVuSans-49"/>
      </defs>
      <g transform="translate(467.655625 365.918125)scale(0.12 -0.12)">
       <use xlink:href="#DejaVuSans-49"/>
       <use x="63.623047" xlink:href="#DejaVuSans-48"/>
      </g>
     </g>
    </g>
   </g>
   <g id="matplotlib.axis_2">
    <g id="ytick_1">
     <g id="line2d_17">
      <defs>
       <path d="M 0 0 
L 4 0 
" id="m126a9e7993" style="stroke:#000000;stroke-width:0.5;"/>
      </defs>
      <g>
       <use style="stroke:#000000;stroke-width:0.5;" x="28.890625" xlink:href="#m126a9e7993" y="313.92"/>
      </g>
     </g>
     <g id="line2d_18">
      <defs>
       <path d="M 0 0 
L -4 0 
" id="m5651a44cbb" style="stroke:#000000;stroke-width:0.5;"/>
      </defs>
      <g>
       <use style="stroke:#000000;stroke-width:0.5;" x="475.290625" xlink:href="#m5651a44cbb" y="313.92"/>
      </g>
     </g>
     <g id="text_7">
      <!-- −3 -->
      <defs>
       <path d="M 10.59375 35.5 
L 73.1875 35.5 
L 73.1875 27.203125 
L 10.59375 27.203125 
z
" id="DejaVuSans-8722"/>
       <path d="M 40.578125 39.3125 
Q 47.65625 37.796875 51.625 33 
Q 55.609375 28.21875 55.609375 21.1875 
Q 55.609375 10.40625 48.1875 4.484375 
Q 40.765625 -1.421875 27.09375 -1.421875 
Q 22.515625 -1.421875 17.65625 -0.515625 
Q 12.796875 0.390625 7.625 2.203125 
L 7.625 11.71875 
Q 11.71875 9.328125 16.59375 8.109375 
Q 21.484375 6.890625 26.8125 6.890625 
Q 36.078125 6.890625 40.9375 10.546875 
Q 45.796875 14.203125 45.796875 21.1875 
Q 45.796875 27.640625 41.28125 31.265625 
Q 36.765625 34.90625 28.71875 34.90625 
L 20.21875 34.90625 
L 20.21875 43.015625 
L 29.109375 43.015625 
Q 36.375 43.015625 40.234375 45.921875 
Q 44.09375 48.828125 44.09375 54.296875 
Q 44.09375 59.90625 40.109375 62.90625 
Q 36.140625 65.921875 28.71875 65.921875 
Q 24.65625 65.921875 20.015625 65.03125 
Q 15.375 64.15625 9.8125 62.3125 
L 9.8125 71.09375 
Q 15.4375 72.65625 20.34375 73.4375 
Q 25.25 74.21875 29.59375 74.21875 
Q 40.828125 74.21875 47.359375 69.109375 
Q 53.90625 64.015625 53.90625 55.328125 
Q 53.90625 49.265625 50.4375 45.09375 
Q 46.96875 40.921875 40.578125 39.3125 
z
" id="DejaVuSans-51"/>
      </defs>
      <g transform="translate(7.2 317.23125)scale(0.12 -0.12)">
       <use xlink:href="#DejaVuSans-8722"/>
       <use x="83.789062" xlink:href="#DejaVuSans-51"/>
      </g>
     </g>
    </g>
    <g id="ytick_2">
     <g id="line2d_19">
      <g>
       <use style="stroke:#000000;stroke-width:0.5;" x="28.890625" xlink:href="#m126a9e7993" y="269.28"/>
      </g>
     </g>
     <g id="line2d_20">
      <g>
       <use style="stroke:#000000;stroke-width:0.5;" x="475.290625" xlink:href="#m5651a44cbb" y="269.28"/>
      </g>
     </g>
     <g id="text_8">
      <!-- −2 -->
      <g transform="translate(7.2 272.59125)scale(0.12 -0.12)">
       <use xlink:href="#DejaVuSans-8722"/>
       <use x="83.789062" xlink:href="#DejaVuSans-50"/>
      </g>
     </g>
    </g>
    <g id="ytick_3">
     <g id="line2d_21">
      <g>
       <use style="stroke:#000000;stroke-width:0.5;" x="28.890625" xlink:href="#m126a9e7993" y="224.64"/>
      </g>
     </g>
     <g id="line2d_22">
      <g>
       <use style="stroke:#000000;stroke-width:0.5;" x="475.290625" xlink:href="#m5651a44cbb" y="224.64"/>
      </g>
     </g>
     <g id="text_9">
      <!-- −1 -->
      <g transform="translate(7.2 227.95125)scale(0.12 -0.12)">
       <use xlink:href="#DejaVuSans-8722"/>
       <use x="83.789062" xlink:href="#DejaVuSans-49"/>
      </g>
     </g>
    </g>
    <g id="ytick_4">
     <g id="line2d_23">
      <g>
       <use style="stroke:#000000;stroke-width:0.5;" x="28.890625" xlink:href="#m126a9e7993" y="180"/>
      </g>
     </g>
     <g id="line2d_24">
      <g>
       <use style="stroke:#000000;stroke-width:0.5;" x="475.290625" xlink:href="#m5651a44cbb" y="180"/>
      </g>
     </g>
     <g id="text_10">
      <!-- 0 -->
      <g transform="translate(17.255625 183.31125)scale(0.12 -0.12)">
       <use xlink:href="#DejaVuSans-48"/>
      </g>
     </g>
    </g>
    <g id="ytick_5">
     <g id="line2d_25">
      <g>
       <use style="stroke:#000000;stroke-width:0.5;" x="28.890625" xlink:href="#m126a9e7993" y="135.36"/>
      </g>
     </g>
     <g id="line2d_26">
      <g>
       <use style="stroke:#000000;stroke-width:0.5;" x="475.290625" xlink:href="#m5651a44cbb" y="135.36"/>
      </g>
     </g>
     <g id="text_11">
      <!-- 1 -->
      <g transform="translate(17.255625 138.67125)scale(0.12 -0.12)">
       <use xlink:href="#DejaVuSans-49"/>
      </g>
     </g>
    </g>
    <g id="ytick_6">
     <g id="line2d_27">
      <g>
       <use style="stroke:#000000;stroke-width:0.5;" x="28.890625" xlink:href="#m126a9e7993" y="90.72"/>
      </g>
     </g>
     <g id="line2d_28">
      <g>
       <use style="stroke:#000000;stroke-width:0.5;" x="475.290625" xlink:href="#m5651a44cbb" y="90.72"/>
      </g>
     </g>
     <g id="text_12">
      <!-- 2 -->
      <g transform="translate(17.255625 94.03125)scale(0.12 -0.12)">
       <use xlink:href="#DejaVuSans-50"/>
      </g>
     </g>
    </g>
    <g id="ytick_7">
     <g id="line2d_29">
      <g>
       <use style="stroke:#000000;stroke-width:0.5;" x="28.890625" xlink:href="#m126a9e7993" y="46.08"/>
      </g>
     </g>
     <g id="line2d_30">
      <g>
       <use style="stroke:#000000;stroke-width:0.5;" x="475.290625" xlink:href="#m5651a44cbb" y="46.08"/>
      </g>
     </g>
     <g id="text_13">
      <!-- 3 -->
      <g transform="translate(17.255625 49.39125)scale(0.12 -0.12)">
       <use xlink:href="#DejaVuSans-51"/>
      </g>
     </g>
    </g>
   </g>
  </g>
 </g>
 <defs>
  <clipPath id="pc30718a532">
   <rect height="345.6" width="446.4" x="28.890625" y="7.2"/>
  </clipPath>
 </defs>
</svg>
