<?xml version="1.0" encoding="utf-8" standalone="no"?>
<!DOCTYPE svg PUBLIC "-//W3C//DTD SVG 1.1//EN"
  "http://www.w3.org/Graphics/SVG/1.1/DTD/svg11.dtd">
<!-- Created with matplotlib (https://matplotlib.org/) -->
<svg height="231.84pt" version="1.1" viewBox="0 0 349.2 231.84" width="349.2pt" xmlns="http://www.w3.org/2000/svg" xmlns:xlink="http://www.w3.org/1999/xlink">
 <defs>
  <style type="text/css">
*{stroke-linecap:butt;stroke-linejoin:round;}
  </style>
 </defs>
 <g id="figure_1">
  <g id="patch_1">
   <path d="M 0 231.84 
L 349.2 231.84 
L 349.2 0 
L 0 0 
z
" style="fill:none;"/>
  </g>
  <g id="patch_2">
   <path d="M 7.2 224.64 
L 342 224.64 
L 342 7.2 
L 7.2 7.2 
z
" style="fill:#ffffff;"/>
  </g>
  <g id="pane3d_1">
   <g id="patch_3">
    <path d="M 51.582914 176.593423 
L 147.404425 123.282062 
L 145.809099 21.412801 
L 44.64491 69.311962 
" style="fill:#f2f2f2;opacity:0.5;stroke:#f2f2f2;stroke-linejoin:miter;"/>
   </g>
  </g>
  <g id="pane3d_2">
   <g id="patch_4">
    <path d="M 147.404425 123.282062 
L 302.626265 153.086553 
L 309.120561 48.145466 
L 145.809099 21.412801 
" style="fill:#e6e6e6;opacity:0.5;stroke:#e6e6e6;stroke-linejoin:miter;"/>
   </g>
  </g>
  <g id="pane3d_3">
   <g id="patch_5">
    <path d="M 51.582914 176.593423 
L 214.897263 211.305609 
L 302.626265 153.086553 
L 147.404425 123.282062 
" style="fill:#ececec;opacity:0.5;stroke:#ececec;stroke-linejoin:miter;"/>
   </g>
  </g>
  <g id="axis3d_1">
   <g id="line2d_1">
    <path d="M 51.582914 176.593423 
L 214.897263 211.305609 
" style="fill:none;stroke:#cccccc;stroke-linecap:round;"/>
   </g>
   <g id="Line3DCollection_1">
    <path d="M 61.539611 178.709702 
L 156.897598 125.104867 
L 155.776615 23.044396 
" style="fill:none;stroke:#cccccc;stroke-width:0.8;"/>
    <path d="M 84.512391 183.592527 
L 178.786074 129.307722 
L 178.768906 26.808034 
" style="fill:none;stroke:#cccccc;stroke-width:0.8;"/>
    <path d="M 107.78857 188.539839 
L 200.942556 133.562038 
L 202.057097 30.620108 
" style="fill:none;stroke:#cccccc;stroke-width:0.8;"/>
    <path d="M 131.3742 193.552925 
L 223.371995 137.868764 
L 225.646939 34.48156 
" style="fill:none;stroke:#cccccc;stroke-width:0.8;"/>
    <path d="M 155.275491 198.633103 
L 246.079467 142.228876 
L 249.544331 38.393355 
" style="fill:none;stroke:#cccccc;stroke-width:0.8;"/>
    <path d="M 179.498825 203.781732 
L 269.070175 146.643373 
L 273.755327 42.356485 
" style="fill:none;stroke:#cccccc;stroke-width:0.8;"/>
    <path d="M 204.050753 209.000202 
L 292.34945 151.113279 
L 298.286139 46.371965 
" style="fill:none;stroke:#cccccc;stroke-width:0.8;"/>
   </g>
   <g id="xtick_1">
    <g id="line2d_2">
     <path clip-path="url(#p0b4ee88395)" d="M 179.124324 112.981622 
" style="fill:none;stroke:#cccccc;stroke-linecap:round;stroke-width:0.8;"/>
    </g>
    <g id="line2d_3">
     <path d="M 62.361169 178.247869 
L 59.893431 179.635091 
" style="fill:none;stroke:#262626;stroke-linecap:round;stroke-width:0.8;"/>
    </g>
    <g id="text_1">
     <!-- −6 -->
     <defs>
      <path d="M 52.828125 31.203125 
L 5.5625 31.203125 
L 5.5625 39.40625 
L 52.828125 39.40625 
z
" id="ArialMT-8722"/>
      <path d="M 49.75 54.046875 
L 41.015625 53.375 
Q 39.84375 58.546875 37.703125 60.890625 
Q 34.125 64.65625 28.90625 64.65625 
Q 24.703125 64.65625 21.53125 62.3125 
Q 17.390625 59.28125 14.984375 53.46875 
Q 12.59375 47.65625 12.5 36.921875 
Q 15.671875 41.75 20.265625 44.09375 
Q 24.859375 46.4375 29.890625 46.4375 
Q 38.671875 46.4375 44.84375 39.96875 
Q 51.03125 33.5 51.03125 23.25 
Q 51.03125 16.5 48.125 10.71875 
Q 45.21875 4.9375 40.140625 1.859375 
Q 35.0625 -1.21875 28.609375 -1.21875 
Q 17.625 -1.21875 10.6875 6.859375 
Q 3.765625 14.9375 3.765625 33.5 
Q 3.765625 54.25 11.421875 63.671875 
Q 18.109375 71.875 29.4375 71.875 
Q 37.890625 71.875 43.28125 67.140625 
Q 48.6875 62.40625 49.75 54.046875 
z
M 13.875 23.1875 
Q 13.875 18.65625 15.796875 14.5 
Q 17.71875 10.359375 21.1875 8.171875 
Q 24.65625 6 28.46875 6 
Q 34.03125 6 38.03125 10.484375 
Q 42.046875 14.984375 42.046875 22.703125 
Q 42.046875 30.125 38.078125 34.390625 
Q 34.125 38.671875 28.125 38.671875 
Q 22.171875 38.671875 18.015625 34.390625 
Q 13.875 30.125 13.875 23.1875 
z
" id="ArialMT-54"/>
     </defs>
     <g style="fill:#262626;" transform="translate(48.092178 198.663815)scale(0.1 -0.1)">
      <use xlink:href="#ArialMT-8722"/>
      <use x="58.398438" xlink:href="#ArialMT-54"/>
     </g>
    </g>
   </g>
   <g id="xtick_2">
    <g id="line2d_4">
     <path clip-path="url(#p0b4ee88395)" d="M 179.124324 112.981622 
" style="fill:none;stroke:#cccccc;stroke-linecap:round;stroke-width:0.8;"/>
    </g>
    <g id="line2d_5">
     <path d="M 85.324988 183.124617 
L 82.884147 184.530105 
" style="fill:none;stroke:#262626;stroke-linecap:round;stroke-width:0.8;"/>
    </g>
    <g id="text_2">
     <!-- −4 -->
     <defs>
      <path d="M 32.328125 0 
L 32.328125 17.140625 
L 1.265625 17.140625 
L 1.265625 25.203125 
L 33.9375 71.578125 
L 41.109375 71.578125 
L 41.109375 25.203125 
L 50.78125 25.203125 
L 50.78125 17.140625 
L 41.109375 17.140625 
L 41.109375 0 
z
M 32.328125 25.203125 
L 32.328125 57.46875 
L 9.90625 25.203125 
z
" id="ArialMT-52"/>
     </defs>
     <g style="fill:#262626;" transform="translate(71.061966 203.640949)scale(0.1 -0.1)">
      <use xlink:href="#ArialMT-8722"/>
      <use x="58.398438" xlink:href="#ArialMT-52"/>
     </g>
    </g>
   </g>
   <g id="xtick_3">
    <g id="line2d_6">
     <path clip-path="url(#p0b4ee88395)" d="M 179.124324 112.981622 
" style="fill:none;stroke:#cccccc;stroke-linecap:round;stroke-width:0.8;"/>
    </g>
    <g id="line2d_7">
     <path d="M 108.591897 188.065731 
L 106.178882 189.489849 
" style="fill:none;stroke:#262626;stroke-linecap:round;stroke-width:0.8;"/>
    </g>
    <g id="text_3">
     <!-- −2 -->
     <defs>
      <path d="M 50.34375 8.453125 
L 50.34375 0 
L 3.03125 0 
Q 2.9375 3.171875 4.046875 6.109375 
Q 5.859375 10.9375 9.828125 15.625 
Q 13.8125 20.3125 21.34375 26.46875 
Q 33.015625 36.03125 37.109375 41.625 
Q 41.21875 47.21875 41.21875 52.203125 
Q 41.21875 57.421875 37.46875 61 
Q 33.734375 64.59375 27.734375 64.59375 
Q 21.390625 64.59375 17.578125 60.78125 
Q 13.765625 56.984375 13.71875 50.25 
L 4.6875 51.171875 
Q 5.609375 61.28125 11.65625 66.578125 
Q 17.71875 71.875 27.9375 71.875 
Q 38.234375 71.875 44.234375 66.15625 
Q 50.25 60.453125 50.25 52 
Q 50.25 47.703125 48.484375 43.546875 
Q 46.734375 39.40625 42.65625 34.8125 
Q 38.578125 30.21875 29.109375 22.21875 
Q 21.1875 15.578125 18.9375 13.203125 
Q 16.703125 10.84375 15.234375 8.453125 
z
" id="ArialMT-50"/>
     </defs>
     <g style="fill:#262626;" transform="translate(94.335752 208.683954)scale(0.1 -0.1)">
      <use xlink:href="#ArialMT-8722"/>
      <use x="58.398438" xlink:href="#ArialMT-50"/>
     </g>
    </g>
   </g>
   <g id="xtick_4">
    <g id="line2d_8">
     <path clip-path="url(#p0b4ee88395)" d="M 179.124324 112.981622 
" style="fill:none;stroke:#cccccc;stroke-linecap:round;stroke-width:0.8;"/>
    </g>
    <g id="line2d_9">
     <path d="M 132.167936 193.072494 
L 129.783706 194.515614 
" style="fill:none;stroke:#262626;stroke-linecap:round;stroke-width:0.8;"/>
    </g>
    <g id="text_4">
     <!-- 0 -->
     <defs>
      <path d="M 4.15625 35.296875 
Q 4.15625 48 6.765625 55.734375 
Q 9.375 63.484375 14.515625 67.671875 
Q 19.671875 71.875 27.484375 71.875 
Q 33.25 71.875 37.59375 69.546875 
Q 41.9375 67.234375 44.765625 62.859375 
Q 47.609375 58.5 49.21875 52.21875 
Q 50.828125 45.953125 50.828125 35.296875 
Q 50.828125 22.703125 48.234375 14.96875 
Q 45.65625 7.234375 40.5 3 
Q 35.359375 -1.21875 27.484375 -1.21875 
Q 17.140625 -1.21875 11.234375 6.203125 
Q 4.15625 15.140625 4.15625 35.296875 
z
M 13.1875 35.296875 
Q 13.1875 17.671875 17.3125 11.828125 
Q 21.4375 6 27.484375 6 
Q 33.546875 6 37.671875 11.859375 
Q 41.796875 17.71875 41.796875 35.296875 
Q 41.796875 52.984375 37.671875 58.78125 
Q 33.546875 64.59375 27.390625 64.59375 
Q 21.34375 64.59375 17.71875 59.46875 
Q 13.1875 52.9375 13.1875 35.296875 
z
" id="ArialMT-48"/>
     </defs>
     <g style="fill:#262626;" transform="translate(120.839923 213.794145)scale(0.1 -0.1)">
      <use xlink:href="#ArialMT-48"/>
     </g>
    </g>
   </g>
   <g id="xtick_5">
    <g id="line2d_10">
     <path clip-path="url(#p0b4ee88395)" d="M 179.124324 112.981622 
" style="fill:none;stroke:#cccccc;stroke-linecap:round;stroke-width:0.8;"/>
    </g>
    <g id="line2d_11">
     <path d="M 156.059309 198.146223 
L 153.704853 199.608728 
" style="fill:none;stroke:#262626;stroke-linecap:round;stroke-width:0.8;"/>
    </g>
    <g id="text_5">
     <!-- 2 -->
     <g style="fill:#262626;" transform="translate(144.740092 218.972876)scale(0.1 -0.1)">
      <use xlink:href="#ArialMT-50"/>
     </g>
    </g>
   </g>
   <g id="xtick_6">
    <g id="line2d_12">
     <path clip-path="url(#p0b4ee88395)" d="M 179.124324 112.981622 
" style="fill:none;stroke:#cccccc;stroke-linecap:round;stroke-width:0.8;"/>
    </g>
    <g id="line2d_13">
     <path d="M 180.272384 203.288271 
L 177.948724 204.770555 
" style="fill:none;stroke:#262626;stroke-linecap:round;stroke-width:0.8;"/>
    </g>
    <g id="text_6">
     <!-- 4 -->
     <g style="fill:#262626;" transform="translate(168.962978 224.221533)scale(0.1 -0.1)">
      <use xlink:href="#ArialMT-52"/>
     </g>
    </g>
   </g>
   <g id="xtick_7">
    <g id="line2d_14">
     <path clip-path="url(#p0b4ee88395)" d="M 179.124324 112.981622 
" style="fill:none;stroke:#cccccc;stroke-linecap:round;stroke-width:0.8;"/>
    </g>
    <g id="line2d_15">
     <path d="M 204.813702 208.500027 
L 202.521894 210.002493 
" style="fill:none;stroke:#262626;stroke-linecap:round;stroke-width:0.8;"/>
    </g>
    <g id="text_7">
     <!-- 6 -->
     <g style="fill:#262626;" transform="translate(193.515162 229.541543)scale(0.1 -0.1)">
      <use xlink:href="#ArialMT-54"/>
     </g>
    </g>
   </g>
  </g>
  <g id="axis3d_2">
   <g id="line2d_16">
    <path d="M 302.626265 153.086553 
L 214.897263 211.305609 
" style="fill:none;stroke:#cccccc;stroke-linecap:round;"/>
   </g>
   <g id="Line3DCollection_2">
    <path d="M 51.571961 66.032146 
L 58.120339 172.956254 
L 220.901308 207.321182 
" style="fill:none;stroke:#cccccc;stroke-width:0.8;"/>
    <path d="M 67.139618 58.661181 
L 72.825088 164.775104 
L 234.396264 198.365608 
" style="fill:none;stroke:#cccccc;stroke-width:0.8;"/>
    <path d="M 82.348131 51.460263 
L 87.207634 156.773214 
L 247.582082 189.615185 
" style="fill:none;stroke:#cccccc;stroke-width:0.8;"/>
    <path d="M 97.209785 44.423576 
L 101.278453 148.944758 
L 260.469264 181.062944 
" style="fill:none;stroke:#cccccc;stroke-width:0.8;"/>
    <path d="M 111.736314 37.545563 
L 115.047569 141.284158 
L 273.067842 172.702227 
" style="fill:none;stroke:#cccccc;stroke-width:0.8;"/>
    <path d="M 125.938925 30.820919 
L 128.524585 133.786071 
L 285.387404 164.526672 
" style="fill:none;stroke:#cccccc;stroke-width:0.8;"/>
    <path d="M 139.828335 24.244569 
L 141.718696 126.445381 
L 297.437117 156.530196 
" style="fill:none;stroke:#cccccc;stroke-width:0.8;"/>
   </g>
   <g id="xtick_8">
    <g id="line2d_17">
     <path clip-path="url(#p0b4ee88395)" d="M 179.124324 112.981622 
" style="fill:none;stroke:#cccccc;stroke-linecap:round;stroke-width:0.8;"/>
    </g>
    <g id="line2d_18">
     <path d="M 219.538974 207.033578 
L 223.62902 207.897033 
" style="fill:none;stroke:#262626;stroke-linecap:round;stroke-width:0.8;"/>
    </g>
    <g id="text_8">
     <!-- −6 -->
     <g style="fill:#262626;" transform="translate(228.635788 225.689427)scale(0.1 -0.1)">
      <use xlink:href="#ArialMT-8722"/>
      <use x="58.398438" xlink:href="#ArialMT-54"/>
     </g>
    </g>
   </g>
   <g id="xtick_9">
    <g id="line2d_19">
     <path clip-path="url(#p0b4ee88395)" d="M 179.124324 112.981622 
" style="fill:none;stroke:#cccccc;stroke-linecap:round;stroke-width:0.8;"/>
    </g>
    <g id="line2d_20">
     <path d="M 233.044746 198.084629 
L 237.102285 198.928187 
" style="fill:none;stroke:#262626;stroke-linecap:round;stroke-width:0.8;"/>
    </g>
    <g id="text_9">
     <!-- −4 -->
     <g style="fill:#262626;" transform="translate(241.967491 216.609128)scale(0.1 -0.1)">
      <use xlink:href="#ArialMT-8722"/>
      <use x="58.398438" xlink:href="#ArialMT-52"/>
     </g>
    </g>
   </g>
   <g id="xtick_10">
    <g id="line2d_21">
     <path clip-path="url(#p0b4ee88395)" d="M 179.124324 112.981622 
" style="fill:none;stroke:#cccccc;stroke-linecap:round;stroke-width:0.8;"/>
    </g>
    <g id="line2d_22">
     <path d="M 246.241244 189.340604 
L 250.266685 190.164946 
" style="fill:none;stroke:#262626;stroke-linecap:round;stroke-width:0.8;"/>
    </g>
    <g id="text_10">
     <!-- −2 -->
     <g style="fill:#262626;" transform="translate(254.993967 207.736721)scale(0.1 -0.1)">
      <use xlink:href="#ArialMT-8722"/>
      <use x="58.398438" xlink:href="#ArialMT-50"/>
     </g>
    </g>
   </g>
   <g id="xtick_11">
    <g id="line2d_23">
     <path clip-path="url(#p0b4ee88395)" d="M 179.124324 112.981622 
" style="fill:none;stroke:#cccccc;stroke-linecap:round;stroke-width:0.8;"/>
    </g>
    <g id="line2d_24">
     <path d="M 259.138973 180.794545 
L 263.132719 181.60032 
" style="fill:none;stroke:#262626;stroke-linecap:round;stroke-width:0.8;"/>
    </g>
    <g id="text_11">
     <!-- 0 -->
     <g style="fill:#262626;" transform="translate(270.645893 199.065147)scale(0.1 -0.1)">
      <use xlink:href="#ArialMT-48"/>
     </g>
    </g>
   </g>
   <g id="xtick_12">
    <g id="line2d_25">
     <path clip-path="url(#p0b4ee88395)" d="M 179.124324 112.981622 
" style="fill:none;stroke:#cccccc;stroke-linecap:round;stroke-width:0.8;"/>
    </g>
    <g id="line2d_26">
     <path d="M 271.747963 172.439805 
L 275.710418 173.227632 
" style="fill:none;stroke:#262626;stroke-linecap:round;stroke-width:0.8;"/>
    </g>
    <g id="text_12">
     <!-- 2 -->
     <g style="fill:#262626;" transform="translate(283.092543 190.587664)scale(0.1 -0.1)">
      <use xlink:href="#ArialMT-50"/>
     </g>
    </g>
   </g>
   <g id="xtick_13">
    <g id="line2d_27">
     <path clip-path="url(#p0b4ee88395)" d="M 179.124324 112.981622 
" style="fill:none;stroke:#cccccc;stroke-linecap:round;stroke-width:0.8;"/>
    </g>
    <g id="line2d_28">
     <path d="M 284.077805 164.270028 
L 288.009367 165.040502 
" style="fill:none;stroke:#262626;stroke-linecap:round;stroke-width:0.8;"/>
    </g>
    <g id="text_13">
     <!-- 4 -->
     <g style="fill:#262626;" transform="translate(295.263691 182.297826)scale(0.1 -0.1)">
      <use xlink:href="#ArialMT-52"/>
     </g>
    </g>
   </g>
   <g id="xtick_14">
    <g id="line2d_29">
     <path clip-path="url(#p0b4ee88395)" d="M 179.124324 112.981622 
" style="fill:none;stroke:#cccccc;stroke-linecap:round;stroke-width:0.8;"/>
    </g>
    <g id="line2d_30">
     <path d="M 296.137666 156.279142 
L 300.038731 157.032828 
" style="fill:none;stroke:#262626;stroke-linecap:round;stroke-width:0.8;"/>
    </g>
    <g id="text_14">
     <!-- 6 -->
     <g style="fill:#262626;" transform="translate(307.168384 174.189472)scale(0.1 -0.1)">
      <use xlink:href="#ArialMT-54"/>
     </g>
    </g>
   </g>
  </g>
  <g id="axis3d_3">
   <g id="line2d_31">
    <path d="M 302.626265 153.086553 
L 309.120561 48.145466 
" style="fill:none;stroke:#cccccc;stroke-linecap:round;"/>
   </g>
   <g id="Line3DCollection_3">
    <path d="M 303.495852 139.034936 
L 147.190408 109.616008 
L 50.655299 162.249833 
" style="fill:none;stroke:#cccccc;stroke-width:0.8;"/>
    <path d="M 304.251303 126.827624 
L 147.004582 97.750128 
L 49.849088 149.783506 
" style="fill:none;stroke:#cccccc;stroke-width:0.8;"/>
    <path d="M 305.015988 114.471108 
L 146.81658 85.745342 
L 49.032695 137.159725 
" style="fill:none;stroke:#cccccc;stroke-width:0.8;"/>
    <path d="M 305.790077 101.962635 
L 146.626365 73.599198 
L 48.205925 124.375488 
" style="fill:none;stroke:#cccccc;stroke-width:0.8;"/>
    <path d="M 306.573744 89.299385 
L 146.433897 61.309183 
L 47.36858 111.427717 
" style="fill:none;stroke:#cccccc;stroke-width:0.8;"/>
    <path d="M 307.367169 76.478468 
L 146.239136 48.872727 
L 46.520454 98.313254 
" style="fill:none;stroke:#cccccc;stroke-width:0.8;"/>
    <path d="M 308.170534 63.496919 
L 146.04204 36.287196 
L 45.661338 85.028858 
" style="fill:none;stroke:#cccccc;stroke-width:0.8;"/>
   </g>
   <g id="xtick_15">
    <g id="line2d_32">
     <path clip-path="url(#p0b4ee88395)" d="M 179.124324 112.981622 
" style="fill:none;stroke:#cccccc;stroke-linecap:round;stroke-width:0.8;"/>
    </g>
    <g id="line2d_33">
     <path d="M 302.191382 138.789416 
L 306.107521 139.52649 
" style="fill:none;stroke:#262626;stroke-linecap:round;stroke-width:0.8;"/>
    </g>
    <g id="text_15">
     <!-- −0.75 -->
     <defs>
      <path d="M 9.078125 0 
L 9.078125 10.015625 
L 19.09375 10.015625 
L 19.09375 0 
z
" id="ArialMT-46"/>
      <path d="M 4.734375 62.203125 
L 4.734375 70.65625 
L 51.078125 70.65625 
L 51.078125 63.8125 
Q 44.234375 56.546875 37.515625 44.484375 
Q 30.8125 32.421875 27.15625 19.671875 
Q 24.515625 10.6875 23.78125 0 
L 14.75 0 
Q 14.890625 8.453125 18.0625 20.40625 
Q 21.234375 32.375 27.171875 43.484375 
Q 33.109375 54.59375 39.796875 62.203125 
z
" id="ArialMT-55"/>
      <path d="M 4.15625 18.75 
L 13.375 19.53125 
Q 14.40625 12.796875 18.140625 9.390625 
Q 21.875 6 27.15625 6 
Q 33.5 6 37.890625 10.78125 
Q 42.28125 15.578125 42.28125 23.484375 
Q 42.28125 31 38.0625 35.34375 
Q 33.84375 39.703125 27 39.703125 
Q 22.75 39.703125 19.328125 37.765625 
Q 15.921875 35.84375 13.96875 32.765625 
L 5.71875 33.84375 
L 12.640625 70.609375 
L 48.25 70.609375 
L 48.25 62.203125 
L 19.671875 62.203125 
L 15.828125 42.96875 
Q 22.265625 47.46875 29.34375 47.46875 
Q 38.71875 47.46875 45.15625 40.96875 
Q 51.609375 34.46875 51.609375 24.265625 
Q 51.609375 14.546875 45.953125 7.46875 
Q 39.0625 -1.21875 27.15625 -1.21875 
Q 17.390625 -1.21875 11.203125 4.25 
Q 5.03125 9.71875 4.15625 18.75 
z
" id="ArialMT-53"/>
     </defs>
     <g style="fill:#262626;" transform="translate(310.368865 144.400145)scale(0.1 -0.1)">
      <use xlink:href="#ArialMT-8722"/>
      <use x="58.398438" xlink:href="#ArialMT-48"/>
      <use x="114.013672" xlink:href="#ArialMT-46"/>
      <use x="141.796875" xlink:href="#ArialMT-55"/>
      <use x="197.412109" xlink:href="#ArialMT-53"/>
     </g>
    </g>
   </g>
   <g id="xtick_16">
    <g id="line2d_34">
     <path clip-path="url(#p0b4ee88395)" d="M 179.124324 112.981622 
" style="fill:none;stroke:#cccccc;stroke-linecap:round;stroke-width:0.8;"/>
    </g>
    <g id="line2d_35">
     <path d="M 302.938648 126.584893 
L 306.879378 127.313598 
" style="fill:none;stroke:#262626;stroke-linecap:round;stroke-width:0.8;"/>
    </g>
    <g id="text_16">
     <!-- −0.50 -->
     <g style="fill:#262626;" transform="translate(311.24067 132.213216)scale(0.1 -0.1)">
      <use xlink:href="#ArialMT-8722"/>
      <use x="58.398438" xlink:href="#ArialMT-48"/>
      <use x="114.013672" xlink:href="#ArialMT-46"/>
      <use x="141.796875" xlink:href="#ArialMT-53"/>
      <use x="197.412109" xlink:href="#ArialMT-48"/>
     </g>
    </g>
   </g>
   <g id="xtick_17">
    <g id="line2d_36">
     <path clip-path="url(#p0b4ee88395)" d="M 179.124324 112.981622 
" style="fill:none;stroke:#cccccc;stroke-linecap:round;stroke-width:0.8;"/>
    </g>
    <g id="line2d_37">
     <path d="M 303.695044 114.231252 
L 307.660675 114.951329 
" style="fill:none;stroke:#262626;stroke-linecap:round;stroke-width:0.8;"/>
    </g>
    <g id="text_17">
     <!-- −0.25 -->
     <g style="fill:#262626;" transform="translate(312.123103 119.877715)scale(0.1 -0.1)">
      <use xlink:href="#ArialMT-8722"/>
      <use x="58.398438" xlink:href="#ArialMT-48"/>
      <use x="114.013672" xlink:href="#ArialMT-46"/>
      <use x="141.796875" xlink:href="#ArialMT-50"/>
      <use x="197.412109" xlink:href="#ArialMT-53"/>
     </g>
    </g>
   </g>
   <g id="xtick_18">
    <g id="line2d_38">
     <path clip-path="url(#p0b4ee88395)" d="M 179.124324 112.981622 
" style="fill:none;stroke:#cccccc;stroke-linecap:round;stroke-width:0.8;"/>
    </g>
    <g id="line2d_39">
     <path d="M 304.460739 101.725743 
L 308.451587 102.436924 
" style="fill:none;stroke:#262626;stroke-linecap:round;stroke-width:0.8;"/>
    </g>
    <g id="text_18">
     <!-- 0.00 -->
     <g style="fill:#262626;" transform="translate(315.936672 107.390909)scale(0.1 -0.1)">
      <use xlink:href="#ArialMT-48"/>
      <use x="55.615234" xlink:href="#ArialMT-46"/>
      <use x="83.398438" xlink:href="#ArialMT-48"/>
      <use x="139.013672" xlink:href="#ArialMT-48"/>
     </g>
    </g>
   </g>
   <g id="xtick_19">
    <g id="line2d_40">
     <path clip-path="url(#p0b4ee88395)" d="M 179.124324 112.981622 
" style="fill:none;stroke:#cccccc;stroke-linecap:round;stroke-width:0.8;"/>
    </g>
    <g id="line2d_41">
     <path d="M 305.235905 89.06555 
L 309.252293 89.767558 
" style="fill:none;stroke:#262626;stroke-linecap:round;stroke-width:0.8;"/>
    </g>
    <g id="text_19">
     <!-- 0.25 -->
     <g style="fill:#262626;" transform="translate(316.840953 94.749997)scale(0.1 -0.1)">
      <use xlink:href="#ArialMT-48"/>
      <use x="55.615234" xlink:href="#ArialMT-46"/>
      <use x="83.398438" xlink:href="#ArialMT-50"/>
      <use x="139.013672" xlink:href="#ArialMT-53"/>
     </g>
    </g>
   </g>
   <g id="xtick_20">
    <g id="line2d_42">
     <path clip-path="url(#p0b4ee88395)" d="M 179.124324 112.981622 
" style="fill:none;stroke:#cccccc;stroke-linecap:round;stroke-width:0.8;"/>
    </g>
    <g id="line2d_43">
     <path d="M 306.020719 76.247783 
L 310.062975 76.940335 
" style="fill:none;stroke:#262626;stroke-linecap:round;stroke-width:0.8;"/>
    </g>
    <g id="text_20">
     <!-- 0.50 -->
     <g style="fill:#262626;" transform="translate(317.756464 81.952108)scale(0.1 -0.1)">
      <use xlink:href="#ArialMT-48"/>
      <use x="55.615234" xlink:href="#ArialMT-46"/>
      <use x="83.398438" xlink:href="#ArialMT-53"/>
      <use x="139.013672" xlink:href="#ArialMT-48"/>
     </g>
    </g>
   </g>
   <g id="xtick_21">
    <g id="line2d_44">
     <path clip-path="url(#p0b4ee88395)" d="M 179.124324 112.981622 
" style="fill:none;stroke:#cccccc;stroke-linecap:round;stroke-width:0.8;"/>
    </g>
    <g id="line2d_45">
     <path d="M 306.815362 63.269483 
L 310.883821 63.952285 
" style="fill:none;stroke:#262626;stroke-linecap:round;stroke-width:0.8;"/>
    </g>
    <g id="text_21">
     <!-- 0.75 -->
     <g style="fill:#262626;" transform="translate(318.683415 68.9943)scale(0.1 -0.1)">
      <use xlink:href="#ArialMT-48"/>
      <use x="55.615234" xlink:href="#ArialMT-46"/>
      <use x="83.398438" xlink:href="#ArialMT-55"/>
      <use x="139.013672" xlink:href="#ArialMT-53"/>
     </g>
    </g>
   </g>
  </g>
  <g id="axes_1">
   <g id="Line3DCollection_4">
    <path clip-path="url(#p0b4ee88395)" d="M 62.728327 80.552424 
L 67.271501 74.243566 
L 72.07757 72.103709 
L 77.106716 73.922661 
L 82.302273 79.091862 
L 87.602177 86.754424 
L 92.948663 95.963828 
L 98.294781 105.819155 
L 103.607373 115.558053 
L 108.867071 124.602799 
L 114.066276 132.565304 
L 119.206148 139.222452 
L 124.293476 144.474528 
L 129.338013 148.298351 
L 134.350573 150.70439 
L 139.341977 151.70459 
L 144.322731 151.295175 
L 149.303225 149.456529 
L 154.294141 146.170279 
L 159.306766 141.451664 
L 164.35288 135.393081 
L 169.44401 128.212228 
L 174.589914 120.295551 
L 179.796389 112.225185 
L 185.062722 104.776166 
L 190.379383 98.871722 
L 195.726779 95.489796 
L 201.075933 95.524574 
L 206.391669 99.621619 
L 211.638302 108.019726 
" style="fill:none;stroke:#000000;stroke-width:1.5;"/>
    <path clip-path="url(#p0b4ee88395)" d="M 65.548467 71.783098 
L 70.327566 69.577851 
L 75.365322 71.97919 
L 80.598276 78.339674 
L 85.953306 87.667001 
L 91.360389 98.824364 
L 96.761731 110.711459 
L 102.116433 122.396042 
L 107.401092 133.185276 
L 112.607502 142.641486 
L 117.738792 150.555578 
L 122.805171 156.893978 
L 127.820125 161.733905 
L 132.797545 165.198988 
L 137.750003 167.404153 
L 142.688113 168.415782 
L 147.620794 168.230762 
L 152.556124 166.776153 
L 157.50245 163.929583 
L 162.469341 159.558871 
L 167.468052 153.577476 
L 172.511175 146.009926 
L 177.611283 137.058415 
L 182.778549 127.158515 
L 188.017604 117.008877 
L 193.324189 107.558366 
L 198.682512 99.936233 
L 204.064424 95.319311 
L 209.431425 94.745969 
L 214.739995 98.907022 
" style="fill:none;stroke:#000000;stroke-width:1.5;"/>
    <path clip-path="url(#p0b4ee88395)" d="M 68.597948 67.204028 
L 73.611622 69.528068 
L 78.857139 76.498031 
L 84.251246 87.021489 
L 89.710424 99.767404 
L 95.163533 113.401301 
L 100.559101 126.76883 
L 105.867304 139.006326 
L 111.077866 149.57908 
L 116.195525 158.261439 
L 121.234594 165.077758 
L 126.213808 170.222655 
L 131.152161 173.975913 
L 136.066128 176.623693 
L 140.96831 178.394072 
L 145.867366 179.411832 
L 150.768939 179.675054 
L 155.677216 179.054563 
L 160.596741 177.31635 
L 165.534047 174.166158 
L 170.498722 169.313899 
L 175.503532 162.553181 
L 180.56332 153.848081 
L 185.69258 143.415594 
L 190.901857 131.788295 
L 196.193459 119.838298 
L 201.557407 108.742459 
L 206.968877 99.873081 
L 212.38856 94.611604 
L 217.766968 94.10563 
" style="fill:none;stroke:#000000;stroke-width:1.5;"/>
    <path clip-path="url(#p0b4ee88395)" d="M 71.844436 66.573283 
L 77.068501 73.413452 
L 82.478672 84.533991 
L 87.977891 98.436405 
L 93.479279 113.53138 
L 98.917216 128.387383 
L 104.25181 141.897237 
L 109.467804 153.354706 
L 114.569825 162.453859 
L 119.575915 169.232823 
L 124.510913 173.984223 
L 129.400738 177.151639 
L 134.26819 179.227386 
L 139.130492 180.662823 
L 143.998497 181.798237 
L 148.877291 182.815565 
L 153.767821 183.71451 
L 158.669139 184.311778 
L 163.580866 184.263541 
L 168.505476 183.111693 
L 173.449968 180.353563 
L 178.426509 175.532016 
L 183.451674 168.339095 
L 188.544089 158.722107 
L 193.720523 146.976914 
L 198.990808 133.808905 
L 204.35247 120.338619 
L 209.786383 108.028864 
L 215.255143 98.51839 
L 220.705763 93.367845 
" style="fill:none;stroke:#000000;stroke-width:1.5;"/>
    <path clip-path="url(#p0b4ee88395)" d="M 75.237804 69.257355 
L 80.631636 80.218841 
L 86.152693 94.736301 
L 91.697085 110.979429 
L 97.181361 127.198851 
L 102.550878 141.966631 
L 107.78094 154.311067 
L 112.872664 163.752725 
L 117.845907 170.26426 
L 122.731268 174.179856 
L 127.562639 176.077601 
L 132.371248 176.654308 
L 137.181673 176.608773 
L 142.009939 176.545196 
L 146.863471 176.902937 
L 151.74246 177.912834 
L 156.642173 179.57655 
L 161.555767 181.665592 
L 166.477285 183.740146 
L 171.404487 185.191332 
L 176.341118 185.310692 
L 181.29811 183.386892 
L 186.293265 178.823639 
L 191.349065 171.267183 
L 196.488585 160.727584 
L 201.729783 147.674188 
L 207.078958 133.081691 
L 212.524682 118.399787 
L 218.034051 105.421618 
L 223.55333 96.041143 
" style="fill:none;stroke:#000000;stroke-width:1.5;"/>
    <path clip-path="url(#p0b4ee88395)" d="M 78.720583 74.384889 
L 84.234927 88.797463 
L 89.811028 105.76555 
L 95.344952 123.219562 
L 100.762281 139.348358 
L 106.023119 152.814816 
L 111.119868 162.851101 
L 116.070378 169.253525 
L 120.908976 172.305357 
L 125.677306 172.654185 
L 130.416329 171.166678 
L 135.160337 168.781475 
L 139.933437 166.379255 
L 144.74847 164.684552 
L 149.607944 164.204729 
L 154.506267 165.200527 
L 159.432655 167.675764 
L 164.374275 171.376192 
L 169.319506 175.797601 
L 174.261148 180.213441 
L 179.199254 183.73469 
L 184.143002 185.407863 
L 189.110918 184.345918 
L 194.128996 179.87757 
L 199.226518 171.695997 
L 204.429848 159.986335 
L 209.754864 145.509101 
L 215.199328 129.612257 
L 220.737038 114.141746 
L 226.316174 101.227345 
" style="fill:none;stroke:#000000;stroke-width:1.5;"/>
    <path clip-path="url(#p0b4ee88395)" d="M 82.237205 81.005945 
L 87.821659 98.050809 
L 93.401956 116.474318 
L 98.879821 134.06169 
L 104.193821 149.025571 
L 109.32085 160.187071 
L 114.270851 167.030556 
L 119.077708 169.66089 
L 123.788769 168.69253 
L 128.454763 165.094825 
L 133.121389 160.015649 
L 137.823478 154.607978 
L 142.582204 149.886251 
L 147.40521 146.63411 
L 152.28886 145.368716 
L 157.221487 146.344878 
L 162.186697 149.568547 
L 167.166412 154.795618 
L 172.143923 161.516036 
L 177.107218 168.947379 
L 182.052389 176.068832 
L 186.986334 181.712839 
L 191.92776 184.709541 
L 196.905738 184.062399 
L 201.955525 179.127997 
L 207.111904 169.775492 
L 212.400732 156.503706 
L 217.829895 140.491405 
L 223.381518 123.550092 
L 229.007971 107.947618 
" style="fill:none;stroke:#000000;stroke-width:1.5;"/>
    <path clip-path="url(#p0b4ee88395)" d="M 85.740555 88.22534 
L 91.349528 107.056847 
L 96.892919 126.013108 
L 102.282251 142.817488 
L 107.471318 155.772813 
L 112.454372 163.905611 
L 117.25827 166.984727 
L 121.93157 165.446547 
L 126.532815 160.25265 
L 131.119616 152.699386 
L 135.739859 144.201421 
L 140.426132 136.082023 
L 145.194001 129.412115 
L 150.043869 124.934143 
L 154.965077 123.0777 
L 159.94035 124.030722 
L 164.949152 127.800894 
L 169.969899 134.214682 
L 174.982063 142.853641 
L 179.969273 152.980444 
L 184.92338 163.520643 
L 189.848352 173.137412 
L 194.762392 180.39301 
L 199.697115 183.960833 
L 204.693416 182.845551 
L 209.794349 176.578303 
L 215.035807 165.365074 
L 220.436224 150.169066 
L 225.987036 132.700669 
L 231.646481 115.280383 
" style="fill:none;stroke:#000000;stroke-width:1.5;"/>
    <path clip-path="url(#p0b4ee88395)" d="M 89.1954 95.292505 
L 94.791993 115.137371 
L 100.269463 133.863995 
L 105.551635 149.199738 
L 110.608264 159.583546 
L 115.450393 164.277006 
L 120.120464 163.354333 
L 124.679975 157.601762 
L 129.196664 148.344338 
L 133.732728 137.212367 
L 138.335572 125.870173 
L 143.032592 115.753185 
L 147.830919 107.880462 
L 152.721712 102.805391 
L 157.686841 100.720275 
L 162.704793 101.649564 
L 167.753571 105.601755 
L 172.810877 112.569127 
L 177.854217 122.374358 
L 182.863373 134.473925 
L 187.825451 147.849394 
L 192.740554 161.053931 
L 197.625499 172.399708 
L 202.513836 180.223423 
L 207.451726 183.161828 
L 212.490247 180.390392 
L 217.675164 171.802475 
L 223.035447 158.117294 
L 228.57221 140.898888 
L 234.250537 122.453903 
" style="fill:none;stroke:#000000;stroke-width:1.5;"/>
    <path clip-path="url(#p0b4ee88395)" d="M 92.579018 101.644336 
L 98.136824 121.870255 
L 103.531779 139.817112 
L 108.701013 153.262446 
L 113.629773 160.808162 
L 118.344528 161.965797 
L 122.901502 157.12687 
L 127.37318 147.442603 
L 131.834436 134.619457 
L 136.349776 120.633146 
L 140.963522 107.384133 
L 145.695008 96.357706 
L 150.540193 88.390617 
L 155.479156 83.651377 
L 160.486305 81.879388 
L 165.538252 82.787811 
L 170.615475 86.384386 
L 175.698724 92.972687 
L 180.765625 102.831589 
L 185.792293 115.808284 
L 190.760087 131.072584 
L 195.663955 147.131509 
L 200.518318 162.061559 
L 205.358062 173.851613 
L 210.234296 180.7527 
L 215.205872 181.569903 
L 220.328104 175.872922 
L 225.640147 164.123409 
L 231.152607 147.713453 
L 236.837694 128.89009 
" style="fill:none;stroke:#000000;stroke-width:1.5;"/>
    <path clip-path="url(#p0b4ee88395)" d="M 95.87981 106.907673 
L 101.383006 127.060462 
L 106.690134 143.909382 
L 111.751397 155.309211 
L 116.566172 160.034348 
L 121.174387 157.847228 
L 125.643903 149.458091 
L 130.056057 136.39108 
L 134.490766 120.749049 
L 139.012718 104.867944 
L 143.660919 90.882585 
L 148.444334 80.283282 
L 153.345561 73.60228 
L 158.33213 70.397523 
L 163.371341 69.657373 
L 168.441096 70.551075 
L 173.529545 73.083416 
L 178.624907 78.098732 
L 183.706573 86.629609 
L 188.746252 99.140989 
L 193.717895 115.115201 
L 198.609814 133.059731 
L 203.433128 150.818244 
L 208.223674 166.017352 
L 213.037359 176.507498 
L 217.940599 180.715708 
L 222.997825 177.887333 
L 228.257723 168.226742 
L 233.739718 152.946004 
L 239.422772 134.206597 
" style="fill:none;stroke:#000000;stroke-width:1.5;"/>
    <path clip-path="url(#p0b4ee88395)" d="M 99.094802 110.873084 
L 104.536997 130.685791 
L 109.760218 146.343894 
L 114.726563 155.789045 
L 119.447504 157.961414 
L 123.97401 152.859725 
L 128.383106 141.498275 
L 132.762633 125.765356 
L 137.195422 108.160761 
L 141.744496 91.390777 
L 146.442057 77.839736 
L 151.28558 69.007602 
L 156.243427 65.072194 
L 161.269791 64.786396 
L 166.325037 65.982782 
L 171.391809 66.870064 
L 176.472438 67.447337 
L 181.56717 69.512853 
L 186.657156 75.257523 
L 191.707414 85.960085 
L 196.682377 101.467077 
L 201.562571 120.283246 
L 206.355491 140.005136 
L 211.098005 157.88741 
L 215.850906 171.379602 
L 220.687989 178.539776 
L 225.682206 178.30428 
L 230.89082 170.635956 
L 236.340949 156.575088 
L 242.017346 138.189452 
" style="fill:none;stroke:#000000;stroke-width:1.5;"/>
    <path clip-path="url(#p0b4ee88395)" d="M 102.226792 113.452719 
L 107.609128 132.832041 
L 112.759108 147.405092 
L 117.648871 155.194721 
L 122.299462 155.284365 
L 126.770114 147.876057 
L 131.144229 134.25011 
L 135.513573 116.621118 
L 139.961717 97.855066 
L 144.548536 81.015916 
L 149.298924 68.759756 
L 154.199479 62.671908 
L 159.205648 62.693268 
L 164.258946 66.77886 
L 169.311961 71.108994 
L 174.354441 71.998453 
L 179.411505 69.437211 
L 184.499021 67.108235 
L 189.596081 68.858792 
L 194.657079 76.775543 
L 199.635427 90.952219 
L 204.504026 109.815366 
L 209.267512 130.692482 
L 213.964494 150.479356 
L 218.660936 166.255839 
L 223.437708 175.749491 
L 228.375417 177.626518 
L 233.538573 171.642365 
L 238.960419 158.689542 
L 244.630005 140.749461 
" style="fill:none;stroke:#000000;stroke-width:1.5;"/>
    <path clip-path="url(#p0b4ee88395)" d="M 105.281748 114.633645 
L 110.610641 133.629353 
L 115.702235 147.381134 
L 120.536398 153.974616 
L 125.140928 152.599218 
L 129.580288 143.607449 
L 133.94125 128.479327 
L 138.316752 109.679293 
L 142.788948 90.361491 
L 147.413452 73.886586 
L 152.208245 63.173383 
L 157.151275 59.996883 
L 162.188935 64.377233 
L 167.253857 74.031681 
L 172.289484 83.407643 
L 177.290399 84.306068 
L 182.318288 76.702663 
L 187.402833 68.786469 
L 192.510714 66.145907 
L 197.582629 71.114988 
L 202.562208 83.716517 
L 207.417051 102.19308 
L 212.150972 123.611717 
L 216.805521 144.570703 
L 221.452062 161.859104 
L 226.177917 172.951472 
L 231.070026 176.311298 
L 236.19836 171.540724 
L 241.600265 159.423273 
L 247.267135 141.874136 
" style="fill:none;stroke:#000000;stroke-width:1.5;"/>
    <path clip-path="url(#p0b4ee88395)" d="M 108.26677 114.435662 
L 113.551624 133.198334 
L 118.60148 146.501166 
L 123.401412 152.464787 
L 127.983021 150.335389 
L 132.412897 140.545635 
L 136.778135 124.682492 
L 141.170124 105.345596 
L 145.667634 85.84783 
L 150.321306 69.720186 
L 155.143213 60.052005 
L 160.105553 58.803235 
L 165.150446 66.292396 
L 170.208449 80.965717 
L 175.219406 98.529077 
L 180.172077 99.438827 
L 185.187374 83.648132 
L 190.282375 70.697038 
L 195.402895 64.924722 
L 200.480065 67.941204 
L 205.452727 79.475097 
L 210.287269 97.587036 
L 214.989393 119.174778 
L 219.604783 140.665892 
L 224.210045 158.689336 
L 228.897743 170.582801 
L 233.759263 174.701265 
L 238.867739 170.565286 
L 244.262163 158.900146 
L 249.933935 141.584334 
" style="fill:none;stroke:#000000;stroke-width:1.5;"/>
    <path clip-path="url(#p0b4ee88395)" d="M 111.188816 112.879998 
L 116.439892 131.611663 
L 121.464393 144.892096 
L 126.250041 150.844198 
L 130.829373 148.715016 
L 135.268154 138.936752 
L 139.650978 123.094533 
L 144.065306 103.784628 
L 148.585018 84.315061 
L 153.255654 68.211007 
L 158.084934 58.556218 
L 163.042426 57.30686 
L 168.07002 64.780771 
L 173.100692 79.427092 
L 178.080478 96.959219 
L 183.025336 97.86467 
L 188.055795 82.09673 
L 193.161712 69.164291 
L 198.283074 63.398899 
L 203.349038 66.407504 
L 208.299054 77.919275 
L 213.102326 95.998595 
L 217.768835 117.548878 
L 222.349051 139.003632 
L 226.923983 156.996813 
L 231.589564 168.869591 
L 236.439143 172.978873 
L 241.546258 168.845761 
L 246.948737 157.194756 
L 252.635373 139.902134 
" style="fill:none;stroke:#000000;stroke-width:1.5;"/>
    <path clip-path="url(#p0b4ee88395)" d="M 114.054163 109.972843 
L 119.280774 128.874468 
L 124.294358 142.557095 
L 129.082898 149.113312 
L 133.677255 147.735278 
L 138.139775 138.774351 
L 142.550215 123.705407 
L 146.990325 104.983407 
L 151.528292 85.74881 
L 156.205159 69.345915 
L 161.026566 58.677856 
L 165.963317 55.509267 
L 170.962308 59.8595 
L 175.966387 69.457587 
L 180.942653 78.778992 
L 185.919747 79.664639 
L 190.958766 72.090427 
L 196.055097 64.205505 
L 201.152624 61.569963 
L 206.183045 66.505602 
L 211.090527 79.03569 
L 215.850303 97.413108 
L 220.478272 118.720764 
L 225.029607 139.573661 
L 229.588209 156.774936 
L 234.250947 167.808948 
L 239.110219 171.144592 
L 244.23689 166.385403 
L 249.664604 154.312397 
L 255.376822 136.833956 
" style="fill:none;stroke:#000000;stroke-width:1.5;"/>
    <path clip-path="url(#p0b4ee88395)" d="M 116.868524 105.705527 
L 122.077617 124.924876 
L 127.091523 139.376508 
L 131.896405 147.095378 
L 136.51923 147.170039 
L 141.016835 139.801322 
L 145.462409 126.2621 
L 149.930908 108.752992 
L 154.484704 90.119771 
L 159.161488 73.402212 
L 163.967382 61.233181 
L 168.87829 55.182616 
L 173.850866 55.190359 
L 178.84176 59.228229 
L 183.830696 63.508623 
L 188.832941 64.37696 
L 193.873214 61.823348 
L 198.941771 59.500151 
L 203.991656 61.222171 
L 208.963781 69.058713 
L 213.811773 83.104146 
L 218.519813 101.800353 
L 223.110774 122.498389 
L 227.643872 142.11879 
L 232.203963 157.762201 
L 236.886133 167.170659 
L 241.77875 169.018228 
L 246.946837 163.061961 
L 252.416813 150.189628 
L 258.164154 132.370753 
" style="fill:none;stroke:#000000;stroke-width:1.5;"/>
    <path clip-path="url(#p0b4ee88395)" d="M 119.637645 100.071166 
L 124.832816 119.654538 
L 129.85424 135.131004 
L 134.684581 144.4602 
L 139.345152 146.590585 
L 143.88572 141.520553 
L 148.371769 130.255995 
L 152.870944 114.668763 
L 157.440087 97.234736 
L 162.114686 80.631433 
L 166.903238 67.215117 
L 171.788862 58.466054 
L 176.739 54.557723 
L 181.720953 54.25641 
L 186.716852 55.419813 
L 191.726936 56.277644 
L 196.753482 56.829017 
L 201.77952 58.851046 
L 206.765731 64.509077 
L 211.665802 75.067877 
L 216.446529 90.377958 
L 221.103202 108.963823 
L 225.666078 128.450556 
L 230.197357 146.122285 
L 234.780758 159.45317 
L 239.506884 166.518349 
L 244.457089 166.263141 
L 249.687516 158.651276 
L 255.214495 144.715252 
L 261.003156 126.505089 
" style="fill:none;stroke:#000000;stroke-width:1.5;"/>
    <path clip-path="url(#p0b4ee88395)" d="M 122.368141 93.095637 
L 127.549123 112.947359 
L 132.580781 129.545818 
L 137.441073 140.770618 
L 142.144367 145.408688 
L 146.732266 143.224132 
L 151.26186 134.919196 
L 155.793309 122.001009 
L 160.378253 106.547331 
L 165.050669 90.86358 
L 169.822098 77.053878 
L 174.682899 66.584839 
L 179.609683 59.978353 
L 184.576439 56.797091 
L 189.563925 56.043644 
L 194.560943 56.899427 
L 199.555979 59.369109 
L 204.527311 64.28453 
L 209.442376 72.66356 
L 214.268113 84.965929 
L 218.98563 100.684098 
L 223.601838 118.349453 
L 228.153858 135.83693 
L 232.705441 150.804449 
L 237.337084 161.128336 
L 242.132412 165.253365 
L 247.163056 162.433582 
L 252.473543 152.872392 
L 258.067613 137.769912 
L 263.898183 119.262937 
" style="fill:none;stroke:#000000;stroke-width:1.5;"/>
    <path clip-path="url(#p0b4ee88395)" d="M 125.068344 84.878645 
L 130.230967 104.732807 
L 135.271071 122.353534 
L 140.161212 135.551093 
L 144.907967 142.945491 
L 149.544067 144.053255 
L 154.117803 139.259652 
L 158.681788 129.699838 
L 163.282622 117.055818 
L 167.952863 103.273017 
L 172.706746 90.220287 
L 177.540666 79.355966 
L 182.438234 71.499868 
L 187.377788 66.815391 
L 192.338629 65.045203 
L 197.302575 65.906973 
L 202.250776 69.408215 
L 207.160238 75.847526 
L 212.005327 85.500029 
L 216.765359 98.217669 
L 221.434751 113.18714 
L 226.030835 128.942739 
L 230.596093 143.593233 
L 235.194031 155.158593 
L 239.899889 161.915139 
L 244.788079 162.684845 
L 249.91814 157.044494 
L 255.320651 145.451566 
L 260.984794 129.280622 
L 266.850138 110.745881 
" style="fill:none;stroke:#000000;stroke-width:1.5;"/>
    <path clip-path="url(#p0b4ee88395)" d="M 127.748889 75.638301 
L 132.885522 95.047808 
L 137.928161 113.370453 
L 142.843809 128.375134 
L 147.630852 138.525972 
L 152.312749 143.094427 
L 156.928758 142.151601 
L 161.523878 136.469863 
L 166.13961 127.351662 
L 170.806764 116.398535 
L 175.541391 105.243608 
L 180.344437 95.293439 
L 185.204811 87.544959 
L 190.104367 82.538313 
L 195.02244 80.46026 
L 199.938097 81.33386 
L 204.830225 85.167336 
L 209.677704 91.95383 
L 214.462184 101.521127 
L 219.173873 113.338716 
L 223.818275 126.410379 
L 228.4208 139.318567 
L 233.027066 150.40733 
L 237.698269 158.042951 
L 242.5024 160.885652 
L 247.502646 158.125685 
L 252.744434 149.660467 
L 258.242558 136.200203 
L 263.970374 119.28419 
L 269.853957 101.177027 
" style="fill:none;stroke:#000000;stroke-width:1.5;"/>
    <path clip-path="url(#p0b4ee88395)" d="M 130.422811 65.75022 
L 135.52325 84.098499 
L 140.559165 102.578586 
L 145.492423 118.964533 
L 150.313274 131.592858 
L 155.035801 139.506627 
L 159.690124 142.476352 
L 164.313542 140.928043 
L 168.942255 135.803541 
L 173.604814 128.372852 
L 178.318131 120.020965 
L 183.086434 112.041975 
L 187.902893 105.481828 
L 192.752934 101.064615 
L 197.617813 99.20867 
L 202.477394 100.096732 
L 207.312082 103.736221 
L 212.104928 109.958308 
L 216.844896 118.355459 
L 221.531287 128.208591 
L 226.177972 138.468414 
L 230.815599 147.827739 
L 235.490359 154.879187 
L 240.25894 158.323325 
L 245.180127 157.185488 
L 250.304072 151.008195 
L 255.660437 139.99677 
L 261.247004 125.09865 
L 267.020969 107.990635 
L 272.896015 90.941398 
" style="fill:none;stroke:#000000;stroke-width:1.5;"/>
    <path clip-path="url(#p0b4ee88395)" d="M 133.104958 55.770058 
L 138.157721 72.31014 
L 143.175432 90.201787 
L 148.115821 107.289252 
L 152.961543 121.828303 
L 157.717528 132.665064 
L 162.404812 139.292274 
L 167.052936 141.80952 
L 171.692565 140.815562 
L 176.349486 137.256754 
L 181.04067 132.253855 
L 185.772718 126.931949 
L 190.542513 122.280036 
L 195.339444 119.06133 
L 200.148348 117.779024 
L 204.952468 118.680847 
L 209.736249 121.772532 
L 214.488222 126.81667 
L 219.204234 133.316937 
L 223.890728 140.511328 
L 228.567189 147.404714 
L 233.266612 152.857924 
L 238.033169 155.728911 
L 242.91683 155.044987 
L 247.965311 150.179421 
L 253.21414 141.007698 
L 258.676051 128.02122 
L 264.331406 112.374248 
L 270.122109 95.834695 
L 275.952031 80.60943 
" style="fill:none;stroke:#000000;stroke-width:1.5;"/>
    <path clip-path="url(#p0b4ee88395)" d="M 135.810653 46.427509 
L 140.804553 60.351062 
L 145.79177 76.761086 
L 150.727434 93.652812 
L 155.587654 109.267392 
L 160.368817 122.302505 
L 165.083155 132.007386 
L 169.752487 138.18015 
L 174.401775 141.094016 
L 179.05363 141.378161 
L 183.724477 139.875844 
L 188.422677 137.500515 
L 193.148517 135.108919 
L 197.895696 133.405488 
L 202.653738 132.883211 
L 207.410833 133.795316 
L 212.156805 136.145474 
L 216.886082 139.686704 
L 221.600529 143.929057 
L 226.311761 148.166169 
L 231.042277 151.533258 
L 235.824728 153.102556 
L 240.698809 152.011163 
L 245.705694 147.607103 
L 250.880344 139.594627 
L 256.24247 128.158075 
L 261.787419 114.041616 
L 267.478851 98.558416 
L 273.245711 83.500876 
L 278.98623 70.931126 
" style="fill:none;stroke:#000000;stroke-width:1.5;"/>
    <path clip-path="url(#p0b4ee88395)" d="M 138.553683 38.581322 
L 143.479498 49.115798 
L 148.424686 63.091615 
L 153.34373 78.744411 
L 158.207744 94.384107 
L 163.005605 108.62741 
L 167.741314 120.529884 
L 172.42919 129.623019 
L 177.088425 135.877037 
L 181.73816 139.613954 
L 186.393825 141.39353 
L 191.065067 141.891443 
L 195.755294 141.785561 
L 200.462596 141.661967 
L 205.181654 141.946755 
L 209.906231 142.863744 
L 214.631884 144.414526 
L 219.358609 146.377534 
L 224.093092 148.326235 
L 228.850167 149.670049 
L 233.652977 149.721827 
L 238.531401 147.791958 
L 243.518451 143.303248 
L 248.644678 135.915047 
L 253.930997 125.640816 
L 259.380769 112.939777 
L 264.972546 98.759631 
L 270.65542 84.504692 
L 276.349352 71.906663 
L 281.952549 62.789963 
" style="fill:none;stroke:#000000;stroke-width:1.5;"/>
    <path clip-path="url(#p0b4ee88395)" d="M 141.34388 33.130325 
L 146.195862 39.655389 
L 151.089765 50.303434 
L 155.981602 63.636526 
L 160.839446 78.127145 
L 165.646126 92.396265 
L 170.398337 105.374295 
L 175.103346 116.376488 
L 179.774659 125.104049 
L 184.427755 131.591075 
L 189.076685 136.118603 
L 193.731926 139.114532 
L 198.399603 141.054521 
L 203.081928 142.374951 
L 207.778602 143.404904 
L 212.488804 144.320334 
L 217.213412 145.120958 
L 221.957098 145.629517 
L 226.729917 145.513539 
L 231.548004 144.330194 
L 236.432994 141.593935 
L 241.409863 136.863959 
L 246.503083 129.844702 
L 251.731222 120.488374 
L 257.100538 109.084475 
L 262.598531 96.317287 
L 268.188932 83.269342 
L 273.810036 71.349341 
L 279.37831 62.131267 
L 284.798514 57.111189 
" style="fill:none;stroke:#000000;stroke-width:1.5;"/>
    <path clip-path="url(#p0b4ee88395)" d="M 144.184806 30.885281 
L 148.961722 33.051254 
L 153.79859 39.673691 
L 158.655092 49.708105 
L 163.49845 61.881218 
L 168.30727 74.914441 
L 173.072214 87.699286 
L 177.794223 99.404075 
L 182.481368 109.511974 
L 187.145356 117.803126 
L 191.798495 124.298739 
L 196.451565 129.184698 
L 201.112804 132.729634 
L 205.787927 135.208836 
L 210.481002 136.841921 
L 215.195868 137.749103 
L 219.937746 137.928554 
L 224.714689 137.255877 
L 229.538497 135.505814 
L 234.424742 132.395392 
L 239.391623 127.646231 
L 244.457463 121.061354 
L 249.636853 112.608745 
L 254.935752 102.500282 
L 260.346194 91.25105 
L 265.841667 79.700921 
L 271.374652 68.97966 
L 276.877939 60.401259 
L 282.271033 55.285922 
L 287.471895 54.72941 
" style="fill:none;stroke:#000000;stroke-width:1.5;"/>
    <path clip-path="url(#p0b4ee88395)" d="M 147.072154 32.41946 
L 151.777583 30.243447 
L 156.555824 32.470558 
L 161.372062 38.482528 
L 166.194852 47.333467 
L 171.000616 57.939287 
L 175.775561 69.249215 
L 180.515302 80.371142 
L 185.222917 90.640338 
L 189.906325 99.635442 
L 194.575717 107.153885 
L 199.241549 113.161659 
L 203.913365 117.731522 
L 208.599445 120.98127 
L 213.30717 123.020752 
L 218.043848 123.913508 
L 222.817678 123.656595 
L 227.638546 122.180272 
L 232.518294 119.367666 
L 237.470198 115.092942 
L 242.507422 109.274615 
L 247.640405 101.938285 
L 252.873294 93.280192 
L 258.19987 83.719914 
L 263.599707 73.927801 
L 269.03567 64.811592 
L 274.454034 57.449012 
L 279.788401 52.961236 
L 284.96797 52.336757 
L 289.929515 56.234039 
" style="fill:none;stroke:#000000;stroke-width:1.5;"/>
    <path clip-path="url(#p0b4ee88395)" d="M 149.99347 37.927879 
L 154.63523 31.841886 
L 159.357296 29.729992 
L 164.131656 31.389282 
L 168.930129 36.240191 
L 173.729005 43.468202 
L 178.5118 52.173465 
L 183.270036 61.49851 
L 188.002447 70.716486 
L 192.71326 79.275357 
L 197.41019 86.803258 
L 202.102662 93.085563 
L 206.800545 98.025621 
L 211.513508 101.60022 
L 216.250906 103.818694 
L 221.022039 104.692165 
L 225.836502 104.217091 
L 230.704361 102.375163 
L 235.635882 99.149664 
L 240.64058 94.556408 
L 245.725496 88.685278 
L 250.892722 81.745948 
L 256.136435 74.108873 
L 261.439953 66.330311 
L 266.773605 59.148951 
L 272.094374 53.442915 
L 277.348296 50.141017 
L 282.476193 50.092102 
L 287.422603 53.909877 
L 292.146659 61.823887 
" style="fill:none;stroke:#000000;stroke-width:1.5;"/>
    <path clip-path="url(#p0b4ee88395)" d="M 62.728327 80.552424 
L 65.548467 71.783098 
L 68.597948 67.204028 
L 71.844436 66.573283 
L 75.237804 69.257355 
L 78.720583 74.384889 
L 82.237205 81.005945 
L 85.740555 88.22534 
L 89.1954 95.292505 
L 92.579018 101.644336 
L 95.87981 106.907673 
L 99.094802 110.873084 
L 102.226792 113.452719 
L 105.281748 114.633645 
L 108.26677 114.435662 
L 111.188816 112.879998 
L 114.054163 109.972843 
L 116.868524 105.705527 
L 119.637645 100.071166 
L 122.368141 93.095637 
L 125.068344 84.878645 
L 127.748889 75.638301 
L 130.422811 65.75022 
L 133.104958 55.770058 
L 135.810653 46.427509 
L 138.553683 38.581322 
L 141.34388 33.130325 
L 144.184806 30.885281 
L 147.072154 32.41946 
L 149.99347 37.927879 
" style="fill:none;stroke:#000000;stroke-width:1.5;"/>
    <path clip-path="url(#p0b4ee88395)" d="M 67.271501 74.243566 
L 70.327566 69.577851 
L 73.611622 69.528068 
L 77.068501 73.413452 
L 80.631636 80.218841 
L 84.234927 88.797463 
L 87.821659 98.050809 
L 91.349528 107.056847 
L 94.791993 115.137371 
L 98.136824 121.870255 
L 101.383006 127.060462 
L 104.536997 130.685791 
L 107.609128 132.832041 
L 110.610641 133.629353 
L 113.551624 133.198334 
L 116.439892 131.611663 
L 119.280774 128.874468 
L 122.077617 124.924876 
L 124.832816 119.654538 
L 127.549123 112.947359 
L 130.230967 104.732807 
L 132.885522 95.047808 
L 135.52325 84.098499 
L 138.157721 72.31014 
L 140.804553 60.351062 
L 143.479498 49.115798 
L 146.195862 39.655389 
L 148.961722 33.051254 
L 151.777583 30.243447 
L 154.63523 31.841886 
" style="fill:none;stroke:#000000;stroke-width:1.5;"/>
    <path clip-path="url(#p0b4ee88395)" d="M 72.07757 72.103709 
L 75.365322 71.97919 
L 78.857139 76.498031 
L 82.478672 84.533991 
L 86.152693 94.736301 
L 89.811028 105.76555 
L 93.401956 116.474318 
L 96.892919 126.013108 
L 100.269463 133.863995 
L 103.531779 139.817112 
L 106.690134 143.909382 
L 109.760218 146.343894 
L 112.759108 147.405092 
L 115.702235 147.381134 
L 118.60148 146.501166 
L 121.464393 144.892096 
L 124.294358 142.557095 
L 127.091523 139.376508 
L 129.85424 135.131004 
L 132.580781 129.545818 
L 135.271071 122.353534 
L 137.928161 113.370453 
L 140.559165 102.578586 
L 143.175432 90.201787 
L 145.79177 76.761086 
L 148.424686 63.091615 
L 151.089765 50.303434 
L 153.79859 39.673691 
L 156.555824 32.470558 
L 159.357296 29.729992 
" style="fill:none;stroke:#000000;stroke-width:1.5;"/>
    <path clip-path="url(#p0b4ee88395)" d="M 77.106716 73.922661 
L 80.598276 78.339674 
L 84.251246 87.021489 
L 87.977891 98.436405 
L 91.697085 110.979429 
L 95.344952 123.219562 
L 98.879821 134.06169 
L 102.282251 142.817488 
L 105.551635 149.199738 
L 108.701013 153.262446 
L 111.751397 155.309211 
L 114.726563 155.789045 
L 117.648871 155.194721 
L 120.536398 153.974616 
L 123.401412 152.464787 
L 126.250041 150.844198 
L 129.082898 149.113312 
L 131.896405 147.095378 
L 134.684581 144.4602 
L 137.441073 140.770618 
L 140.161212 135.551093 
L 142.843809 128.375134 
L 145.492423 118.964533 
L 148.115821 107.289252 
L 150.727434 93.652812 
L 153.34373 78.744411 
L 155.981602 63.636526 
L 158.655092 49.708105 
L 161.372062 38.482528 
L 164.131656 31.389282 
" style="fill:none;stroke:#000000;stroke-width:1.5;"/>
    <path clip-path="url(#p0b4ee88395)" d="M 82.302273 79.091862 
L 85.953306 87.667001 
L 89.710424 99.767404 
L 93.479279 113.53138 
L 97.181361 127.198851 
L 100.762281 139.348358 
L 104.193821 149.025571 
L 107.471318 155.772813 
L 110.608264 159.583546 
L 113.629773 160.808162 
L 116.566172 160.034348 
L 119.447504 157.961414 
L 122.299462 155.284365 
L 125.140928 152.599218 
L 127.983021 150.335389 
L 130.829373 148.715016 
L 133.677255 147.735278 
L 136.51923 147.170039 
L 139.345152 146.590585 
L 142.144367 145.408688 
L 144.907967 142.945491 
L 147.630852 138.525972 
L 150.313274 131.592858 
L 152.961543 121.828303 
L 155.587654 109.267392 
L 158.207744 94.384107 
L 160.839446 78.127145 
L 163.49845 61.881218 
L 166.194852 47.333467 
L 168.930129 36.240191 
" style="fill:none;stroke:#000000;stroke-width:1.5;"/>
    <path clip-path="url(#p0b4ee88395)" d="M 87.602177 86.754424 
L 91.360389 98.824364 
L 95.163533 113.401301 
L 98.917216 128.387383 
L 102.550878 141.966631 
L 106.023119 152.814816 
L 109.32085 160.187071 
L 112.454372 163.905611 
L 115.450393 164.277006 
L 118.344528 161.965797 
L 121.174387 157.847228 
L 123.97401 152.859725 
L 126.770114 147.876057 
L 129.580288 143.607449 
L 132.412897 140.545635 
L 135.268154 138.936752 
L 138.139775 138.774351 
L 141.016835 139.801322 
L 143.88572 141.520553 
L 146.732266 143.224132 
L 149.544067 144.053255 
L 152.312749 143.094427 
L 155.035801 139.506627 
L 157.717528 132.665064 
L 160.368817 122.302505 
L 163.005605 108.62741 
L 165.646126 92.396265 
L 168.30727 74.914441 
L 171.000616 57.939287 
L 173.729005 43.468202 
" style="fill:none;stroke:#000000;stroke-width:1.5;"/>
    <path clip-path="url(#p0b4ee88395)" d="M 92.948663 95.963828 
L 96.761731 110.711459 
L 100.559101 126.76883 
L 104.25181 141.897237 
L 107.78094 154.311067 
L 111.119868 162.851101 
L 114.270851 167.030556 
L 117.25827 166.984727 
L 120.120464 163.354333 
L 122.901502 157.12687 
L 125.643903 149.458091 
L 128.383106 141.498275 
L 131.144229 134.25011 
L 133.94125 128.479327 
L 136.778135 124.682492 
L 139.650978 123.094533 
L 142.550215 123.705407 
L 145.462409 126.2621 
L 148.371769 130.255995 
L 151.26186 134.919196 
L 154.117803 139.259652 
L 156.928758 142.151601 
L 159.690124 142.476352 
L 162.404812 139.292274 
L 165.083155 132.007386 
L 167.741314 120.529884 
L 170.398337 105.374295 
L 173.072214 87.699286 
L 175.775561 69.249215 
L 178.5118 52.173465 
" style="fill:none;stroke:#000000;stroke-width:1.5;"/>
    <path clip-path="url(#p0b4ee88395)" d="M 98.294781 105.819155 
L 102.116433 122.396042 
L 105.867304 139.006326 
L 109.467804 153.354706 
L 112.872664 163.752725 
L 116.070378 169.253525 
L 119.077708 169.66089 
L 121.93157 165.446547 
L 124.679975 157.601762 
L 127.37318 147.442603 
L 130.056057 136.39108 
L 132.762633 125.765356 
L 135.513573 116.621118 
L 138.316752 109.679293 
L 141.170124 105.345596 
L 144.065306 103.784628 
L 146.990325 104.983407 
L 149.930908 108.752992 
L 152.870944 114.668763 
L 155.793309 122.001009 
L 158.681788 129.699838 
L 161.523878 136.469863 
L 164.313542 140.928043 
L 167.052936 141.80952 
L 169.752487 138.18015 
L 172.42919 129.623019 
L 175.103346 116.376488 
L 177.794223 99.404075 
L 180.515302 80.371142 
L 183.270036 61.49851 
" style="fill:none;stroke:#000000;stroke-width:1.5;"/>
    <path clip-path="url(#p0b4ee88395)" d="M 103.607373 115.558053 
L 107.401092 133.185276 
L 111.077866 149.57908 
L 114.569825 162.453859 
L 117.845907 170.26426 
L 120.908976 172.305357 
L 123.788769 168.69253 
L 126.532815 160.25265 
L 129.196664 148.344338 
L 131.834436 134.619457 
L 134.490766 120.749049 
L 137.195422 108.160761 
L 139.961717 97.855066 
L 142.788948 90.361491 
L 145.667634 85.84783 
L 148.585018 84.315061 
L 151.528292 85.74881 
L 154.484704 90.119771 
L 157.440087 97.234736 
L 160.378253 106.547331 
L 163.282622 117.055818 
L 166.13961 127.351662 
L 168.942255 135.803541 
L 171.692565 140.815562 
L 174.401775 141.094016 
L 177.088425 135.877037 
L 179.774659 125.104049 
L 182.481368 109.511974 
L 185.222917 90.640338 
L 188.002447 70.716486 
" style="fill:none;stroke:#000000;stroke-width:1.5;"/>
    <path clip-path="url(#p0b4ee88395)" d="M 108.867071 124.602799 
L 112.607502 142.641486 
L 116.195525 158.261439 
L 119.575915 169.232823 
L 122.731268 174.179856 
L 125.677306 172.654185 
L 128.454763 165.094825 
L 131.119616 152.699386 
L 133.732728 137.212367 
L 136.349776 120.633146 
L 139.012718 104.867944 
L 141.744496 91.390777 
L 144.548536 81.015916 
L 147.413452 73.886586 
L 150.321306 69.720186 
L 153.255654 68.211007 
L 156.205159 69.345915 
L 159.161488 73.402212 
L 162.114686 80.631433 
L 165.050669 90.86358 
L 167.952863 103.273017 
L 170.806764 116.398535 
L 173.604814 128.372852 
L 176.349486 137.256754 
L 179.05363 141.378161 
L 181.73816 139.613954 
L 184.427755 131.591075 
L 187.145356 117.803126 
L 189.906325 99.635442 
L 192.71326 79.275357 
" style="fill:none;stroke:#000000;stroke-width:1.5;"/>
    <path clip-path="url(#p0b4ee88395)" d="M 114.066276 132.565304 
L 117.738792 150.555578 
L 121.234594 165.077758 
L 124.510913 173.984223 
L 127.562639 176.077601 
L 130.416329 171.166678 
L 133.121389 160.015649 
L 135.739859 144.201421 
L 138.335572 125.870173 
L 140.963522 107.384133 
L 143.660919 90.882585 
L 146.442057 77.839736 
L 149.298924 68.759756 
L 152.208245 63.173383 
L 155.143213 60.052005 
L 158.084934 58.556218 
L 161.026566 58.677856 
L 163.967382 61.233181 
L 166.903238 67.215117 
L 169.822098 77.053878 
L 172.706746 90.220287 
L 175.541391 105.243608 
L 178.318131 120.020965 
L 181.04067 132.253855 
L 183.724477 139.875844 
L 186.393825 141.39353 
L 189.076685 136.118603 
L 191.798495 124.298739 
L 194.575717 107.153885 
L 197.41019 86.803258 
" style="fill:none;stroke:#000000;stroke-width:1.5;"/>
    <path clip-path="url(#p0b4ee88395)" d="M 119.206148 139.222452 
L 122.805171 156.893978 
L 126.213808 170.222655 
L 129.400738 177.151639 
L 132.371248 176.654308 
L 135.160337 168.781475 
L 137.823478 154.607978 
L 140.426132 136.082023 
L 143.032592 115.753185 
L 145.695008 96.357706 
L 148.444334 80.283282 
L 151.28558 69.007602 
L 154.199479 62.671908 
L 157.151275 59.996883 
L 160.105553 58.803235 
L 163.042426 57.30686 
L 165.963317 55.509267 
L 168.87829 55.182616 
L 171.788862 58.466054 
L 174.682899 66.584839 
L 177.540666 79.355966 
L 180.344437 95.293439 
L 183.086434 112.041975 
L 185.772718 126.931949 
L 188.422677 137.500515 
L 191.065067 141.891443 
L 193.731926 139.114532 
L 196.451565 129.184698 
L 199.241549 113.161659 
L 202.102662 93.085563 
" style="fill:none;stroke:#000000;stroke-width:1.5;"/>
    <path clip-path="url(#p0b4ee88395)" d="M 124.293476 144.474528 
L 127.820125 161.733905 
L 131.152161 173.975913 
L 134.26819 179.227386 
L 137.181673 176.608773 
L 139.933437 166.379255 
L 142.582204 149.886251 
L 145.194001 129.412115 
L 147.830919 107.880462 
L 150.540193 88.390617 
L 153.345561 73.60228 
L 156.243427 65.072194 
L 159.205648 62.693268 
L 162.188935 64.377233 
L 165.150446 66.292396 
L 168.07002 64.780771 
L 170.962308 59.8595 
L 173.850866 55.190359 
L 176.739 54.557723 
L 179.609683 59.978353 
L 182.438234 71.499868 
L 185.204811 87.544959 
L 187.902893 105.481828 
L 190.542513 122.280036 
L 193.148517 135.108919 
L 195.755294 141.785561 
L 198.399603 141.054521 
L 201.112804 132.729634 
L 203.913365 117.731522 
L 206.800545 98.025621 
" style="fill:none;stroke:#000000;stroke-width:1.5;"/>
    <path clip-path="url(#p0b4ee88395)" d="M 129.338013 148.298351 
L 132.797545 165.198988 
L 136.066128 176.623693 
L 139.130492 180.662823 
L 142.009939 176.545196 
L 144.74847 164.684552 
L 147.40521 146.63411 
L 150.043869 124.934143 
L 152.721712 102.805391 
L 155.479156 83.651377 
L 158.33213 70.397523 
L 161.269791 64.786396 
L 164.258946 66.77886 
L 167.253857 74.031681 
L 170.208449 80.965717 
L 173.100692 79.427092 
L 175.966387 69.457587 
L 178.84176 59.228229 
L 181.720953 54.25641 
L 184.576439 56.797091 
L 187.377788 66.815391 
L 190.104367 82.538313 
L 192.752934 101.064615 
L 195.339444 119.06133 
L 197.895696 133.405488 
L 200.462596 141.661967 
L 203.081928 142.374951 
L 205.787927 135.208836 
L 208.599445 120.98127 
L 211.513508 101.60022 
" style="fill:none;stroke:#000000;stroke-width:1.5;"/>
    <path clip-path="url(#p0b4ee88395)" d="M 134.350573 150.70439 
L 137.750003 167.404153 
L 140.96831 178.394072 
L 143.998497 181.798237 
L 146.863471 176.902937 
L 149.607944 164.204729 
L 152.28886 145.368716 
L 154.965077 123.0777 
L 157.686841 100.720275 
L 160.486305 81.879388 
L 163.371341 69.657373 
L 166.325037 65.982782 
L 169.311961 71.108994 
L 172.289484 83.407643 
L 175.219406 98.529077 
L 178.080478 96.959219 
L 180.942653 78.778992 
L 183.830696 63.508623 
L 186.716852 55.419813 
L 189.563925 56.043644 
L 192.338629 65.045203 
L 195.02244 80.46026 
L 197.617813 99.20867 
L 200.148348 117.779024 
L 202.653738 132.883211 
L 205.181654 141.946755 
L 207.778602 143.404904 
L 210.481002 136.841921 
L 213.30717 123.020752 
L 216.250906 103.818694 
" style="fill:none;stroke:#000000;stroke-width:1.5;"/>
    <path clip-path="url(#p0b4ee88395)" d="M 139.341977 151.70459 
L 142.688113 168.415782 
L 145.867366 179.411832 
L 148.877291 182.815565 
L 151.74246 177.912834 
L 154.506267 165.200527 
L 157.221487 146.344878 
L 159.94035 124.030722 
L 162.704793 101.649564 
L 165.538252 82.787811 
L 168.441096 70.551075 
L 171.391809 66.870064 
L 174.354441 71.998453 
L 177.290399 84.306068 
L 180.172077 99.438827 
L 183.025336 97.86467 
L 185.919747 79.664639 
L 188.832941 64.37696 
L 191.726936 56.277644 
L 194.560943 56.899427 
L 197.302575 65.906973 
L 199.938097 81.33386 
L 202.477394 100.096732 
L 204.952468 118.680847 
L 207.410833 133.795316 
L 209.906231 142.863744 
L 212.488804 144.320334 
L 215.195868 137.749103 
L 218.043848 123.913508 
L 221.022039 104.692165 
" style="fill:none;stroke:#000000;stroke-width:1.5;"/>
    <path clip-path="url(#p0b4ee88395)" d="M 144.322731 151.295175 
L 147.620794 168.230762 
L 150.768939 179.675054 
L 153.767821 183.71451 
L 156.642173 179.57655 
L 159.432655 167.675764 
L 162.186697 149.568547 
L 164.949152 127.800894 
L 167.753571 105.601755 
L 170.615475 86.384386 
L 173.529545 73.083416 
L 176.472438 67.447337 
L 179.411505 69.437211 
L 182.318288 76.702663 
L 185.187374 83.648132 
L 188.055795 82.09673 
L 190.958766 72.090427 
L 193.873214 61.823348 
L 196.753482 56.829017 
L 199.555979 59.369109 
L 202.250776 69.408215 
L 204.830225 85.167336 
L 207.312082 103.736221 
L 209.736249 121.772532 
L 212.156805 136.145474 
L 214.631884 144.414526 
L 217.213412 145.120958 
L 219.937746 137.928554 
L 222.817678 123.656595 
L 225.836502 104.217091 
" style="fill:none;stroke:#000000;stroke-width:1.5;"/>
    <path clip-path="url(#p0b4ee88395)" d="M 149.303225 149.456529 
L 152.556124 166.776153 
L 155.677216 179.054563 
L 158.669139 184.311778 
L 161.555767 181.665592 
L 164.374275 171.376192 
L 167.166412 154.795618 
L 169.969899 134.214682 
L 172.810877 112.569127 
L 175.698724 92.972687 
L 178.624907 78.098732 
L 181.56717 69.512853 
L 184.499021 67.108235 
L 187.402833 68.786469 
L 190.282375 70.697038 
L 193.161712 69.164291 
L 196.055097 64.205505 
L 198.941771 59.500151 
L 201.77952 58.851046 
L 204.527311 64.28453 
L 207.160238 75.847526 
L 209.677704 91.95383 
L 212.104928 109.958308 
L 214.488222 126.81667 
L 216.886082 139.686704 
L 219.358609 146.377534 
L 221.957098 145.629517 
L 224.714689 137.255877 
L 227.638546 122.180272 
L 230.704361 102.375163 
" style="fill:none;stroke:#000000;stroke-width:1.5;"/>
    <path clip-path="url(#p0b4ee88395)" d="M 154.294141 146.170279 
L 157.50245 163.929583 
L 160.596741 177.31635 
L 163.580866 184.263541 
L 166.477285 183.740146 
L 169.319506 175.797601 
L 172.143923 161.516036 
L 174.982063 142.853641 
L 177.854217 122.374358 
L 180.765625 102.831589 
L 183.706573 86.629609 
L 186.657156 75.257523 
L 189.596081 68.858792 
L 192.510714 66.145907 
L 195.402895 64.924722 
L 198.283074 63.398899 
L 201.152624 61.569963 
L 203.991656 61.222171 
L 206.765731 64.509077 
L 209.442376 72.66356 
L 212.005327 85.500029 
L 214.462184 101.521127 
L 216.844896 118.355459 
L 219.204234 133.316937 
L 221.600529 143.929057 
L 224.093092 148.326235 
L 226.729917 145.513539 
L 229.538497 135.505814 
L 232.518294 119.367666 
L 235.635882 99.149664 
" style="fill:none;stroke:#000000;stroke-width:1.5;"/>
    <path clip-path="url(#p0b4ee88395)" d="M 159.306766 141.451664 
L 162.469341 159.558871 
L 165.534047 174.166158 
L 168.505476 183.111693 
L 171.404487 185.191332 
L 174.261148 180.213441 
L 177.107218 168.947379 
L 179.969273 152.980444 
L 182.863373 134.473925 
L 185.792293 115.808284 
L 188.746252 99.140989 
L 191.707414 85.960085 
L 194.657079 76.775543 
L 197.582629 71.114988 
L 200.480065 67.941204 
L 203.349038 66.407504 
L 206.183045 66.505602 
L 208.963781 69.058713 
L 211.665802 75.067877 
L 214.268113 84.965929 
L 216.765359 98.217669 
L 219.173873 113.338716 
L 221.531287 128.208591 
L 223.890728 140.511328 
L 226.311761 148.166169 
L 228.850167 149.670049 
L 231.548004 144.330194 
L 234.424742 132.395392 
L 237.470198 115.092942 
L 240.64058 94.556408 
" style="fill:none;stroke:#000000;stroke-width:1.5;"/>
    <path clip-path="url(#p0b4ee88395)" d="M 164.35288 135.393081 
L 167.468052 153.577476 
L 170.498722 169.313899 
L 173.449968 180.353563 
L 176.341118 185.310692 
L 179.199254 183.73469 
L 182.052389 176.068832 
L 184.92338 163.520643 
L 187.825451 147.849394 
L 190.760087 131.072584 
L 193.717895 115.115201 
L 196.682377 101.467077 
L 199.635427 90.952219 
L 202.562208 83.716517 
L 205.452727 79.475097 
L 208.299054 77.919275 
L 211.090527 79.03569 
L 213.811773 83.104146 
L 216.446529 90.377958 
L 218.98563 100.684098 
L 221.434751 113.18714 
L 223.818275 126.410379 
L 226.177972 138.468414 
L 228.567189 147.404714 
L 231.042277 151.533258 
L 233.652977 149.721827 
L 236.432994 141.593935 
L 239.391623 127.646231 
L 242.507422 109.274615 
L 245.725496 88.685278 
" style="fill:none;stroke:#000000;stroke-width:1.5;"/>
    <path clip-path="url(#p0b4ee88395)" d="M 169.44401 128.212228 
L 172.511175 146.009926 
L 175.503532 162.553181 
L 178.426509 175.532016 
L 181.29811 183.386892 
L 184.143002 185.407863 
L 186.986334 181.712839 
L 189.848352 173.137412 
L 192.740554 161.053931 
L 195.663955 147.131509 
L 198.609814 133.059731 
L 201.562571 120.283246 
L 204.504026 109.815366 
L 207.417051 102.19308 
L 210.287269 97.587036 
L 213.102326 95.998595 
L 215.850303 97.413108 
L 218.519813 101.800353 
L 221.103202 108.963823 
L 223.601838 118.349453 
L 226.030835 128.942739 
L 228.4208 139.318567 
L 230.815599 147.827739 
L 233.266612 152.857924 
L 235.824728 153.102556 
L 238.531401 147.791958 
L 241.409863 136.863959 
L 244.457463 121.061354 
L 247.640405 101.938285 
L 250.892722 81.745948 
" style="fill:none;stroke:#000000;stroke-width:1.5;"/>
    <path clip-path="url(#p0b4ee88395)" d="M 174.589914 120.295551 
L 177.611283 137.058415 
L 180.56332 153.848081 
L 183.451674 168.339095 
L 186.293265 178.823639 
L 189.110918 184.345918 
L 191.92776 184.709541 
L 194.762392 180.39301 
L 197.625499 172.399708 
L 200.518318 162.061559 
L 203.433128 150.818244 
L 206.355491 140.005136 
L 209.267512 130.692482 
L 212.150972 123.611717 
L 214.989393 119.174778 
L 217.768835 117.548878 
L 220.478272 118.720764 
L 223.110774 122.498389 
L 225.666078 128.450556 
L 228.153858 135.83693 
L 230.596093 143.593233 
L 233.027066 150.40733 
L 235.490359 154.879187 
L 238.033169 155.728911 
L 240.698809 152.011163 
L 243.518451 143.303248 
L 246.503083 129.844702 
L 249.636853 112.608745 
L 252.873294 93.280192 
L 256.136435 74.108873 
" style="fill:none;stroke:#000000;stroke-width:1.5;"/>
    <path clip-path="url(#p0b4ee88395)" d="M 179.796389 112.225185 
L 182.778549 127.158515 
L 185.69258 143.415594 
L 188.544089 158.722107 
L 191.349065 171.267183 
L 194.128996 179.87757 
L 196.905738 184.062399 
L 199.697115 183.960833 
L 202.513836 180.223423 
L 205.358062 173.851613 
L 208.223674 166.017352 
L 211.098005 157.88741 
L 213.964494 150.479356 
L 216.805521 144.570703 
L 219.604783 140.665892 
L 222.349051 139.003632 
L 225.029607 139.573661 
L 227.643872 142.11879 
L 230.197357 146.122285 
L 232.705441 150.804449 
L 235.194031 155.158593 
L 237.698269 158.042951 
L 240.25894 158.323325 
L 242.91683 155.044987 
L 245.705694 147.607103 
L 248.644678 135.915047 
L 251.731222 120.488374 
L 254.935752 102.500282 
L 258.19987 83.719914 
L 261.439953 66.330311 
" style="fill:none;stroke:#000000;stroke-width:1.5;"/>
    <path clip-path="url(#p0b4ee88395)" d="M 185.062722 104.776166 
L 188.017604 117.008877 
L 190.901857 131.788295 
L 193.720523 146.976914 
L 196.488585 160.727584 
L 199.226518 171.695997 
L 201.955525 179.127997 
L 204.693416 182.845551 
L 207.451726 183.161828 
L 210.234296 180.7527 
L 213.037359 176.507498 
L 215.850906 171.379602 
L 218.660936 166.255839 
L 221.452062 161.859104 
L 224.210045 158.689336 
L 226.923983 156.996813 
L 229.588209 156.774936 
L 232.203963 157.762201 
L 234.780758 159.45317 
L 237.337084 161.128336 
L 239.899889 161.915139 
L 242.5024 160.885652 
L 245.180127 157.185488 
L 247.965311 150.179421 
L 250.880344 139.594627 
L 253.930997 125.640816 
L 257.100538 109.084475 
L 260.346194 91.25105 
L 263.599707 73.927801 
L 266.773605 59.148951 
" style="fill:none;stroke:#000000;stroke-width:1.5;"/>
    <path clip-path="url(#p0b4ee88395)" d="M 190.379383 98.871722 
L 193.324189 107.558366 
L 196.193459 119.838298 
L 198.990808 133.808905 
L 201.729783 147.674188 
L 204.429848 159.986335 
L 207.111904 169.775492 
L 209.794349 176.578303 
L 212.490247 180.390392 
L 215.205872 181.569903 
L 217.940599 180.715708 
L 220.687989 178.539776 
L 223.437708 175.749491 
L 226.177917 172.951472 
L 228.897743 170.582801 
L 231.589564 168.869591 
L 234.250947 167.808948 
L 236.886133 167.170659 
L 239.506884 166.518349 
L 242.132412 165.253365 
L 244.788079 162.684845 
L 247.502646 158.125685 
L 250.304072 151.008195 
L 253.21414 141.007698 
L 256.24247 128.158075 
L 259.380769 112.939777 
L 262.598531 96.317287 
L 265.841667 79.700921 
L 269.03567 64.811592 
L 272.094374 53.442915 
" style="fill:none;stroke:#000000;stroke-width:1.5;"/>
    <path clip-path="url(#p0b4ee88395)" d="M 195.726779 95.489796 
L 198.682512 99.936233 
L 201.557407 108.742459 
L 204.35247 120.338619 
L 207.078958 133.081691 
L 209.754864 145.509101 
L 212.400732 156.503706 
L 215.035807 165.365074 
L 217.675164 171.802475 
L 220.328104 175.872922 
L 222.997825 177.887333 
L 225.682206 178.30428 
L 228.375417 177.626518 
L 231.070026 176.311298 
L 233.759263 174.701265 
L 236.439143 172.978873 
L 239.110219 171.144592 
L 241.77875 169.018228 
L 244.457089 166.263141 
L 247.163056 162.433582 
L 249.91814 157.044494 
L 252.744434 149.660467 
L 255.660437 139.99677 
L 258.676051 128.02122 
L 261.787419 114.041616 
L 264.972546 98.759631 
L 268.188932 83.269342 
L 271.374652 68.97966 
L 274.454034 57.449012 
L 277.348296 50.141017 
" style="fill:none;stroke:#000000;stroke-width:1.5;"/>
    <path clip-path="url(#p0b4ee88395)" d="M 201.075933 95.524574 
L 204.064424 95.319311 
L 206.968877 99.873081 
L 209.786383 108.028864 
L 212.524682 118.399787 
L 215.199328 129.612257 
L 217.829895 140.491405 
L 220.436224 150.169066 
L 223.035447 158.117294 
L 225.640147 164.123409 
L 228.257723 168.226742 
L 230.89082 170.635956 
L 233.538573 171.642365 
L 236.19836 171.540724 
L 238.867739 170.565286 
L 241.546258 168.845761 
L 244.23689 166.385403 
L 246.946837 163.061961 
L 249.687516 158.651276 
L 252.473543 152.872392 
L 255.320651 145.451566 
L 258.242558 136.200203 
L 261.247004 125.09865 
L 264.331406 112.374248 
L 267.478851 98.558416 
L 270.65542 84.504692 
L 273.810036 71.349341 
L 276.877939 60.401259 
L 279.788401 52.961236 
L 282.476193 50.092102 
" style="fill:none;stroke:#000000;stroke-width:1.5;"/>
    <path clip-path="url(#p0b4ee88395)" d="M 206.391669 99.621619 
L 209.431425 94.745969 
L 212.38856 94.611604 
L 215.255143 98.51839 
L 218.034051 105.421618 
L 220.737038 114.141746 
L 223.381518 123.550092 
L 225.987036 132.700669 
L 228.57221 140.898888 
L 231.152607 147.713453 
L 233.739718 152.946004 
L 236.340949 156.575088 
L 238.960419 158.689542 
L 241.600265 159.423273 
L 244.262163 158.900146 
L 246.948737 157.194756 
L 249.664604 154.312397 
L 252.416813 150.189628 
L 255.214495 144.715252 
L 258.067613 137.769912 
L 260.984794 129.280622 
L 263.970374 119.28419 
L 267.020969 107.990635 
L 270.122109 95.834695 
L 273.245711 83.500876 
L 276.349352 71.906663 
L 279.37831 62.131267 
L 282.271033 55.285922 
L 284.96797 52.336757 
L 287.422603 53.909877 
" style="fill:none;stroke:#000000;stroke-width:1.5;"/>
    <path clip-path="url(#p0b4ee88395)" d="M 211.638302 108.019726 
L 214.739995 98.907022 
L 217.766968 94.10563 
L 220.705763 93.367845 
L 223.55333 96.041143 
L 226.316174 101.227345 
L 229.007971 107.947618 
L 231.646481 115.280383 
L 234.250537 122.453903 
L 236.837694 128.89009 
L 239.422772 134.206597 
L 242.017346 138.189452 
L 244.630005 140.749461 
L 247.267135 141.874136 
L 249.933935 141.584334 
L 252.635373 139.902134 
L 255.376822 136.833956 
L 258.164154 132.370753 
L 261.003156 126.505089 
L 263.898183 119.262937 
L 266.850138 110.745881 
L 269.853957 101.177027 
L 272.896015 90.941398 
L 275.952031 80.60943 
L 278.98623 70.931126 
L 281.952549 62.789963 
L 284.798514 57.111189 
L 287.471895 54.72941 
L 289.929515 56.234039 
L 292.146659 61.823887 
" style="fill:none;stroke:#000000;stroke-width:1.5;"/>
   </g>
   <g id="text_22">
    <!-- wireframe -->
    <defs>
     <path d="M 16.15625 0 
L 0.296875 51.859375 
L 9.375 51.859375 
L 17.625 21.921875 
L 20.703125 10.796875 
Q 20.90625 11.625 23.390625 21.484375 
L 31.640625 51.859375 
L 40.671875 51.859375 
L 48.4375 21.78125 
L 51.03125 11.859375 
L 54 21.875 
L 62.890625 51.859375 
L 71.4375 51.859375 
L 55.21875 0 
L 46.09375 0 
L 37.84375 31.0625 
L 35.84375 39.890625 
L 25.34375 0 
z
" id="ArialMT-119"/>
     <path d="M 6.640625 61.46875 
L 6.640625 71.578125 
L 15.4375 71.578125 
L 15.4375 61.46875 
z
M 6.640625 0 
L 6.640625 51.859375 
L 15.4375 51.859375 
L 15.4375 0 
z
" id="ArialMT-105"/>
     <path d="M 6.5 0 
L 6.5 51.859375 
L 14.40625 51.859375 
L 14.40625 44 
Q 17.4375 49.515625 20 51.265625 
Q 22.5625 53.03125 25.640625 53.03125 
Q 30.078125 53.03125 34.671875 50.203125 
L 31.640625 42.046875 
Q 28.421875 43.953125 25.203125 43.953125 
Q 22.3125 43.953125 20.015625 42.21875 
Q 17.71875 40.484375 16.75 37.40625 
Q 15.28125 32.71875 15.28125 27.15625 
L 15.28125 0 
z
" id="ArialMT-114"/>
     <path d="M 42.09375 16.703125 
L 51.171875 15.578125 
Q 49.03125 7.625 43.21875 3.21875 
Q 37.40625 -1.171875 28.375 -1.171875 
Q 17 -1.171875 10.328125 5.828125 
Q 3.65625 12.84375 3.65625 25.484375 
Q 3.65625 38.578125 10.390625 45.796875 
Q 17.140625 53.03125 27.875 53.03125 
Q 38.28125 53.03125 44.875 45.953125 
Q 51.46875 38.875 51.46875 26.03125 
Q 51.46875 25.25 51.421875 23.6875 
L 12.75 23.6875 
Q 13.234375 15.140625 17.578125 10.59375 
Q 21.921875 6.0625 28.421875 6.0625 
Q 33.25 6.0625 36.671875 8.59375 
Q 40.09375 11.140625 42.09375 16.703125 
z
M 13.234375 30.90625 
L 42.1875 30.90625 
Q 41.609375 37.453125 38.875 40.71875 
Q 34.671875 45.796875 27.984375 45.796875 
Q 21.921875 45.796875 17.796875 41.75 
Q 13.671875 37.703125 13.234375 30.90625 
z
" id="ArialMT-101"/>
     <path d="M 8.6875 0 
L 8.6875 45.015625 
L 0.921875 45.015625 
L 0.921875 51.859375 
L 8.6875 51.859375 
L 8.6875 57.375 
Q 8.6875 62.59375 9.625 65.140625 
Q 10.890625 68.5625 14.078125 70.671875 
Q 17.28125 72.796875 23.046875 72.796875 
Q 26.765625 72.796875 31.25 71.921875 
L 29.9375 64.265625 
Q 27.203125 64.75 24.75 64.75 
Q 20.75 64.75 19.09375 63.03125 
Q 17.4375 61.328125 17.4375 56.640625 
L 17.4375 51.859375 
L 27.546875 51.859375 
L 27.546875 45.015625 
L 17.4375 45.015625 
L 17.4375 0 
z
" id="ArialMT-102"/>
     <path d="M 40.4375 6.390625 
Q 35.546875 2.25 31.03125 0.53125 
Q 26.515625 -1.171875 21.34375 -1.171875 
Q 12.796875 -1.171875 8.203125 3 
Q 3.609375 7.171875 3.609375 13.671875 
Q 3.609375 17.484375 5.34375 20.625 
Q 7.078125 23.78125 9.890625 25.6875 
Q 12.703125 27.59375 16.21875 28.5625 
Q 18.796875 29.25 24.03125 29.890625 
Q 34.671875 31.15625 39.703125 32.90625 
Q 39.75 34.71875 39.75 35.203125 
Q 39.75 40.578125 37.25 42.78125 
Q 33.890625 45.75 27.25 45.75 
Q 21.046875 45.75 18.09375 43.578125 
Q 15.140625 41.40625 13.71875 35.890625 
L 5.125 37.0625 
Q 6.296875 42.578125 8.984375 45.96875 
Q 11.671875 49.359375 16.75 51.1875 
Q 21.828125 53.03125 28.515625 53.03125 
Q 35.15625 53.03125 39.296875 51.46875 
Q 43.453125 49.90625 45.40625 47.53125 
Q 47.359375 45.171875 48.140625 41.546875 
Q 48.578125 39.3125 48.578125 33.453125 
L 48.578125 21.734375 
Q 48.578125 9.46875 49.140625 6.21875 
Q 49.703125 2.984375 51.375 0 
L 42.1875 0 
Q 40.828125 2.734375 40.4375 6.390625 
z
M 39.703125 26.03125 
Q 34.90625 24.078125 25.34375 22.703125 
Q 19.921875 21.921875 17.671875 20.9375 
Q 15.4375 19.96875 14.203125 18.09375 
Q 12.984375 16.21875 12.984375 13.921875 
Q 12.984375 10.40625 15.640625 8.0625 
Q 18.3125 5.71875 23.4375 5.71875 
Q 28.515625 5.71875 32.46875 7.9375 
Q 36.421875 10.15625 38.28125 14.015625 
Q 39.703125 17 39.703125 22.796875 
z
" id="ArialMT-97"/>
     <path d="M 6.59375 0 
L 6.59375 51.859375 
L 14.453125 51.859375 
L 14.453125 44.578125 
Q 16.890625 48.390625 20.9375 50.703125 
Q 25 53.03125 30.171875 53.03125 
Q 35.9375 53.03125 39.625 50.640625 
Q 43.3125 48.25 44.828125 43.953125 
Q 50.984375 53.03125 60.84375 53.03125 
Q 68.5625 53.03125 72.703125 48.75 
Q 76.859375 44.484375 76.859375 35.59375 
L 76.859375 0 
L 68.109375 0 
L 68.109375 32.671875 
Q 68.109375 37.9375 67.25 40.25 
Q 66.40625 42.578125 64.15625 43.984375 
Q 61.921875 45.40625 58.890625 45.40625 
Q 53.421875 45.40625 49.796875 41.765625 
Q 46.1875 38.140625 46.1875 30.125 
L 46.1875 0 
L 37.40625 0 
L 37.40625 33.6875 
Q 37.40625 39.546875 35.25 42.46875 
Q 33.109375 45.40625 28.21875 45.40625 
Q 24.515625 45.40625 21.359375 43.453125 
Q 18.21875 41.5 16.796875 37.734375 
Q 15.375 33.984375 15.375 26.90625 
L 15.375 0 
z
" id="ArialMT-109"/>
    </defs>
    <g style="fill:#262626;" transform="translate(148.26375 18.5952)scale(0.12 -0.12)">
     <use xlink:href="#ArialMT-119"/>
     <use x="72.216797" xlink:href="#ArialMT-105"/>
     <use x="94.433594" xlink:href="#ArialMT-114"/>
     <use x="127.734375" xlink:href="#ArialMT-101"/>
     <use x="183.349609" xlink:href="#ArialMT-102"/>
     <use x="211.132812" xlink:href="#ArialMT-114"/>
     <use x="244.433594" xlink:href="#ArialMT-97"/>
     <use x="300.048828" xlink:href="#ArialMT-109"/>
     <use x="383.349609" xlink:href="#ArialMT-101"/>
    </g>
   </g>
  </g>
 </g>
 <defs>
  <clipPath id="p0b4ee88395">
   <rect height="217.44" width="334.8" x="7.2" y="7.2"/>
  </clipPath>
 </defs>
</svg>
