<?xml version="1.0" encoding="utf-8" standalone="no"?>
<!DOCTYPE svg PUBLIC "-//W3C//DTD SVG 1.1//EN"
  "http://www.w3.org/Graphics/SVG/1.1/DTD/svg11.dtd">
<!-- Created with matplotlib (https://matplotlib.org/) -->
<svg height="257.659844pt" version="1.1" viewBox="0 0 371.741719 257.659844" width="371.741719pt" xmlns="http://www.w3.org/2000/svg" xmlns:xlink="http://www.w3.org/1999/xlink">
 <defs>
  <style type="text/css">
*{stroke-linecap:butt;stroke-linejoin:round;}
  </style>
 </defs>
 <g id="figure_1">
  <g id="patch_1">
   <path d="M 0 257.659844 
L 371.741719 257.659844 
L 371.741719 0 
L 0 0 
z
" style="fill:#ffffff;"/>
  </g>
  <g id="axes_1">
   <g id="patch_2">
    <path d="M 29.741719 230.4 
L 364.541719 230.4 
L 364.541719 7.2 
L 29.741719 7.2 
z
" style="fill:#eaeaf2;"/>
   </g>
   <g id="matplotlib.axis_1">
    <g id="xtick_1">
     <g id="line2d_1">
      <path clip-path="url(#p2da29b386f)" d="M 106.532315 230.4 
L 106.532315 7.2 
" style="fill:none;stroke:#ffffff;stroke-linecap:round;"/>
     </g>
     <g id="text_1">
      <!-- −5 -->
      <defs>
       <path d="M 52.828125 31.203125 
L 5.5625 31.203125 
L 5.5625 39.40625 
L 52.828125 39.40625 
z
" id="ArialMT-8722"/>
       <path d="M 4.15625 18.75 
L 13.375 19.53125 
Q 14.40625 12.796875 18.140625 9.390625 
Q 21.875 6 27.15625 6 
Q 33.5 6 37.890625 10.78125 
Q 42.28125 15.578125 42.28125 23.484375 
Q 42.28125 31 38.0625 35.34375 
Q 33.84375 39.703125 27 39.703125 
Q 22.75 39.703125 19.328125 37.765625 
Q 15.921875 35.84375 13.96875 32.765625 
L 5.71875 33.84375 
L 12.640625 70.609375 
L 48.25 70.609375 
L 48.25 62.203125 
L 19.671875 62.203125 
L 15.828125 42.96875 
Q 22.265625 47.46875 29.34375 47.46875 
Q 38.71875 47.46875 45.15625 40.96875 
Q 51.609375 34.46875 51.609375 24.265625 
Q 51.609375 14.546875 45.953125 7.46875 
Q 39.0625 -1.21875 27.15625 -1.21875 
Q 17.390625 -1.21875 11.203125 4.25 
Q 5.03125 9.71875 4.15625 18.75 
z
" id="ArialMT-53"/>
      </defs>
      <g style="fill:#262626;" transform="translate(100.261455 248.273594)scale(0.11 -0.11)">
       <use xlink:href="#ArialMT-8722"/>
       <use x="58.398438" xlink:href="#ArialMT-53"/>
      </g>
     </g>
    </g>
    <g id="xtick_2">
     <g id="line2d_2">
      <path clip-path="url(#p2da29b386f)" d="M 203.437568 230.4 
L 203.437568 7.2 
" style="fill:none;stroke:#ffffff;stroke-linecap:round;"/>
     </g>
     <g id="text_2">
      <!-- 0 -->
      <defs>
       <path d="M 4.15625 35.296875 
Q 4.15625 48 6.765625 55.734375 
Q 9.375 63.484375 14.515625 67.671875 
Q 19.671875 71.875 27.484375 71.875 
Q 33.25 71.875 37.59375 69.546875 
Q 41.9375 67.234375 44.765625 62.859375 
Q 47.609375 58.5 49.21875 52.21875 
Q 50.828125 45.953125 50.828125 35.296875 
Q 50.828125 22.703125 48.234375 14.96875 
Q 45.65625 7.234375 40.5 3 
Q 35.359375 -1.21875 27.484375 -1.21875 
Q 17.140625 -1.21875 11.234375 6.203125 
Q 4.15625 15.140625 4.15625 35.296875 
z
M 13.1875 35.296875 
Q 13.1875 17.671875 17.3125 11.828125 
Q 21.4375 6 27.484375 6 
Q 33.546875 6 37.671875 11.859375 
Q 41.796875 17.71875 41.796875 35.296875 
Q 41.796875 52.984375 37.671875 58.78125 
Q 33.546875 64.59375 27.390625 64.59375 
Q 21.34375 64.59375 17.71875 59.46875 
Q 13.1875 52.9375 13.1875 35.296875 
z
" id="ArialMT-48"/>
      </defs>
      <g style="fill:#262626;" transform="translate(200.379052 248.273594)scale(0.11 -0.11)">
       <use xlink:href="#ArialMT-48"/>
      </g>
     </g>
    </g>
    <g id="xtick_3">
     <g id="line2d_3">
      <path clip-path="url(#p2da29b386f)" d="M 300.342821 230.4 
L 300.342821 7.2 
" style="fill:none;stroke:#ffffff;stroke-linecap:round;"/>
     </g>
     <g id="text_3">
      <!-- 5 -->
      <g style="fill:#262626;" transform="translate(297.284305 248.273594)scale(0.11 -0.11)">
       <use xlink:href="#ArialMT-53"/>
      </g>
     </g>
    </g>
   </g>
   <g id="matplotlib.axis_2">
    <g id="ytick_1">
     <g id="line2d_4">
      <path clip-path="url(#p2da29b386f)" d="M 29.741719 198.301981 
L 364.541719 198.301981 
" style="fill:none;stroke:#ffffff;stroke-linecap:round;"/>
     </g>
     <g id="text_4">
      <!-- −4 -->
      <defs>
       <path d="M 32.328125 0 
L 32.328125 17.140625 
L 1.265625 17.140625 
L 1.265625 25.203125 
L 33.9375 71.578125 
L 41.109375 71.578125 
L 41.109375 25.203125 
L 50.78125 25.203125 
L 50.78125 17.140625 
L 41.109375 17.140625 
L 41.109375 0 
z
M 32.328125 25.203125 
L 32.328125 57.46875 
L 9.90625 25.203125 
z
" id="ArialMT-52"/>
      </defs>
      <g style="fill:#262626;" transform="translate(7.2 201.145653)scale(0.11 -0.11)">
       <use xlink:href="#ArialMT-8722"/>
       <use x="58.398438" xlink:href="#ArialMT-52"/>
      </g>
     </g>
    </g>
    <g id="ytick_2">
     <g id="line2d_5">
      <path clip-path="url(#p2da29b386f)" d="M 29.741719 158.809967 
L 364.541719 158.809967 
" style="fill:none;stroke:#ffffff;stroke-linecap:round;"/>
     </g>
     <g id="text_5">
      <!-- −2 -->
      <defs>
       <path d="M 50.34375 8.453125 
L 50.34375 0 
L 3.03125 0 
Q 2.9375 3.171875 4.046875 6.109375 
Q 5.859375 10.9375 9.828125 15.625 
Q 13.8125 20.3125 21.34375 26.46875 
Q 33.015625 36.03125 37.109375 41.625 
Q 41.21875 47.21875 41.21875 52.203125 
Q 41.21875 57.421875 37.46875 61 
Q 33.734375 64.59375 27.734375 64.59375 
Q 21.390625 64.59375 17.578125 60.78125 
Q 13.765625 56.984375 13.71875 50.25 
L 4.6875 51.171875 
Q 5.609375 61.28125 11.65625 66.578125 
Q 17.71875 71.875 27.9375 71.875 
Q 38.234375 71.875 44.234375 66.15625 
Q 50.25 60.453125 50.25 52 
Q 50.25 47.703125 48.484375 43.546875 
Q 46.734375 39.40625 42.65625 34.8125 
Q 38.578125 30.21875 29.109375 22.21875 
Q 21.1875 15.578125 18.9375 13.203125 
Q 16.703125 10.84375 15.234375 8.453125 
z
" id="ArialMT-50"/>
      </defs>
      <g style="fill:#262626;" transform="translate(7.2 161.653639)scale(0.11 -0.11)">
       <use xlink:href="#ArialMT-8722"/>
       <use x="58.398438" xlink:href="#ArialMT-50"/>
      </g>
     </g>
    </g>
    <g id="ytick_3">
     <g id="line2d_6">
      <path clip-path="url(#p2da29b386f)" d="M 29.741719 119.317953 
L 364.541719 119.317953 
" style="fill:none;stroke:#ffffff;stroke-linecap:round;"/>
     </g>
     <g id="text_6">
      <!-- 0 -->
      <g style="fill:#262626;" transform="translate(13.624688 122.161625)scale(0.11 -0.11)">
       <use xlink:href="#ArialMT-48"/>
      </g>
     </g>
    </g>
    <g id="ytick_4">
     <g id="line2d_7">
      <path clip-path="url(#p2da29b386f)" d="M 29.741719 79.82594 
L 364.541719 79.82594 
" style="fill:none;stroke:#ffffff;stroke-linecap:round;"/>
     </g>
     <g id="text_7">
      <!-- 2 -->
      <g style="fill:#262626;" transform="translate(13.624688 82.669611)scale(0.11 -0.11)">
       <use xlink:href="#ArialMT-50"/>
      </g>
     </g>
    </g>
    <g id="ytick_5">
     <g id="line2d_8">
      <path clip-path="url(#p2da29b386f)" d="M 29.741719 40.333926 
L 364.541719 40.333926 
" style="fill:none;stroke:#ffffff;stroke-linecap:round;"/>
     </g>
     <g id="text_8">
      <!-- 4 -->
      <g style="fill:#262626;" transform="translate(13.624688 43.177598)scale(0.11 -0.11)">
       <use xlink:href="#ArialMT-52"/>
      </g>
     </g>
    </g>
   </g>
   <g id="LineCollection_1"/>
   <g id="LineCollection_2">
    <path clip-path="url(#p2da29b386f)" d="M 137.959901 176.402528 
L 141.341719 177.598644 
L 144.723537 178.30087 
L 148.105355 178.409016 
L 151.487173 177.864833 
L 156.152992 176.290909 
L 161.812591 174.036364 
L 165.014446 173.003004 
L 169.605065 171.781818 
L 175.159901 170.870252 
L 181.923537 169.819409 
L 188.687173 168.299634 
L 195.45081 166.101721 
L 198.832628 164.842649 
L 205.596264 162.480743 
L 212.6444 160.509091 
L 219.123537 159.098966 
L 222.505355 158.1307 
L 225.887173 156.878418 
L 229.268991 155.091995 
L 232.65081 152.819547 
L 237.75885 149.236364 
L 242.796264 146.072623 
L 246.178082 143.979005 
L 249.559901 141.701781 
L 252.941719 139.100262 
L 254.290057 137.963636 
L 264.022058 128.945455 
L 267.169662 126.690909 
L 274.422363 122.181818 
L 277.071136 119.927273 
L 278.899276 117.672727 
L 282.698949 110.909091 
L 284.559137 108.654545 
L 290.141719 103.385101 
L 291.431993 101.890909 
L 292.699027 99.636364 
L 293.283979 97.381818 
L 293.359727 95.127273 
L 293.117424 92.872727 
L 291.876506 86.109091 
L 291.342306 83.854545 
L 290.573104 81.6 
L 288.351018 77.090909 
L 286.661783 74.836364 
L 284.752894 72.581818 
L 282.27839 70.327273 
L 279.214133 68.072727 
L 276.614446 66.448443 
L 273.232628 64.774677 
L 269.56322 63.563636 
L 266.468991 62.84699 
L 263.087173 62.406877 
L 259.705355 62.181243 
L 256.323537 62.109313 
L 252.941719 62.207349 
L 249.559901 62.571401 
L 245.691156 63.563636 
L 242.796264 64.733259 
L 236.032628 68.495869 
L 232.65081 69.867676 
L 231.067321 70.327273 
L 229.268991 70.729142 
L 225.887173 71.214045 
L 212.359901 72.508675 
L 208.978082 73.323505 
L 205.255251 74.836364 
L 201.171334 77.090909 
L 195.45081 80.450876 
L 192.068991 82.134658 
L 187.853596 83.854545 
L 181.439845 86.109091 
L 178.541719 87.210799 
L 175.159901 88.881549 
L 171.778082 91.031758 
L 165.938084 95.127273 
L 165.014446 95.705329 
L 161.632628 97.634637 
L 151.487173 102.652252 
L 149.282455 104.145455 
L 147.037509 106.4 
L 143.775998 110.909091 
L 141.341719 113.639426 
L 137.959901 116.315239 
L 132.772738 119.927273 
L 130.180224 122.181818 
L 128.280403 124.436364 
L 125.699563 128.945455 
L 124.432628 131.559431 
L 123.232502 133.454545 
L 121.05081 136.432206 
L 116.310463 142.472727 
L 113.07412 146.981818 
L 111.845613 149.236364 
L 111.056085 151.490909 
L 110.675891 153.745455 
L 110.905355 156.460516 
L 111.393502 158.254545 
L 112.603809 160.509091 
L 114.569767 162.763636 
L 117.668991 165.339452 
L 121.05081 167.66514 
L 124.432628 169.741993 
L 128.09894 171.781818 
L 132.646384 174.036364 
L 134.578082 175.005879 
L 137.959901 176.402528 
L 137.959901 176.402528 
" style="fill:none;stroke:#272b32;stroke-width:1.5;"/>
   </g>
   <g id="LineCollection_3">
    <path clip-path="url(#p2da29b386f)" d="M 141.341719 163.502906 
L 144.723537 164.011401 
L 148.105355 164.19003 
L 151.487173 164.166693 
L 158.25081 163.736323 
L 168.396264 162.574447 
L 178.541719 161.36887 
L 185.305355 160.317177 
L 188.687173 159.654144 
L 195.45081 157.994778 
L 205.596264 155.315065 
L 215.741719 152.968424 
L 219.917712 151.490909 
L 222.505355 150.230135 
L 225.887173 148.074838 
L 230.415274 144.727273 
L 242.275605 135.709091 
L 249.559901 130.539861 
L 252.941719 127.796803 
L 254.202093 126.690909 
L 259.705355 121.28251 
L 261.111167 119.927273 
L 265.125684 115.418182 
L 268.28685 110.909091 
L 269.85081 108.510966 
L 271.526113 106.4 
L 273.628993 104.145455 
L 276.614446 101.404721 
L 278.43601 99.636364 
L 279.996264 97.284312 
L 280.646488 95.127273 
L 280.717019 92.872727 
L 280.468458 90.618182 
L 279.651273 86.109091 
L 279.055352 83.854545 
L 278.179769 81.6 
L 276.614446 78.986996 
L 274.876304 77.090909 
L 273.232628 75.712473 
L 271.906066 74.836364 
L 269.85081 73.712645 
L 266.468991 72.399156 
L 263.087173 71.601176 
L 259.705355 71.196936 
L 256.323537 71.18059 
L 252.941719 71.5749 
L 249.069948 72.581818 
L 246.178082 73.515811 
L 242.564533 74.836364 
L 239.414446 75.776804 
L 236.032628 76.603643 
L 232.65081 77.227689 
L 217.221801 79.345455 
L 215.741719 79.630437 
L 212.359901 80.540084 
L 208.978082 81.814906 
L 202.214446 84.874316 
L 198.832628 86.431808 
L 192.068991 89.097376 
L 185.305355 91.781073 
L 181.923537 93.458338 
L 178.541719 95.469395 
L 161.632628 106.531276 
L 158.25081 109.182652 
L 156.400468 110.909091 
L 152.399787 115.418182 
L 150.412419 117.672727 
L 148.105355 120.183125 
L 146.014865 122.181818 
L 144.008043 124.436364 
L 142.513891 126.690909 
L 140.731582 131.2 
L 139.47695 133.454545 
L 137.531697 135.709091 
L 130.412379 142.472727 
L 128.474835 144.727273 
L 126.919117 146.981818 
L 125.94086 149.236364 
L 125.778725 151.490909 
L 126.60269 153.745455 
L 128.414673 156 
L 131.196264 158.424098 
L 134.578082 160.778399 
L 137.959901 162.476276 
L 141.341719 163.502906 
L 141.341719 163.502906 
" style="fill:none;stroke:#2b3441;stroke-width:1.5;"/>
   </g>
   <g id="LineCollection_4">
    <path clip-path="url(#p2da29b386f)" d="M 148.105355 156.15993 
L 151.487173 156.812061 
L 154.868991 157.127721 
L 158.25081 157.203209 
L 161.632628 157.10064 
L 165.014446 156.847083 
L 168.396264 156.445731 
L 171.778082 155.894338 
L 185.305355 153.207577 
L 196.351227 151.490909 
L 202.214446 150.484399 
L 208.978082 149.113163 
L 212.359901 148.188059 
L 215.741719 146.885547 
L 219.552906 144.727273 
L 222.549157 142.472727 
L 227.649509 137.963636 
L 230.155738 135.709091 
L 232.937225 133.454545 
L 236.296697 131.2 
L 243.90285 126.690909 
L 246.930775 124.436364 
L 249.559901 121.91923 
L 251.346219 119.927273 
L 258.599453 110.909091 
L 261.819619 106.4 
L 267.622498 97.381818 
L 268.378363 95.127273 
L 268.482882 92.872727 
L 267.998491 90.618182 
L 267.085196 88.363636 
L 265.821886 86.109091 
L 264.094524 83.854545 
L 263.087173 82.895177 
L 261.307951 81.6 
L 259.705355 80.79134 
L 256.323537 79.840368 
L 252.941719 79.625351 
L 249.559901 79.915521 
L 232.65081 82.554539 
L 222.104091 83.854545 
L 219.123537 84.34123 
L 215.741719 85.060076 
L 212.121238 86.109091 
L 208.978082 87.181796 
L 192.068991 93.956268 
L 188.687173 95.527721 
L 185.296239 97.381818 
L 181.707669 99.636364 
L 171.696882 106.4 
L 165.42203 110.909091 
L 162.726977 113.163636 
L 160.435261 115.418182 
L 158.25081 118.04073 
L 156.834746 119.927273 
L 155.463773 122.181818 
L 154.391312 124.436364 
L 153.670681 126.690909 
L 152.958289 131.2 
L 152.227757 133.454545 
L 151.487173 134.582682 
L 150.601601 135.709091 
L 147.899492 137.963636 
L 144.585214 140.218182 
L 141.341719 142.914973 
L 139.802197 144.727273 
L 138.78685 146.981818 
L 138.757439 149.236364 
L 139.894034 151.490909 
L 141.341719 152.88619 
L 142.486702 153.745455 
L 144.723537 154.951384 
L 148.105355 156.15993 
L 148.105355 156.15993 
" style="fill:none;stroke:#303d51;stroke-width:1.5;"/>
   </g>
   <g id="LineCollection_5">
    <path clip-path="url(#p2da29b386f)" d="M 158.25081 149.773136 
L 161.632628 150.298641 
L 165.014446 150.402722 
L 168.396264 150.154524 
L 171.778082 149.641345 
L 173.822149 149.236364 
L 175.159901 148.992109 
L 178.541719 148.381721 
L 181.923537 147.874217 
L 185.305355 147.476305 
L 188.687173 147.150363 
L 190.503214 146.981818 
L 192.068991 146.85332 
L 195.45081 146.535367 
L 198.832628 146.138938 
L 202.214446 145.629095 
L 205.596264 144.94996 
L 206.431568 144.727273 
L 208.978082 144.029604 
L 212.359901 142.683697 
L 212.7652 142.472727 
L 215.741719 140.777649 
L 216.533781 140.218182 
L 219.123537 138.234023 
L 219.442192 137.963636 
L 222.031679 135.709091 
L 222.505355 135.295918 
L 224.619432 133.454545 
L 225.887173 132.371989 
L 227.351317 131.2 
L 229.268991 129.716937 
L 230.381671 128.945455 
L 232.65081 127.400071 
L 233.809614 126.690909 
L 236.032628 125.276135 
L 237.395187 124.436364 
L 239.414446 123.038823 
L 240.581785 122.181818 
L 242.796264 120.277564 
L 243.170127 119.927273 
L 245.34164 117.672727 
L 246.178082 116.754761 
L 247.343947 115.418182 
L 249.269473 113.163636 
L 249.559901 112.817082 
L 251.140619 110.909091 
L 252.861895 108.654545 
L 252.941719 108.535249 
L 254.391127 106.4 
L 255.650206 104.145455 
L 256.323537 102.53821 
L 256.61385 101.890909 
L 257.168812 99.636364 
L 257.170871 97.381818 
L 256.423797 95.127273 
L 256.323537 94.96287 
L 254.532302 92.872727 
L 252.941719 91.572711 
L 251.047455 90.618182 
L 249.559901 89.959991 
L 246.178082 89.147493 
L 242.796264 88.780657 
L 239.414446 88.643722 
L 236.032628 88.635624 
L 232.65081 88.704528 
L 229.268991 88.814298 
L 225.887173 88.951817 
L 222.505355 89.146907 
L 219.123537 89.468462 
L 215.741719 89.990589 
L 212.999011 90.618182 
L 212.359901 90.76124 
L 208.978082 91.767018 
L 205.709321 92.872727 
L 205.596264 92.909066 
L 202.214446 94.125239 
L 199.58499 95.127273 
L 198.832628 95.412659 
L 195.45081 96.833803 
L 194.27728 97.381818 
L 192.068991 98.498564 
L 190.037829 99.636364 
L 188.687173 100.459247 
L 186.447315 101.890909 
L 185.305355 102.654512 
L 183.090195 104.145455 
L 181.923537 104.941293 
L 179.785536 106.4 
L 178.541719 107.259007 
L 176.532547 108.654545 
L 175.159901 109.631957 
L 173.375271 110.909091 
L 171.778082 112.104777 
L 170.382391 113.163636 
L 168.396264 114.805024 
L 167.684283 115.418182 
L 165.419687 117.672727 
L 165.014446 118.170123 
L 163.654262 119.927273 
L 162.369816 122.181818 
L 161.632628 124.219629 
L 161.552912 124.436364 
L 161.160039 126.690909 
L 161.059987 128.945455 
L 161.009833 131.2 
L 160.72407 133.454545 
L 159.969787 135.709091 
L 158.61952 137.963636 
L 158.25081 138.453775 
L 156.628723 140.218182 
L 154.868991 142.084605 
L 154.431055 142.472727 
L 152.894961 144.727273 
L 153.064552 146.981818 
L 154.868991 148.45508 
L 156.387296 149.236364 
L 158.25081 149.773136 
" style="fill:none;stroke:#354561;stroke-width:1.5;"/>
   </g>
   <g id="LineCollection_6">
    <path clip-path="url(#p2da29b386f)" d="M 171.778082 142.789374 
L 175.159901 143.13411 
L 178.541719 143.157094 
L 181.923537 143.073505 
L 185.305355 142.955597 
L 188.687173 142.810545 
L 192.068991 142.615008 
L 193.774871 142.472727 
L 195.45081 142.340901 
L 198.832628 141.956467 
L 202.214446 141.395675 
L 205.596264 140.565668 
L 206.606056 140.218182 
L 208.978082 139.371908 
L 211.786239 137.963636 
L 212.359901 137.660115 
L 215.288048 135.709091 
L 215.741719 135.392791 
L 218.195999 133.454545 
L 219.123537 132.702605 
L 220.911447 131.2 
L 222.505355 129.835935 
L 223.585702 128.945455 
L 225.887173 127.003019 
L 226.295292 126.690909 
L 229.122272 124.436364 
L 229.268991 124.310066 
L 232.064677 122.181818 
L 232.65081 121.690765 
L 234.896607 119.927273 
L 236.032628 118.939931 
L 237.46924 117.672727 
L 239.414446 115.833869 
L 239.82955 115.418182 
L 241.991177 113.163636 
L 242.796264 112.281337 
L 243.979116 110.909091 
L 245.717177 108.654545 
L 246.178082 107.886161 
L 247.048389 106.4 
L 247.834643 104.145455 
L 247.853228 101.890909 
L 246.619566 99.636364 
L 246.178082 99.254472 
L 242.796264 97.515844 
L 242.331402 97.381818 
L 239.414446 96.686507 
L 236.032628 96.213434 
L 232.65081 95.932323 
L 229.268991 95.744854 
L 225.887173 95.583028 
L 222.505355 95.432045 
L 219.123537 95.358275 
L 215.741719 95.474211 
L 212.359901 95.845533 
L 208.978082 96.457739 
L 205.596264 97.272382 
L 205.248155 97.381818 
L 202.214446 98.319456 
L 198.832628 99.602775 
L 198.758743 99.636364 
L 195.45081 101.273268 
L 194.360947 101.890909 
L 192.068991 103.319354 
L 190.811403 104.145455 
L 188.687173 105.612444 
L 187.540529 106.4 
L 185.305355 107.948824 
L 184.279746 108.654545 
L 181.923537 110.289711 
L 181.043581 110.909091 
L 178.541719 112.733835 
L 177.962132 113.163636 
L 175.159901 115.403837 
L 175.142127 115.418182 
L 172.698757 117.672727 
L 171.778082 118.71527 
L 170.737107 119.927273 
L 169.32611 122.181818 
L 168.453826 124.436364 
L 168.396264 124.76746 
L 168.082127 126.690909 
L 168.025396 128.945455 
L 168.09402 131.2 
L 168.123533 133.454545 
L 168.040189 135.709091 
L 167.92555 137.963636 
L 168.155841 140.218182 
L 168.396264 140.646184 
L 170.682603 142.472727 
L 171.778082 142.789374 
" style="fill:none;stroke:#394f71;stroke-width:1.5;"/>
   </g>
   <g id="LineCollection_7">
    <path clip-path="url(#p2da29b386f)" d="M 185.305355 138.305082 
L 188.687173 138.601595 
L 192.068991 138.664654 
L 195.45081 138.520616 
L 198.832628 138.154303 
L 199.855072 137.963636 
L 202.214446 137.513826 
L 205.596264 136.529882 
L 207.569844 135.709091 
L 208.978082 135.084723 
L 211.798334 133.454545 
L 212.359901 133.1051 
L 214.974364 131.2 
L 215.741719 130.596609 
L 217.707218 128.945455 
L 219.123537 127.651051 
L 220.186935 126.690909 
L 222.464517 124.436364 
L 222.505355 124.389238 
L 224.62628 122.181818 
L 225.887173 120.746973 
L 226.711271 119.927273 
L 228.782528 117.672727 
L 229.268991 117.104447 
L 230.862117 115.418182 
L 232.65081 113.51559 
L 232.988464 113.163636 
L 234.874561 110.909091 
L 236.032628 109.189322 
L 236.370935 108.654545 
L 236.772953 106.4 
L 236.032628 105.097861 
L 234.902951 104.145455 
L 232.65081 103.408077 
L 229.268991 102.943209 
L 225.887173 102.73598 
L 222.505355 102.528786 
L 219.123537 102.206404 
L 216.405002 101.890909 
L 215.741719 101.82315 
L 212.359901 101.572549 
L 208.978082 101.616554 
L 206.91394 101.890909 
L 205.596264 102.072613 
L 202.214446 103.052147 
L 199.679771 104.145455 
L 198.832628 104.561002 
L 195.833277 106.4 
L 195.45081 106.654322 
L 192.636396 108.654545 
L 192.068991 109.051499 
L 189.410835 110.909091 
L 188.687173 111.393769 
L 186.11544 113.163636 
L 185.305355 113.73223 
L 183.063579 115.418182 
L 181.923537 116.385345 
L 180.49019 117.672727 
L 178.541719 119.855327 
L 178.478534 119.927273 
L 177.038211 122.181818 
L 176.138707 124.436364 
L 175.725142 126.690909 
L 175.71673 128.945455 
L 176.058396 131.2 
L 176.80751 133.454545 
L 178.342695 135.709091 
L 178.541719 135.875725 
L 181.923537 137.599287 
L 183.332315 137.963636 
L 185.305355 138.305082 
" style="fill:none;stroke:#3e5781;stroke-width:1.5;"/>
   </g>
   <g id="LineCollection_8">
    <path clip-path="url(#p2da29b386f)" d="M 192.068991 134.228743 
L 195.45081 134.44297 
L 198.832628 134.209652 
L 202.214446 133.560079 
L 202.542222 133.454545 
L 205.596264 132.364921 
L 207.951566 131.2 
L 208.978082 130.615751 
L 211.378347 128.945455 
L 212.359901 128.134983 
L 213.944875 126.690909 
L 215.741719 124.707199 
L 215.98367 124.436364 
L 217.467497 122.181818 
L 218.56717 119.927273 
L 219.123537 118.070311 
L 219.256156 117.672727 
L 219.442413 115.418182 
L 219.123537 114.009979 
L 218.853707 113.163636 
L 216.649009 110.909091 
L 215.741719 110.419619 
L 212.359901 109.098449 
L 209.879512 108.654545 
L 208.978082 108.529271 
L 207.259806 108.654545 
L 205.596264 108.792044 
L 202.214446 109.971976 
L 200.505955 110.909091 
L 198.832628 111.762752 
L 196.517483 113.163636 
L 195.45081 113.725442 
L 192.578638 115.418182 
L 192.068991 115.706776 
L 189.118618 117.672727 
L 188.687173 118.003506 
L 186.574646 119.927273 
L 185.305355 121.55438 
L 184.86356 122.181818 
L 183.931586 124.436364 
L 183.6545 126.690909 
L 184.055641 128.945455 
L 185.305355 131.153729 
L 185.339672 131.2 
L 188.687173 133.431494 
L 188.752137 133.454545 
L 192.068991 134.228743 
" style="fill:none;stroke:#436091;stroke-width:1.5;"/>
   </g>
   <g id="LineCollection_9">
    <path clip-path="url(#p2da29b386f)" d="M 195.45081 128.356108 
L 198.832628 128.925501 
L 202.214446 128.101662 
L 205.068349 126.690909 
L 205.596264 126.256808 
L 207.185212 124.436364 
L 207.837945 122.181818 
L 206.413107 119.927273 
L 205.596264 119.466705 
L 202.214446 119.15125 
L 198.832628 119.834321 
L 198.615338 119.927273 
L 195.45081 121.582924 
L 194.688023 122.181818 
L 193.172334 124.436364 
L 193.399334 126.690909 
L 195.45081 128.356108 
" style="fill:none;stroke:#4769a0;stroke-width:1.5;"/>
   </g>
   <g id="LineCollection_10"/>
   <g id="patch_3">
    <path d="M 29.741719 230.4 
L 29.741719 7.2 
" style="fill:none;stroke:#ffffff;stroke-linecap:square;stroke-linejoin:miter;stroke-width:1.25;"/>
   </g>
   <g id="patch_4">
    <path d="M 364.541719 230.4 
L 364.541719 7.2 
" style="fill:none;stroke:#ffffff;stroke-linecap:square;stroke-linejoin:miter;stroke-width:1.25;"/>
   </g>
   <g id="patch_5">
    <path d="M 29.741719 230.4 
L 364.541719 230.4 
" style="fill:none;stroke:#ffffff;stroke-linecap:square;stroke-linejoin:miter;stroke-width:1.25;"/>
   </g>
   <g id="patch_6">
    <path d="M 29.741719 7.2 
L 364.541719 7.2 
" style="fill:none;stroke:#ffffff;stroke-linecap:square;stroke-linejoin:miter;stroke-width:1.25;"/>
   </g>
  </g>
 </g>
 <defs>
  <clipPath id="p2da29b386f">
   <rect height="223.2" width="334.8" x="29.741719" y="7.2"/>
  </clipPath>
 </defs>
</svg>
