<?xml version="1.0" encoding="utf-8" standalone="no"?>
<!DOCTYPE svg PUBLIC "-//W3C//DTD SVG 1.1//EN"
  "http://www.w3.org/Graphics/SVG/1.1/DTD/svg11.dtd">
<!-- Created with matplotlib (https://matplotlib.org/) -->
<svg height="248.518125pt" version="1.1" viewBox="0 0 370.942187 248.518125" width="370.942187pt" xmlns="http://www.w3.org/2000/svg" xmlns:xlink="http://www.w3.org/1999/xlink">
 <defs>
  <style type="text/css">
*{stroke-linecap:butt;stroke-linejoin:round;}
  </style>
 </defs>
 <g id="figure_1">
  <g id="patch_1">
   <path d="M 0 248.518125 
L 370.942187 248.518125 
L 370.942187 0 
L 0 0 
z
" style="fill:none;"/>
  </g>
  <g id="axes_1">
   <g id="patch_2">
    <path d="M 28.942188 106.036364 
L 363.742188 106.036364 
L 363.742188 7.2 
L 28.942188 7.2 
z
" style="fill:#ffffff;"/>
   </g>
   <g id="matplotlib.axis_1">
    <g id="xtick_1">
     <g id="line2d_1">
      <defs>
       <path d="M 0 0 
L 0 3.5 
" id="md8d6c40b3f" style="stroke:#000000;stroke-width:0.8;"/>
      </defs>
      <g>
       <use style="stroke:#000000;stroke-width:0.8;" x="44.160369" xlink:href="#md8d6c40b3f" y="106.036364"/>
      </g>
     </g>
     <g id="text_1">
      <!-- 0 -->
      <defs>
       <path d="M 31.78125 66.40625 
Q 24.171875 66.40625 20.328125 58.90625 
Q 16.5 51.421875 16.5 36.375 
Q 16.5 21.390625 20.328125 13.890625 
Q 24.171875 6.390625 31.78125 6.390625 
Q 39.453125 6.390625 43.28125 13.890625 
Q 47.125 21.390625 47.125 36.375 
Q 47.125 51.421875 43.28125 58.90625 
Q 39.453125 66.40625 31.78125 66.40625 
z
M 31.78125 74.21875 
Q 44.046875 74.21875 50.515625 64.515625 
Q 56.984375 54.828125 56.984375 36.375 
Q 56.984375 17.96875 50.515625 8.265625 
Q 44.046875 -1.421875 31.78125 -1.421875 
Q 19.53125 -1.421875 13.0625 8.265625 
Q 6.59375 17.96875 6.59375 36.375 
Q 6.59375 54.828125 13.0625 64.515625 
Q 19.53125 74.21875 31.78125 74.21875 
z
" id="DejaVuSans-48"/>
      </defs>
      <g transform="translate(40.979119 120.634801)scale(0.1 -0.1)">
       <use xlink:href="#DejaVuSans-48"/>
      </g>
     </g>
    </g>
    <g id="xtick_2">
     <g id="line2d_2">
      <g>
       <use style="stroke:#000000;stroke-width:0.8;" x="105.033097" xlink:href="#md8d6c40b3f" y="106.036364"/>
      </g>
     </g>
     <g id="text_2">
      <!-- 2 -->
      <defs>
       <path d="M 19.1875 8.296875 
L 53.609375 8.296875 
L 53.609375 0 
L 7.328125 0 
L 7.328125 8.296875 
Q 12.9375 14.109375 22.625 23.890625 
Q 32.328125 33.6875 34.8125 36.53125 
Q 39.546875 41.84375 41.421875 45.53125 
Q 43.3125 49.21875 43.3125 52.78125 
Q 43.3125 58.59375 39.234375 62.25 
Q 35.15625 65.921875 28.609375 65.921875 
Q 23.96875 65.921875 18.8125 64.3125 
Q 13.671875 62.703125 7.8125 59.421875 
L 7.8125 69.390625 
Q 13.765625 71.78125 18.9375 73 
Q 24.125 74.21875 28.421875 74.21875 
Q 39.75 74.21875 46.484375 68.546875 
Q 53.21875 62.890625 53.21875 53.421875 
Q 53.21875 48.921875 51.53125 44.890625 
Q 49.859375 40.875 45.40625 35.40625 
Q 44.1875 33.984375 37.640625 27.21875 
Q 31.109375 20.453125 19.1875 8.296875 
z
" id="DejaVuSans-50"/>
      </defs>
      <g transform="translate(101.851847 120.634801)scale(0.1 -0.1)">
       <use xlink:href="#DejaVuSans-50"/>
      </g>
     </g>
    </g>
    <g id="xtick_3">
     <g id="line2d_3">
      <g>
       <use style="stroke:#000000;stroke-width:0.8;" x="165.905824" xlink:href="#md8d6c40b3f" y="106.036364"/>
      </g>
     </g>
     <g id="text_3">
      <!-- 4 -->
      <defs>
       <path d="M 37.796875 64.3125 
L 12.890625 25.390625 
L 37.796875 25.390625 
z
M 35.203125 72.90625 
L 47.609375 72.90625 
L 47.609375 25.390625 
L 58.015625 25.390625 
L 58.015625 17.1875 
L 47.609375 17.1875 
L 47.609375 0 
L 37.796875 0 
L 37.796875 17.1875 
L 4.890625 17.1875 
L 4.890625 26.703125 
z
" id="DejaVuSans-52"/>
      </defs>
      <g transform="translate(162.724574 120.634801)scale(0.1 -0.1)">
       <use xlink:href="#DejaVuSans-52"/>
      </g>
     </g>
    </g>
    <g id="xtick_4">
     <g id="line2d_4">
      <g>
       <use style="stroke:#000000;stroke-width:0.8;" x="226.778551" xlink:href="#md8d6c40b3f" y="106.036364"/>
      </g>
     </g>
     <g id="text_4">
      <!-- 6 -->
      <defs>
       <path d="M 33.015625 40.375 
Q 26.375 40.375 22.484375 35.828125 
Q 18.609375 31.296875 18.609375 23.390625 
Q 18.609375 15.53125 22.484375 10.953125 
Q 26.375 6.390625 33.015625 6.390625 
Q 39.65625 6.390625 43.53125 10.953125 
Q 47.40625 15.53125 47.40625 23.390625 
Q 47.40625 31.296875 43.53125 35.828125 
Q 39.65625 40.375 33.015625 40.375 
z
M 52.59375 71.296875 
L 52.59375 62.3125 
Q 48.875 64.0625 45.09375 64.984375 
Q 41.3125 65.921875 37.59375 65.921875 
Q 27.828125 65.921875 22.671875 59.328125 
Q 17.53125 52.734375 16.796875 39.40625 
Q 19.671875 43.65625 24.015625 45.921875 
Q 28.375 48.1875 33.59375 48.1875 
Q 44.578125 48.1875 50.953125 41.515625 
Q 57.328125 34.859375 57.328125 23.390625 
Q 57.328125 12.15625 50.6875 5.359375 
Q 44.046875 -1.421875 33.015625 -1.421875 
Q 20.359375 -1.421875 13.671875 8.265625 
Q 6.984375 17.96875 6.984375 36.375 
Q 6.984375 53.65625 15.1875 63.9375 
Q 23.390625 74.21875 37.203125 74.21875 
Q 40.921875 74.21875 44.703125 73.484375 
Q 48.484375 72.75 52.59375 71.296875 
z
" id="DejaVuSans-54"/>
      </defs>
      <g transform="translate(223.597301 120.634801)scale(0.1 -0.1)">
       <use xlink:href="#DejaVuSans-54"/>
      </g>
     </g>
    </g>
    <g id="xtick_5">
     <g id="line2d_5">
      <g>
       <use style="stroke:#000000;stroke-width:0.8;" x="287.651278" xlink:href="#md8d6c40b3f" y="106.036364"/>
      </g>
     </g>
     <g id="text_5">
      <!-- 8 -->
      <defs>
       <path d="M 31.78125 34.625 
Q 24.75 34.625 20.71875 30.859375 
Q 16.703125 27.09375 16.703125 20.515625 
Q 16.703125 13.921875 20.71875 10.15625 
Q 24.75 6.390625 31.78125 6.390625 
Q 38.8125 6.390625 42.859375 10.171875 
Q 46.921875 13.96875 46.921875 20.515625 
Q 46.921875 27.09375 42.890625 30.859375 
Q 38.875 34.625 31.78125 34.625 
z
M 21.921875 38.8125 
Q 15.578125 40.375 12.03125 44.71875 
Q 8.5 49.078125 8.5 55.328125 
Q 8.5 64.0625 14.71875 69.140625 
Q 20.953125 74.21875 31.78125 74.21875 
Q 42.671875 74.21875 48.875 69.140625 
Q 55.078125 64.0625 55.078125 55.328125 
Q 55.078125 49.078125 51.53125 44.71875 
Q 48 40.375 41.703125 38.8125 
Q 48.828125 37.15625 52.796875 32.3125 
Q 56.78125 27.484375 56.78125 20.515625 
Q 56.78125 9.90625 50.3125 4.234375 
Q 43.84375 -1.421875 31.78125 -1.421875 
Q 19.734375 -1.421875 13.25 4.234375 
Q 6.78125 9.90625 6.78125 20.515625 
Q 6.78125 27.484375 10.78125 32.3125 
Q 14.796875 37.15625 21.921875 38.8125 
z
M 18.3125 54.390625 
Q 18.3125 48.734375 21.84375 45.5625 
Q 25.390625 42.390625 31.78125 42.390625 
Q 38.140625 42.390625 41.71875 45.5625 
Q 45.3125 48.734375 45.3125 54.390625 
Q 45.3125 60.0625 41.71875 63.234375 
Q 38.140625 66.40625 31.78125 66.40625 
Q 25.390625 66.40625 21.84375 63.234375 
Q 18.3125 60.0625 18.3125 54.390625 
z
" id="DejaVuSans-56"/>
      </defs>
      <g transform="translate(284.470028 120.634801)scale(0.1 -0.1)">
       <use xlink:href="#DejaVuSans-56"/>
      </g>
     </g>
    </g>
    <g id="xtick_6">
     <g id="line2d_6">
      <g>
       <use style="stroke:#000000;stroke-width:0.8;" x="348.524006" xlink:href="#md8d6c40b3f" y="106.036364"/>
      </g>
     </g>
     <g id="text_6">
      <!-- 10 -->
      <defs>
       <path d="M 12.40625 8.296875 
L 28.515625 8.296875 
L 28.515625 63.921875 
L 10.984375 60.40625 
L 10.984375 69.390625 
L 28.421875 72.90625 
L 38.28125 72.90625 
L 38.28125 8.296875 
L 54.390625 8.296875 
L 54.390625 0 
L 12.40625 0 
z
" id="DejaVuSans-49"/>
      </defs>
      <g transform="translate(342.161506 120.634801)scale(0.1 -0.1)">
       <use xlink:href="#DejaVuSans-49"/>
       <use x="63.623047" xlink:href="#DejaVuSans-48"/>
      </g>
     </g>
    </g>
   </g>
   <g id="matplotlib.axis_2">
    <g id="ytick_1">
     <g id="line2d_7">
      <defs>
       <path d="M 0 0 
L -3.5 0 
" id="mda87b3f1c9" style="stroke:#000000;stroke-width:0.8;"/>
      </defs>
      <g>
       <use style="stroke:#000000;stroke-width:0.8;" x="28.942188" xlink:href="#mda87b3f1c9" y="101.571464"/>
      </g>
     </g>
     <g id="text_7">
      <!-- −1 -->
      <defs>
       <path d="M 10.59375 35.5 
L 73.1875 35.5 
L 73.1875 27.203125 
L 10.59375 27.203125 
z
" id="DejaVuSans-8722"/>
      </defs>
      <g transform="translate(7.2 105.370682)scale(0.1 -0.1)">
       <use xlink:href="#DejaVuSans-8722"/>
       <use x="83.789062" xlink:href="#DejaVuSans-49"/>
      </g>
     </g>
    </g>
    <g id="ytick_2">
     <g id="line2d_8">
      <g>
       <use style="stroke:#000000;stroke-width:0.8;" x="28.942188" xlink:href="#mda87b3f1c9" y="56.625099"/>
      </g>
     </g>
     <g id="text_8">
      <!-- 0 -->
      <g transform="translate(15.579688 60.424317)scale(0.1 -0.1)">
       <use xlink:href="#DejaVuSans-48"/>
      </g>
     </g>
    </g>
    <g id="ytick_3">
     <g id="line2d_9">
      <g>
       <use style="stroke:#000000;stroke-width:0.8;" x="28.942188" xlink:href="#mda87b3f1c9" y="11.678734"/>
      </g>
     </g>
     <g id="text_9">
      <!-- 1 -->
      <g transform="translate(15.579688 15.477953)scale(0.1 -0.1)">
       <use xlink:href="#DejaVuSans-49"/>
      </g>
     </g>
    </g>
   </g>
   <g id="line2d_10">
    <path clip-path="url(#pf0a78a6742)" d="M 44.160369 56.625099 
L 47.234749 52.092778 
L 50.30913 47.606662 
L 53.38351 43.212483 
L 56.45789 38.955037 
L 59.53227 34.877726 
L 62.60665 31.022116 
L 65.68103 27.427512 
L 68.755411 24.13056 
L 71.829791 21.164868 
L 74.904171 18.560671 
L 77.978551 16.344517 
L 81.052931 14.538998 
L 84.127311 13.16252 
L 87.201692 12.229116 
L 90.276072 11.748301 
L 93.350452 11.724976 
L 96.424832 12.15938 
L 99.499212 13.047083 
L 102.573592 14.379037 
L 105.647973 16.141663 
L 108.722353 18.316992 
L 111.796733 20.882848 
L 114.871113 23.813073 
L 117.945493 27.077797 
L 121.019873 30.643736 
L 124.094254 34.474539 
L 127.168634 38.531153 
L 130.243014 42.772224 
L 133.317394 47.154515 
L 136.391774 51.633354 
L 139.466154 56.16308 
L 142.540535 60.697516 
L 145.614915 65.190436 
L 148.689295 69.596038 
L 151.763675 73.869409 
L 154.838055 77.966986 
L 157.912435 81.846996 
L 160.986816 85.469884 
L 164.061196 88.798718 
L 167.135576 91.799562 
L 170.209956 94.441825 
L 173.284336 96.69857 
L 176.358716 98.546791 
L 179.433097 99.967648 
L 182.507477 100.946654 
L 185.581857 101.47383 
L 188.656237 101.543802 
L 191.730617 101.155855 
L 194.804997 100.313946 
L 197.879378 99.026657 
L 200.953758 97.30711 
L 204.028138 95.172837 
L 207.102518 92.645593 
L 210.176898 89.751143 
L 213.251278 86.518994 
L 216.325659 82.982096 
L 219.400039 79.176504 
L 222.474419 75.141016 
L 225.548799 70.916769 
L 228.623179 66.546828 
L 231.697559 62.075741 
L 234.77194 57.549088 
L 237.84632 53.013016 
L 240.9207 48.513766 
L 243.99508 44.097207 
L 247.06946 39.808361 
L 250.14384 35.690951 
L 253.218221 31.786952 
L 256.292601 28.136162 
L 259.366981 24.775799 
L 262.441361 21.740119 
L 265.515741 19.06007 
L 268.590121 16.762972 
L 271.664502 14.872244 
L 274.738882 13.407159 
L 277.813262 12.382654 
L 280.887642 11.809173 
L 283.962022 11.692562 
L 287.036402 12.03401 
L 290.110783 12.830035 
L 293.185163 14.072524 
L 296.259543 15.748809 
L 299.333923 17.841803 
L 302.408303 20.330167 
L 305.482683 23.188536 
L 308.557064 26.387769 
L 311.631444 29.895252 
L 314.705824 33.67523 
L 317.780204 37.689166 
L 320.854584 41.896143 
L 323.928964 46.253272 
L 327.003345 50.716135 
L 330.077725 55.239237 
L 333.152105 59.776466 
L 336.226485 64.28157 
L 339.300865 68.70862 
L 342.375245 73.012486 
L 345.449626 77.149294 
L 348.524006 81.07687 
" style="fill:none;stroke:#1f77b4;stroke-linecap:square;stroke-width:1.5;"/>
   </g>
   <g id="patch_3">
    <path d="M 28.942188 106.036364 
L 28.942188 7.2 
" style="fill:none;stroke:#000000;stroke-linecap:square;stroke-linejoin:miter;stroke-width:0.8;"/>
   </g>
   <g id="patch_4">
    <path d="M 363.742188 106.036364 
L 363.742188 7.2 
" style="fill:none;stroke:#000000;stroke-linecap:square;stroke-linejoin:miter;stroke-width:0.8;"/>
   </g>
   <g id="patch_5">
    <path d="M 28.942188 106.036364 
L 363.742188 106.036364 
" style="fill:none;stroke:#000000;stroke-linecap:square;stroke-linejoin:miter;stroke-width:0.8;"/>
   </g>
   <g id="patch_6">
    <path d="M 28.942188 7.2 
L 363.742188 7.2 
" style="fill:none;stroke:#000000;stroke-linecap:square;stroke-linejoin:miter;stroke-width:0.8;"/>
   </g>
  </g>
  <g id="axes_2">
   <g id="patch_7">
    <path d="M 28.942188 224.64 
L 363.742188 224.64 
L 363.742188 125.803636 
L 28.942188 125.803636 
z
" style="fill:#ffffff;"/>
   </g>
   <g id="matplotlib.axis_3">
    <g id="xtick_7">
     <g id="line2d_11">
      <g>
       <use style="stroke:#000000;stroke-width:0.8;" x="44.160369" xlink:href="#md8d6c40b3f" y="224.64"/>
      </g>
     </g>
     <g id="text_10">
      <!-- 0 -->
      <g transform="translate(40.979119 239.238437)scale(0.1 -0.1)">
       <use xlink:href="#DejaVuSans-48"/>
      </g>
     </g>
    </g>
    <g id="xtick_8">
     <g id="line2d_12">
      <g>
       <use style="stroke:#000000;stroke-width:0.8;" x="105.033097" xlink:href="#md8d6c40b3f" y="224.64"/>
      </g>
     </g>
     <g id="text_11">
      <!-- 2 -->
      <g transform="translate(101.851847 239.238437)scale(0.1 -0.1)">
       <use xlink:href="#DejaVuSans-50"/>
      </g>
     </g>
    </g>
    <g id="xtick_9">
     <g id="line2d_13">
      <g>
       <use style="stroke:#000000;stroke-width:0.8;" x="165.905824" xlink:href="#md8d6c40b3f" y="224.64"/>
      </g>
     </g>
     <g id="text_12">
      <!-- 4 -->
      <g transform="translate(162.724574 239.238437)scale(0.1 -0.1)">
       <use xlink:href="#DejaVuSans-52"/>
      </g>
     </g>
    </g>
    <g id="xtick_10">
     <g id="line2d_14">
      <g>
       <use style="stroke:#000000;stroke-width:0.8;" x="226.778551" xlink:href="#md8d6c40b3f" y="224.64"/>
      </g>
     </g>
     <g id="text_13">
      <!-- 6 -->
      <g transform="translate(223.597301 239.238437)scale(0.1 -0.1)">
       <use xlink:href="#DejaVuSans-54"/>
      </g>
     </g>
    </g>
    <g id="xtick_11">
     <g id="line2d_15">
      <g>
       <use style="stroke:#000000;stroke-width:0.8;" x="287.651278" xlink:href="#md8d6c40b3f" y="224.64"/>
      </g>
     </g>
     <g id="text_14">
      <!-- 8 -->
      <g transform="translate(284.470028 239.238437)scale(0.1 -0.1)">
       <use xlink:href="#DejaVuSans-56"/>
      </g>
     </g>
    </g>
    <g id="xtick_12">
     <g id="line2d_16">
      <g>
       <use style="stroke:#000000;stroke-width:0.8;" x="348.524006" xlink:href="#md8d6c40b3f" y="224.64"/>
      </g>
     </g>
     <g id="text_15">
      <!-- 10 -->
      <g transform="translate(342.161506 239.238437)scale(0.1 -0.1)">
       <use xlink:href="#DejaVuSans-49"/>
       <use x="63.623047" xlink:href="#DejaVuSans-48"/>
      </g>
     </g>
    </g>
   </g>
   <g id="matplotlib.axis_4">
    <g id="ytick_4">
     <g id="line2d_17">
      <g>
       <use style="stroke:#000000;stroke-width:0.8;" x="28.942188" xlink:href="#mda87b3f1c9" y="220.149812"/>
      </g>
     </g>
     <g id="text_16">
      <!-- −1 -->
      <g transform="translate(7.2 223.94903)scale(0.1 -0.1)">
       <use xlink:href="#DejaVuSans-8722"/>
       <use x="83.789062" xlink:href="#DejaVuSans-49"/>
      </g>
     </g>
    </g>
    <g id="ytick_5">
     <g id="line2d_18">
      <g>
       <use style="stroke:#000000;stroke-width:0.8;" x="28.942188" xlink:href="#mda87b3f1c9" y="175.223005"/>
      </g>
     </g>
     <g id="text_17">
      <!-- 0 -->
      <g transform="translate(15.579688 179.022224)scale(0.1 -0.1)">
       <use xlink:href="#DejaVuSans-48"/>
      </g>
     </g>
    </g>
    <g id="ytick_6">
     <g id="line2d_19">
      <g>
       <use style="stroke:#000000;stroke-width:0.8;" x="28.942188" xlink:href="#mda87b3f1c9" y="130.296198"/>
      </g>
     </g>
     <g id="text_18">
      <!-- 1 -->
      <g transform="translate(15.579688 134.095417)scale(0.1 -0.1)">
       <use xlink:href="#DejaVuSans-49"/>
      </g>
     </g>
    </g>
   </g>
   <g id="line2d_20">
    <path clip-path="url(#p8bf97ae419)" d="M 44.160369 130.296198 
L 47.234749 130.525199 
L 50.30913 131.209865 
L 53.38351 132.343217 
L 56.45789 133.913702 
L 59.53227 135.905308 
L 62.60665 138.297734 
L 65.68103 141.06659 
L 68.755411 144.183649 
L 71.829791 147.617134 
L 74.904171 151.332044 
L 77.978551 155.290507 
L 81.052931 159.45217 
L 84.127311 163.774606 
L 87.201692 168.213751 
L 90.276072 172.724351 
L 93.350452 177.260424 
L 96.424832 181.775726 
L 99.499212 186.224227 
L 102.573592 190.560578 
L 105.647973 194.740572 
L 108.722353 198.721596 
L 111.796733 202.463068 
L 114.871113 205.926844 
L 117.945493 209.077614 
L 121.019873 211.883257 
L 124.094254 214.315173 
L 127.168634 216.348568 
L 130.243014 217.962715 
L 133.317394 219.141157 
L 136.391774 219.871881 
L 139.466154 220.147438 
L 142.540535 219.965019 
L 145.614915 219.326483 
L 148.689295 218.23834 
L 151.763675 216.711683 
L 154.838055 214.762076 
L 157.912435 212.409392 
L 160.986816 209.677617 
L 164.061196 206.594598 
L 167.135576 203.191766 
L 170.209956 199.50381 
L 173.284336 195.568327 
L 176.358716 191.425436 
L 179.433097 187.117372 
L 182.507477 182.688051 
L 185.581857 178.18263 
L 188.656237 173.647037 
L 191.730617 169.12751 
L 194.804997 164.670123 
L 197.879378 160.320315 
L 200.953758 156.122431 
L 204.028138 152.119266 
L 207.102518 148.351628 
L 210.176898 144.857927 
L 213.251278 141.673779 
L 216.325659 138.831645 
L 219.400039 136.360497 
L 222.474419 134.285527 
L 225.548799 132.62789 
L 228.623179 131.404483 
L 231.697559 130.627778 
L 234.77194 130.305693 
L 237.84632 130.441511 
L 240.9207 131.033849 
L 243.99508 132.076668 
L 247.06946 133.559336 
L 250.14384 135.466738 
L 253.218221 137.779431 
L 256.292601 140.473837 
L 259.366981 143.52249 
L 262.441361 146.894308 
L 265.515741 150.554921 
L 268.590121 154.467008 
L 271.664502 158.59069 
L 274.738882 162.883928 
L 277.813262 167.302955 
L 280.887642 171.802722 
L 283.962022 176.337356 
L 287.036402 180.86063 
L 290.110783 185.326433 
L 293.185163 189.689237 
L 296.259543 193.904567 
L 299.333923 197.929451 
L 302.408303 201.722856 
L 305.482683 205.246113 
L 308.557064 208.463302 
L 311.631444 211.341628 
L 314.705824 213.851747 
L 317.780204 215.968071 
L 320.854584 217.669025 
L 323.928964 218.937268 
L 327.003345 219.759872 
L 330.077725 220.12845 
L 333.152105 220.039246 
L 336.226485 219.493169 
L 339.300865 218.495785 
L 342.375245 217.057263 
L 345.449626 215.192267 
L 348.524006 212.919809 
" style="fill:none;stroke:#1f77b4;stroke-linecap:square;stroke-width:1.5;"/>
   </g>
   <g id="patch_8">
    <path d="M 28.942188 224.64 
L 28.942188 125.803636 
" style="fill:none;stroke:#000000;stroke-linecap:square;stroke-linejoin:miter;stroke-width:0.8;"/>
   </g>
   <g id="patch_9">
    <path d="M 363.742188 224.64 
L 363.742188 125.803636 
" style="fill:none;stroke:#000000;stroke-linecap:square;stroke-linejoin:miter;stroke-width:0.8;"/>
   </g>
   <g id="patch_10">
    <path d="M 28.942188 224.64 
L 363.742188 224.64 
" style="fill:none;stroke:#000000;stroke-linecap:square;stroke-linejoin:miter;stroke-width:0.8;"/>
   </g>
   <g id="patch_11">
    <path d="M 28.942188 125.803636 
L 363.742188 125.803636 
" style="fill:none;stroke:#000000;stroke-linecap:square;stroke-linejoin:miter;stroke-width:0.8;"/>
   </g>
  </g>
 </g>
 <defs>
  <clipPath id="pf0a78a6742">
   <rect height="98.836364" width="334.8" x="28.942188" y="7.2"/>
  </clipPath>
  <clipPath id="p8bf97ae419">
   <rect height="98.836364" width="334.8" x="28.942188" y="125.803636"/>
  </clipPath>
 </defs>
</svg>
