<?xml version="1.0" encoding="utf-8" standalone="no"?>
<!DOCTYPE svg PUBLIC "-//W3C//DTD SVG 1.1//EN"
  "http://www.w3.org/Graphics/SVG/1.1/DTD/svg11.dtd">
<!-- Created with matplotlib (https://matplotlib.org/) -->
<svg height="421.514219pt" version="1.1" viewBox="0 0 418.496094 421.514219" width="418.496094pt" xmlns="http://www.w3.org/2000/svg" xmlns:xlink="http://www.w3.org/1999/xlink">
 <defs>
  <style type="text/css">
*{stroke-linecap:butt;stroke-linejoin:round;}
  </style>
 </defs>
 <g id="figure_1">
  <g id="patch_1">
   <path d="M 0 421.514219 
L 418.496094 421.514219 
L 418.496094 0 
L 0 0 
z
" style="fill:#ffffff;"/>
  </g>
  <g id="axes_1">
   <g id="patch_2">
    <path d="M 45.716094 378.28 
L 348.625237 378.28 
L 348.625237 70.813714 
L 45.716094 70.813714 
z
" style="fill:#ffffff;"/>
   </g>
   <g id="matplotlib.axis_1">
    <g id="xtick_1">
     <g id="text_1">
      <!-- −10 -->
      <defs>
       <path d="M 52.828125 31.203125 
L 5.5625 31.203125 
L 5.5625 39.40625 
L 52.828125 39.40625 
z
" id="ArialMT-8722"/>
       <path d="M 37.25 0 
L 28.46875 0 
L 28.46875 56 
Q 25.296875 52.984375 20.140625 49.953125 
Q 14.984375 46.921875 10.890625 45.40625 
L 10.890625 53.90625 
Q 18.265625 57.375 23.78125 62.296875 
Q 29.296875 67.234375 31.59375 71.875 
L 37.25 71.875 
z
" id="ArialMT-49"/>
       <path d="M 4.15625 35.296875 
Q 4.15625 48 6.765625 55.734375 
Q 9.375 63.484375 14.515625 67.671875 
Q 19.671875 71.875 27.484375 71.875 
Q 33.25 71.875 37.59375 69.546875 
Q 41.9375 67.234375 44.765625 62.859375 
Q 47.609375 58.5 49.21875 52.21875 
Q 50.828125 45.953125 50.828125 35.296875 
Q 50.828125 22.703125 48.234375 14.96875 
Q 45.65625 7.234375 40.5 3 
Q 35.359375 -1.21875 27.484375 -1.21875 
Q 17.140625 -1.21875 11.234375 6.203125 
Q 4.15625 15.140625 4.15625 35.296875 
z
M 13.1875 35.296875 
Q 13.1875 17.671875 17.3125 11.828125 
Q 21.4375 6 27.484375 6 
Q 33.546875 6 37.671875 11.859375 
Q 41.796875 17.71875 41.796875 35.296875 
Q 41.796875 52.984375 37.671875 58.78125 
Q 33.546875 64.59375 27.390625 64.59375 
Q 21.34375 64.59375 17.71875 59.46875 
Q 13.1875 52.9375 13.1875 35.296875 
z
" id="ArialMT-48"/>
      </defs>
      <g style="fill:#262626;" transform="translate(36.386719 396.153594)scale(0.11 -0.11)">
       <use xlink:href="#ArialMT-8722"/>
       <use x="58.398438" xlink:href="#ArialMT-49"/>
       <use x="114.013672" xlink:href="#ArialMT-48"/>
      </g>
     </g>
    </g>
    <g id="xtick_2">
     <g id="text_2">
      <!-- −5 -->
      <defs>
       <path d="M 4.15625 18.75 
L 13.375 19.53125 
Q 14.40625 12.796875 18.140625 9.390625 
Q 21.875 6 27.15625 6 
Q 33.5 6 37.890625 10.78125 
Q 42.28125 15.578125 42.28125 23.484375 
Q 42.28125 31 38.0625 35.34375 
Q 33.84375 39.703125 27 39.703125 
Q 22.75 39.703125 19.328125 37.765625 
Q 15.921875 35.84375 13.96875 32.765625 
L 5.71875 33.84375 
L 12.640625 70.609375 
L 48.25 70.609375 
L 48.25 62.203125 
L 19.671875 62.203125 
L 15.828125 42.96875 
Q 22.265625 47.46875 29.34375 47.46875 
Q 38.71875 47.46875 45.15625 40.96875 
Q 51.609375 34.46875 51.609375 24.265625 
Q 51.609375 14.546875 45.953125 7.46875 
Q 39.0625 -1.21875 27.15625 -1.21875 
Q 17.390625 -1.21875 11.203125 4.25 
Q 5.03125 9.71875 4.15625 18.75 
z
" id="ArialMT-53"/>
      </defs>
      <g style="fill:#262626;" transform="translate(115.17252 396.153594)scale(0.11 -0.11)">
       <use xlink:href="#ArialMT-8722"/>
       <use x="58.398438" xlink:href="#ArialMT-53"/>
      </g>
     </g>
    </g>
    <g id="xtick_3">
     <g id="text_3">
      <!-- 0 -->
      <g style="fill:#262626;" transform="translate(194.11215 396.153594)scale(0.11 -0.11)">
       <use xlink:href="#ArialMT-48"/>
      </g>
     </g>
    </g>
    <g id="xtick_4">
     <g id="text_4">
      <!-- 5 -->
      <g style="fill:#262626;" transform="translate(269.839435 396.153594)scale(0.11 -0.11)">
       <use xlink:href="#ArialMT-53"/>
      </g>
     </g>
    </g>
    <g id="xtick_5">
     <g id="text_5">
      <!-- 10 -->
      <g style="fill:#262626;" transform="translate(342.508205 396.153594)scale(0.11 -0.11)">
       <use xlink:href="#ArialMT-49"/>
       <use x="55.615234" xlink:href="#ArialMT-48"/>
      </g>
     </g>
    </g>
    <g id="text_6">
     <!-- x -->
     <defs>
      <path d="M 0.734375 0 
L 19.671875 26.953125 
L 2.15625 51.859375 
L 13.140625 51.859375 
L 21.09375 39.703125 
Q 23.34375 36.234375 24.703125 33.890625 
Q 26.859375 37.109375 28.65625 39.59375 
L 37.40625 51.859375 
L 47.90625 51.859375 
L 29.984375 27.4375 
L 49.265625 0 
L 38.484375 0 
L 27.828125 16.109375 
L 25 20.453125 
L 11.375 0 
z
" id="ArialMT-120"/>
     </defs>
     <g style="fill:#262626;" transform="translate(194.170665 411.929219)scale(0.12 -0.12)">
      <use xlink:href="#ArialMT-120"/>
     </g>
    </g>
   </g>
   <g id="matplotlib.axis_2">
    <g id="ytick_1">
     <g id="text_7">
      <!-- −6 -->
      <defs>
       <path d="M 49.75 54.046875 
L 41.015625 53.375 
Q 39.84375 58.546875 37.703125 60.890625 
Q 34.125 64.65625 28.90625 64.65625 
Q 24.703125 64.65625 21.53125 62.3125 
Q 17.390625 59.28125 14.984375 53.46875 
Q 12.59375 47.65625 12.5 36.921875 
Q 15.671875 41.75 20.265625 44.09375 
Q 24.859375 46.4375 29.890625 46.4375 
Q 38.671875 46.4375 44.84375 39.96875 
Q 51.03125 33.5 51.03125 23.25 
Q 51.03125 16.5 48.125 10.71875 
Q 45.21875 4.9375 40.140625 1.859375 
Q 35.0625 -1.21875 28.609375 -1.21875 
Q 17.625 -1.21875 10.6875 6.859375 
Q 3.765625 14.9375 3.765625 33.5 
Q 3.765625 54.25 11.421875 63.671875 
Q 18.109375 71.875 29.4375 71.875 
Q 37.890625 71.875 43.28125 67.140625 
Q 48.6875 62.40625 49.75 54.046875 
z
M 13.875 23.1875 
Q 13.875 18.65625 15.796875 14.5 
Q 17.71875 10.359375 21.1875 8.171875 
Q 24.65625 6 28.46875 6 
Q 34.03125 6 38.03125 10.484375 
Q 42.046875 14.984375 42.046875 22.703125 
Q 42.046875 30.125 38.078125 34.390625 
Q 34.125 38.671875 28.125 38.671875 
Q 22.171875 38.671875 18.015625 34.390625 
Q 13.875 30.125 13.875 23.1875 
z
" id="ArialMT-54"/>
      </defs>
      <g style="fill:#262626;" transform="translate(23.174375 381.123672)scale(0.11 -0.11)">
       <use xlink:href="#ArialMT-8722"/>
       <use x="58.398438" xlink:href="#ArialMT-54"/>
      </g>
     </g>
    </g>
    <g id="ytick_2">
     <g id="text_8">
      <!-- −4 -->
      <defs>
       <path d="M 32.328125 0 
L 32.328125 17.140625 
L 1.265625 17.140625 
L 1.265625 25.203125 
L 33.9375 71.578125 
L 41.109375 71.578125 
L 41.109375 25.203125 
L 50.78125 25.203125 
L 50.78125 17.140625 
L 41.109375 17.140625 
L 41.109375 0 
z
M 32.328125 25.203125 
L 32.328125 57.46875 
L 9.90625 25.203125 
z
" id="ArialMT-52"/>
      </defs>
      <g style="fill:#262626;" transform="translate(23.174375 329.879291)scale(0.11 -0.11)">
       <use xlink:href="#ArialMT-8722"/>
       <use x="58.398438" xlink:href="#ArialMT-52"/>
      </g>
     </g>
    </g>
    <g id="ytick_3">
     <g id="text_9">
      <!-- −2 -->
      <defs>
       <path d="M 50.34375 8.453125 
L 50.34375 0 
L 3.03125 0 
Q 2.9375 3.171875 4.046875 6.109375 
Q 5.859375 10.9375 9.828125 15.625 
Q 13.8125 20.3125 21.34375 26.46875 
Q 33.015625 36.03125 37.109375 41.625 
Q 41.21875 47.21875 41.21875 52.203125 
Q 41.21875 57.421875 37.46875 61 
Q 33.734375 64.59375 27.734375 64.59375 
Q 21.390625 64.59375 17.578125 60.78125 
Q 13.765625 56.984375 13.71875 50.25 
L 4.6875 51.171875 
Q 5.609375 61.28125 11.65625 66.578125 
Q 17.71875 71.875 27.9375 71.875 
Q 38.234375 71.875 44.234375 66.15625 
Q 50.25 60.453125 50.25 52 
Q 50.25 47.703125 48.484375 43.546875 
Q 46.734375 39.40625 42.65625 34.8125 
Q 38.578125 30.21875 29.109375 22.21875 
Q 21.1875 15.578125 18.9375 13.203125 
Q 16.703125 10.84375 15.234375 8.453125 
z
" id="ArialMT-50"/>
      </defs>
      <g style="fill:#262626;" transform="translate(23.174375 278.63491)scale(0.11 -0.11)">
       <use xlink:href="#ArialMT-8722"/>
       <use x="58.398438" xlink:href="#ArialMT-50"/>
      </g>
     </g>
    </g>
    <g id="ytick_4">
     <g id="text_10">
      <!-- 0 -->
      <g style="fill:#262626;" transform="translate(29.599062 227.390529)scale(0.11 -0.11)">
       <use xlink:href="#ArialMT-48"/>
      </g>
     </g>
    </g>
    <g id="ytick_5">
     <g id="text_11">
      <!-- 2 -->
      <g style="fill:#262626;" transform="translate(29.599062 176.146148)scale(0.11 -0.11)">
       <use xlink:href="#ArialMT-50"/>
      </g>
     </g>
    </g>
    <g id="ytick_6">
     <g id="text_12">
      <!-- 4 -->
      <g style="fill:#262626;" transform="translate(29.599062 124.901767)scale(0.11 -0.11)">
       <use xlink:href="#ArialMT-52"/>
      </g>
     </g>
    </g>
    <g id="ytick_7">
     <g id="text_13">
      <!-- 6 -->
      <g style="fill:#262626;" transform="translate(29.599062 73.657386)scale(0.11 -0.11)">
       <use xlink:href="#ArialMT-54"/>
      </g>
     </g>
    </g>
    <g id="text_14">
     <!-- y -->
     <defs>
      <path d="M 6.203125 -19.96875 
L 5.21875 -11.71875 
Q 8.109375 -12.5 10.25 -12.5 
Q 13.1875 -12.5 14.9375 -11.515625 
Q 16.703125 -10.546875 17.828125 -8.796875 
Q 18.65625 -7.46875 20.515625 -2.25 
Q 20.75 -1.515625 21.296875 -0.09375 
L 1.609375 51.859375 
L 11.078125 51.859375 
L 21.875 21.828125 
Q 23.96875 16.109375 25.640625 9.8125 
Q 27.15625 15.875 29.25 21.625 
L 40.328125 51.859375 
L 49.125 51.859375 
L 29.390625 -0.875 
Q 26.21875 -9.421875 24.46875 -12.640625 
Q 22.125 -17 19.09375 -19.015625 
Q 16.0625 -21.046875 11.859375 -21.046875 
Q 9.328125 -21.046875 6.203125 -19.96875 
z
" id="ArialMT-121"/>
     </defs>
     <g style="fill:#262626;" transform="translate(15.64875 227.546857)rotate(-90)scale(0.12 -0.12)">
      <use xlink:href="#ArialMT-121"/>
     </g>
    </g>
   </g>
   <g id="PathCollection_1">
    <path clip-path="url(#pff70ccb067)" d="M 64.077578 368.685638 
L 66.720324 368.685638 
L 69.363069 368.685638 
L 72.005814 368.685638 
L 74.64856 368.685638 
L 77.291305 368.685638 
L 79.934051 368.685638 
L 82.576796 368.685638 
L 85.219541 368.685638 
L 87.862287 368.685638 
L 90.505032 368.685638 
L 93.147778 368.685638 
L 95.790523 368.685638 
L 98.433268 368.685638 
L 101.076014 368.685638 
L 103.718759 368.685638 
L 106.361505 368.685638 
L 109.00425 368.685638 
L 111.646995 368.685638 
L 114.289741 368.685638 
L 116.932486 368.685638 
L 119.575232 368.685638 
L 122.217977 368.685638 
L 124.860722 368.685638 
L 127.503468 368.685638 
L 130.146213 368.685638 
L 132.788959 368.685638 
L 135.431704 368.685638 
L 138.074449 368.685638 
L 140.717195 368.685638 
L 143.35994 368.685638 
L 146.002686 368.685638 
L 148.645431 368.685638 
L 151.288176 368.685638 
L 153.930922 368.685638 
L 156.573667 368.685638 
L 159.216413 368.685638 
L 161.859158 368.685638 
L 164.501903 368.685638 
L 167.144649 368.685638 
L 169.787394 368.685638 
L 172.43014 368.685638 
L 175.072885 368.685638 
L 177.71563 368.685638 
L 180.358376 368.685638 
L 183.001121 368.685638 
L 185.643866 368.685638 
L 188.286612 368.685638 
L 190.929357 368.685638 
L 193.572103 368.685638 
L 196.214848 368.685638 
L 198.857593 368.685638 
L 201.500339 368.685638 
L 204.143084 368.685638 
L 206.78583 368.685638 
L 209.428575 368.685638 
L 212.07132 368.685638 
L 214.714066 368.685638 
L 217.356811 368.685638 
L 219.999557 368.685638 
L 222.642302 368.685638 
L 225.285047 368.685638 
L 227.927793 368.685638 
L 230.570538 368.685638 
L 233.213284 368.685638 
L 235.856029 368.685638 
L 238.498774 368.685638 
L 241.14152 368.685638 
L 243.784265 368.685638 
L 246.427011 368.685638 
L 249.069756 368.685638 
L 251.712501 368.685638 
L 254.355247 368.685638 
L 256.997992 368.685638 
L 259.640738 368.685638 
L 262.283483 368.685638 
L 264.926228 368.685638 
L 267.568974 368.685638 
L 270.211719 368.685638 
L 272.854465 368.685638 
L 275.49721 368.685638 
L 278.139955 368.685638 
L 280.782701 368.685638 
L 283.425446 368.685638 
L 286.068191 368.685638 
L 288.710937 368.685638 
L 291.353682 368.685638 
L 293.996428 368.685638 
L 296.639173 368.685638 
L 299.281918 368.685638 
L 301.924664 368.685638 
L 304.567409 368.685638 
L 307.210155 368.685638 
L 309.8529 368.685638 
L 312.495645 368.685638 
L 315.138391 368.685638 
L 317.781136 368.685638 
L 320.423882 368.685638 
L 323.066627 368.685638 
L 323.066627 365.760166 
L 323.066627 362.834694 
L 323.066627 359.909222 
L 323.066627 356.98375 
L 323.066627 354.058278 
L 323.066627 351.132805 
L 323.066627 348.207333 
L 323.066627 345.281861 
L 323.066627 342.356389 
L 323.066627 339.430917 
L 323.066627 336.505445 
L 323.066627 333.579973 
L 323.066627 330.6545 
L 323.066627 327.729028 
L 323.066627 324.803556 
L 323.066627 321.878084 
L 323.066627 318.952612 
L 323.066627 316.02714 
L 323.066627 313.101667 
L 323.066627 310.176195 
L 323.066627 307.250723 
L 323.066627 304.325251 
L 323.066627 301.399779 
L 323.066627 298.474307 
L 323.066627 295.548835 
L 323.066627 292.623362 
L 323.066627 289.69789 
L 323.066627 286.772418 
L 323.066627 283.846946 
L 323.066627 280.921474 
L 323.066627 277.996002 
L 323.066627 275.07053 
L 323.066627 272.145057 
L 323.066627 269.219585 
L 323.066627 266.294113 
L 323.066627 263.368641 
L 323.066627 260.443169 
L 323.066627 257.517697 
L 323.066627 254.592224 
L 323.066627 251.666752 
L 323.066627 248.74128 
L 323.066627 245.815808 
L 323.066627 242.890336 
L 323.066627 239.964864 
L 323.066627 237.039392 
L 323.066627 234.113919 
L 323.066627 231.188447 
L 323.066627 228.262975 
L 323.066627 225.337503 
L 323.066627 222.412031 
L 323.066627 219.486559 
L 323.066627 216.561087 
L 323.066627 213.635614 
L 323.066627 210.710142 
L 323.066627 207.78467 
L 323.066627 204.859198 
L 323.066627 201.933726 
L 323.066627 199.008254 
L 323.066627 196.082782 
L 323.066627 193.157309 
L 323.066627 190.231837 
L 323.066627 187.306365 
L 323.066627 184.380893 
L 323.066627 181.455421 
L 323.066627 178.529949 
L 323.066627 175.604476 
L 323.066627 172.679004 
L 323.066627 169.753532 
L 323.066627 166.82806 
L 323.066627 163.902588 
L 323.066627 160.977116 
L 323.066627 158.051644 
L 323.066627 155.126171 
L 323.066627 152.200699 
L 323.066627 149.275227 
L 323.066627 146.349755 
L 323.066627 143.424283 
L 323.066627 140.498811 
L 323.066627 137.573339 
L 323.066627 134.647866 
L 323.066627 131.722394 
L 323.066627 128.796922 
L 323.066627 125.87145 
L 323.066627 122.945978 
L 323.066627 120.020506 
L 323.066627 117.095033 
L 323.066627 114.169561 
L 323.066627 111.244089 
L 323.066627 108.318617 
L 323.066627 105.393145 
L 323.066627 102.467673 
L 323.066627 99.542201 
L 323.066627 96.616728 
L 323.066627 93.691256 
L 323.066627 90.765784 
L 323.066627 87.840312 
L 323.066627 84.91484 
L 323.066627 81.989368 
L 323.066627 79.063896 
L 320.423882 79.063896 
L 317.781136 79.063896 
L 315.138391 79.063896 
L 312.495645 79.063896 
L 309.8529 79.063896 
L 307.210155 79.063896 
L 304.567409 79.063896 
L 301.924664 79.063896 
L 299.281918 79.063896 
L 296.639173 79.063896 
L 293.996428 79.063896 
L 291.353682 79.063896 
L 288.710937 79.063896 
L 286.068191 79.063896 
L 283.425446 79.063896 
L 280.782701 79.063896 
L 278.139955 79.063896 
L 275.49721 79.063896 
L 272.854465 79.063896 
L 270.211719 79.063896 
L 267.568974 79.063896 
L 264.926228 79.063896 
L 262.283483 79.063896 
L 259.640738 79.063896 
L 256.997992 79.063896 
L 254.355247 79.063896 
L 251.712501 79.063896 
L 249.069756 79.063896 
L 246.427011 79.063896 
L 243.784265 79.063896 
L 241.14152 79.063896 
L 238.498774 79.063896 
L 235.856029 79.063896 
L 233.213284 79.063896 
L 230.570538 79.063896 
L 227.927793 79.063896 
L 225.285047 79.063896 
L 222.642302 79.063896 
L 219.999557 79.063896 
L 217.356811 79.063896 
L 214.714066 79.063896 
L 212.07132 79.063896 
L 209.428575 79.063896 
L 206.78583 79.063896 
L 204.143084 79.063896 
L 201.500339 79.063896 
L 198.857593 79.063896 
L 196.214848 79.063896 
L 193.572103 79.063896 
L 190.929357 79.063896 
L 188.286612 79.063896 
L 185.643866 79.063896 
L 183.001121 79.063896 
L 180.358376 79.063896 
L 177.71563 79.063896 
L 175.072885 79.063896 
L 172.43014 79.063896 
L 169.787394 79.063896 
L 167.144649 79.063896 
L 164.501903 79.063896 
L 161.859158 79.063896 
L 159.216413 79.063896 
L 156.573667 79.063896 
L 153.930922 79.063896 
L 151.288176 79.063896 
L 148.645431 79.063896 
L 146.002686 79.063896 
L 143.35994 79.063896 
L 140.717195 79.063896 
L 138.074449 79.063896 
L 135.431704 79.063896 
L 132.788959 79.063896 
L 130.146213 79.063896 
L 127.503468 79.063896 
L 124.860722 79.063896 
L 122.217977 79.063896 
L 119.575232 79.063896 
L 116.932486 79.063896 
L 114.289741 79.063896 
L 111.646995 79.063896 
L 109.00425 79.063896 
L 106.361505 79.063896 
L 103.718759 79.063896 
L 101.076014 79.063896 
L 98.433268 79.063896 
L 95.790523 79.063896 
L 93.147778 79.063896 
L 90.505032 79.063896 
L 87.862287 79.063896 
L 85.219541 79.063896 
L 82.576796 79.063896 
L 79.934051 79.063896 
L 77.291305 79.063896 
L 74.64856 79.063896 
L 72.005814 79.063896 
L 69.363069 79.063896 
L 66.720324 79.063896 
L 64.077578 79.063896 
L 61.434833 79.063896 
L 61.434833 81.989368 
L 61.434833 84.91484 
L 61.434833 87.840312 
L 61.434833 90.765784 
L 61.434833 93.691256 
L 61.434833 96.616728 
L 61.434833 99.542201 
L 61.434833 102.467673 
L 61.434833 105.393145 
L 61.434833 108.318617 
L 61.434833 111.244089 
L 61.434833 114.169561 
L 61.434833 117.095033 
L 61.434833 120.020506 
L 61.434833 122.945978 
L 61.434833 125.87145 
L 61.434833 128.796922 
L 61.434833 131.722394 
L 61.434833 134.647866 
L 61.434833 137.573339 
L 61.434833 140.498811 
L 61.434833 143.424283 
L 61.434833 146.349755 
L 61.434833 149.275227 
L 61.434833 152.200699 
L 61.434833 155.126171 
L 61.434833 158.051644 
L 61.434833 160.977116 
L 61.434833 163.902588 
L 61.434833 166.82806 
L 61.434833 169.753532 
L 61.434833 172.679004 
L 61.434833 175.604476 
L 61.434833 178.529949 
L 61.434833 181.455421 
L 61.434833 184.380893 
L 61.434833 187.306365 
L 61.434833 190.231837 
L 61.434833 193.157309 
L 61.434833 196.082782 
L 61.434833 199.008254 
L 61.434833 201.933726 
L 61.434833 204.859198 
L 61.434833 207.78467 
L 61.434833 210.710142 
L 61.434833 213.635614 
L 61.434833 216.561087 
L 61.434833 219.486559 
L 61.434833 222.412031 
L 61.434833 225.337503 
L 61.434833 228.262975 
L 61.434833 231.188447 
L 61.434833 234.113919 
L 61.434833 237.039392 
L 61.434833 239.964864 
L 61.434833 242.890336 
L 61.434833 245.815808 
L 61.434833 248.74128 
L 61.434833 251.666752 
L 61.434833 254.592224 
L 61.434833 257.517697 
L 61.434833 260.443169 
L 61.434833 263.368641 
L 61.434833 266.294113 
L 61.434833 269.219585 
L 61.434833 272.145057 
L 61.434833 275.07053 
L 61.434833 277.996002 
L 61.434833 280.921474 
L 61.434833 283.846946 
L 61.434833 286.772418 
L 61.434833 289.69789 
L 61.434833 292.623362 
L 61.434833 295.548835 
L 61.434833 298.474307 
L 61.434833 301.399779 
L 61.434833 304.325251 
L 61.434833 307.250723 
L 61.434833 310.176195 
L 61.434833 313.101667 
L 61.434833 316.02714 
L 61.434833 318.952612 
L 61.434833 321.878084 
L 61.434833 324.803556 
L 61.434833 327.729028 
L 61.434833 330.6545 
L 61.434833 333.579973 
L 61.434833 336.505445 
L 61.434833 339.430917 
L 61.434833 342.356389 
L 61.434833 345.281861 
L 61.434833 348.207333 
L 61.434833 351.132805 
L 61.434833 354.058278 
L 61.434833 356.98375 
L 61.434833 359.909222 
L 61.434833 362.834694 
L 61.434833 365.760166 
L 61.434833 368.685638 
z
M 145.827072 298.474307 
L 143.35994 296.806866 
L 141.850401 295.548835 
L 140.717195 294.707451 
L 138.296769 292.623362 
L 138.074449 292.428477 
L 135.431704 289.976509 
L 135.117336 289.69789 
L 132.788959 287.281608 
L 132.261267 286.772418 
L 130.146213 284.263823 
L 129.778449 283.846946 
L 127.724302 280.921474 
L 127.503468 280.524035 
L 126.187991 277.996002 
L 125.242189 275.07053 
L 124.860722 272.742618 
L 124.767237 272.145057 
L 124.681406 269.219585 
L 124.860722 267.593913 
L 124.978512 266.294113 
L 125.595493 263.368641 
L 126.555519 260.443169 
L 127.503468 258.232056 
L 127.789221 257.517697 
L 129.084582 254.592224 
L 130.146213 252.362257 
L 130.476387 251.666752 
L 131.84398 248.74128 
L 132.788959 246.754114 
L 133.236593 245.815808 
L 134.493857 242.890336 
L 135.431704 240.431258 
L 135.591487 239.964864 
L 136.421759 237.039392 
L 137.307245 234.113919 
L 138.074449 232.217077 
L 138.438575 231.188447 
L 139.923203 228.262975 
L 140.717195 227.123974 
L 141.949141 225.337503 
L 143.35994 223.67626 
L 144.443772 222.412031 
L 146.002686 220.650569 
L 146.965324 219.486559 
L 148.645431 217.178466 
L 149.036863 216.561087 
L 150.547716 213.635614 
L 151.288176 211.95952 
L 151.807949 210.710142 
L 153.096446 207.78467 
L 153.930922 206.319636 
L 154.850774 204.859198 
L 156.573667 202.921635 
L 157.55837 201.933726 
L 159.216413 200.591056 
L 161.229047 199.008254 
L 161.859158 198.54551 
L 164.501903 196.410836 
L 164.865678 196.082782 
L 167.144649 193.907388 
L 167.866432 193.157309 
L 169.787394 190.981085 
L 170.43428 190.231837 
L 172.43014 187.843017 
L 172.916232 187.306365 
L 175.072885 185.052931 
L 175.850212 184.380893 
L 177.71563 182.884984 
L 179.980391 181.455421 
L 180.358376 181.218644 
L 183.001121 179.643889 
L 184.992461 178.529949 
L 185.643866 178.117352 
L 188.286612 176.298242 
L 189.214414 175.604476 
L 190.929357 174.113386 
L 192.487324 172.679004 
L 193.572103 171.579001 
L 195.399701 169.753532 
L 196.214848 168.92285 
L 198.591106 166.82806 
L 198.857593 166.600536 
L 201.500339 164.864992 
L 203.906468 163.902588 
L 204.143084 163.807678 
L 206.78583 163.167402 
L 209.428575 162.806039 
L 212.07132 162.516327 
L 214.714066 162.127781 
L 217.356811 161.498577 
L 218.762128 160.977116 
L 219.999557 160.380748 
L 222.642302 158.600708 
L 223.320273 158.051644 
L 225.285047 156.16164 
L 226.418179 155.126171 
L 227.927793 153.718388 
L 230.190026 152.200699 
L 230.570538 151.959188 
L 233.213284 150.913186 
L 235.856029 150.440797 
L 238.498774 150.313586 
L 241.14152 150.406922 
L 243.784265 150.699701 
L 246.427011 151.270787 
L 248.845017 152.200699 
L 249.069756 152.285376 
L 251.712501 153.772132 
L 253.365285 155.126171 
L 254.355247 155.943992 
L 256.38679 158.051644 
L 256.997992 158.72844 
L 258.781376 160.977116 
L 259.640738 162.245805 
L 260.715093 163.902588 
L 262.206809 166.82806 
L 262.283483 167.009487 
L 263.526873 169.753532 
L 264.495738 172.679004 
L 264.926228 174.440532 
L 265.263337 175.604476 
L 265.864436 178.529949 
L 266.28189 181.455421 
L 266.621627 184.380893 
L 266.94883 187.306365 
L 267.251614 190.231837 
L 267.440963 193.157309 
L 267.38177 196.082782 
L 266.924655 199.008254 
L 265.934522 201.933726 
L 264.926228 203.872572 
L 264.365202 204.859198 
L 262.406424 207.78467 
L 262.283483 207.978572 
L 260.563681 210.710142 
L 259.640738 212.509671 
L 259.110024 213.635614 
L 258.06282 216.561087 
L 257.117638 219.486559 
L 256.997992 219.831875 
L 256.140743 222.412031 
L 254.71213 225.337503 
L 254.355247 225.849382 
L 252.642228 228.262975 
L 251.712501 229.22136 
L 249.86387 231.188447 
L 249.069756 231.921476 
L 246.974555 234.113919 
L 246.427011 234.686788 
L 244.514837 237.039392 
L 243.784265 238.004169 
L 242.456702 239.964864 
L 241.14152 242.011589 
L 240.592433 242.890336 
L 238.789156 245.815808 
L 238.498774 246.278904 
L 236.909697 248.74128 
L 235.856029 250.216152 
L 234.792591 251.666752 
L 233.213284 253.591853 
L 232.380441 254.592224 
L 230.570538 256.546753 
L 229.667147 257.517697 
L 227.927793 259.263408 
L 226.779424 260.443169 
L 225.285047 261.96748 
L 223.991271 263.368641 
L 222.642302 264.880316 
L 221.444656 266.294113 
L 219.999557 268.018138 
L 218.958837 269.219585 
L 217.356811 270.966841 
L 216.06559 272.145057 
L 214.714066 273.284882 
L 212.07132 274.909829 
L 211.724795 275.07053 
L 209.428575 276.16624 
L 206.78583 277.156202 
L 204.365409 277.996002 
L 204.143084 278.086492 
L 201.500339 279.274039 
L 198.857593 280.554394 
L 198.154147 280.921474 
L 196.214848 282.092612 
L 193.572103 283.619176 
L 193.156366 283.846946 
L 190.929357 285.252934 
L 188.286612 286.684107 
L 188.094707 286.772418 
L 185.643866 288.10492 
L 183.001121 289.202821 
L 181.374145 289.69789 
L 180.358376 290.076963 
L 177.71563 290.81302 
L 175.072885 291.440525 
L 172.43014 292.108875 
L 170.73202 292.623362 
L 169.787394 292.984761 
L 167.144649 294.207959 
L 164.642537 295.548835 
L 164.501903 295.638051 
L 161.859158 297.406468 
L 160.219804 298.474307 
L 159.216413 299.139845 
L 156.573667 300.516612 
L 153.930922 301.222737 
L 151.288176 301.082409 
L 148.645431 300.171209 
L 146.002686 298.619142 
z
" style="fill:#ebf0f7;"/>
   </g>
   <g id="PathCollection_2">
    <path clip-path="url(#pff70ccb067)" d="M 146.002686 298.619142 
L 148.645431 300.171209 
L 151.288176 301.082409 
L 153.930922 301.222737 
L 156.573667 300.516612 
L 159.216413 299.139845 
L 160.219804 298.474307 
L 161.859158 297.406468 
L 164.501903 295.638051 
L 164.642537 295.548835 
L 167.144649 294.207959 
L 169.787394 292.984761 
L 170.73202 292.623362 
L 172.43014 292.108875 
L 175.072885 291.440525 
L 177.71563 290.81302 
L 180.358376 290.076963 
L 181.374145 289.69789 
L 183.001121 289.202821 
L 185.643866 288.10492 
L 188.094707 286.772418 
L 188.286612 286.684107 
L 190.929357 285.252934 
L 193.156366 283.846946 
L 193.572103 283.619176 
L 196.214848 282.092612 
L 198.154147 280.921474 
L 198.857593 280.554394 
L 201.500339 279.274039 
L 204.143084 278.086492 
L 204.365409 277.996002 
L 206.78583 277.156202 
L 209.428575 276.16624 
L 211.724795 275.07053 
L 212.07132 274.909829 
L 214.714066 273.284882 
L 216.06559 272.145057 
L 217.356811 270.966841 
L 218.958837 269.219585 
L 219.999557 268.018138 
L 221.444656 266.294113 
L 222.642302 264.880316 
L 223.991271 263.368641 
L 225.285047 261.96748 
L 226.779424 260.443169 
L 227.927793 259.263408 
L 229.667147 257.517697 
L 230.570538 256.546753 
L 232.380441 254.592224 
L 233.213284 253.591853 
L 234.792591 251.666752 
L 235.856029 250.216152 
L 236.909697 248.74128 
L 238.498774 246.278904 
L 238.789156 245.815808 
L 240.592433 242.890336 
L 241.14152 242.011589 
L 242.456702 239.964864 
L 243.784265 238.004169 
L 244.514837 237.039392 
L 246.427011 234.686788 
L 246.974555 234.113919 
L 249.069756 231.921476 
L 249.86387 231.188447 
L 251.712501 229.22136 
L 252.642228 228.262975 
L 254.355247 225.849382 
L 254.71213 225.337503 
L 256.140743 222.412031 
L 256.997992 219.831875 
L 257.117638 219.486559 
L 258.06282 216.561087 
L 259.110024 213.635614 
L 259.640738 212.509671 
L 260.563681 210.710142 
L 262.283483 207.978572 
L 262.406424 207.78467 
L 264.365202 204.859198 
L 264.926228 203.872572 
L 265.934522 201.933726 
L 266.924655 199.008254 
L 267.38177 196.082782 
L 267.440963 193.157309 
L 267.251614 190.231837 
L 266.94883 187.306365 
L 266.621627 184.380893 
L 266.28189 181.455421 
L 265.864436 178.529949 
L 265.263337 175.604476 
L 264.926228 174.440532 
L 264.495738 172.679004 
L 263.526873 169.753532 
L 262.283483 167.009487 
L 262.206809 166.82806 
L 260.715093 163.902588 
L 259.640738 162.245805 
L 258.781376 160.977116 
L 256.997992 158.72844 
L 256.38679 158.051644 
L 254.355247 155.943992 
L 253.365285 155.126171 
L 251.712501 153.772132 
L 249.069756 152.285376 
L 248.845017 152.200699 
L 246.427011 151.270787 
L 243.784265 150.699701 
L 241.14152 150.406922 
L 238.498774 150.313586 
L 235.856029 150.440797 
L 233.213284 150.913186 
L 230.570538 151.959188 
L 230.190026 152.200699 
L 227.927793 153.718388 
L 226.418179 155.126171 
L 225.285047 156.16164 
L 223.320273 158.051644 
L 222.642302 158.600708 
L 219.999557 160.380748 
L 218.762128 160.977116 
L 217.356811 161.498577 
L 214.714066 162.127781 
L 212.07132 162.516327 
L 209.428575 162.806039 
L 206.78583 163.167402 
L 204.143084 163.807678 
L 203.906468 163.902588 
L 201.500339 164.864992 
L 198.857593 166.600536 
L 198.591106 166.82806 
L 196.214848 168.92285 
L 195.399701 169.753532 
L 193.572103 171.579001 
L 192.487324 172.679004 
L 190.929357 174.113386 
L 189.214414 175.604476 
L 188.286612 176.298242 
L 185.643866 178.117352 
L 184.992461 178.529949 
L 183.001121 179.643889 
L 180.358376 181.218644 
L 179.980391 181.455421 
L 177.71563 182.884984 
L 175.850212 184.380893 
L 175.072885 185.052931 
L 172.916232 187.306365 
L 172.43014 187.843017 
L 170.43428 190.231837 
L 169.787394 190.981085 
L 167.866432 193.157309 
L 167.144649 193.907388 
L 164.865678 196.082782 
L 164.501903 196.410836 
L 161.859158 198.54551 
L 161.229047 199.008254 
L 159.216413 200.591056 
L 157.55837 201.933726 
L 156.573667 202.921635 
L 154.850774 204.859198 
L 153.930922 206.319636 
L 153.096446 207.78467 
L 151.807949 210.710142 
L 151.288176 211.95952 
L 150.547716 213.635614 
L 149.036863 216.561087 
L 148.645431 217.178466 
L 146.965324 219.486559 
L 146.002686 220.650569 
L 144.443772 222.412031 
L 143.35994 223.67626 
L 141.949141 225.337503 
L 140.717195 227.123974 
L 139.923203 228.262975 
L 138.438575 231.188447 
L 138.074449 232.217077 
L 137.307245 234.113919 
L 136.421759 237.039392 
L 135.591487 239.964864 
L 135.431704 240.431258 
L 134.493857 242.890336 
L 133.236593 245.815808 
L 132.788959 246.754114 
L 131.84398 248.74128 
L 130.476387 251.666752 
L 130.146213 252.362257 
L 129.084582 254.592224 
L 127.789221 257.517697 
L 127.503468 258.232056 
L 126.555519 260.443169 
L 125.595493 263.368641 
L 124.978512 266.294113 
L 124.860722 267.593913 
L 124.681406 269.219585 
L 124.767237 272.145057 
L 124.860722 272.742618 
L 125.242189 275.07053 
L 126.187991 277.996002 
L 127.503468 280.524035 
L 127.724302 280.921474 
L 129.778449 283.846946 
L 130.146213 284.263823 
L 132.261267 286.772418 
L 132.788959 287.281608 
L 135.117336 289.69789 
L 135.431704 289.976509 
L 138.074449 292.428477 
L 138.296769 292.623362 
L 140.717195 294.707451 
L 141.850401 295.548835 
L 143.35994 296.806866 
L 145.827072 298.474307 
z
M 146.688684 280.921474 
L 146.002686 280.548598 
L 143.35994 278.345452 
L 143.039139 277.996002 
L 140.717195 275.290539 
L 140.550912 275.07053 
L 138.543501 272.145057 
L 138.074449 271.22833 
L 137.127514 269.219585 
L 136.483621 266.294113 
L 136.610323 263.368641 
L 137.374788 260.443169 
L 138.074449 258.804402 
L 138.590515 257.517697 
L 140.104622 254.592224 
L 140.717195 253.569301 
L 141.851396 251.666752 
L 143.35994 249.354206 
L 143.780591 248.74128 
L 145.668063 245.815808 
L 146.002686 245.153198 
L 147.188194 242.890336 
L 148.168635 239.964864 
L 148.645431 237.861936 
L 148.824916 237.039392 
L 149.561433 234.113919 
L 150.729049 231.188447 
L 151.288176 230.234875 
L 152.297294 228.262975 
L 153.930922 225.669494 
L 154.101857 225.337503 
L 155.733793 222.412031 
L 156.573667 220.92277 
L 157.286835 219.486559 
L 158.806942 216.561087 
L 159.216413 215.809407 
L 160.413195 213.635614 
L 161.859158 211.395407 
L 162.327918 210.710142 
L 164.501903 207.955012 
L 164.642213 207.78467 
L 167.144649 205.024859 
L 167.294599 204.859198 
L 169.787394 202.245139 
L 170.075003 201.933726 
L 172.43014 199.423048 
L 172.806533 199.008254 
L 175.072885 196.500933 
L 175.449337 196.082782 
L 177.71563 193.601244 
L 178.143857 193.157309 
L 180.358376 190.99172 
L 181.238004 190.231837 
L 183.001121 188.815319 
L 185.19946 187.306365 
L 185.643866 187.009536 
L 188.286612 185.332985 
L 189.841024 184.380893 
L 190.929357 183.665862 
L 193.572103 181.874175 
L 194.16897 181.455421 
L 196.214848 179.853192 
L 197.985246 178.529949 
L 198.857593 177.80267 
L 201.500339 175.883336 
L 201.971402 175.604476 
L 204.143084 174.229142 
L 206.78583 173.048794 
L 207.94245 172.679004 
L 209.428575 172.184101 
L 212.07132 171.540801 
L 214.714066 171.020859 
L 217.356811 170.514549 
L 219.999557 169.931016 
L 220.637542 169.753532 
L 222.642302 169.121261 
L 225.285047 168.048364 
L 227.746705 166.82806 
L 227.927793 166.720503 
L 230.570538 165.114526 
L 232.830406 163.902588 
L 233.213284 163.674473 
L 235.856029 162.596023 
L 238.498774 162.08437 
L 241.14152 162.105581 
L 243.784265 162.630118 
L 246.427011 163.665568 
L 246.832249 163.902588 
L 249.069756 165.369936 
L 250.675851 166.82806 
L 251.712501 167.964889 
L 252.996964 169.753532 
L 254.355247 172.213872 
L 254.572992 172.679004 
L 255.578479 175.604476 
L 256.26271 178.529949 
L 256.728396 181.455421 
L 256.997992 183.683843 
L 257.078141 184.380893 
L 257.366991 187.306365 
L 257.561231 190.231837 
L 257.506114 193.157309 
L 256.997992 195.956259 
L 256.973561 196.082782 
L 255.77872 199.008254 
L 254.355247 201.302853 
L 253.973328 201.933726 
L 252.022243 204.859198 
L 251.712501 205.356636 
L 250.378933 207.78467 
L 249.069756 210.523836 
L 248.989445 210.710142 
L 247.847589 213.635614 
L 246.651969 216.561087 
L 246.427011 217.070016 
L 245.377273 219.486559 
L 243.849906 222.412031 
L 243.784265 222.521552 
L 242.240102 225.337503 
L 241.14152 227.096043 
L 240.493422 228.262975 
L 238.693901 231.188447 
L 238.498774 231.483097 
L 236.840957 234.113919 
L 235.856029 235.548914 
L 234.78662 237.039392 
L 233.213284 239.108274 
L 232.490243 239.964864 
L 230.570538 242.266988 
L 230.001103 242.890336 
L 227.927793 245.347136 
L 227.52092 245.815808 
L 225.285047 248.598771 
L 225.173322 248.74128 
L 222.890591 251.666752 
L 222.642302 251.96657 
L 220.581517 254.592224 
L 219.999557 255.285829 
L 218.252581 257.517697 
L 217.356811 258.610325 
L 215.906077 260.443169 
L 214.714066 261.861459 
L 213.359834 263.368641 
L 212.07132 264.658147 
L 210.049188 266.294113 
L 209.428575 266.741739 
L 206.78583 268.211319 
L 204.341632 269.219585 
L 204.143084 269.300587 
L 201.500339 270.278565 
L 198.857593 271.256293 
L 196.629166 272.145057 
L 196.214848 272.327873 
L 193.572103 273.538642 
L 190.929357 274.733458 
L 190.117008 275.07053 
L 188.286612 275.878062 
L 185.643866 276.886632 
L 183.001121 277.746976 
L 182.103127 277.996002 
L 180.358376 278.485079 
L 177.71563 279.11164 
L 175.072885 279.661184 
L 172.43014 280.173613 
L 169.787394 280.675983 
L 168.495638 280.921474 
L 167.144649 281.20321 
L 164.501903 281.728111 
L 161.859158 282.183621 
L 159.216413 282.532273 
L 156.573667 282.742065 
L 153.930922 282.772346 
L 151.288176 282.540559 
L 148.645431 281.880742 
z
" style="fill:#c4d1e6;"/>
   </g>
   <g id="PathCollection_3">
    <path clip-path="url(#pff70ccb067)" d="M 148.645431 281.880742 
L 151.288176 282.540559 
L 153.930922 282.772346 
L 156.573667 282.742065 
L 159.216413 282.532273 
L 161.859158 282.183621 
L 164.501903 281.728111 
L 167.144649 281.20321 
L 168.495638 280.921474 
L 169.787394 280.675983 
L 172.43014 280.173613 
L 175.072885 279.661184 
L 177.71563 279.11164 
L 180.358376 278.485079 
L 182.103127 277.996002 
L 183.001121 277.746976 
L 185.643866 276.886632 
L 188.286612 275.878062 
L 190.117008 275.07053 
L 190.929357 274.733458 
L 193.572103 273.538642 
L 196.214848 272.327873 
L 196.629166 272.145057 
L 198.857593 271.256293 
L 201.500339 270.278565 
L 204.143084 269.300587 
L 204.341632 269.219585 
L 206.78583 268.211319 
L 209.428575 266.741739 
L 210.049188 266.294113 
L 212.07132 264.658147 
L 213.359834 263.368641 
L 214.714066 261.861459 
L 215.906077 260.443169 
L 217.356811 258.610325 
L 218.252581 257.517697 
L 219.999557 255.285829 
L 220.581517 254.592224 
L 222.642302 251.96657 
L 222.890591 251.666752 
L 225.173322 248.74128 
L 225.285047 248.598771 
L 227.52092 245.815808 
L 227.927793 245.347136 
L 230.001103 242.890336 
L 230.570538 242.266988 
L 232.490243 239.964864 
L 233.213284 239.108274 
L 234.78662 237.039392 
L 235.856029 235.548914 
L 236.840957 234.113919 
L 238.498774 231.483097 
L 238.693901 231.188447 
L 240.493422 228.262975 
L 241.14152 227.096043 
L 242.240102 225.337503 
L 243.784265 222.521552 
L 243.849906 222.412031 
L 245.377273 219.486559 
L 246.427011 217.070016 
L 246.651969 216.561087 
L 247.847589 213.635614 
L 248.989445 210.710142 
L 249.069756 210.523836 
L 250.378933 207.78467 
L 251.712501 205.356636 
L 252.022243 204.859198 
L 253.973328 201.933726 
L 254.355247 201.302853 
L 255.77872 199.008254 
L 256.973561 196.082782 
L 256.997992 195.956259 
L 257.506114 193.157309 
L 257.561231 190.231837 
L 257.366991 187.306365 
L 257.078141 184.380893 
L 256.997992 183.683843 
L 256.728396 181.455421 
L 256.26271 178.529949 
L 255.578479 175.604476 
L 254.572992 172.679004 
L 254.355247 172.213872 
L 252.996964 169.753532 
L 251.712501 167.964889 
L 250.675851 166.82806 
L 249.069756 165.369936 
L 246.832249 163.902588 
L 246.427011 163.665568 
L 243.784265 162.630118 
L 241.14152 162.105581 
L 238.498774 162.08437 
L 235.856029 162.596023 
L 233.213284 163.674473 
L 232.830406 163.902588 
L 230.570538 165.114526 
L 227.927793 166.720503 
L 227.746705 166.82806 
L 225.285047 168.048364 
L 222.642302 169.121261 
L 220.637542 169.753532 
L 219.999557 169.931016 
L 217.356811 170.514549 
L 214.714066 171.020859 
L 212.07132 171.540801 
L 209.428575 172.184101 
L 207.94245 172.679004 
L 206.78583 173.048794 
L 204.143084 174.229142 
L 201.971402 175.604476 
L 201.500339 175.883336 
L 198.857593 177.80267 
L 197.985246 178.529949 
L 196.214848 179.853192 
L 194.16897 181.455421 
L 193.572103 181.874175 
L 190.929357 183.665862 
L 189.841024 184.380893 
L 188.286612 185.332985 
L 185.643866 187.009536 
L 185.19946 187.306365 
L 183.001121 188.815319 
L 181.238004 190.231837 
L 180.358376 190.99172 
L 178.143857 193.157309 
L 177.71563 193.601244 
L 175.449337 196.082782 
L 175.072885 196.500933 
L 172.806533 199.008254 
L 172.43014 199.423048 
L 170.075003 201.933726 
L 169.787394 202.245139 
L 167.294599 204.859198 
L 167.144649 205.024859 
L 164.642213 207.78467 
L 164.501903 207.955012 
L 162.327918 210.710142 
L 161.859158 211.395407 
L 160.413195 213.635614 
L 159.216413 215.809407 
L 158.806942 216.561087 
L 157.286835 219.486559 
L 156.573667 220.92277 
L 155.733793 222.412031 
L 154.101857 225.337503 
L 153.930922 225.669494 
L 152.297294 228.262975 
L 151.288176 230.234875 
L 150.729049 231.188447 
L 149.561433 234.113919 
L 148.824916 237.039392 
L 148.645431 237.861936 
L 148.168635 239.964864 
L 147.188194 242.890336 
L 146.002686 245.153198 
L 145.668063 245.815808 
L 143.780591 248.74128 
L 143.35994 249.354206 
L 141.851396 251.666752 
L 140.717195 253.569301 
L 140.104622 254.592224 
L 138.590515 257.517697 
L 138.074449 258.804402 
L 137.374788 260.443169 
L 136.610323 263.368641 
L 136.483621 266.294113 
L 137.127514 269.219585 
L 138.074449 271.22833 
L 138.543501 272.145057 
L 140.550912 275.07053 
L 140.717195 275.290539 
L 143.039139 277.996002 
L 143.35994 278.345452 
L 146.002686 280.548598 
L 146.688684 280.921474 
z
M 153.517136 272.145057 
L 151.288176 270.784385 
L 149.540186 269.219585 
L 148.645431 268.104613 
L 147.514128 266.294113 
L 146.625928 263.368641 
L 146.648911 260.443169 
L 147.442361 257.517697 
L 148.645431 255.166078 
L 148.954174 254.592224 
L 151.180083 251.666752 
L 151.288176 251.539602 
L 153.770048 248.74128 
L 153.930922 248.535007 
L 155.881631 245.815808 
L 156.573667 244.354192 
L 157.152401 242.890336 
L 157.723281 239.964864 
L 157.985311 237.039392 
L 158.279984 234.113919 
L 158.843126 231.188447 
L 159.216413 230.002589 
L 159.681209 228.262975 
L 160.752565 225.337503 
L 161.859158 222.889547 
L 162.066829 222.412031 
L 163.566212 219.486559 
L 164.501903 217.918927 
L 165.35709 216.561087 
L 167.144649 214.05831 
L 167.463158 213.635614 
L 169.787394 210.775253 
L 169.841406 210.710142 
L 172.366685 207.78467 
L 172.43014 207.713734 
L 174.952365 204.859198 
L 175.072885 204.725307 
L 177.557004 201.933726 
L 177.71563 201.756632 
L 180.189684 199.008254 
L 180.358376 198.824819 
L 182.993997 196.082782 
L 183.001121 196.075817 
L 185.643866 193.676927 
L 186.279966 193.157309 
L 188.286612 191.637827 
L 190.34248 190.231837 
L 190.929357 189.84019 
L 193.572103 188.112706 
L 194.818322 187.306365 
L 196.214848 186.356558 
L 198.857593 184.590909 
L 199.192751 184.380893 
L 201.500339 182.847351 
L 203.95658 181.455421 
L 204.143084 181.343126 
L 206.78583 180.094231 
L 209.428575 179.161464 
L 211.757749 178.529949 
L 212.07132 178.443015 
L 214.714066 177.864709 
L 217.356811 177.35213 
L 219.999557 176.843076 
L 222.642302 176.288514 
L 225.285047 175.638319 
L 225.410604 175.604476 
L 227.927793 174.918307 
L 230.570538 174.131207 
L 233.213284 173.418716 
L 235.856029 173.042195 
L 238.498774 173.321198 
L 241.14152 174.555169 
L 242.393879 175.604476 
L 243.784265 177.285083 
L 244.571466 178.529949 
L 245.921325 181.455421 
L 246.427011 182.862258 
L 246.908548 184.380893 
L 247.622249 187.306365 
L 248.00078 190.231837 
L 247.919103 193.157309 
L 247.328427 196.082782 
L 246.427011 198.641214 
L 246.317198 199.008254 
L 245.182718 201.933726 
L 243.958322 204.859198 
L 243.784265 205.258625 
L 242.793726 207.78467 
L 241.560356 210.710142 
L 241.14152 211.639346 
L 240.277305 213.635614 
L 238.888834 216.561087 
L 238.498774 217.346879 
L 237.485865 219.486559 
L 236.040623 222.412031 
L 235.856029 222.777552 
L 234.609215 225.337503 
L 233.213284 227.922244 
L 233.023866 228.262975 
L 231.158735 231.188447 
L 230.570538 231.981458 
L 228.792542 234.113919 
L 227.927793 235.050116 
L 225.886165 237.039392 
L 225.285047 237.625285 
L 222.84866 239.964864 
L 222.642302 240.180859 
L 220.223378 242.890336 
L 219.999557 243.167929 
L 218.049766 245.815808 
L 217.356811 246.800575 
L 216.091256 248.74128 
L 214.714066 250.794414 
L 214.149685 251.666752 
L 212.10555 254.592224 
L 212.07132 254.637723 
L 209.764109 257.517697 
L 209.428575 257.888651 
L 206.78583 260.318248 
L 206.609178 260.443169 
L 204.143084 262.008373 
L 201.500339 263.208778 
L 201.053693 263.368641 
L 198.857593 264.154312 
L 196.214848 264.988077 
L 193.572103 265.767443 
L 191.632995 266.294113 
L 190.929357 266.509325 
L 188.286612 267.224627 
L 185.643866 267.874451 
L 183.001121 268.521642 
L 180.485164 269.219585 
L 180.358376 269.2574 
L 177.71563 270.168918 
L 175.072885 271.124774 
L 172.43014 272.007952 
L 171.939821 272.145057 
L 169.787394 272.723433 
L 167.144649 273.244223 
L 164.501903 273.573235 
L 161.859158 273.706327 
L 159.216413 273.608375 
L 156.573667 273.198779 
L 153.930922 272.352581 
z
" style="fill:#9cb1d4;"/>
   </g>
   <g id="PathCollection_4">
    <path clip-path="url(#pff70ccb067)" d="M 153.930922 272.352581 
L 156.573667 273.198779 
L 159.216413 273.608375 
L 161.859158 273.706327 
L 164.501903 273.573235 
L 167.144649 273.244223 
L 169.787394 272.723433 
L 171.939821 272.145057 
L 172.43014 272.007952 
L 175.072885 271.124774 
L 177.71563 270.168918 
L 180.358376 269.2574 
L 180.485164 269.219585 
L 183.001121 268.521642 
L 185.643866 267.874451 
L 188.286612 267.224627 
L 190.929357 266.509325 
L 191.632995 266.294113 
L 193.572103 265.767443 
L 196.214848 264.988077 
L 198.857593 264.154312 
L 201.053693 263.368641 
L 201.500339 263.208778 
L 204.143084 262.008373 
L 206.609178 260.443169 
L 206.78583 260.318248 
L 209.428575 257.888651 
L 209.764109 257.517697 
L 212.07132 254.637723 
L 212.10555 254.592224 
L 214.149685 251.666752 
L 214.714066 250.794414 
L 216.091256 248.74128 
L 217.356811 246.800575 
L 218.049766 245.815808 
L 219.999557 243.167929 
L 220.223378 242.890336 
L 222.642302 240.180859 
L 222.84866 239.964864 
L 225.285047 237.625285 
L 225.886165 237.039392 
L 227.927793 235.050116 
L 228.792542 234.113919 
L 230.570538 231.981458 
L 231.158735 231.188447 
L 233.023866 228.262975 
L 233.213284 227.922244 
L 234.609215 225.337503 
L 235.856029 222.777552 
L 236.040623 222.412031 
L 237.485865 219.486559 
L 238.498774 217.346879 
L 238.888834 216.561087 
L 240.277305 213.635614 
L 241.14152 211.639346 
L 241.560356 210.710142 
L 242.793726 207.78467 
L 243.784265 205.258625 
L 243.958322 204.859198 
L 245.182718 201.933726 
L 246.317198 199.008254 
L 246.427011 198.641214 
L 247.328427 196.082782 
L 247.919103 193.157309 
L 248.00078 190.231837 
L 247.622249 187.306365 
L 246.908548 184.380893 
L 246.427011 182.862258 
L 245.921325 181.455421 
L 244.571466 178.529949 
L 243.784265 177.285083 
L 242.393879 175.604476 
L 241.14152 174.555169 
L 238.498774 173.321198 
L 235.856029 173.042195 
L 233.213284 173.418716 
L 230.570538 174.131207 
L 227.927793 174.918307 
L 225.410604 175.604476 
L 225.285047 175.638319 
L 222.642302 176.288514 
L 219.999557 176.843076 
L 217.356811 177.35213 
L 214.714066 177.864709 
L 212.07132 178.443015 
L 211.757749 178.529949 
L 209.428575 179.161464 
L 206.78583 180.094231 
L 204.143084 181.343126 
L 203.95658 181.455421 
L 201.500339 182.847351 
L 199.192751 184.380893 
L 198.857593 184.590909 
L 196.214848 186.356558 
L 194.818322 187.306365 
L 193.572103 188.112706 
L 190.929357 189.84019 
L 190.34248 190.231837 
L 188.286612 191.637827 
L 186.279966 193.157309 
L 185.643866 193.676927 
L 183.001121 196.075817 
L 182.993997 196.082782 
L 180.358376 198.824819 
L 180.189684 199.008254 
L 177.71563 201.756632 
L 177.557004 201.933726 
L 175.072885 204.725307 
L 174.952365 204.859198 
L 172.43014 207.713734 
L 172.366685 207.78467 
L 169.841406 210.710142 
L 169.787394 210.775253 
L 167.463158 213.635614 
L 167.144649 214.05831 
L 165.35709 216.561087 
L 164.501903 217.918927 
L 163.566212 219.486559 
L 162.066829 222.412031 
L 161.859158 222.889547 
L 160.752565 225.337503 
L 159.681209 228.262975 
L 159.216413 230.002589 
L 158.843126 231.188447 
L 158.279984 234.113919 
L 157.985311 237.039392 
L 157.723281 239.964864 
L 157.152401 242.890336 
L 156.573667 244.354192 
L 155.881631 245.815808 
L 153.930922 248.535007 
L 153.770048 248.74128 
L 151.288176 251.539602 
L 151.180083 251.666752 
L 148.954174 254.592224 
L 148.645431 255.166078 
L 147.442361 257.517697 
L 146.648911 260.443169 
L 146.625928 263.368641 
L 147.514128 266.294113 
L 148.645431 268.104613 
L 149.540186 269.219585 
L 151.288176 270.784385 
L 153.517136 272.145057 
z
M 160.402902 263.368641 
L 159.216413 262.354856 
L 157.806321 260.443169 
L 157.673793 257.517697 
L 158.874184 254.592224 
L 159.216413 254.088601 
L 160.591567 251.666752 
L 161.859158 249.377278 
L 162.147289 248.74128 
L 163.202465 245.815808 
L 163.791905 242.890336 
L 164.015216 239.964864 
L 164.054409 237.039392 
L 164.132596 234.113919 
L 164.439609 231.188447 
L 164.501903 230.907215 
L 165.077984 228.262975 
L 166.081723 225.337503 
L 167.144649 223.057446 
L 167.461327 222.412031 
L 169.231012 219.486559 
L 169.787394 218.690932 
L 171.339467 216.561087 
L 172.43014 215.187123 
L 173.678274 213.635614 
L 175.072885 211.97842 
L 176.145549 210.710142 
L 177.71563 208.899308 
L 178.68762 207.78467 
L 180.358376 205.891869 
L 181.270069 204.859198 
L 183.001121 202.924568 
L 183.893514 201.933726 
L 185.643866 200.076018 
L 186.699346 199.008254 
L 188.286612 197.531857 
L 190.012295 196.082782 
L 190.929357 195.371683 
L 193.572103 193.527623 
L 194.160041 193.157309 
L 196.214848 191.857082 
L 198.857593 190.278989 
L 198.945943 190.231837 
L 201.500339 188.797082 
L 204.143084 187.491996 
L 204.642521 187.306365 
L 206.78583 186.492008 
L 209.428575 185.814502 
L 212.07132 185.397256 
L 214.714066 185.144109 
L 217.356811 184.965666 
L 219.999557 184.82323 
L 222.642302 184.73382 
L 225.285047 184.744329 
L 227.927793 184.922014 
L 230.570538 185.398016 
L 233.213284 186.452304 
L 234.375744 187.306365 
L 235.856029 188.544951 
L 237.099002 190.231837 
L 238.498774 192.943982 
L 238.577123 193.157309 
L 239.160929 196.082782 
L 239.159321 199.008254 
L 238.725641 201.933726 
L 238.498774 202.773657 
L 237.972595 204.859198 
L 236.988679 207.78467 
L 235.856029 210.555345 
L 235.79365 210.710142 
L 234.448547 213.635614 
L 233.213284 216.111401 
L 232.986327 216.561087 
L 231.481611 219.486559 
L 230.570538 221.220888 
L 229.916894 222.412031 
L 228.219951 225.337503 
L 227.927793 225.792037 
L 226.197273 228.262975 
L 225.285047 229.375014 
L 223.707083 231.188447 
L 222.642302 232.278125 
L 220.905112 234.113919 
L 219.999557 235.03412 
L 218.226322 237.039392 
L 217.356811 238.040459 
L 215.858231 239.964864 
L 214.714066 241.485623 
L 213.72338 242.890336 
L 212.07132 245.27968 
L 211.701163 245.815808 
L 209.67759 248.74128 
L 209.428575 249.092131 
L 207.404792 251.666752 
L 206.78583 252.39271 
L 204.459808 254.592224 
L 204.143084 254.865976 
L 201.500339 256.612409 
L 199.510348 257.517697 
L 198.857593 257.806653 
L 196.214848 258.687891 
L 193.572103 259.349457 
L 190.929357 259.863859 
L 188.286612 260.276431 
L 187.063024 260.443169 
L 185.643866 260.661871 
L 183.001121 261.08481 
L 180.358376 261.601135 
L 177.71563 262.259667 
L 175.072885 263.051699 
L 174.02749 263.368641 
L 172.43014 263.89414 
L 169.787394 264.560035 
L 167.144649 264.882094 
L 164.501903 264.74704 
L 161.859158 264.06515 
z
" style="fill:#7593c3;"/>
   </g>
   <g id="PathCollection_5">
    <path clip-path="url(#pff70ccb067)" d="M 161.859158 264.06515 
L 164.501903 264.74704 
L 167.144649 264.882094 
L 169.787394 264.560035 
L 172.43014 263.89414 
L 174.02749 263.368641 
L 175.072885 263.051699 
L 177.71563 262.259667 
L 180.358376 261.601135 
L 183.001121 261.08481 
L 185.643866 260.661871 
L 187.063024 260.443169 
L 188.286612 260.276431 
L 190.929357 259.863859 
L 193.572103 259.349457 
L 196.214848 258.687891 
L 198.857593 257.806653 
L 199.510348 257.517697 
L 201.500339 256.612409 
L 204.143084 254.865976 
L 204.459808 254.592224 
L 206.78583 252.39271 
L 207.404792 251.666752 
L 209.428575 249.092131 
L 209.67759 248.74128 
L 211.701163 245.815808 
L 212.07132 245.27968 
L 213.72338 242.890336 
L 214.714066 241.485623 
L 215.858231 239.964864 
L 217.356811 238.040459 
L 218.226322 237.039392 
L 219.999557 235.03412 
L 220.905112 234.113919 
L 222.642302 232.278125 
L 223.707083 231.188447 
L 225.285047 229.375014 
L 226.197273 228.262975 
L 227.927793 225.792037 
L 228.219951 225.337503 
L 229.916894 222.412031 
L 230.570538 221.220888 
L 231.481611 219.486559 
L 232.986327 216.561087 
L 233.213284 216.111401 
L 234.448547 213.635614 
L 235.79365 210.710142 
L 235.856029 210.555345 
L 236.988679 207.78467 
L 237.972595 204.859198 
L 238.498774 202.773657 
L 238.725641 201.933726 
L 239.159321 199.008254 
L 239.160929 196.082782 
L 238.577123 193.157309 
L 238.498774 192.943982 
L 237.099002 190.231837 
L 235.856029 188.544951 
L 234.375744 187.306365 
L 233.213284 186.452304 
L 230.570538 185.398016 
L 227.927793 184.922014 
L 225.285047 184.744329 
L 222.642302 184.73382 
L 219.999557 184.82323 
L 217.356811 184.965666 
L 214.714066 185.144109 
L 212.07132 185.397256 
L 209.428575 185.814502 
L 206.78583 186.492008 
L 204.642521 187.306365 
L 204.143084 187.491996 
L 201.500339 188.797082 
L 198.945943 190.231837 
L 198.857593 190.278989 
L 196.214848 191.857082 
L 194.160041 193.157309 
L 193.572103 193.527623 
L 190.929357 195.371683 
L 190.012295 196.082782 
L 188.286612 197.531857 
L 186.699346 199.008254 
L 185.643866 200.076018 
L 183.893514 201.933726 
L 183.001121 202.924568 
L 181.270069 204.859198 
L 180.358376 205.891869 
L 178.68762 207.78467 
L 177.71563 208.899308 
L 176.145549 210.710142 
L 175.072885 211.97842 
L 173.678274 213.635614 
L 172.43014 215.187123 
L 171.339467 216.561087 
L 169.787394 218.690932 
L 169.231012 219.486559 
L 167.461327 222.412031 
L 167.144649 223.057446 
L 166.081723 225.337503 
L 165.077984 228.262975 
L 164.501903 230.907215 
L 164.439609 231.188447 
L 164.132596 234.113919 
L 164.054409 237.039392 
L 164.015216 239.964864 
L 163.791905 242.890336 
L 163.202465 245.815808 
L 162.147289 248.74128 
L 161.859158 249.377278 
L 160.591567 251.666752 
L 159.216413 254.088601 
L 158.874184 254.592224 
L 157.673793 257.517697 
L 157.806321 260.443169 
L 159.216413 262.354856 
L 160.402902 263.368641 
z
M 171.574069 254.592224 
L 169.787394 252.222122 
L 169.599513 251.666752 
L 169.419552 248.74128 
L 169.509137 245.815808 
L 169.574267 242.890336 
L 169.551203 239.964864 
L 169.497577 237.039392 
L 169.54191 234.113919 
L 169.787394 231.618075 
L 169.832376 231.188447 
L 170.514029 228.262975 
L 171.616662 225.337503 
L 172.43014 223.764823 
L 173.149607 222.412031 
L 175.058996 219.486559 
L 175.072885 219.467945 
L 177.262708 216.561087 
L 177.71563 216.003381 
L 179.670728 213.635614 
L 180.358376 212.831914 
L 182.199652 210.710142 
L 183.001121 209.794407 
L 184.747814 207.78467 
L 185.643866 206.762747 
L 187.30386 204.859198 
L 188.286612 203.787259 
L 190.077676 201.933726 
L 190.929357 201.132283 
L 193.514365 199.008254 
L 193.572103 198.964669 
L 196.214848 197.29945 
L 198.585561 196.082782 
L 198.857593 195.940779 
L 201.500339 194.883707 
L 204.143084 194.089316 
L 206.78583 193.607492 
L 209.428575 193.457056 
L 212.07132 193.552779 
L 214.714066 193.748692 
L 217.356811 193.958676 
L 219.999557 194.201934 
L 222.642302 194.5667 
L 225.285047 195.180554 
L 227.564523 196.082782 
L 227.927793 196.256691 
L 230.570538 198.512716 
L 230.915539 199.008254 
L 231.879592 201.933726 
L 231.865069 204.859198 
L 231.250645 207.78467 
L 230.570538 209.713096 
L 230.21036 210.710142 
L 228.852141 213.635614 
L 227.927793 215.416225 
L 227.298652 216.561087 
L 225.609433 219.486559 
L 225.285047 220.025949 
L 223.764953 222.412031 
L 222.642302 224.056339 
L 221.754551 225.337503 
L 219.999557 227.625791 
L 219.541519 228.262975 
L 217.356811 231.024565 
L 217.242156 231.188447 
L 215.032993 234.113919 
L 214.714066 234.518909 
L 212.915565 237.039392 
L 212.07132 238.194869 
L 210.82575 239.964864 
L 209.428575 241.914626 
L 208.703744 242.890336 
L 206.78583 245.40538 
L 206.431305 245.815808 
L 204.143084 248.347435 
L 203.694792 248.74128 
L 201.500339 250.568637 
L 199.646702 251.666752 
L 198.857593 252.117646 
L 196.214848 253.194654 
L 193.572103 253.922331 
L 190.929357 254.421168 
L 189.619683 254.592224 
L 188.286612 254.776846 
L 185.643866 255.030573 
L 183.001121 255.218791 
L 180.358376 255.371787 
L 177.71563 255.480251 
L 175.072885 255.450427 
L 172.43014 255.003102 
z
" style="fill:#5174ad;"/>
   </g>
   <g id="PathCollection_6">
    <path clip-path="url(#pff70ccb067)" d="M 172.43014 255.003102 
L 175.072885 255.450427 
L 177.71563 255.480251 
L 180.358376 255.371787 
L 183.001121 255.218791 
L 185.643866 255.030573 
L 188.286612 254.776846 
L 189.619683 254.592224 
L 190.929357 254.421168 
L 193.572103 253.922331 
L 196.214848 253.194654 
L 198.857593 252.117646 
L 199.646702 251.666752 
L 201.500339 250.568637 
L 203.694792 248.74128 
L 204.143084 248.347435 
L 206.431305 245.815808 
L 206.78583 245.40538 
L 208.703744 242.890336 
L 209.428575 241.914626 
L 210.82575 239.964864 
L 212.07132 238.194869 
L 212.915565 237.039392 
L 214.714066 234.518909 
L 215.032993 234.113919 
L 217.242156 231.188447 
L 217.356811 231.024565 
L 219.541519 228.262975 
L 219.999557 227.625791 
L 221.754551 225.337503 
L 222.642302 224.056339 
L 223.764953 222.412031 
L 225.285047 220.025949 
L 225.609433 219.486559 
L 227.298652 216.561087 
L 227.927793 215.416225 
L 228.852141 213.635614 
L 230.21036 210.710142 
L 230.570538 209.713096 
L 231.250645 207.78467 
L 231.865069 204.859198 
L 231.879592 201.933726 
L 230.915539 199.008254 
L 230.570538 198.512716 
L 227.927793 196.256691 
L 227.564523 196.082782 
L 225.285047 195.180554 
L 222.642302 194.5667 
L 219.999557 194.201934 
L 217.356811 193.958676 
L 214.714066 193.748692 
L 212.07132 193.552779 
L 209.428575 193.457056 
L 206.78583 193.607492 
L 204.143084 194.089316 
L 201.500339 194.883707 
L 198.857593 195.940779 
L 198.585561 196.082782 
L 196.214848 197.29945 
L 193.572103 198.964669 
L 193.514365 199.008254 
L 190.929357 201.132283 
L 190.077676 201.933726 
L 188.286612 203.787259 
L 187.30386 204.859198 
L 185.643866 206.762747 
L 184.747814 207.78467 
L 183.001121 209.794407 
L 182.199652 210.710142 
L 180.358376 212.831914 
L 179.670728 213.635614 
L 177.71563 216.003381 
L 177.262708 216.561087 
L 175.072885 219.467945 
L 175.058996 219.486559 
L 173.149607 222.412031 
L 172.43014 223.764823 
L 171.616662 225.337503 
L 170.514029 228.262975 
L 169.832376 231.188447 
L 169.787394 231.618075 
L 169.54191 234.113919 
L 169.497577 237.039392 
L 169.551203 239.964864 
L 169.574267 242.890336 
L 169.509137 245.815808 
L 169.419552 248.74128 
L 169.599513 251.666752 
L 169.787394 252.222122 
L 171.574069 254.592224 
z
M 181.459275 248.74128 
L 180.358376 248.268505 
L 177.71563 246.032031 
L 177.560102 245.815808 
L 176.36042 242.890336 
L 175.77502 239.964864 
L 175.508024 237.039392 
L 175.514597 234.113919 
L 175.83778 231.188447 
L 176.540704 228.262975 
L 177.666254 225.337503 
L 177.71563 225.244147 
L 179.238277 222.412031 
L 180.358376 220.741538 
L 181.24927 219.486559 
L 183.001121 217.298887 
L 183.634168 216.561087 
L 185.643866 214.264527 
L 186.209377 213.635614 
L 188.286612 211.225224 
L 188.730014 210.710142 
L 190.929357 208.114675 
L 191.228239 207.78467 
L 193.572103 205.398407 
L 194.234109 204.859198 
L 196.214848 203.440535 
L 198.857593 202.169503 
L 199.887301 201.933726 
L 201.500339 201.577726 
L 204.143084 201.520625 
L 206.78583 201.845802 
L 207.304157 201.933726 
L 209.428575 202.343108 
L 212.07132 202.761428 
L 214.714066 203.03028 
L 217.356811 203.299179 
L 219.999557 203.902386 
L 221.759508 204.859198 
L 222.642302 206.09503 
L 223.220834 207.78467 
L 222.906674 210.710142 
L 222.642302 211.404062 
L 221.737322 213.635614 
L 220.263419 216.561087 
L 219.999557 217.017777 
L 218.60177 219.486559 
L 217.356811 221.674637 
L 216.976661 222.412031 
L 215.358063 225.337503 
L 214.714066 226.401137 
L 213.728732 228.262975 
L 212.07132 231.127297 
L 212.039408 231.188447 
L 210.259575 234.113919 
L 209.428575 235.359788 
L 208.321783 237.039392 
L 206.78583 239.181911 
L 206.186175 239.964864 
L 204.143084 242.436899 
L 203.704244 242.890336 
L 201.500339 245.005636 
L 200.399861 245.815808 
L 198.857593 246.880858 
L 196.214848 248.157612 
L 194.371099 248.74128 
L 193.572103 248.988687 
L 190.929357 249.464011 
L 188.286612 249.650912 
L 185.643866 249.569088 
L 183.001121 249.184336 
z
" style="fill:#3c5a8a;"/>
   </g>
   <g id="PathCollection_7">
    <path clip-path="url(#pff70ccb067)" d="M 183.001121 249.184336 
L 185.643866 249.569088 
L 188.286612 249.650912 
L 190.929357 249.464011 
L 193.572103 248.988687 
L 194.371099 248.74128 
L 196.214848 248.157612 
L 198.857593 246.880858 
L 200.399861 245.815808 
L 201.500339 245.005636 
L 203.704244 242.890336 
L 204.143084 242.436899 
L 206.186175 239.964864 
L 206.78583 239.181911 
L 208.321783 237.039392 
L 209.428575 235.359788 
L 210.259575 234.113919 
L 212.039408 231.188447 
L 212.07132 231.127297 
L 213.728732 228.262975 
L 214.714066 226.401137 
L 215.358063 225.337503 
L 216.976661 222.412031 
L 217.356811 221.674637 
L 218.60177 219.486559 
L 219.999557 217.017777 
L 220.263419 216.561087 
L 221.737322 213.635614 
L 222.642302 211.404062 
L 222.906674 210.710142 
L 223.220834 207.78467 
L 222.642302 206.09503 
L 221.759508 204.859198 
L 219.999557 203.902386 
L 217.356811 203.299179 
L 214.714066 203.03028 
L 212.07132 202.761428 
L 209.428575 202.343108 
L 207.304157 201.933726 
L 206.78583 201.845802 
L 204.143084 201.520625 
L 201.500339 201.577726 
L 199.887301 201.933726 
L 198.857593 202.169503 
L 196.214848 203.440535 
L 194.234109 204.859198 
L 193.572103 205.398407 
L 191.228239 207.78467 
L 190.929357 208.114675 
L 188.730014 210.710142 
L 188.286612 211.225224 
L 186.209377 213.635614 
L 185.643866 214.264527 
L 183.634168 216.561087 
L 183.001121 217.298887 
L 181.24927 219.486559 
L 180.358376 220.741538 
L 179.238277 222.412031 
L 177.71563 225.244147 
L 177.666254 225.337503 
L 176.540704 228.262975 
L 175.83778 231.188447 
L 175.514597 234.113919 
L 175.508024 237.039392 
L 175.77502 239.964864 
L 176.36042 242.890336 
L 177.560102 245.815808 
L 177.71563 246.032031 
L 180.358376 248.268505 
L 181.459275 248.74128 
z
M 185.694633 242.890336 
L 185.643866 242.860425 
L 183.027939 239.964864 
L 183.001121 239.904824 
L 182.024523 237.039392 
L 181.711049 234.113919 
L 181.92758 231.188447 
L 182.655877 228.262975 
L 183.001121 227.448819 
L 183.993017 225.337503 
L 185.643866 222.841246 
L 185.981022 222.412031 
L 188.286612 219.861035 
L 188.684879 219.486559 
L 190.929357 217.290079 
L 191.762916 216.561087 
L 193.572103 214.743316 
L 194.879736 213.635614 
L 196.214848 212.419625 
L 198.857593 210.888559 
L 200.15758 210.710142 
L 201.500339 210.547587 
L 202.204767 210.710142 
L 204.143084 211.286146 
L 206.78583 213.000482 
L 207.494838 213.635614 
L 209.217715 216.561087 
L 209.428575 217.659291 
L 209.677763 219.486559 
L 209.532211 222.412031 
L 209.428575 222.927931 
L 208.993798 225.337503 
L 208.134451 228.262975 
L 206.974905 231.188447 
L 206.78583 231.53988 
L 205.381674 234.113919 
L 204.143084 235.987733 
L 203.376042 237.039392 
L 201.500339 239.206749 
L 200.698161 239.964864 
L 198.857593 241.476452 
L 196.470991 242.890336 
L 196.214848 243.027275 
L 193.572103 243.870154 
L 190.929357 244.172904 
L 188.286612 243.894926 
z
" style="fill:#2b4063;"/>
   </g>
   <g id="PathCollection_8">
    <path clip-path="url(#pff70ccb067)" d="M 188.286612 243.894926 
L 190.929357 244.172904 
L 193.572103 243.870154 
L 196.214848 243.027275 
L 196.470991 242.890336 
L 198.857593 241.476452 
L 200.698161 239.964864 
L 201.500339 239.206749 
L 203.376042 237.039392 
L 204.143084 235.987733 
L 205.381674 234.113919 
L 206.78583 231.53988 
L 206.974905 231.188447 
L 208.134451 228.262975 
L 208.993798 225.337503 
L 209.428575 222.927931 
L 209.532211 222.412031 
L 209.677763 219.486559 
L 209.428575 217.659291 
L 209.217715 216.561087 
L 207.494838 213.635614 
L 206.78583 213.000482 
L 204.143084 211.286146 
L 202.204767 210.710142 
L 201.500339 210.547587 
L 200.15758 210.710142 
L 198.857593 210.888559 
L 196.214848 212.419625 
L 194.879736 213.635614 
L 193.572103 214.743316 
L 191.762916 216.561087 
L 190.929357 217.290079 
L 188.684879 219.486559 
L 188.286612 219.861035 
L 185.981022 222.412031 
L 185.643866 222.841246 
L 183.993017 225.337503 
L 183.001121 227.448819 
L 182.655877 228.262975 
L 181.92758 231.188447 
L 181.711049 234.113919 
L 182.024523 237.039392 
L 183.001121 239.904824 
L 183.027939 239.964864 
L 185.643866 242.860425 
L 185.694633 242.890336 
z
M 189.326217 234.113919 
L 189.148827 231.188447 
L 190.333272 228.262975 
L 190.929357 227.485856 
L 193.4023 225.337503 
L 193.572103 225.21689 
L 196.214848 224.330545 
L 198.857593 224.739875 
L 199.495921 225.337503 
L 200.60937 228.262975 
L 200.099288 231.188447 
L 198.857593 233.550635 
L 198.44505 234.113919 
L 196.214848 235.944497 
L 193.572103 237.0135 
L 190.929357 236.274662 
z
" style="fill:#19263b;"/>
   </g>
   <g id="PathCollection_9">
    <path clip-path="url(#pff70ccb067)" d="M 190.929357 236.274662 
L 193.572103 237.0135 
L 196.214848 235.944497 
L 198.44505 234.113919 
L 198.857593 233.550635 
L 200.099288 231.188447 
L 200.60937 228.262975 
L 199.495921 225.337503 
L 198.857593 224.739875 
L 196.214848 224.330545 
L 193.572103 225.21689 
L 193.4023 225.337503 
L 190.929357 227.485856 
L 190.333272 228.262975 
L 189.148827 231.188447 
L 189.326217 234.113919 
z
" style="fill:#080d14;"/>
   </g>
   <g id="patch_3">
    <path d="M 45.716094 378.28 
L 45.716094 70.813714 
" style="fill:none;stroke:#262626;stroke-linecap:square;stroke-linejoin:miter;stroke-width:1.25;"/>
   </g>
   <g id="patch_4">
    <path d="M 45.716094 378.28 
L 348.625237 378.28 
" style="fill:none;stroke:#262626;stroke-linecap:square;stroke-linejoin:miter;stroke-width:1.25;"/>
   </g>
  </g>
  <g id="axes_2">
   <g id="patch_5">
    <path d="M 45.716094 60.211429 
L 348.625237 60.211429 
L 348.625237 7.2 
L 45.716094 7.2 
z
" style="fill:#ffffff;"/>
   </g>
   <g id="matplotlib.axis_3">
    <g id="xtick_6"/>
    <g id="xtick_7"/>
    <g id="xtick_8"/>
    <g id="xtick_9"/>
    <g id="xtick_10"/>
   </g>
   <g id="matplotlib.axis_4">
    <g id="ytick_8"/>
    <g id="ytick_9"/>
    <g id="ytick_10"/>
    <g id="ytick_11"/>
    <g id="ytick_12"/>
    <g id="ytick_13"/>
    <g id="ytick_14"/>
    <g id="ytick_15"/>
    <g id="ytick_16"/>
    <g id="ytick_17"/>
   </g>
   <g id="PolyCollection_1">
    <defs>
     <path d="M 61.434833 -361.306976 
L 61.434833 -361.30279 
L 63.494926 -361.30279 
L 65.555019 -361.30279 
L 67.615112 -361.30279 
L 69.675204 -361.30279 
L 71.735297 -361.30279 
L 73.79539 -361.30279 
L 75.855483 -361.30279 
L 77.915576 -361.30279 
L 79.975669 -361.30279 
L 82.035762 -361.30279 
L 84.095854 -361.30279 
L 86.155947 -361.30279 
L 88.21604 -361.30279 
L 90.276133 -361.30279 
L 92.336226 -361.30279 
L 94.396319 -361.30279 
L 96.456412 -361.30279 
L 98.516505 -361.30279 
L 100.576597 -361.30279 
L 102.63669 -361.30279 
L 104.696783 -361.30279 
L 106.756876 -361.30279 
L 108.816969 -361.30279 
L 110.877062 -361.30279 
L 112.937155 -361.30279 
L 114.997247 -361.30279 
L 117.05734 -361.30279 
L 119.117433 -361.30279 
L 121.177526 -361.30279 
L 123.237619 -361.30279 
L 125.297712 -361.30279 
L 127.357805 -361.30279 
L 129.417898 -361.30279 
L 131.47799 -361.30279 
L 133.538083 -361.30279 
L 135.598176 -361.30279 
L 137.658269 -361.30279 
L 139.718362 -361.30279 
L 141.778455 -361.30279 
L 143.838548 -361.30279 
L 145.89864 -361.30279 
L 147.958733 -361.30279 
L 150.018826 -361.30279 
L 152.078919 -361.30279 
L 154.139012 -361.30279 
L 156.199105 -361.30279 
L 158.259198 -361.30279 
L 160.319291 -361.30279 
L 162.379383 -361.30279 
L 164.439476 -361.30279 
L 166.499569 -361.30279 
L 168.559662 -361.30279 
L 170.619755 -361.30279 
L 172.679848 -361.30279 
L 174.739941 -361.30279 
L 176.800033 -361.30279 
L 178.860126 -361.30279 
L 180.920219 -361.30279 
L 182.980312 -361.30279 
L 185.040405 -361.30279 
L 187.100498 -361.30279 
L 189.160591 -361.30279 
L 191.220684 -361.30279 
L 193.280776 -361.30279 
L 195.340869 -361.30279 
L 197.400962 -361.30279 
L 199.461055 -361.30279 
L 201.521148 -361.30279 
L 203.581241 -361.30279 
L 205.641334 -361.30279 
L 207.701426 -361.30279 
L 209.761519 -361.30279 
L 211.821612 -361.30279 
L 213.881705 -361.30279 
L 215.941798 -361.30279 
L 218.001891 -361.30279 
L 220.061984 -361.30279 
L 222.122077 -361.30279 
L 224.182169 -361.30279 
L 226.242262 -361.30279 
L 228.302355 -361.30279 
L 230.362448 -361.30279 
L 232.422541 -361.30279 
L 234.482634 -361.30279 
L 236.542727 -361.30279 
L 238.602819 -361.30279 
L 240.662912 -361.30279 
L 242.723005 -361.30279 
L 244.783098 -361.30279 
L 246.843191 -361.30279 
L 248.903284 -361.30279 
L 250.963377 -361.30279 
L 253.02347 -361.30279 
L 255.083562 -361.30279 
L 257.143655 -361.30279 
L 259.203748 -361.30279 
L 261.263841 -361.30279 
L 263.323934 -361.30279 
L 265.384027 -361.30279 
L 267.44412 -361.30279 
L 269.504212 -361.30279 
L 271.564305 -361.30279 
L 273.624398 -361.30279 
L 275.684491 -361.30279 
L 277.744584 -361.30279 
L 279.804677 -361.30279 
L 281.86477 -361.30279 
L 283.924863 -361.30279 
L 285.984955 -361.30279 
L 288.045048 -361.30279 
L 290.105141 -361.30279 
L 292.165234 -361.30279 
L 294.225327 -361.30279 
L 296.28542 -361.30279 
L 298.345513 -361.30279 
L 300.405605 -361.30279 
L 302.465698 -361.30279 
L 304.525791 -361.30279 
L 306.585884 -361.30279 
L 308.645977 -361.30279 
L 310.70607 -361.30279 
L 312.766163 -361.30279 
L 314.826256 -361.30279 
L 316.886348 -361.30279 
L 318.946441 -361.30279 
L 321.006534 -361.30279 
L 323.066627 -361.30279 
L 323.066627 -361.306847 
L 323.066627 -361.306847 
L 321.006534 -361.309203 
L 318.946441 -361.314816 
L 316.886348 -361.325284 
L 314.826256 -361.342954 
L 312.766163 -361.370696 
L 310.70607 -361.41147 
L 308.645977 -361.467682 
L 306.585884 -361.540487 
L 304.525791 -361.62929 
L 302.465698 -361.731753 
L 300.405605 -361.844508 
L 298.345513 -361.964533 
L 296.28542 -362.090869 
L 294.225327 -362.226077 
L 292.165234 -362.37684 
L 290.105141 -362.55329 
L 288.045048 -362.767121 
L 285.984955 -363.029043 
L 283.924863 -363.346466 
L 281.86477 -363.722348 
L 279.804677 -364.15575 
L 277.744584 -364.644048 
L 275.684491 -365.186071 
L 273.624398 -365.785071 
L 271.564305 -366.450352 
L 269.504212 -367.196815 
L 267.44412 -368.042186 
L 265.384027 -369.002424 
L 263.323934 -370.086351 
L 261.263841 -371.29116 
L 259.203748 -372.600662 
L 257.143655 -373.987815 
L 255.083562 -375.421769 
L 253.02347 -376.877565 
L 250.963377 -378.344724 
L 248.903284 -379.830439 
L 246.843191 -381.354935 
L 244.783098 -382.940195 
L 242.723005 -384.596824 
L 240.662912 -386.315143 
L 238.602819 -388.064705 
L 236.542727 -389.802222 
L 234.482634 -391.483927 
L 232.422541 -393.076923 
L 230.362448 -394.565591 
L 228.302355 -395.952407 
L 226.242262 -397.255263 
L 224.182169 -398.503919 
L 222.122077 -399.736755 
L 220.061984 -400.996886 
L 218.001891 -402.325789 
L 215.941798 -403.753707 
L 213.881705 -405.288449 
L 211.821612 -406.906346 
L 209.761519 -408.549455 
L 207.701426 -410.131387 
L 205.641334 -411.551119 
L 203.581241 -412.711241 
L 201.521148 -413.535473 
L 199.461055 -413.980531 
L 197.400962 -414.039321 
L 195.340869 -413.735417 
L 193.280776 -413.111707 
L 191.220684 -412.217892 
L 189.160591 -411.10137 
L 187.100498 -409.803914 
L 185.040405 -408.363355 
L 182.980312 -406.816949 
L 180.920219 -405.20252 
L 178.860126 -403.555274 
L 176.800033 -401.901439 
L 174.739941 -400.252545 
L 172.679848 -398.604648 
L 170.619755 -396.944473 
L 168.559662 -395.260562 
L 166.499569 -393.554268 
L 164.439476 -391.844904 
L 162.379383 -390.165964 
L 160.319291 -388.553811 
L 158.259198 -387.033872 
L 156.199105 -385.610507 
L 154.139012 -384.264749 
L 152.078919 -382.960544 
L 150.018826 -381.656807 
L 147.958733 -380.320824 
L 145.89864 -378.938607 
L 143.838548 -377.519108 
L 141.778455 -376.091309 
L 139.718362 -374.695409 
L 137.658269 -373.37132 
L 135.598176 -372.148533 
L 133.538083 -371.040784 
L 131.47799 -370.046831 
L 129.417898 -369.156021 
L 127.357805 -368.355455 
L 125.297712 -367.635383 
L 123.237619 -366.990812 
L 121.177526 -366.419538 
L 119.117433 -365.918463 
L 117.05734 -365.480645 
L 114.997247 -365.094718 
L 112.937155 -364.746924 
L 110.877062 -364.424633 
L 108.816969 -364.119616 
L 106.756876 -363.829597 
L 104.696783 -363.557525 
L 102.63669 -363.308971 
L 100.576597 -363.088817 
L 98.516505 -362.898533 
L 96.456412 -362.734995 
L 94.396319 -362.591151 
L 92.336226 -362.458112 
L 90.276133 -362.327804 
L 88.21604 -362.195194 
L 86.155947 -362.059389 
L 84.095854 -361.923368 
L 82.035762 -361.792626 
L 79.975669 -361.673309 
L 77.915576 -361.570482 
L 75.855483 -361.487024 
L 73.79539 -361.423311 
L 71.735297 -361.377595 
L 69.675204 -361.346786 
L 67.615112 -361.327313 
L 65.555019 -361.31583 
L 63.494926 -361.309659 
L 61.434833 -361.306976 
z
" id="m1769f03477" style="stroke:#ffffff;stroke-opacity:0.25;"/>
    </defs>
    <g clip-path="url(#pe7e32d5856)">
     <use style="fill:#4c72b0;fill-opacity:0.25;stroke:#ffffff;stroke-opacity:0.25;" x="0" xlink:href="#m1769f03477" y="421.514219"/>
    </g>
   </g>
   <g id="line2d_1">
    <path clip-path="url(#pe7e32d5856)" d="M 61.434833 60.207243 
L 73.79539 60.090908 
L 79.975669 59.84091 
L 96.456412 58.779224 
L 102.63669 58.205248 
L 108.816969 57.394603 
L 114.997247 56.419501 
L 119.117433 55.595755 
L 123.237619 54.523407 
L 127.357805 53.158764 
L 131.47799 51.467387 
L 135.598176 49.365686 
L 139.718362 46.81881 
L 152.078919 38.553675 
L 156.199105 35.903712 
L 160.319291 32.960408 
L 164.439476 29.669315 
L 174.739941 21.261673 
L 185.040405 13.150864 
L 187.100498 11.710304 
L 189.160591 10.412848 
L 191.220684 9.296327 
L 193.280776 8.402511 
L 195.340869 7.778802 
L 197.400962 7.474898 
L 199.461055 7.533687 
L 201.521148 7.978746 
L 203.581241 8.802978 
L 205.641334 9.963099 
L 207.701426 11.382832 
L 218.001891 19.188429 
L 222.122077 21.777464 
L 228.302355 25.561812 
L 232.422541 28.437295 
L 236.542727 31.711997 
L 244.783098 38.574023 
L 248.903284 41.68378 
L 257.143655 47.526403 
L 261.263841 50.223059 
L 265.384027 52.511795 
L 269.504212 54.317404 
L 273.624398 55.729148 
L 277.744584 56.870171 
L 281.86477 57.791871 
L 285.984955 58.485176 
L 290.105141 58.960929 
L 296.28542 59.42335 
L 306.585884 59.973732 
L 314.826256 60.171265 
L 323.066627 60.207372 
L 323.066627 60.207372 
" style="fill:none;stroke:#4c72b0;stroke-linecap:round;stroke-width:1.5;"/>
   </g>
   <g id="patch_6">
    <path d="M 45.716094 60.211429 
L 348.625237 60.211429 
" style="fill:none;stroke:#262626;stroke-linecap:square;stroke-linejoin:miter;stroke-width:1.25;"/>
   </g>
  </g>
  <g id="axes_3">
   <g id="patch_7">
    <path d="M 359.070379 378.28 
L 411.296094 378.28 
L 411.296094 70.813714 
L 359.070379 70.813714 
z
" style="fill:#ffffff;"/>
   </g>
   <g id="matplotlib.axis_5">
    <g id="xtick_11"/>
    <g id="xtick_12"/>
    <g id="xtick_13"/>
    <g id="xtick_14"/>
    <g id="xtick_15"/>
    <g id="xtick_16"/>
    <g id="xtick_17"/>
   </g>
   <g id="matplotlib.axis_6">
    <g id="ytick_18"/>
    <g id="ytick_19"/>
    <g id="ytick_20"/>
    <g id="ytick_21"/>
    <g id="ytick_22"/>
    <g id="ytick_23"/>
    <g id="ytick_24"/>
   </g>
   <g id="PolyCollection_2">
    <defs>
     <path d="M 359.072497 -52.82858 
L 359.070379 -52.82858 
L 359.070379 -55.109067 
L 359.070379 -57.389553 
L 359.070379 -59.670039 
L 359.070379 -61.950525 
L 359.070379 -64.231011 
L 359.070379 -66.511497 
L 359.070379 -68.791984 
L 359.070379 -71.07247 
L 359.070379 -73.352956 
L 359.070379 -75.633442 
L 359.070379 -77.913928 
L 359.070379 -80.194414 
L 359.070379 -82.474901 
L 359.070379 -84.755387 
L 359.070379 -87.035873 
L 359.070379 -89.316359 
L 359.070379 -91.596845 
L 359.070379 -93.877331 
L 359.070379 -96.157818 
L 359.070379 -98.438304 
L 359.070379 -100.71879 
L 359.070379 -102.999276 
L 359.070379 -105.279762 
L 359.070379 -107.560248 
L 359.070379 -109.840735 
L 359.070379 -112.121221 
L 359.070379 -114.401707 
L 359.070379 -116.682193 
L 359.070379 -118.962679 
L 359.070379 -121.243165 
L 359.070379 -123.523652 
L 359.070379 -125.804138 
L 359.070379 -128.084624 
L 359.070379 -130.36511 
L 359.070379 -132.645596 
L 359.070379 -134.926082 
L 359.070379 -137.206568 
L 359.070379 -139.487055 
L 359.070379 -141.767541 
L 359.070379 -144.048027 
L 359.070379 -146.328513 
L 359.070379 -148.608999 
L 359.070379 -150.889485 
L 359.070379 -153.169972 
L 359.070379 -155.450458 
L 359.070379 -157.730944 
L 359.070379 -160.01143 
L 359.070379 -162.291916 
L 359.070379 -164.572402 
L 359.070379 -166.852889 
L 359.070379 -169.133375 
L 359.070379 -171.413861 
L 359.070379 -173.694347 
L 359.070379 -175.974833 
L 359.070379 -178.255319 
L 359.070379 -180.535806 
L 359.070379 -182.816292 
L 359.070379 -185.096778 
L 359.070379 -187.377264 
L 359.070379 -189.65775 
L 359.070379 -191.938236 
L 359.070379 -194.218723 
L 359.070379 -196.499209 
L 359.070379 -198.779695 
L 359.070379 -201.060181 
L 359.070379 -203.340667 
L 359.070379 -205.621153 
L 359.070379 -207.90164 
L 359.070379 -210.182126 
L 359.070379 -212.462612 
L 359.070379 -214.743098 
L 359.070379 -217.023584 
L 359.070379 -219.30407 
L 359.070379 -221.584557 
L 359.070379 -223.865043 
L 359.070379 -226.145529 
L 359.070379 -228.426015 
L 359.070379 -230.706501 
L 359.070379 -232.986987 
L 359.070379 -235.267474 
L 359.070379 -237.54796 
L 359.070379 -239.828446 
L 359.070379 -242.108932 
L 359.070379 -244.389418 
L 359.070379 -246.669904 
L 359.070379 -248.95039 
L 359.070379 -251.230877 
L 359.070379 -253.511363 
L 359.070379 -255.791849 
L 359.070379 -258.072335 
L 359.070379 -260.352821 
L 359.070379 -262.633307 
L 359.070379 -264.913794 
L 359.070379 -267.19428 
L 359.070379 -269.474766 
L 359.070379 -271.755252 
L 359.070379 -274.035738 
L 359.070379 -276.316224 
L 359.070379 -278.596711 
L 359.070379 -280.877197 
L 359.070379 -283.157683 
L 359.070379 -285.438169 
L 359.070379 -287.718655 
L 359.070379 -289.999141 
L 359.070379 -292.279628 
L 359.070379 -294.560114 
L 359.070379 -296.8406 
L 359.070379 -299.121086 
L 359.070379 -301.401572 
L 359.070379 -303.682058 
L 359.070379 -305.962545 
L 359.070379 -308.243031 
L 359.070379 -310.523517 
L 359.070379 -312.804003 
L 359.070379 -315.084489 
L 359.070379 -317.364975 
L 359.070379 -319.645462 
L 359.070379 -321.925948 
L 359.070379 -324.206434 
L 359.070379 -326.48692 
L 359.070379 -328.767406 
L 359.070379 -331.047892 
L 359.070379 -333.328379 
L 359.070379 -335.608865 
L 359.070379 -337.889351 
L 359.070379 -340.169837 
L 359.070379 -342.450323 
L 359.072398 -342.450323 
L 359.072398 -342.450323 
L 359.073704 -340.169837 
L 359.076885 -337.889351 
L 359.082934 -335.608865 
L 359.093305 -333.328379 
L 359.109775 -331.047892 
L 359.134159 -328.767406 
L 359.167922 -326.48692 
L 359.211775 -324.206434 
L 359.265408 -321.925948 
L 359.327559 -319.645462 
L 359.396518 -317.364975 
L 359.471082 -315.084489 
L 359.551733 -312.804003 
L 359.64155 -310.523517 
L 359.746271 -308.243031 
L 359.873034 -305.962545 
L 360.027887 -303.682058 
L 360.212878 -301.401572 
L 360.42402 -299.121086 
L 360.651337 -296.8406 
L 360.881415 -294.560114 
L 361.10177 -292.279628 
L 361.305532 -289.999141 
L 361.494742 -287.718655 
L 361.681089 -285.438169 
L 361.883886 -283.157683 
L 362.126096 -280.877197 
L 362.429947 -278.596711 
L 362.813814 -276.316224 
L 363.291419 -274.035738 
L 363.873227 -271.755252 
L 364.568717 -269.474766 
L 365.387715 -267.19428 
L 366.339647 -264.913794 
L 367.430887 -262.633307 
L 368.661542 -260.352821 
L 370.023241 -258.072335 
L 371.498797 -255.791849 
L 373.063812 -253.511363 
L 374.689891 -251.230877 
L 376.349203 -248.95039 
L 378.019963 -246.669904 
L 379.691774 -244.389418 
L 381.368946 -242.108932 
L 383.069681 -239.828446 
L 384.82006 -237.54796 
L 386.643779 -235.267474 
L 388.550708 -232.986987 
L 390.528405 -230.706501 
L 392.540035 -228.426015 
L 394.52996 -226.145529 
L 396.435354 -223.865043 
L 398.199975 -221.584557 
L 399.785614 -219.30407 
L 401.178016 -217.023584 
L 402.386567 -214.743098 
L 403.439182 -212.462612 
L 404.374515 -210.182126 
L 405.232733 -207.90164 
L 406.044971 -205.621153 
L 406.821761 -203.340667 
L 407.542759 -201.060181 
L 408.152332 -198.779695 
L 408.565832 -196.499209 
L 408.688129 -194.218723 
L 408.440473 -191.938236 
L 407.786962 -189.65775 
L 406.750707 -187.377264 
L 405.412871 -185.096778 
L 403.893852 -182.816292 
L 402.322293 -180.535806 
L 400.802047 -178.255319 
L 399.388051 -175.974833 
L 398.078815 -173.694347 
L 396.827002 -171.413861 
L 395.562763 -169.133375 
L 394.220201 -166.852889 
L 392.757344 -164.572402 
L 391.163938 -162.291916 
L 389.456881 -160.01143 
L 387.667734 -157.730944 
L 385.828755 -155.450458 
L 383.963369 -153.169972 
L 382.084345 -150.889485 
L 380.199354 -148.608999 
L 378.320146 -146.328513 
L 376.469832 -144.048027 
L 374.683835 -141.767541 
L 373.003531 -139.487055 
L 371.465655 -137.206568 
L 370.092667 -134.926082 
L 368.88836 -132.645596 
L 367.839906 -130.36511 
L 366.924452 -128.084624 
L 366.116911 -125.804138 
L 365.396049 -123.523652 
L 364.747379 -121.243165 
L 364.162828 -118.962679 
L 363.638131 -116.682193 
L 363.169463 -114.401707 
L 362.750927 -112.121221 
L 362.374005 -109.840735 
L 362.029063 -107.560248 
L 361.707884 -105.279762 
L 361.405682 -102.999276 
L 361.121474 -100.71879 
L 360.856788 -98.438304 
L 360.613692 -96.157818 
L 360.393346 -93.877331 
L 360.195659 -91.596845 
L 360.01977 -89.316359 
L 359.8646 -87.035873 
L 359.728964 -84.755387 
L 359.611323 -82.474901 
L 359.509611 -80.194414 
L 359.421489 -77.913928 
L 359.344924 -75.633442 
L 359.278697 -73.352956 
L 359.222474 -71.07247 
L 359.176392 -68.791984 
L 359.140456 -66.511497 
L 359.114078 -64.231011 
L 359.09599 -61.950525 
L 359.084459 -59.670039 
L 359.077671 -57.389553 
L 359.074057 -55.109067 
L 359.072497 -52.82858 
z
" id="m9e2013029d" style="stroke:#ffffff;stroke-opacity:0.25;"/>
    </defs>
    <g clip-path="url(#pce753b764d)">
     <use style="fill:#4c72b0;fill-opacity:0.25;stroke:#ffffff;stroke-opacity:0.25;" x="0" xlink:href="#m9e2013029d" y="421.514219"/>
    </g>
   </g>
   <g id="line2d_2">
    <path clip-path="url(#pce753b764d)" d="M 359.072497 368.685638 
L 359.176392 352.722235 
L 359.509611 341.319804 
L 360.01977 332.19786 
L 360.613692 325.356401 
L 361.405682 318.514943 
L 362.374005 311.673484 
L 363.169463 307.112512 
L 364.162828 302.55154 
L 365.396049 297.990567 
L 366.924452 293.429595 
L 367.839906 291.149109 
L 368.88836 288.868623 
L 370.092667 286.588136 
L 371.465655 284.30765 
L 373.003531 282.027164 
L 376.469832 277.466192 
L 391.163938 259.222302 
L 394.220201 254.66133 
L 396.827002 250.100358 
L 399.388051 245.539385 
L 402.322293 240.978413 
L 405.412871 236.417441 
L 406.750707 234.136955 
L 407.786962 231.856468 
L 408.440473 229.575982 
L 408.688129 227.295496 
L 408.565832 225.01501 
L 408.152332 222.734524 
L 406.821761 218.173552 
L 404.374515 211.332093 
L 402.386567 206.771121 
L 401.178016 204.490635 
L 399.785614 202.210148 
L 398.199975 199.929662 
L 396.435354 197.649176 
L 392.540035 193.088204 
L 386.643779 186.246745 
L 383.069681 181.685773 
L 374.689891 170.283342 
L 371.498797 165.72237 
L 368.661542 161.161397 
L 367.430887 158.880911 
L 366.339647 156.600425 
L 365.387715 154.319939 
L 364.568717 152.039453 
L 363.291419 147.47848 
L 362.429947 142.917508 
L 361.883886 138.356536 
L 359.746271 113.271188 
L 359.327559 101.868757 
L 359.109775 90.466326 
L 359.072398 79.063896 
L 359.072398 79.063896 
" style="fill:none;stroke:#4c72b0;stroke-linecap:round;stroke-width:1.5;"/>
   </g>
   <g id="patch_8">
    <path d="M 359.070379 378.28 
L 359.070379 70.813714 
" style="fill:none;stroke:#262626;stroke-linecap:square;stroke-linejoin:miter;stroke-width:1.25;"/>
   </g>
  </g>
 </g>
 <defs>
  <clipPath id="pff70ccb067">
   <rect height="307.466286" width="302.909143" x="45.716094" y="70.813714"/>
  </clipPath>
  <clipPath id="pe7e32d5856">
   <rect height="53.011429" width="302.909143" x="45.716094" y="7.2"/>
  </clipPath>
  <clipPath id="pce753b764d">
   <rect height="307.466286" width="52.225714" x="359.070379" y="70.813714"/>
  </clipPath>
 </defs>
</svg>
