<?xml version="1.0" standalone="no"?><!DOCTYPE svg PUBLIC "-//W3C//DTD SVG 1.1//EN" "http://www.w3.org/Graphics/SVG/1.1/DTD/svg11.dtd"><svg t="1612845635946" class="icon" viewBox="0 0 1024 1024" version="1.1" xmlns="http://www.w3.org/2000/svg" p-id="2160" xmlns:xlink="http://www.w3.org/1999/xlink" width="200" height="200"><defs><style type="text/css"></style></defs><path d="M402.090667 499.712h196.949333s110.592 1.706667 110.592-106.837333V213.333333s16.725333-108.885333-200.704-108.885333C301.056 104.448 314.026667 194.56 314.026667 194.56l0.341333 93.525333h198.314667v27.989334H235.52s-133.12-15.018667-133.12 194.901333S218.453333 713.386667 218.453333 713.386667h69.290667v-97.28s-3.754667-116.394667 114.346667-116.394667z m-2.389334-260.778667c-19.797333 0-35.84-16.042667-35.84-35.498666 0-19.797333 16.042667-35.84 35.498667-35.84 19.797333-0.341333 35.84 15.701333 35.84 35.498666S419.157333 238.933333 399.701333 238.933333z" fill="#387EB8" p-id="2161"></path><path d="M805.546667 310.613333h-69.290667v97.28s3.754667 116.053333-114.346667 116.053334h-196.949333s-110.592-1.706667-110.592 106.837333v179.541333s-16.725333 108.885333 200.704 108.885334c207.872 0 194.901333-90.112 194.901333-90.112l-0.341333-93.525334h-198.314667v-27.989333H788.48s133.12 15.018667 133.12-194.901333c0-209.578667-116.053333-202.069333-116.053333-202.069334z m-181.248 474.453334c19.797333 0 35.84 16.042667 35.84 35.498666 0 19.797333-16.042667 35.84-35.498667 35.84-19.797333 0.341333-35.84-15.701333-35.84-35.498666s16.042667-35.84 35.498667-35.84z" fill="#FFE052" p-id="2162"></path></svg>