<?xml version="1.0" encoding="utf-8" standalone="no"?>
<!DOCTYPE svg PUBLIC "-//W3C//DTD SVG 1.1//EN"
  "http://www.w3.org/Graphics/SVG/1.1/DTD/svg11.dtd">
<!-- Created with matplotlib (https://matplotlib.org/) -->
<svg height="262.689766pt" version="1.1" viewBox="0 0 383.975781 262.689766" width="383.975781pt" xmlns="http://www.w3.org/2000/svg" xmlns:xlink="http://www.w3.org/1999/xlink">
 <defs>
  <style type="text/css">
*{stroke-linecap:butt;stroke-linejoin:round;}
  </style>
 </defs>
 <g id="figure_1">
  <g id="patch_1">
   <path d="M 0 262.689766 
L 383.975781 262.689766 
L 383.975781 0 
L 0 0 
z
" style="fill:#ffffff;"/>
  </g>
  <g id="axes_1">
   <g id="patch_2">
    <path d="M 35.85875 235.429922 
L 370.65875 235.429922 
L 370.65875 12.229922 
L 35.85875 12.229922 
z
" style="fill:#eaeaf2;"/>
   </g>
   <g id="matplotlib.axis_1">
    <g id="xtick_1">
     <g id="line2d_1">
      <path clip-path="url(#pf8f8a8e1ea)" d="M 35.85875 235.429922 
L 35.85875 12.229922 
" style="fill:none;stroke:#ffffff;stroke-linecap:round;"/>
     </g>
     <g id="text_1">
      <!-- 0 -->
      <defs>
       <path d="M 4.15625 35.296875 
Q 4.15625 48 6.765625 55.734375 
Q 9.375 63.484375 14.515625 67.671875 
Q 19.671875 71.875 27.484375 71.875 
Q 33.25 71.875 37.59375 69.546875 
Q 41.9375 67.234375 44.765625 62.859375 
Q 47.609375 58.5 49.21875 52.21875 
Q 50.828125 45.953125 50.828125 35.296875 
Q 50.828125 22.703125 48.234375 14.96875 
Q 45.65625 7.234375 40.5 3 
Q 35.359375 -1.21875 27.484375 -1.21875 
Q 17.140625 -1.21875 11.234375 6.203125 
Q 4.15625 15.140625 4.15625 35.296875 
z
M 13.1875 35.296875 
Q 13.1875 17.671875 17.3125 11.828125 
Q 21.4375 6 27.484375 6 
Q 33.546875 6 37.671875 11.859375 
Q 41.796875 17.71875 41.796875 35.296875 
Q 41.796875 52.984375 37.671875 58.78125 
Q 33.546875 64.59375 27.390625 64.59375 
Q 21.34375 64.59375 17.71875 59.46875 
Q 13.1875 52.9375 13.1875 35.296875 
z
" id="ArialMT-48"/>
      </defs>
      <g style="fill:#262626;" transform="translate(32.800234 253.303516)scale(0.11 -0.11)">
       <use xlink:href="#ArialMT-48"/>
      </g>
     </g>
    </g>
    <g id="xtick_2">
     <g id="line2d_2">
      <path clip-path="url(#pf8f8a8e1ea)" d="M 102.81875 235.429922 
L 102.81875 12.229922 
" style="fill:none;stroke:#ffffff;stroke-linecap:round;"/>
     </g>
     <g id="text_2">
      <!-- 2 -->
      <defs>
       <path d="M 50.34375 8.453125 
L 50.34375 0 
L 3.03125 0 
Q 2.9375 3.171875 4.046875 6.109375 
Q 5.859375 10.9375 9.828125 15.625 
Q 13.8125 20.3125 21.34375 26.46875 
Q 33.015625 36.03125 37.109375 41.625 
Q 41.21875 47.21875 41.21875 52.203125 
Q 41.21875 57.421875 37.46875 61 
Q 33.734375 64.59375 27.734375 64.59375 
Q 21.390625 64.59375 17.578125 60.78125 
Q 13.765625 56.984375 13.71875 50.25 
L 4.6875 51.171875 
Q 5.609375 61.28125 11.65625 66.578125 
Q 17.71875 71.875 27.9375 71.875 
Q 38.234375 71.875 44.234375 66.15625 
Q 50.25 60.453125 50.25 52 
Q 50.25 47.703125 48.484375 43.546875 
Q 46.734375 39.40625 42.65625 34.8125 
Q 38.578125 30.21875 29.109375 22.21875 
Q 21.1875 15.578125 18.9375 13.203125 
Q 16.703125 10.84375 15.234375 8.453125 
z
" id="ArialMT-50"/>
      </defs>
      <g style="fill:#262626;" transform="translate(99.760234 253.303516)scale(0.11 -0.11)">
       <use xlink:href="#ArialMT-50"/>
      </g>
     </g>
    </g>
    <g id="xtick_3">
     <g id="line2d_3">
      <path clip-path="url(#pf8f8a8e1ea)" d="M 169.77875 235.429922 
L 169.77875 12.229922 
" style="fill:none;stroke:#ffffff;stroke-linecap:round;"/>
     </g>
     <g id="text_3">
      <!-- 4 -->
      <defs>
       <path d="M 32.328125 0 
L 32.328125 17.140625 
L 1.265625 17.140625 
L 1.265625 25.203125 
L 33.9375 71.578125 
L 41.109375 71.578125 
L 41.109375 25.203125 
L 50.78125 25.203125 
L 50.78125 17.140625 
L 41.109375 17.140625 
L 41.109375 0 
z
M 32.328125 25.203125 
L 32.328125 57.46875 
L 9.90625 25.203125 
z
" id="ArialMT-52"/>
      </defs>
      <g style="fill:#262626;" transform="translate(166.720234 253.303516)scale(0.11 -0.11)">
       <use xlink:href="#ArialMT-52"/>
      </g>
     </g>
    </g>
    <g id="xtick_4">
     <g id="line2d_4">
      <path clip-path="url(#pf8f8a8e1ea)" d="M 236.73875 235.429922 
L 236.73875 12.229922 
" style="fill:none;stroke:#ffffff;stroke-linecap:round;"/>
     </g>
     <g id="text_4">
      <!-- 6 -->
      <defs>
       <path d="M 49.75 54.046875 
L 41.015625 53.375 
Q 39.84375 58.546875 37.703125 60.890625 
Q 34.125 64.65625 28.90625 64.65625 
Q 24.703125 64.65625 21.53125 62.3125 
Q 17.390625 59.28125 14.984375 53.46875 
Q 12.59375 47.65625 12.5 36.921875 
Q 15.671875 41.75 20.265625 44.09375 
Q 24.859375 46.4375 29.890625 46.4375 
Q 38.671875 46.4375 44.84375 39.96875 
Q 51.03125 33.5 51.03125 23.25 
Q 51.03125 16.5 48.125 10.71875 
Q 45.21875 4.9375 40.140625 1.859375 
Q 35.0625 -1.21875 28.609375 -1.21875 
Q 17.625 -1.21875 10.6875 6.859375 
Q 3.765625 14.9375 3.765625 33.5 
Q 3.765625 54.25 11.421875 63.671875 
Q 18.109375 71.875 29.4375 71.875 
Q 37.890625 71.875 43.28125 67.140625 
Q 48.6875 62.40625 49.75 54.046875 
z
M 13.875 23.1875 
Q 13.875 18.65625 15.796875 14.5 
Q 17.71875 10.359375 21.1875 8.171875 
Q 24.65625 6 28.46875 6 
Q 34.03125 6 38.03125 10.484375 
Q 42.046875 14.984375 42.046875 22.703125 
Q 42.046875 30.125 38.078125 34.390625 
Q 34.125 38.671875 28.125 38.671875 
Q 22.171875 38.671875 18.015625 34.390625 
Q 13.875 30.125 13.875 23.1875 
z
" id="ArialMT-54"/>
      </defs>
      <g style="fill:#262626;" transform="translate(233.680234 253.303516)scale(0.11 -0.11)">
       <use xlink:href="#ArialMT-54"/>
      </g>
     </g>
    </g>
    <g id="xtick_5">
     <g id="line2d_5">
      <path clip-path="url(#pf8f8a8e1ea)" d="M 303.69875 235.429922 
L 303.69875 12.229922 
" style="fill:none;stroke:#ffffff;stroke-linecap:round;"/>
     </g>
     <g id="text_5">
      <!-- 8 -->
      <defs>
       <path d="M 17.671875 38.8125 
Q 12.203125 40.828125 9.5625 44.53125 
Q 6.9375 48.25 6.9375 53.421875 
Q 6.9375 61.234375 12.546875 66.546875 
Q 18.171875 71.875 27.484375 71.875 
Q 36.859375 71.875 42.578125 66.421875 
Q 48.296875 60.984375 48.296875 53.171875 
Q 48.296875 48.1875 45.671875 44.5 
Q 43.0625 40.828125 37.75 38.8125 
Q 44.34375 36.671875 47.78125 31.875 
Q 51.21875 27.09375 51.21875 20.453125 
Q 51.21875 11.28125 44.71875 5.03125 
Q 38.234375 -1.21875 27.640625 -1.21875 
Q 17.046875 -1.21875 10.546875 5.046875 
Q 4.046875 11.328125 4.046875 20.703125 
Q 4.046875 27.6875 7.59375 32.390625 
Q 11.140625 37.109375 17.671875 38.8125 
z
M 15.921875 53.71875 
Q 15.921875 48.640625 19.1875 45.40625 
Q 22.46875 42.1875 27.6875 42.1875 
Q 32.765625 42.1875 36.015625 45.375 
Q 39.265625 48.578125 39.265625 53.21875 
Q 39.265625 58.0625 35.90625 61.359375 
Q 32.5625 64.65625 27.59375 64.65625 
Q 22.5625 64.65625 19.234375 61.421875 
Q 15.921875 58.203125 15.921875 53.71875 
z
M 13.09375 20.65625 
Q 13.09375 16.890625 14.875 13.375 
Q 16.65625 9.859375 20.171875 7.921875 
Q 23.6875 6 27.734375 6 
Q 34.03125 6 38.125 10.046875 
Q 42.234375 14.109375 42.234375 20.359375 
Q 42.234375 26.703125 38.015625 30.859375 
Q 33.796875 35.015625 27.4375 35.015625 
Q 21.234375 35.015625 17.15625 30.90625 
Q 13.09375 26.8125 13.09375 20.65625 
z
" id="ArialMT-56"/>
      </defs>
      <g style="fill:#262626;" transform="translate(300.640234 253.303516)scale(0.11 -0.11)">
       <use xlink:href="#ArialMT-56"/>
      </g>
     </g>
    </g>
    <g id="xtick_6">
     <g id="line2d_6">
      <path clip-path="url(#pf8f8a8e1ea)" d="M 370.65875 235.429922 
L 370.65875 12.229922 
" style="fill:none;stroke:#ffffff;stroke-linecap:round;"/>
     </g>
     <g id="text_6">
      <!-- 10 -->
      <defs>
       <path d="M 37.25 0 
L 28.46875 0 
L 28.46875 56 
Q 25.296875 52.984375 20.140625 49.953125 
Q 14.984375 46.921875 10.890625 45.40625 
L 10.890625 53.90625 
Q 18.265625 57.375 23.78125 62.296875 
Q 29.296875 67.234375 31.59375 71.875 
L 37.25 71.875 
z
" id="ArialMT-49"/>
      </defs>
      <g style="fill:#262626;" transform="translate(364.541719 253.303516)scale(0.11 -0.11)">
       <use xlink:href="#ArialMT-49"/>
       <use x="55.615234" xlink:href="#ArialMT-48"/>
      </g>
     </g>
    </g>
   </g>
   <g id="matplotlib.axis_2">
    <g id="ytick_1">
     <g id="line2d_7">
      <path clip-path="url(#pf8f8a8e1ea)" d="M 35.85875 235.429922 
L 370.65875 235.429922 
" style="fill:none;stroke:#ffffff;stroke-linecap:round;"/>
     </g>
     <g id="text_7">
      <!-- −50 -->
      <defs>
       <path d="M 52.828125 31.203125 
L 5.5625 31.203125 
L 5.5625 39.40625 
L 52.828125 39.40625 
z
" id="ArialMT-8722"/>
       <path d="M 4.15625 18.75 
L 13.375 19.53125 
Q 14.40625 12.796875 18.140625 9.390625 
Q 21.875 6 27.15625 6 
Q 33.5 6 37.890625 10.78125 
Q 42.28125 15.578125 42.28125 23.484375 
Q 42.28125 31 38.0625 35.34375 
Q 33.84375 39.703125 27 39.703125 
Q 22.75 39.703125 19.328125 37.765625 
Q 15.921875 35.84375 13.96875 32.765625 
L 5.71875 33.84375 
L 12.640625 70.609375 
L 48.25 70.609375 
L 48.25 62.203125 
L 19.671875 62.203125 
L 15.828125 42.96875 
Q 22.265625 47.46875 29.34375 47.46875 
Q 38.71875 47.46875 45.15625 40.96875 
Q 51.609375 34.46875 51.609375 24.265625 
Q 51.609375 14.546875 45.953125 7.46875 
Q 39.0625 -1.21875 27.15625 -1.21875 
Q 17.390625 -1.21875 11.203125 4.25 
Q 5.03125 9.71875 4.15625 18.75 
z
" id="ArialMT-53"/>
      </defs>
      <g style="fill:#262626;" transform="translate(7.2 238.273594)scale(0.11 -0.11)">
       <use xlink:href="#ArialMT-8722"/>
       <use x="58.398438" xlink:href="#ArialMT-53"/>
       <use x="114.013672" xlink:href="#ArialMT-48"/>
      </g>
     </g>
    </g>
    <g id="ytick_2">
     <g id="line2d_8">
      <path clip-path="url(#pf8f8a8e1ea)" d="M 35.85875 210.629922 
L 370.65875 210.629922 
" style="fill:none;stroke:#ffffff;stroke-linecap:round;"/>
     </g>
     <g id="text_8">
      <!-- −40 -->
      <g style="fill:#262626;" transform="translate(7.2 213.473594)scale(0.11 -0.11)">
       <use xlink:href="#ArialMT-8722"/>
       <use x="58.398438" xlink:href="#ArialMT-52"/>
       <use x="114.013672" xlink:href="#ArialMT-48"/>
      </g>
     </g>
    </g>
    <g id="ytick_3">
     <g id="line2d_9">
      <path clip-path="url(#pf8f8a8e1ea)" d="M 35.85875 185.829922 
L 370.65875 185.829922 
" style="fill:none;stroke:#ffffff;stroke-linecap:round;"/>
     </g>
     <g id="text_9">
      <!-- −30 -->
      <defs>
       <path d="M 4.203125 18.890625 
L 12.984375 20.0625 
Q 14.5 12.59375 18.140625 9.296875 
Q 21.78125 6 27 6 
Q 33.203125 6 37.46875 10.296875 
Q 41.75 14.59375 41.75 20.953125 
Q 41.75 27 37.796875 30.921875 
Q 33.84375 34.859375 27.734375 34.859375 
Q 25.25 34.859375 21.53125 33.890625 
L 22.515625 41.609375 
Q 23.390625 41.5 23.921875 41.5 
Q 29.546875 41.5 34.03125 44.421875 
Q 38.53125 47.359375 38.53125 53.46875 
Q 38.53125 58.296875 35.25 61.46875 
Q 31.984375 64.65625 26.8125 64.65625 
Q 21.6875 64.65625 18.265625 61.421875 
Q 14.84375 58.203125 13.875 51.765625 
L 5.078125 53.328125 
Q 6.6875 62.15625 12.390625 67.015625 
Q 18.109375 71.875 26.609375 71.875 
Q 32.46875 71.875 37.390625 69.359375 
Q 42.328125 66.84375 44.9375 62.5 
Q 47.5625 58.15625 47.5625 53.265625 
Q 47.5625 48.640625 45.0625 44.828125 
Q 42.578125 41.015625 37.703125 38.765625 
Q 44.046875 37.3125 47.5625 32.6875 
Q 51.078125 28.078125 51.078125 21.140625 
Q 51.078125 11.765625 44.234375 5.25 
Q 37.40625 -1.265625 26.953125 -1.265625 
Q 17.53125 -1.265625 11.296875 4.34375 
Q 5.078125 9.96875 4.203125 18.890625 
z
" id="ArialMT-51"/>
      </defs>
      <g style="fill:#262626;" transform="translate(7.2 188.673594)scale(0.11 -0.11)">
       <use xlink:href="#ArialMT-8722"/>
       <use x="58.398438" xlink:href="#ArialMT-51"/>
       <use x="114.013672" xlink:href="#ArialMT-48"/>
      </g>
     </g>
    </g>
    <g id="ytick_4">
     <g id="line2d_10">
      <path clip-path="url(#pf8f8a8e1ea)" d="M 35.85875 161.029922 
L 370.65875 161.029922 
" style="fill:none;stroke:#ffffff;stroke-linecap:round;"/>
     </g>
     <g id="text_10">
      <!-- −20 -->
      <g style="fill:#262626;" transform="translate(7.2 163.873594)scale(0.11 -0.11)">
       <use xlink:href="#ArialMT-8722"/>
       <use x="58.398438" xlink:href="#ArialMT-50"/>
       <use x="114.013672" xlink:href="#ArialMT-48"/>
      </g>
     </g>
    </g>
    <g id="ytick_5">
     <g id="line2d_11">
      <path clip-path="url(#pf8f8a8e1ea)" d="M 35.85875 136.229922 
L 370.65875 136.229922 
" style="fill:none;stroke:#ffffff;stroke-linecap:round;"/>
     </g>
     <g id="text_11">
      <!-- −10 -->
      <g style="fill:#262626;" transform="translate(7.2 139.073594)scale(0.11 -0.11)">
       <use xlink:href="#ArialMT-8722"/>
       <use x="58.398438" xlink:href="#ArialMT-49"/>
       <use x="114.013672" xlink:href="#ArialMT-48"/>
      </g>
     </g>
    </g>
    <g id="ytick_6">
     <g id="line2d_12">
      <path clip-path="url(#pf8f8a8e1ea)" d="M 35.85875 111.429922 
L 370.65875 111.429922 
" style="fill:none;stroke:#ffffff;stroke-linecap:round;"/>
     </g>
     <g id="text_12">
      <!-- 0 -->
      <g style="fill:#262626;" transform="translate(19.741719 114.273594)scale(0.11 -0.11)">
       <use xlink:href="#ArialMT-48"/>
      </g>
     </g>
    </g>
    <g id="ytick_7">
     <g id="line2d_13">
      <path clip-path="url(#pf8f8a8e1ea)" d="M 35.85875 86.629922 
L 370.65875 86.629922 
" style="fill:none;stroke:#ffffff;stroke-linecap:round;"/>
     </g>
     <g id="text_13">
      <!-- 10 -->
      <g style="fill:#262626;" transform="translate(13.624688 89.473594)scale(0.11 -0.11)">
       <use xlink:href="#ArialMT-49"/>
       <use x="55.615234" xlink:href="#ArialMT-48"/>
      </g>
     </g>
    </g>
    <g id="ytick_8">
     <g id="line2d_14">
      <path clip-path="url(#pf8f8a8e1ea)" d="M 35.85875 61.829922 
L 370.65875 61.829922 
" style="fill:none;stroke:#ffffff;stroke-linecap:round;"/>
     </g>
     <g id="text_14">
      <!-- 20 -->
      <g style="fill:#262626;" transform="translate(13.624688 64.673594)scale(0.11 -0.11)">
       <use xlink:href="#ArialMT-50"/>
       <use x="55.615234" xlink:href="#ArialMT-48"/>
      </g>
     </g>
    </g>
    <g id="ytick_9">
     <g id="line2d_15">
      <path clip-path="url(#pf8f8a8e1ea)" d="M 35.85875 37.029922 
L 370.65875 37.029922 
" style="fill:none;stroke:#ffffff;stroke-linecap:round;"/>
     </g>
     <g id="text_15">
      <!-- 30 -->
      <g style="fill:#262626;" transform="translate(13.624688 39.873594)scale(0.11 -0.11)">
       <use xlink:href="#ArialMT-51"/>
       <use x="55.615234" xlink:href="#ArialMT-48"/>
      </g>
     </g>
    </g>
    <g id="ytick_10">
     <g id="line2d_16">
      <path clip-path="url(#pf8f8a8e1ea)" d="M 35.85875 12.229922 
L 370.65875 12.229922 
" style="fill:none;stroke:#ffffff;stroke-linecap:round;"/>
     </g>
     <g id="text_16">
      <!-- 40 -->
      <g style="fill:#262626;" transform="translate(13.624688 15.073594)scale(0.11 -0.11)">
       <use xlink:href="#ArialMT-52"/>
       <use x="55.615234" xlink:href="#ArialMT-48"/>
      </g>
     </g>
    </g>
   </g>
   <g id="line2d_17">
    <path clip-path="url(#pf8f8a8e1ea)" d="M 35.85875 107.055072 
L 36.529692 104.698853 
L 37.200634 102.811479 
L 37.871576 102.035071 
L 38.542518 96.40608 
L 39.213459 96.02181 
L 39.884401 92.970689 
L 41.226285 101.204706 
L 41.897227 101.274598 
L 42.568169 102.9423 
L 43.239111 106.985192 
L 43.910053 104.159478 
L 44.580994 104.932128 
L 45.251936 101.241263 
L 45.922878 102.241142 
L 46.59382 102.215102 
L 47.264762 105.365905 
L 47.935704 100.597008 
L 48.606646 101.261657 
L 49.277588 100.328121 
L 49.94853 101.407302 
L 50.619471 103.079647 
L 51.290413 102.097551 
L 51.961355 96.187351 
L 52.632297 96.356591 
L 54.645123 88.261656 
L 55.316065 90.826578 
L 55.987007 91.704483 
L 56.657948 94.443354 
L 57.32889 94.540775 
L 57.999832 89.17595 
L 58.670774 87.588424 
L 59.341716 85.33118 
L 60.012658 85.373391 
L 60.6836 86.523109 
L 61.354542 88.004453 
L 62.025483 90.871785 
L 62.696425 92.452629 
L 63.367367 89.594847 
L 64.038309 89.242803 
L 64.709251 93.16849 
L 65.380193 97.970464 
L 66.051135 96.980829 
L 66.722077 95.756349 
L 67.393019 97.472633 
L 68.06396 95.761884 
L 68.734902 96.099039 
L 70.747728 105.442715 
L 71.41867 105.595548 
L 72.089612 108.465789 
L 72.760554 106.612762 
L 73.431495 110.967371 
L 74.102437 112.673208 
L 74.773379 111.238475 
L 75.444321 112.856163 
L 76.115263 111.123989 
L 76.786205 111.59681 
L 77.457147 109.509565 
L 78.128089 110.022686 
L 78.799031 109.926882 
L 79.469972 108.520002 
L 80.811856 104.491026 
L 81.482798 104.949959 
L 82.15374 100.652811 
L 84.166566 93.853854 
L 85.508449 89.696388 
L 86.179391 92.311867 
L 87.521275 94.56384 
L 88.192217 100.239618 
L 88.863159 95.927213 
L 89.534101 94.014127 
L 90.205043 90.261073 
L 90.875984 87.532368 
L 91.546926 90.057112 
L 92.217868 90.918789 
L 92.88881 88.698544 
L 93.559752 87.461792 
L 94.230694 91.631213 
L 94.901636 97.507789 
L 95.572578 100.681418 
L 96.24352 100.151987 
L 97.585403 95.140737 
L 98.256345 98.483592 
L 98.927287 100.291623 
L 99.598229 99.166244 
L 100.269171 101.164197 
L 100.940113 103.990908 
L 101.611055 104.964032 
L 102.281996 104.091618 
L 102.952938 107.936682 
L 103.62388 108.210696 
L 104.294822 106.709998 
L 104.965764 103.520758 
L 105.636706 104.451123 
L 106.307648 106.155624 
L 106.97859 108.432276 
L 107.649532 105.86694 
L 108.320473 107.35657 
L 108.991415 106.797061 
L 109.662357 109.110258 
L 110.333299 109.168348 
L 111.004241 113.993691 
L 111.675183 110.464692 
L 112.346125 112.092722 
L 113.017067 111.272892 
L 113.688009 112.13159 
L 114.35895 114.08749 
L 115.700834 107.657196 
L 116.371776 108.616636 
L 117.042718 110.929953 
L 117.71366 112.188596 
L 118.384602 112.447368 
L 119.055544 114.34631 
L 120.397427 110.767012 
L 121.068369 108.973722 
L 121.739311 104.386736 
L 122.410253 105.292073 
L 123.081195 101.59847 
L 123.752137 100.286438 
L 124.423079 102.511992 
L 125.094021 103.565157 
L 125.764962 101.231682 
L 126.435904 102.552257 
L 127.106846 104.208184 
L 127.777788 106.285626 
L 128.44873 102.885573 
L 129.119672 102.757667 
L 129.790614 102.163502 
L 130.461556 100.289266 
L 131.132497 101.152211 
L 131.803439 102.479681 
L 132.474381 101.915747 
L 133.145323 99.233935 
L 133.816265 99.785678 
L 134.487207 99.637139 
L 135.158149 98.964637 
L 136.500033 106.116095 
L 137.170974 107.409613 
L 137.841916 104.854126 
L 138.512858 103.979141 
L 139.1838 103.867208 
L 139.854742 99.917137 
L 140.525684 102.41408 
L 142.53851 98.651181 
L 143.209451 99.557748 
L 143.880393 99.527413 
L 144.551335 98.96797 
L 145.222277 99.324047 
L 145.893219 101.64999 
L 146.564161 100.556229 
L 147.235103 101.048258 
L 147.906045 102.095599 
L 148.576986 102.217923 
L 149.247928 104.17842 
L 149.91887 101.65957 
L 150.589812 104.252471 
L 151.260754 104.765694 
L 151.931696 103.767182 
L 152.602638 100.212468 
L 153.27358 101.997921 
L 153.944522 105.341985 
L 154.615463 104.790276 
L 155.286405 104.085176 
L 155.957347 103.868098 
L 156.628289 104.863317 
L 157.299231 107.450278 
L 157.970173 111.51452 
L 158.641115 110.65106 
L 159.312057 112.055831 
L 159.982998 112.209723 
L 160.65394 112.626894 
L 161.324882 115.143663 
L 161.995824 115.860395 
L 162.666766 116.178436 
L 163.337708 119.851926 
L 164.00865 120.272926 
L 164.679592 119.760334 
L 165.350534 115.672044 
L 166.021475 113.60707 
L 166.692417 113.128767 
L 167.363359 112.08489 
L 168.034301 112.830077 
L 168.705243 110.449159 
L 169.376185 106.995713 
L 170.047127 109.21871 
L 170.718069 107.058725 
L 171.389011 106.583927 
L 172.059952 109.547494 
L 172.730894 109.949796 
L 174.072778 104.990655 
L 174.74372 103.665836 
L 176.085604 105.234025 
L 176.756546 104.907721 
L 177.427487 108.832308 
L 178.098429 104.819533 
L 178.769371 108.087472 
L 179.440313 109.96102 
L 180.111255 108.715246 
L 180.782197 108.201214 
L 181.453139 107.409023 
L 182.124081 106.137189 
L 182.795023 108.077459 
L 183.465964 108.883298 
L 184.136906 105.637799 
L 184.807848 105.377629 
L 185.47879 107.789188 
L 186.149732 106.37941 
L 186.820674 108.660144 
L 187.491616 109.682578 
L 188.162558 111.599052 
L 188.833499 110.464924 
L 189.504441 111.732021 
L 190.175383 109.152607 
L 190.846325 109.962479 
L 191.517267 109.5789 
L 192.188209 107.672349 
L 192.859151 108.863349 
L 193.530093 109.161957 
L 194.201035 105.043651 
L 194.871976 102.319858 
L 195.542918 105.071362 
L 196.21386 106.26238 
L 196.884802 105.896743 
L 197.555744 113.323382 
L 198.226686 112.484583 
L 198.897628 115.889729 
L 199.56857 115.610586 
L 200.239512 113.412087 
L 200.910453 114.723684 
L 201.581395 117.708948 
L 202.252337 111.061132 
L 202.923279 116.413142 
L 203.594221 116.380307 
L 204.265163 116.135612 
L 204.936105 119.813163 
L 206.277988 119.667395 
L 207.619872 127.612902 
L 208.290814 125.43862 
L 208.961756 126.506166 
L 209.632698 125.97895 
L 210.30364 122.041301 
L 210.974582 122.153182 
L 211.645524 126.137153 
L 215.000233 138.67499 
L 215.671175 139.667855 
L 217.013059 143.148589 
L 217.684001 143.604304 
L 218.354942 142.506045 
L 219.025884 143.82539 
L 219.696826 142.823728 
L 221.03871 137.518364 
L 221.709652 141.581654 
L 222.380594 141.534727 
L 223.051536 140.581605 
L 223.722477 140.332164 
L 224.393419 139.706382 
L 225.064361 134.366645 
L 225.735303 134.270151 
L 226.406245 136.733687 
L 227.077187 134.99983 
L 227.748129 135.255797 
L 228.419071 131.383824 
L 229.090013 130.241054 
L 229.760954 129.889374 
L 230.431896 132.327507 
L 231.102838 137.588024 
L 231.77378 135.271259 
L 232.444722 132.097325 
L 233.786606 131.084359 
L 234.457548 128.347198 
L 235.128489 132.380476 
L 235.799431 132.34638 
L 236.470373 134.968915 
L 237.141315 132.94033 
L 237.812257 137.067479 
L 238.483199 134.664993 
L 239.154141 137.889853 
L 239.825083 140.178455 
L 240.496025 140.423996 
L 241.166966 139.088938 
L 241.837908 141.169979 
L 242.50885 140.699517 
L 243.179792 140.630666 
L 243.850734 142.468016 
L 244.521676 141.09378 
L 245.192618 142.906346 
L 245.86356 140.539956 
L 246.534502 142.603777 
L 247.205443 146.877383 
L 247.876385 142.696618 
L 248.547327 143.050484 
L 249.218269 144.265002 
L 250.560153 137.206074 
L 251.231095 138.046006 
L 251.902037 139.115125 
L 252.572978 136.984546 
L 253.24392 136.882662 
L 253.914862 139.305363 
L 254.585804 138.269218 
L 255.256746 137.775724 
L 255.927688 137.699968 
L 256.59863 138.52777 
L 257.269572 140.484743 
L 257.940514 139.448466 
L 258.611455 136.186924 
L 259.282397 139.01884 
L 259.953339 139.219253 
L 260.624281 138.298745 
L 261.295223 136.540773 
L 261.966165 136.922873 
L 262.637107 136.857781 
L 263.308049 133.001098 
L 263.97899 136.016968 
L 264.649932 137.195402 
L 265.320874 139.394925 
L 265.991816 138.881026 
L 266.662758 142.179158 
L 267.3337 138.491937 
L 268.004642 138.798588 
L 268.675584 141.310018 
L 269.346526 136.562728 
L 270.017467 133.882979 
L 270.688409 133.884014 
L 271.359351 132.143591 
L 272.030293 132.301471 
L 272.701235 133.917579 
L 273.372177 136.899717 
L 274.043119 138.845742 
L 274.714061 137.742684 
L 275.385003 139.576385 
L 276.055944 138.844597 
L 276.726886 138.686134 
L 277.397828 140.855297 
L 278.06877 141.685159 
L 278.739712 140.752859 
L 279.410654 141.119 
L 280.081596 143.629893 
L 280.752538 143.65751 
L 281.423479 145.197795 
L 282.094421 142.473312 
L 282.765363 143.022817 
L 283.436305 145.519083 
L 284.107247 141.997821 
L 284.778189 139.546984 
L 285.449131 144.132828 
L 286.120073 145.582079 
L 286.791015 150.590538 
L 287.461956 149.114194 
L 288.132898 149.910916 
L 288.80384 153.687381 
L 289.474782 152.974983 
L 290.145724 151.743377 
L 291.487608 156.770861 
L 292.15855 155.921641 
L 292.829491 159.301735 
L 293.500433 158.157292 
L 294.171375 156.255155 
L 294.842317 156.37936 
L 295.513259 161.199133 
L 296.184201 159.918195 
L 296.855143 159.307563 
L 297.526085 157.943917 
L 298.867968 152.915627 
L 299.53891 151.903602 
L 300.209852 153.522451 
L 300.880794 149.808117 
L 302.222678 152.39035 
L 302.89362 153.025807 
L 303.564562 154.454887 
L 304.235504 154.077488 
L 304.906445 155.653355 
L 305.577387 154.082191 
L 306.248329 151.7545 
L 307.590213 151.190207 
L 308.261155 152.163774 
L 308.932097 150.349526 
L 309.603039 149.596458 
L 310.27398 151.305298 
L 310.944922 153.624413 
L 311.615864 155.089491 
L 312.286806 160.827648 
L 312.957748 158.848824 
L 313.62869 161.947183 
L 314.299632 161.597973 
L 314.970574 160.145063 
L 315.641516 155.42657 
L 316.312457 161.040447 
L 316.983399 162.066681 
L 317.654341 161.813279 
L 318.325283 160.009885 
L 318.996225 162.54423 
L 319.667167 163.007224 
L 320.338109 157.579449 
L 321.009051 161.20456 
L 321.679992 159.064278 
L 322.350934 155.788708 
L 323.021876 158.917207 
L 323.692818 161.148926 
L 325.034702 168.469378 
L 325.705644 166.596855 
L 326.376586 169.133536 
L 327.047528 169.572836 
L 327.718469 170.393743 
L 328.389411 171.001545 
L 329.060353 173.227121 
L 329.731295 168.331353 
L 330.402237 167.724719 
L 331.073179 166.358764 
L 332.415063 161.530183 
L 333.086005 159.918606 
L 333.756946 160.237503 
L 334.427888 162.172597 
L 335.09883 159.091212 
L 335.769772 162.860749 
L 336.440714 163.86632 
L 337.111656 162.839815 
L 337.782598 167.58604 
L 338.45354 169.13665 
L 339.124481 168.133951 
L 339.795423 166.119363 
L 340.466365 169.607383 
L 341.137307 167.939244 
L 341.808249 166.784583 
L 342.479191 169.272682 
L 343.150133 170.525927 
L 343.821075 170.667235 
L 344.492017 169.494717 
L 345.162958 172.382549 
L 345.8339 171.868361 
L 346.504842 170.637836 
L 347.175784 172.485493 
L 347.846726 173.334874 
L 348.517668 175.572012 
L 349.18861 175.696279 
L 349.859552 175.431781 
L 350.530493 178.159709 
L 351.201435 178.104621 
L 351.872377 179.218233 
L 352.543319 182.677039 
L 353.214261 184.880879 
L 353.885203 184.377734 
L 354.556145 182.698164 
L 355.227087 180.443377 
L 355.898029 181.417572 
L 356.56897 178.375445 
L 357.239912 178.038088 
L 357.910854 179.751817 
L 358.581796 181.094389 
L 359.252738 178.638388 
L 359.92368 179.702864 
L 361.265564 184.516338 
L 361.936506 185.211848 
L 362.607447 185.438191 
L 363.278389 185.058035 
L 363.949331 188.147267 
L 364.620273 187.825972 
L 365.291215 191.303752 
L 365.962157 192.018318 
L 366.633099 192.303423 
L 367.304041 191.528091 
L 367.974982 193.885375 
L 368.645924 192.46942 
L 369.316866 197.796754 
L 369.987808 199.438988 
L 370.65875 198.645309 
L 370.65875 198.645309 
" style="fill:none;stroke:#4c72b0;stroke-linecap:round;stroke-width:1.5;"/>
   </g>
   <g id="line2d_18">
    <path clip-path="url(#pf8f8a8e1ea)" d="M 35.85875 110.437532 
L 36.529692 110.812898 
L 37.200634 110.511144 
L 37.871576 112.629301 
L 38.542518 116.236128 
L 39.213459 115.298285 
L 39.884401 112.316383 
L 40.555343 107.47846 
L 41.226285 108.006056 
L 41.897227 106.943793 
L 42.568169 107.835485 
L 43.239111 106.687785 
L 43.910053 109.750153 
L 44.580994 109.610863 
L 45.251936 104.909058 
L 45.922878 101.877394 
L 46.59382 97.448435 
L 47.264762 95.044331 
L 47.935704 91.372655 
L 48.606646 89.382563 
L 49.277588 92.109077 
L 49.94853 87.522903 
L 50.619471 87.443963 
L 51.290413 90.154755 
L 51.961355 87.812446 
L 52.632297 83.563356 
L 53.303239 86.241586 
L 53.974181 86.024459 
L 54.645123 85.238442 
L 55.316065 83.548087 
L 55.987007 86.957966 
L 56.657948 86.828597 
L 57.32889 89.725469 
L 57.999832 86.41088 
L 58.670774 90.420931 
L 60.012658 88.693933 
L 60.6836 87.499859 
L 61.354542 88.089905 
L 62.025483 86.152534 
L 62.696425 87.137768 
L 63.367367 84.460314 
L 64.038309 85.252248 
L 64.709251 83.738507 
L 65.380193 83.270336 
L 66.051135 90.146366 
L 66.722077 90.434304 
L 68.06396 83.39551 
L 68.734902 80.57602 
L 69.405844 76.463856 
L 70.076786 79.803715 
L 70.747728 81.615796 
L 71.41867 81.881913 
L 72.089612 82.656398 
L 72.760554 85.604981 
L 73.431495 84.486664 
L 74.102437 87.497576 
L 74.773379 86.630433 
L 75.444321 87.922982 
L 76.115263 87.91363 
L 76.786205 88.892857 
L 77.457147 89.511515 
L 78.128089 87.328671 
L 78.799031 91.437324 
L 79.469972 91.989559 
L 80.140914 89.159626 
L 80.811856 88.27602 
L 81.482798 90.278988 
L 82.824682 87.137508 
L 83.495624 93.931908 
L 84.166566 93.245265 
L 84.837508 93.05118 
L 85.508449 93.336647 
L 86.179391 91.302432 
L 86.850333 96.762006 
L 87.521275 96.312287 
L 88.192217 95.688606 
L 89.534101 90.669499 
L 90.205043 89.297732 
L 90.875984 86.078637 
L 91.546926 86.271717 
L 92.217868 87.713263 
L 92.88881 84.303352 
L 93.559752 81.704381 
L 94.230694 83.90903 
L 94.901636 81.76618 
L 95.572578 83.21805 
L 96.24352 86.215312 
L 96.914461 92.56209 
L 97.585403 93.225725 
L 98.256345 95.114427 
L 98.927287 94.626965 
L 99.598229 99.164721 
L 100.269171 101.938135 
L 100.940113 99.99144 
L 101.611055 107.545875 
L 102.952938 105.57042 
L 103.62388 109.688956 
L 104.294822 107.467977 
L 104.965764 111.205333 
L 105.636706 114.246299 
L 106.307648 114.537636 
L 106.97859 113.911445 
L 107.649532 116.382052 
L 108.320473 112.532489 
L 108.991415 111.417203 
L 109.662357 114.549612 
L 110.333299 111.873209 
L 111.004241 114.136912 
L 111.675183 113.154618 
L 112.346125 120.184313 
L 113.017067 117.830182 
L 113.688009 119.80088 
L 114.35895 117.086177 
L 115.029892 116.561664 
L 115.700834 116.812842 
L 116.371776 118.078368 
L 117.042718 114.994936 
L 118.384602 120.053843 
L 119.055544 118.675492 
L 119.726485 122.796256 
L 120.397427 124.55087 
L 121.068369 124.489832 
L 121.739311 125.020965 
L 122.410253 129.463457 
L 123.081195 128.170624 
L 123.752137 127.122505 
L 124.423079 123.867578 
L 125.094021 125.925891 
L 125.764962 124.920985 
L 126.435904 123.321247 
L 127.106846 119.150082 
L 128.44873 121.880627 
L 129.119672 119.729781 
L 129.790614 120.646888 
L 130.461556 121.983937 
L 131.132497 125.340341 
L 131.803439 125.277336 
L 132.474381 127.798848 
L 133.145323 129.36466 
L 133.816265 131.494782 
L 134.487207 132.021839 
L 135.158149 134.009551 
L 135.829091 129.05462 
L 136.500033 130.749551 
L 137.170974 133.687574 
L 137.841916 138.764936 
L 138.512858 139.143817 
L 139.1838 133.341547 
L 139.854742 133.982807 
L 140.525684 129.812497 
L 141.196626 122.969296 
L 141.867568 123.257546 
L 142.53851 122.647099 
L 143.209451 120.32063 
L 144.551335 112.983786 
L 145.222277 113.931209 
L 145.893219 112.857101 
L 146.564161 112.413695 
L 147.906045 111.920407 
L 148.576986 111.327604 
L 149.247928 113.577708 
L 149.91887 111.839126 
L 150.589812 114.529569 
L 151.260754 116.211245 
L 151.931696 120.615448 
L 152.602638 119.57782 
L 153.27358 121.793885 
L 153.944522 118.656726 
L 154.615463 118.875898 
L 155.286405 117.845704 
L 155.957347 115.517612 
L 156.628289 116.302917 
L 157.970173 120.247087 
L 158.641115 118.602207 
L 159.312057 119.365281 
L 159.982998 116.242546 
L 160.65394 115.305329 
L 161.324882 116.799112 
L 161.995824 121.755738 
L 162.666766 122.429732 
L 163.337708 125.585676 
L 164.00865 125.918325 
L 164.679592 124.60134 
L 165.350534 128.445375 
L 166.021475 127.634251 
L 166.692417 130.503654 
L 167.363359 129.89208 
L 168.705243 131.805469 
L 169.376185 129.232257 
L 170.047127 134.099832 
L 170.718069 136.277199 
L 171.389011 134.093532 
L 172.059952 135.334548 
L 172.730894 133.426361 
L 173.401836 132.238205 
L 174.072778 131.67812 
L 174.74372 130.889765 
L 175.414662 135.207502 
L 176.756546 141.825959 
L 177.427487 136.261827 
L 178.098429 138.306361 
L 178.769371 136.964661 
L 179.440313 139.943641 
L 180.111255 142.082063 
L 180.782197 141.318886 
L 181.453139 141.660579 
L 182.124081 142.469848 
L 182.795023 140.919554 
L 183.465964 142.683594 
L 184.136906 142.747574 
L 184.807848 142.41547 
L 185.47879 139.076842 
L 186.149732 139.902215 
L 186.820674 133.347735 
L 187.491616 134.348313 
L 189.504441 127.852879 
L 190.175383 127.444563 
L 190.846325 127.464923 
L 191.517267 124.881833 
L 192.188209 125.926726 
L 192.859151 127.224388 
L 194.201035 134.406268 
L 194.871976 134.74811 
L 195.542918 136.105954 
L 196.21386 133.784408 
L 196.884802 136.208521 
L 197.555744 134.023796 
L 198.226686 132.407378 
L 198.897628 135.055378 
L 199.56857 136.68113 
L 200.239512 137.356017 
L 200.910453 136.925211 
L 201.581395 135.890943 
L 202.252337 136.388948 
L 202.923279 133.118942 
L 203.594221 133.421365 
L 204.265163 132.932356 
L 204.936105 136.179698 
L 205.607047 136.408136 
L 206.277988 130.872736 
L 206.94893 128.778489 
L 207.619872 130.04587 
L 208.290814 134.57661 
L 208.961756 131.726149 
L 209.632698 127.889511 
L 210.30364 129.48479 
L 210.974582 129.288568 
L 211.645524 132.69374 
L 212.316465 133.476436 
L 212.987407 132.293307 
L 213.658349 132.380843 
L 214.329291 128.878707 
L 215.000233 130.916151 
L 215.671175 134.567511 
L 216.342117 135.96702 
L 217.013059 138.743698 
L 217.684001 136.698645 
L 218.354942 136.15702 
L 219.025884 138.528541 
L 219.696826 133.725494 
L 220.367768 134.188533 
L 221.03871 136.447442 
L 221.709652 140.852885 
L 222.380594 141.05633 
L 223.051536 138.552245 
L 223.722477 137.215125 
L 224.393419 138.184304 
L 225.064361 137.022907 
L 225.735303 135.469028 
L 226.406245 130.404689 
L 227.077187 131.145613 
L 228.419071 136.084931 
L 229.090013 137.079377 
L 229.760954 132.532457 
L 230.431896 134.760296 
L 231.102838 139.320635 
L 231.77378 142.771569 
L 232.444722 144.968765 
L 233.115664 141.751357 
L 233.786606 144.247143 
L 234.457548 143.253827 
L 235.128489 143.588187 
L 235.799431 148.163046 
L 236.470373 149.541889 
L 237.141315 150.233596 
L 237.812257 150.547488 
L 239.154141 154.352323 
L 239.825083 157.951642 
L 240.496025 160.557264 
L 241.166966 160.910528 
L 241.837908 158.455027 
L 242.50885 154.232653 
L 243.179792 155.287998 
L 244.521676 158.458472 
L 245.192618 162.529896 
L 245.86356 161.180417 
L 246.534502 160.753016 
L 247.205443 156.295119 
L 247.876385 160.382273 
L 248.547327 163.426812 
L 249.218269 164.119467 
L 249.889211 163.981847 
L 250.560153 168.052391 
L 251.231095 163.00618 
L 251.902037 161.585757 
L 252.572978 163.593631 
L 253.24392 162.121835 
L 253.914862 163.583993 
L 254.585804 166.65973 
L 255.256746 161.727675 
L 256.59863 161.869066 
L 257.940514 161.965216 
L 258.611455 162.767391 
L 259.282397 166.018597 
L 259.953339 167.764168 
L 260.624281 170.218928 
L 261.295223 169.170338 
L 261.966165 166.210181 
L 262.637107 166.493732 
L 263.308049 164.972683 
L 263.97899 164.623816 
L 264.649932 161.466891 
L 265.320874 159.288698 
L 265.991816 157.841444 
L 266.662758 158.723071 
L 267.3337 158.616978 
L 268.004642 157.364652 
L 268.675584 159.912348 
L 270.017467 168.030957 
L 270.688409 167.103053 
L 271.359351 166.921305 
L 272.030293 170.839533 
L 273.372177 168.555663 
L 274.043119 169.387903 
L 274.714061 166.85237 
L 275.385003 167.784751 
L 276.055944 170.509697 
L 276.726886 174.495851 
L 277.397828 176.193167 
L 278.739712 180.640183 
L 280.081596 174.731876 
L 280.752538 171.398571 
L 281.423479 167.096832 
L 282.094421 167.411959 
L 282.765363 166.359812 
L 283.436305 171.675216 
L 284.107247 174.068681 
L 284.778189 175.34316 
L 285.449131 171.846479 
L 286.120073 170.939812 
L 286.791015 173.38065 
L 287.461956 170.493554 
L 288.132898 171.705198 
L 288.80384 170.323927 
L 289.474782 170.33106 
L 290.145724 167.82097 
L 290.816666 167.310593 
L 291.487608 167.396092 
L 292.15855 167.950188 
L 292.829491 169.913744 
L 293.500433 170.029018 
L 294.171375 172.573516 
L 294.842317 174.665682 
L 295.513259 173.4051 
L 296.184201 172.390049 
L 296.855143 174.66665 
L 297.526085 174.664418 
L 298.197027 171.136358 
L 298.867968 174.074879 
L 300.209852 181.735459 
L 300.880794 180.333596 
L 301.551736 178.104157 
L 302.222678 174.385418 
L 302.89362 172.258417 
L 303.564562 170.833386 
L 304.235504 171.76122 
L 304.906445 169.646202 
L 305.577387 171.156063 
L 306.248329 173.683806 
L 306.919271 175.041248 
L 307.590213 176.716992 
L 308.261155 179.425692 
L 308.932097 178.632961 
L 309.603039 176.068748 
L 310.27398 177.428004 
L 310.944922 176.48108 
L 311.615864 174.070594 
L 313.62869 180.1199 
L 314.299632 178.945649 
L 314.970574 176.127407 
L 315.641516 178.051054 
L 316.312457 177.121004 
L 316.983399 179.841378 
L 317.654341 178.588991 
L 318.325283 178.685477 
L 319.667167 184.374793 
L 320.338109 184.91983 
L 321.009051 188.760844 
L 321.679992 190.223295 
L 322.350934 193.427458 
L 323.692818 190.957168 
L 324.36376 195.802291 
L 325.034702 193.307145 
L 325.705644 196.770552 
L 326.376586 199.624269 
L 327.047528 201.833277 
L 327.718469 200.716561 
L 328.389411 202.647676 
L 329.060353 199.333813 
L 329.731295 198.148848 
L 330.402237 200.083057 
L 331.073179 198.606408 
L 331.744121 200.739527 
L 332.415063 200.87657 
L 333.756946 198.668852 
L 334.427888 195.062843 
L 335.09883 198.074102 
L 335.769772 198.611104 
L 336.440714 197.534935 
L 337.111656 198.02915 
L 337.782598 203.697188 
L 338.45354 205.523686 
L 339.795423 202.91816 
L 340.466365 203.351722 
L 341.137307 202.707337 
L 341.808249 204.87029 
L 342.479191 204.437209 
L 343.150133 209.442548 
L 343.821075 210.425088 
L 344.492017 211.732275 
L 345.162958 214.902989 
L 345.8339 213.020281 
L 346.504842 211.58943 
L 347.175784 209.079024 
L 347.846726 211.557611 
L 348.517668 210.761532 
L 349.18861 209.69108 
L 349.859552 205.923952 
L 350.530493 206.926745 
L 351.872377 204.361373 
L 352.543319 203.435899 
L 353.214261 203.772708 
L 353.885203 200.680904 
L 354.556145 200.760043 
L 355.227087 200.559858 
L 355.898029 201.393817 
L 356.56897 199.741258 
L 357.239912 201.820269 
L 357.910854 207.289923 
L 358.581796 207.062948 
L 359.252738 203.029398 
L 359.92368 208.639762 
L 360.594622 212.597291 
L 361.265564 213.58067 
L 361.936506 216.507778 
L 362.607447 217.503673 
L 363.278389 215.782234 
L 363.949331 218.686786 
L 364.620273 222.173584 
L 365.291215 222.935114 
L 365.962157 221.169887 
L 366.633099 219.940177 
L 367.304041 220.419968 
L 367.974982 221.570679 
L 368.645924 218.911373 
L 369.316866 221.473622 
L 369.987808 225.386087 
L 370.65875 220.229729 
L 370.65875 220.229729 
" style="fill:none;stroke:#dd8452;stroke-linecap:round;stroke-width:1.5;"/>
   </g>
   <g id="line2d_19">
    <path clip-path="url(#pf8f8a8e1ea)" d="M 35.85875 109.002652 
L 36.529692 109.258634 
L 37.200634 108.157854 
L 37.871576 114.489268 
L 38.542518 114.375787 
L 39.213459 116.577496 
L 39.884401 117.538066 
L 40.555343 118.802004 
L 41.226285 121.022761 
L 41.897227 120.857798 
L 43.239111 125.124501 
L 43.910053 124.126694 
L 44.580994 127.016265 
L 45.251936 124.092892 
L 45.922878 123.57637 
L 46.59382 123.261628 
L 47.264762 126.170974 
L 47.935704 121.539428 
L 48.606646 119.190243 
L 49.277588 118.450612 
L 49.94853 116.783321 
L 50.619471 118.360219 
L 51.290413 122.058538 
L 51.961355 124.322337 
L 52.632297 126.169329 
L 53.974181 132.054132 
L 54.645123 129.770402 
L 55.316065 131.762858 
L 56.657948 135.193148 
L 57.32889 133.895422 
L 57.999832 134.810993 
L 58.670774 134.871321 
L 59.341716 132.921228 
L 60.012658 127.318142 
L 61.354542 134.670989 
L 62.025483 130.964668 
L 62.696425 131.294212 
L 63.367367 133.311355 
L 64.038309 131.596339 
L 64.709251 134.54471 
L 65.380193 133.24546 
L 66.051135 128.394798 
L 66.722077 133.430895 
L 67.393019 132.720763 
L 68.06396 134.27842 
L 68.734902 134.036062 
L 69.405844 134.329109 
L 70.076786 132.608551 
L 70.747728 133.563053 
L 71.41867 135.347672 
L 72.089612 135.738686 
L 72.760554 133.821019 
L 73.431495 135.517366 
L 74.102437 136.610854 
L 74.773379 138.505931 
L 75.444321 143.076744 
L 76.115263 140.76576 
L 76.786205 141.429739 
L 77.457147 141.306991 
L 78.128089 145.518294 
L 78.799031 147.96236 
L 79.469972 148.838871 
L 80.140914 145.201756 
L 80.811856 149.587731 
L 81.482798 153.175137 
L 82.15374 152.255491 
L 82.824682 157.450107 
L 83.495624 158.862001 
L 84.166566 161.27034 
L 84.837508 162.250508 
L 86.179391 159.967554 
L 86.850333 159.473289 
L 87.521275 160.720275 
L 88.192217 165.720963 
L 88.863159 162.449504 
L 89.534101 164.703237 
L 90.205043 164.816583 
L 90.875984 158.129947 
L 91.546926 157.18077 
L 92.217868 161.229704 
L 92.88881 164.533589 
L 94.230694 163.228123 
L 94.901636 168.782341 
L 96.24352 170.031431 
L 96.914461 167.101612 
L 97.585403 168.783116 
L 98.256345 163.795199 
L 98.927287 162.9154 
L 99.598229 162.823626 
L 100.269171 163.14864 
L 100.940113 164.523328 
L 101.611055 163.175914 
L 102.281996 164.341596 
L 102.952938 166.68363 
L 103.62388 166.398063 
L 104.294822 166.725196 
L 104.965764 165.047574 
L 105.636706 164.592893 
L 106.307648 163.4368 
L 106.97859 161.402402 
L 107.649532 164.422889 
L 108.320473 163.711366 
L 108.991415 163.87821 
L 109.662357 162.756037 
L 110.333299 167.726492 
L 111.004241 167.182108 
L 111.675183 168.648787 
L 112.346125 163.399145 
L 113.017067 167.125088 
L 114.35895 166.051772 
L 115.700834 169.791768 
L 116.371776 169.335633 
L 117.042718 167.320201 
L 117.71366 161.127144 
L 118.384602 164.047664 
L 119.055544 164.021997 
L 119.726485 162.910473 
L 120.397427 162.811852 
L 121.068369 161.026292 
L 121.739311 162.263853 
L 122.410253 162.409148 
L 123.081195 160.891568 
L 123.752137 164.263825 
L 124.423079 166.394076 
L 125.094021 162.894369 
L 125.764962 161.659199 
L 126.435904 159.14983 
L 127.106846 161.264243 
L 127.777788 162.920189 
L 128.44873 162.114513 
L 129.119672 164.218348 
L 129.790614 161.806459 
L 130.461556 163.665691 
L 131.132497 166.226646 
L 131.803439 163.36427 
L 132.474381 163.648912 
L 133.145323 164.24743 
L 133.816265 164.121063 
L 135.829091 169.74036 
L 136.500033 168.828848 
L 137.170974 166.446329 
L 138.512858 172.709093 
L 139.1838 173.394647 
L 139.854742 172.629985 
L 140.525684 174.594856 
L 141.196626 174.780033 
L 141.867568 177.129805 
L 142.53851 174.988276 
L 143.209451 174.252378 
L 143.880393 172.540114 
L 144.551335 167.545244 
L 145.222277 166.653674 
L 145.893219 167.660409 
L 146.564161 169.642977 
L 147.235103 172.489052 
L 147.906045 171.923479 
L 148.576986 174.404299 
L 149.247928 173.848153 
L 149.91887 174.883497 
L 150.589812 172.11258 
L 151.260754 170.242681 
L 151.931696 166.102939 
L 152.602638 165.022785 
L 153.27358 165.409724 
L 153.944522 166.155668 
L 154.615463 165.911691 
L 155.286405 168.469767 
L 157.299231 163.803696 
L 157.970173 158.472751 
L 158.641115 161.2122 
L 159.312057 160.545021 
L 159.982998 158.798825 
L 160.65394 155.514416 
L 161.324882 153.229323 
L 161.995824 156.071404 
L 162.666766 155.532798 
L 163.337708 151.766275 
L 164.00865 148.73724 
L 164.679592 148.144159 
L 165.350534 149.274606 
L 166.021475 145.228245 
L 166.692417 143.316975 
L 167.363359 144.868357 
L 168.034301 149.561414 
L 168.705243 150.247935 
L 169.376185 150.201332 
L 170.047127 146.270977 
L 170.718069 143.056525 
L 171.389011 144.182644 
L 172.059952 143.555692 
L 172.730894 142.735971 
L 173.401836 144.665866 
L 174.072778 146.028622 
L 174.74372 144.950298 
L 175.414662 146.885453 
L 176.085604 153.773304 
L 176.756546 154.640764 
L 177.427487 158.169295 
L 178.098429 157.121296 
L 178.769371 157.332383 
L 179.440313 156.034693 
L 180.782197 155.241313 
L 181.453139 157.615038 
L 182.124081 156.120323 
L 182.795023 158.138041 
L 183.465964 159.100664 
L 184.136906 156.260414 
L 184.807848 157.779725 
L 185.47879 158.939108 
L 186.820674 156.408151 
L 187.491616 160.946621 
L 188.162558 164.053053 
L 188.833499 162.141377 
L 189.504441 166.625574 
L 190.175383 164.430309 
L 190.846325 165.726405 
L 191.517267 165.82379 
L 192.188209 166.98768 
L 192.859151 164.455043 
L 193.530093 165.278657 
L 194.201035 172.22812 
L 194.871976 172.165163 
L 195.542918 170.513565 
L 196.884802 166.325911 
L 197.555744 161.841744 
L 198.226686 161.838096 
L 198.897628 157.470156 
L 199.56857 157.302714 
L 200.239512 156.596433 
L 200.910453 155.191401 
L 201.581395 153.485455 
L 202.252337 155.9626 
L 202.923279 156.556056 
L 203.594221 155.715189 
L 204.265163 153.088801 
L 204.936105 151.060504 
L 205.607047 147.699006 
L 206.277988 147.959355 
L 206.94893 150.967268 
L 207.619872 146.650507 
L 208.290814 147.650414 
L 208.961756 146.912578 
L 209.632698 147.062091 
L 210.30364 149.873401 
L 210.974582 147.764085 
L 211.645524 143.134711 
L 212.316465 141.588546 
L 212.987407 142.471306 
L 213.658349 141.87312 
L 215.000233 149.136259 
L 215.671175 146.871518 
L 216.342117 146.3077 
L 217.013059 148.283703 
L 217.684001 151.53957 
L 218.354942 152.393177 
L 219.025884 151.981836 
L 220.367768 159.760164 
L 221.03871 156.281109 
L 221.709652 155.746538 
L 223.051536 160.613463 
L 223.722477 160.399745 
L 224.393419 157.399316 
L 225.064361 157.119726 
L 225.735303 160.983563 
L 226.406245 160.88903 
L 227.077187 163.622561 
L 227.748129 163.010871 
L 228.419071 164.647529 
L 229.090013 167.056033 
L 229.760954 166.173888 
L 230.431896 164.1848 
L 231.102838 159.307225 
L 231.77378 157.152089 
L 232.444722 156.157893 
L 233.115664 153.674592 
L 233.786606 154.128196 
L 234.457548 156.255299 
L 235.128489 157.703851 
L 235.799431 158.599411 
L 236.470373 158.5331 
L 237.141315 154.982812 
L 237.812257 155.884138 
L 239.154141 159.695046 
L 239.825083 159.64084 
L 240.496025 160.399602 
L 241.166966 160.896479 
L 241.837908 164.281079 
L 242.50885 164.113346 
L 243.179792 160.586847 
L 243.850734 162.175847 
L 244.521676 162.325546 
L 245.192618 161.641893 
L 245.86356 160.532807 
L 246.534502 164.622865 
L 247.205443 165.507906 
L 247.876385 164.767096 
L 248.547327 164.67254 
L 249.218269 161.553335 
L 249.889211 157.870719 
L 250.560153 158.255208 
L 251.231095 155.640847 
L 251.902037 153.960505 
L 252.572978 151.794692 
L 253.24392 151.769432 
L 253.914862 157.173182 
L 254.585804 154.941048 
L 256.59863 147.09911 
L 257.269572 147.495761 
L 257.940514 150.620034 
L 258.611455 150.12942 
L 259.282397 153.931064 
L 259.953339 155.842609 
L 260.624281 154.246404 
L 261.295223 161.976208 
L 261.966165 162.219648 
L 262.637107 160.375635 
L 263.308049 161.084814 
L 263.97899 162.929121 
L 264.649932 167.135526 
L 265.320874 166.921124 
L 265.991816 159.656965 
L 266.662758 162.626586 
L 267.3337 161.382123 
L 268.004642 157.107356 
L 268.675584 156.305432 
L 269.346526 152.271341 
L 270.688409 150.124367 
L 271.359351 151.269863 
L 272.030293 158.293253 
L 272.701235 155.061364 
L 273.372177 155.559615 
L 274.043119 150.857083 
L 274.714061 152.092647 
L 275.385003 157.975688 
L 276.055944 161.448324 
L 276.726886 163.843889 
L 277.397828 165.607878 
L 278.06877 166.351894 
L 278.739712 164.343737 
L 279.410654 168.521865 
L 280.081596 169.103519 
L 280.752538 167.863478 
L 281.423479 170.587236 
L 282.094421 168.569874 
L 282.765363 170.675575 
L 283.436305 166.219217 
L 284.107247 164.533889 
L 284.778189 166.440635 
L 285.449131 169.837886 
L 286.120073 173.97398 
L 287.461956 175.015801 
L 288.132898 174.190461 
L 288.80384 178.74914 
L 290.145724 178.949367 
L 290.816666 182.189541 
L 291.487608 182.0093 
L 292.15855 175.897781 
L 292.829491 176.562446 
L 294.171375 178.777534 
L 295.513259 175.718677 
L 296.184201 176.758 
L 296.855143 178.374605 
L 297.526085 182.199479 
L 298.197027 177.335636 
L 298.867968 181.81266 
L 299.53891 188.557465 
L 300.209852 188.136168 
L 300.880794 192.5996 
L 301.551736 191.332631 
L 302.222678 191.070161 
L 302.89362 191.344425 
L 303.564562 192.559199 
L 304.235504 192.592559 
L 304.906445 190.932044 
L 305.577387 191.492828 
L 306.248329 190.221674 
L 306.919271 191.587656 
L 307.590213 194.986675 
L 308.261155 193.254022 
L 308.932097 194.270461 
L 310.27398 185.43548 
L 310.944922 184.447706 
L 311.615864 187.406985 
L 312.286806 191.23343 
L 313.62869 187.912638 
L 314.299632 183.311627 
L 314.970574 181.646018 
L 315.641516 182.11248 
L 316.312457 182.316693 
L 316.983399 184.616553 
L 317.654341 181.32073 
L 318.325283 181.431337 
L 318.996225 183.504893 
L 319.667167 180.6664 
L 320.338109 178.432605 
L 321.009051 178.118714 
L 321.679992 178.794595 
L 322.350934 180.080918 
L 323.021876 177.383804 
L 323.692818 177.519926 
L 324.36376 176.786394 
L 325.034702 176.895626 
L 325.705644 178.779174 
L 326.376586 177.289673 
L 327.718469 181.765183 
L 328.389411 185.944931 
L 329.060353 182.615894 
L 329.731295 182.765036 
L 330.402237 182.544127 
L 331.073179 181.44089 
L 331.744121 186.374279 
L 332.415063 190.095093 
L 333.086005 190.603395 
L 333.756946 190.050589 
L 334.427888 190.687626 
L 335.769772 194.802878 
L 336.440714 195.258183 
L 337.111656 193.59809 
L 337.782598 197.570656 
L 338.45354 196.194137 
L 339.795423 201.754492 
L 340.466365 200.068231 
L 341.137307 201.89645 
L 342.479191 196.541847 
L 343.150133 198.806389 
L 343.821075 196.943846 
L 344.492017 198.273796 
L 345.162958 200.86494 
L 345.8339 200.615541 
L 346.504842 203.362505 
L 347.175784 207.151033 
L 347.846726 205.182209 
L 348.517668 208.634409 
L 349.18861 207.203611 
L 349.859552 205.259925 
L 350.530493 207.083458 
L 351.201435 206.736287 
L 351.872377 204.589784 
L 353.214261 199.369675 
L 353.885203 197.631989 
L 354.556145 198.062537 
L 355.227087 200.63437 
L 355.898029 196.855417 
L 356.56897 194.806626 
L 357.239912 193.41423 
L 357.910854 192.303513 
L 358.581796 189.690982 
L 359.252738 186.48522 
L 359.92368 189.765598 
L 360.594622 190.088552 
L 361.265564 192.212183 
L 361.936506 189.702006 
L 362.607447 188.308213 
L 363.278389 189.123458 
L 363.949331 187.655975 
L 364.620273 184.731013 
L 365.291215 188.981523 
L 365.962157 191.307633 
L 366.633099 194.582536 
L 367.304041 191.504114 
L 367.974982 191.943686 
L 368.645924 193.192885 
L 369.316866 192.939092 
L 369.987808 193.783681 
L 370.65875 196.034197 
L 370.65875 196.034197 
" style="fill:none;stroke:#55a868;stroke-linecap:round;stroke-width:1.5;"/>
   </g>
   <g id="line2d_20">
    <path clip-path="url(#pf8f8a8e1ea)" d="M 35.85875 105.872507 
L 37.200634 104.02671 
L 37.871576 102.405736 
L 38.542518 102.869952 
L 39.213459 107.782327 
L 39.884401 108.532038 
L 40.555343 109.618462 
L 41.226285 108.658944 
L 41.897227 107.908814 
L 42.568169 112.189995 
L 43.239111 112.06117 
L 43.910053 113.759499 
L 44.580994 111.525449 
L 45.251936 111.971663 
L 45.922878 109.549598 
L 46.59382 108.552665 
L 47.264762 103.732484 
L 47.935704 101.485493 
L 48.606646 101.869918 
L 49.277588 98.580481 
L 49.94853 97.569976 
L 50.619471 95.892421 
L 51.290413 94.80273 
L 51.961355 92.03253 
L 52.632297 94.082097 
L 53.303239 95.167891 
L 53.974181 93.073871 
L 54.645123 92.283426 
L 55.316065 93.99351 
L 55.987007 99.507549 
L 56.657948 95.680873 
L 57.32889 96.106308 
L 57.999832 96.699968 
L 58.670774 98.530285 
L 59.341716 99.687004 
L 60.012658 99.791802 
L 60.6836 99.634912 
L 61.354542 100.858346 
L 62.025483 105.991909 
L 62.696425 106.73043 
L 63.367367 110.367162 
L 64.038309 108.644184 
L 64.709251 109.901089 
L 65.380193 109.681802 
L 66.051135 108.714371 
L 66.722077 103.594428 
L 67.393019 102.084496 
L 68.06396 103.277443 
L 68.734902 101.831718 
L 69.405844 103.51856 
L 70.076786 103.914302 
L 70.747728 103.68031 
L 71.41867 105.696533 
L 72.089612 100.099858 
L 72.760554 103.035882 
L 73.431495 98.920196 
L 74.102437 99.615478 
L 74.773379 103.181201 
L 75.444321 104.366576 
L 76.115263 103.523463 
L 76.786205 106.320931 
L 77.457147 105.096216 
L 78.128089 104.135761 
L 79.469972 111.794767 
L 80.140914 109.680439 
L 80.811856 108.798844 
L 81.482798 106.814105 
L 82.824682 106.154961 
L 84.166566 104.704852 
L 85.508449 109.972452 
L 86.179391 109.280295 
L 86.850333 109.405792 
L 87.521275 103.422907 
L 88.192217 104.760754 
L 88.863159 106.949153 
L 89.534101 108.00146 
L 90.205043 107.454601 
L 91.546926 107.722855 
L 92.217868 111.610919 
L 92.88881 116.493109 
L 93.559752 112.17129 
L 94.230694 114.375316 
L 94.901636 113.379599 
L 95.572578 113.831566 
L 96.24352 110.066278 
L 96.914461 111.633399 
L 97.585403 108.414742 
L 98.256345 108.525338 
L 98.927287 106.99546 
L 99.598229 105.091062 
L 100.269171 102.281024 
L 100.940113 103.448205 
L 101.611055 102.359379 
L 102.281996 102.896873 
L 102.952938 102.306377 
L 103.62388 103.246663 
L 104.294822 102.242853 
L 104.965764 103.190236 
L 105.636706 99.046297 
L 106.307648 99.964498 
L 106.97859 96.591826 
L 107.649532 97.348136 
L 108.320473 103.103209 
L 108.991415 106.372831 
L 109.662357 106.130049 
L 111.004241 104.220599 
L 111.675183 101.432039 
L 113.017067 109.835632 
L 113.688009 107.152432 
L 114.35895 101.864692 
L 115.029892 100.178354 
L 116.371776 102.285926 
L 117.042718 100.829523 
L 117.71366 106.397921 
L 118.384602 109.225608 
L 119.055544 107.439924 
L 119.726485 103.233394 
L 120.397427 107.119541 
L 121.068369 109.854748 
L 121.739311 109.801797 
L 122.410253 110.589304 
L 123.081195 113.916216 
L 123.752137 114.01889 
L 124.423079 116.248266 
L 125.094021 114.299473 
L 125.764962 114.364429 
L 126.435904 115.996148 
L 127.106846 115.939208 
L 127.777788 115.128341 
L 128.44873 112.655488 
L 129.119672 113.463148 
L 129.790614 108.171155 
L 130.461556 108.089789 
L 131.132497 109.172925 
L 131.803439 108.745114 
L 132.474381 107.979411 
L 133.145323 110.157323 
L 133.816265 114.607012 
L 134.487207 116.808707 
L 135.158149 115.637534 
L 135.829091 119.46067 
L 136.500033 118.988698 
L 137.170974 115.692622 
L 137.841916 113.293355 
L 138.512858 110.128689 
L 139.1838 110.77244 
L 139.854742 114.190087 
L 140.525684 115.508469 
L 141.867568 114.260633 
L 142.53851 116.256422 
L 143.880393 112.222309 
L 144.551335 112.983089 
L 145.222277 113.341614 
L 145.893219 111.54518 
L 146.564161 110.948027 
L 147.235103 111.83615 
L 147.906045 111.33648 
L 148.576986 107.184995 
L 149.247928 111.348143 
L 149.91887 114.069934 
L 150.589812 115.356807 
L 151.260754 112.714824 
L 151.931696 111.965891 
L 152.602638 113.451967 
L 153.27358 110.850216 
L 153.944522 112.488526 
L 154.615463 111.542613 
L 155.286405 115.088992 
L 156.628289 120.136925 
L 157.299231 120.008411 
L 157.970173 120.232215 
L 158.641115 120.308937 
L 159.312057 119.007141 
L 159.982998 122.716426 
L 160.65394 123.143484 
L 161.324882 122.000664 
L 162.666766 121.689977 
L 163.337708 124.594454 
L 164.00865 125.072702 
L 165.350534 118.069046 
L 166.021475 117.132203 
L 166.692417 117.455694 
L 167.363359 114.995194 
L 168.034301 115.436171 
L 168.705243 112.648886 
L 169.376185 114.121454 
L 170.718069 110.985675 
L 171.389011 110.772514 
L 172.059952 111.78439 
L 172.730894 112.144671 
L 173.401836 107.837469 
L 174.072778 110.561924 
L 174.74372 109.22249 
L 175.414662 108.55013 
L 176.085604 105.69383 
L 177.427487 95.908254 
L 178.098429 94.550502 
L 179.440313 97.283176 
L 180.111255 99.645735 
L 180.782197 104.502937 
L 181.453139 107.847029 
L 182.795023 110.615431 
L 183.465964 110.764053 
L 184.136906 109.904747 
L 185.47879 114.084344 
L 186.149732 116.485446 
L 186.820674 110.805087 
L 188.162558 113.984832 
L 188.833499 113.381775 
L 189.504441 112.361666 
L 190.175383 108.706729 
L 190.846325 106.120145 
L 191.517267 108.473498 
L 192.188209 106.301773 
L 192.859151 104.544209 
L 193.530093 106.333358 
L 194.201035 109.280651 
L 194.871976 107.766879 
L 195.542918 114.052574 
L 196.21386 117.023845 
L 196.884802 115.447992 
L 197.555744 114.365128 
L 198.226686 116.266556 
L 199.56857 112.467941 
L 200.239512 113.235197 
L 200.910453 112.872362 
L 201.581395 112.748716 
L 202.252337 114.584255 
L 202.923279 115.196303 
L 203.594221 116.658591 
L 204.265163 119.194551 
L 204.936105 118.603814 
L 205.607047 119.591222 
L 206.277988 116.200032 
L 206.94893 115.496284 
L 207.619872 116.224127 
L 208.290814 113.869601 
L 208.961756 113.760426 
L 209.632698 113.070785 
L 210.30364 110.598821 
L 210.974582 112.679849 
L 211.645524 110.801327 
L 212.316465 108.592462 
L 212.987407 102.292687 
L 213.658349 99.495784 
L 214.329291 100.824852 
L 215.000233 99.505555 
L 215.671175 94.02152 
L 217.684001 82.670088 
L 218.354942 83.29681 
L 219.025884 80.00054 
L 219.696826 79.052677 
L 220.367768 77.052399 
L 221.03871 76.219504 
L 221.709652 74.810846 
L 222.380594 72.296195 
L 223.051536 72.044705 
L 223.722477 66.611278 
L 224.393419 70.098418 
L 225.064361 68.468394 
L 226.406245 71.161557 
L 227.077187 71.22244 
L 227.748129 69.714618 
L 228.419071 69.186336 
L 229.090013 65.64907 
L 229.760954 66.83274 
L 230.431896 71.412139 
L 231.102838 71.898799 
L 231.77378 71.44203 
L 232.444722 71.46598 
L 233.115664 69.984893 
L 233.786606 67.762197 
L 234.457548 67.426269 
L 235.128489 66.595207 
L 235.799431 65.084981 
L 236.470373 64.630024 
L 237.141315 61.003733 
L 237.812257 59.071686 
L 238.483199 62.660098 
L 239.154141 63.328184 
L 239.825083 63.222687 
L 240.496025 64.310104 
L 241.166966 68.560939 
L 241.837908 68.615176 
L 242.50885 69.76347 
L 243.179792 68.631689 
L 243.850734 71.444781 
L 245.86356 76.492937 
L 246.534502 73.024503 
L 247.205443 71.671273 
L 247.876385 69.412872 
L 248.547327 68.141333 
L 249.889211 78.583435 
L 250.560153 78.419605 
L 251.231095 76.061538 
L 252.572978 69.844376 
L 253.24392 64.392601 
L 253.914862 65.954134 
L 254.585804 61.484573 
L 255.256746 65.363057 
L 255.927688 67.123495 
L 256.59863 66.050058 
L 257.269572 68.113312 
L 257.940514 68.042334 
L 258.611455 67.799912 
L 259.282397 72.045598 
L 259.953339 73.238094 
L 261.295223 69.931389 
L 261.966165 72.130193 
L 262.637107 71.608501 
L 263.308049 67.896162 
L 263.97899 68.290513 
L 264.649932 66.479657 
L 265.991816 65.312657 
L 266.662758 61.626387 
L 267.3337 61.765513 
L 268.004642 59.997233 
L 268.675584 63.393323 
L 269.346526 63.91769 
L 270.688409 68.24396 
L 271.359351 69.797656 
L 272.030293 72.484554 
L 273.372177 71.861906 
L 274.043119 73.845376 
L 274.714061 74.915283 
L 275.385003 78.342011 
L 276.055944 77.908804 
L 276.726886 79.705097 
L 277.397828 76.907764 
L 278.06877 74.736501 
L 278.739712 72.058272 
L 279.410654 73.296826 
L 280.081596 75.437947 
L 280.752538 78.988806 
L 282.094421 76.394964 
L 282.765363 72.353804 
L 283.436305 72.860565 
L 284.107247 73.911559 
L 284.778189 76.810917 
L 285.449131 74.877855 
L 287.461956 70.404171 
L 288.132898 67.890069 
L 288.80384 66.270537 
L 289.474782 66.47941 
L 290.145724 62.465631 
L 290.816666 64.879604 
L 291.487608 65.390072 
L 292.15855 64.909369 
L 292.829491 66.140958 
L 294.171375 66.037841 
L 294.842317 66.940982 
L 295.513259 64.643003 
L 296.184201 63.658179 
L 296.855143 68.059546 
L 297.526085 65.921419 
L 298.197027 66.100571 
L 298.867968 64.041214 
L 299.53891 66.760786 
L 300.209852 66.535538 
L 300.880794 69.27517 
L 301.551736 66.016067 
L 302.222678 68.150131 
L 302.89362 69.222562 
L 303.564562 67.588733 
L 304.235504 65.566362 
L 304.906445 63.075403 
L 305.577387 58.299404 
L 306.248329 59.190014 
L 306.919271 57.225751 
L 307.590213 56.45555 
L 308.261155 55.16192 
L 308.932097 56.286196 
L 309.603039 52.159791 
L 310.27398 53.8941 
L 310.944922 57.008421 
L 311.615864 56.139762 
L 312.286806 57.136136 
L 312.957748 53.095532 
L 313.62869 52.709667 
L 314.299632 49.19884 
L 315.641516 54.183429 
L 316.312457 55.372894 
L 316.983399 53.169814 
L 318.325283 51.984284 
L 318.996225 50.391601 
L 319.667167 50.438143 
L 321.009051 46.260902 
L 321.679992 44.431849 
L 322.350934 45.134676 
L 323.021876 43.3012 
L 323.692818 42.005257 
L 324.36376 39.915637 
L 325.034702 35.055924 
L 325.705644 35.6778 
L 326.376586 35.710661 
L 327.047528 33.424262 
L 327.718469 30.363585 
L 328.389411 29.612118 
L 329.060353 29.121442 
L 329.731295 31.26954 
L 330.402237 31.589841 
L 331.073179 31.599173 
L 331.744121 35.419756 
L 332.415063 37.449647 
L 333.086005 37.881184 
L 333.756946 43.231427 
L 334.427888 42.503618 
L 335.09883 43.975549 
L 335.769772 42.161941 
L 336.440714 41.355448 
L 337.111656 39.523702 
L 337.782598 39.617712 
L 338.45354 37.991019 
L 339.124481 39.775562 
L 339.795423 38.505141 
L 340.466365 43.869623 
L 341.137307 45.551881 
L 341.808249 46.277515 
L 342.479191 43.704652 
L 343.150133 44.147225 
L 343.821075 46.377025 
L 344.492017 43.376628 
L 345.162958 41.417664 
L 345.8339 43.785922 
L 346.504842 43.203179 
L 347.175784 40.899899 
L 347.846726 42.633953 
L 348.517668 41.165283 
L 349.18861 39.135765 
L 349.859552 34.420442 
L 350.530493 35.992734 
L 351.201435 36.845967 
L 351.872377 33.686337 
L 352.543319 34.057319 
L 353.214261 35.092544 
L 353.885203 33.36485 
L 354.556145 31.137213 
L 355.227087 33.89722 
L 356.56897 34.182513 
L 357.239912 37.306312 
L 357.910854 39.180574 
L 358.581796 40.577825 
L 359.252738 36.820917 
L 359.92368 37.932658 
L 360.594622 38.402415 
L 361.936506 31.845141 
L 362.607447 34.344757 
L 363.278389 32.698124 
L 363.949331 33.87916 
L 364.620273 31.804303 
L 365.291215 30.799704 
L 365.962157 30.120855 
L 366.633099 28.883126 
L 367.304041 29.269753 
L 367.974982 30.211047 
L 368.645924 31.666847 
L 369.316866 32.222597 
L 369.987808 35.454582 
L 370.65875 35.931745 
L 370.65875 35.931745 
" style="fill:none;stroke:#c44e52;stroke-linecap:round;stroke-width:1.5;"/>
   </g>
   <g id="line2d_21">
    <path clip-path="url(#pf8f8a8e1ea)" d="M 35.85875 106.798378 
L 36.529692 106.44115 
L 37.200634 102.735834 
L 37.871576 100.592032 
L 38.542518 96.79074 
L 39.213459 97.653562 
L 39.884401 100.253973 
L 40.555343 103.360906 
L 41.226285 104.627702 
L 41.897227 106.200821 
L 42.568169 105.760804 
L 43.239111 103.95266 
L 43.910053 106.112237 
L 44.580994 104.957394 
L 45.251936 107.61286 
L 45.922878 106.729072 
L 46.59382 102.058858 
L 47.264762 103.084633 
L 47.935704 105.220473 
L 48.606646 103.697556 
L 49.94853 107.329476 
L 50.619471 105.899531 
L 51.290413 105.486181 
L 51.961355 108.749631 
L 52.632297 108.993793 
L 53.303239 110.228914 
L 53.974181 112.709448 
L 54.645123 110.584508 
L 55.316065 111.714228 
L 55.987007 110.163654 
L 56.657948 113.36994 
L 57.32889 111.455899 
L 57.999832 108.728743 
L 58.670774 108.03453 
L 60.012658 112.7475 
L 60.6836 112.359364 
L 61.354542 113.705661 
L 62.025483 112.648539 
L 62.696425 113.414891 
L 63.367367 112.12265 
L 64.038309 113.922132 
L 64.709251 115.400991 
L 65.380193 116.171988 
L 66.051135 117.789962 
L 66.722077 118.064102 
L 67.393019 120.656331 
L 68.06396 114.942617 
L 68.734902 115.933251 
L 69.405844 114.280621 
L 70.076786 114.612201 
L 70.747728 114.716786 
L 71.41867 114.035985 
L 72.089612 115.783642 
L 72.760554 122.378389 
L 73.431495 119.728486 
L 74.102437 120.632926 
L 74.773379 117.248887 
L 75.444321 118.438433 
L 76.115263 118.477325 
L 76.786205 117.78183 
L 77.457147 116.18641 
L 78.128089 121.780209 
L 78.799031 117.692834 
L 79.469972 118.416591 
L 80.140914 119.901253 
L 80.811856 117.881244 
L 81.482798 118.647848 
L 82.15374 114.87826 
L 82.824682 115.200925 
L 83.495624 116.358702 
L 84.166566 114.32117 
L 84.837508 114.534278 
L 85.508449 116.475198 
L 86.179391 115.634716 
L 86.850333 116.918163 
L 87.521275 119.300214 
L 88.192217 119.983877 
L 88.863159 117.184964 
L 89.534101 115.045726 
L 90.205043 117.599965 
L 90.875984 119.233177 
L 91.546926 116.514237 
L 92.217868 119.438548 
L 92.88881 121.075488 
L 93.559752 121.62755 
L 94.230694 119.304429 
L 94.901636 116.26675 
L 95.572578 116.769934 
L 96.24352 117.723855 
L 96.914461 117.317312 
L 97.585403 123.180463 
L 98.256345 122.69669 
L 98.927287 122.675293 
L 99.598229 121.212391 
L 100.269171 126.052865 
L 101.611055 127.135362 
L 102.281996 129.44215 
L 102.952938 132.928938 
L 103.62388 137.249981 
L 104.294822 136.694849 
L 104.965764 137.251011 
L 105.636706 137.390221 
L 106.307648 138.515655 
L 106.97859 138.739803 
L 107.649532 136.188043 
L 108.320473 135.401484 
L 108.991415 136.32083 
L 109.662357 137.43228 
L 110.333299 138.785646 
L 111.004241 141.11432 
L 111.675183 139.240939 
L 112.346125 139.329644 
L 113.017067 140.650747 
L 113.688009 144.234198 
L 114.35895 141.911813 
L 115.029892 143.638703 
L 115.700834 141.104662 
L 116.371776 145.077216 
L 117.042718 146.330504 
L 117.71366 144.931763 
L 118.384602 140.579398 
L 119.055544 145.103554 
L 119.726485 145.140401 
L 120.397427 146.259633 
L 121.068369 146.511842 
L 121.739311 148.791243 
L 122.410253 152.839653 
L 123.081195 151.656945 
L 123.752137 153.536465 
L 124.423079 153.351491 
L 125.094021 153.494015 
L 125.764962 157.680825 
L 126.435904 156.51923 
L 127.106846 156.546871 
L 127.777788 155.728384 
L 128.44873 155.652492 
L 129.790614 153.477907 
L 130.461556 159.883243 
L 131.132497 163.957796 
L 131.803439 163.905563 
L 132.474381 167.305047 
L 133.145323 165.570584 
L 133.816265 162.280959 
L 135.158149 157.651278 
L 135.829091 151.217105 
L 137.170974 155.356776 
L 137.841916 155.49405 
L 138.512858 152.208015 
L 139.1838 151.304102 
L 139.854742 152.077803 
L 140.525684 151.170498 
L 141.196626 150.487008 
L 141.867568 147.011673 
L 142.53851 141.191988 
L 143.209451 142.422322 
L 143.880393 144.053979 
L 145.222277 145.958377 
L 145.893219 142.522928 
L 146.564161 141.805909 
L 147.906045 139.086003 
L 148.576986 138.685336 
L 149.247928 138.152221 
L 149.91887 133.905705 
L 150.589812 135.774892 
L 151.260754 133.331304 
L 151.931696 131.823076 
L 152.602638 131.741014 
L 153.27358 123.876996 
L 153.944522 123.356569 
L 154.615463 123.189189 
L 155.286405 123.342051 
L 155.957347 125.475502 
L 156.628289 126.470564 
L 157.299231 128.650882 
L 157.970173 126.836368 
L 158.641115 122.920783 
L 159.312057 119.777602 
L 159.982998 113.512208 
L 160.65394 111.700936 
L 161.995824 107.365019 
L 162.666766 103.881746 
L 163.337708 101.985792 
L 164.00865 102.068424 
L 164.679592 101.931599 
L 165.350534 99.609999 
L 166.021475 99.015128 
L 167.363359 89.772221 
L 168.034301 89.149746 
L 168.705243 89.579936 
L 169.376185 94.569399 
L 170.047127 97.39414 
L 170.718069 96.06338 
L 171.389011 94.198553 
L 172.059952 89.797399 
L 172.730894 91.673503 
L 173.401836 95.261017 
L 174.072778 89.505433 
L 174.74372 87.689021 
L 175.414662 85.097363 
L 176.085604 86.558651 
L 176.756546 85.305292 
L 177.427487 90.550631 
L 178.098429 92.568841 
L 178.769371 90.171256 
L 179.440313 89.925228 
L 180.111255 85.936093 
L 180.782197 89.523218 
L 181.453139 90.51908 
L 182.124081 91.153855 
L 182.795023 91.335192 
L 183.465964 93.318978 
L 184.136906 91.399059 
L 184.807848 95.094918 
L 185.47879 93.55107 
L 186.149732 91.48932 
L 186.820674 87.520655 
L 187.491616 86.908676 
L 188.162558 88.043624 
L 188.833499 87.075519 
L 189.504441 88.273978 
L 190.846325 86.282078 
L 191.517267 85.954937 
L 192.188209 89.340541 
L 192.859151 83.261492 
L 193.530093 84.374434 
L 194.201035 85.871956 
L 194.871976 85.162645 
L 195.542918 88.573102 
L 196.21386 87.564593 
L 196.884802 86.218918 
L 197.555744 85.74095 
L 198.226686 88.23167 
L 198.897628 89.781738 
L 200.239512 89.941132 
L 200.910453 88.704289 
L 201.581395 85.36116 
L 202.252337 86.763595 
L 203.594221 91.661989 
L 204.265163 93.782985 
L 204.936105 93.52201 
L 205.607047 93.922216 
L 206.277988 98.027469 
L 206.94893 98.727315 
L 207.619872 96.452606 
L 208.290814 96.857478 
L 208.961756 95.262703 
L 209.632698 96.857225 
L 210.30364 97.226165 
L 210.974582 99.735365 
L 211.645524 99.760305 
L 212.316465 98.488271 
L 213.658349 94.005201 
L 214.329291 92.936889 
L 215.000233 89.810678 
L 215.671175 94.268368 
L 216.342117 91.767047 
L 217.013059 91.920171 
L 217.684001 91.532109 
L 218.354942 93.686889 
L 219.025884 93.806783 
L 219.696826 93.298168 
L 220.367768 95.369446 
L 221.03871 94.578033 
L 221.709652 94.373157 
L 222.380594 98.664242 
L 223.051536 93.279753 
L 223.722477 90.840335 
L 224.393419 94.820087 
L 225.064361 96.424779 
L 225.735303 94.32919 
L 226.406245 98.526269 
L 227.748129 102.681481 
L 228.419071 101.195044 
L 229.090013 95.023709 
L 229.760954 93.867088 
L 230.431896 92.368829 
L 231.102838 92.154103 
L 231.77378 93.001464 
L 232.444722 97.458432 
L 233.115664 99.480316 
L 234.457548 99.349413 
L 235.128489 105.394573 
L 235.799431 109.341364 
L 237.141315 111.571986 
L 237.812257 115.315947 
L 238.483199 108.816924 
L 239.154141 106.770001 
L 239.825083 102.973288 
L 240.496025 103.891296 
L 241.166966 102.667058 
L 241.837908 103.339652 
L 242.50885 102.231033 
L 243.179792 103.542136 
L 244.521676 99.829712 
L 245.192618 99.868844 
L 245.86356 98.712445 
L 246.534502 99.699267 
L 247.205443 99.325238 
L 247.876385 99.399281 
L 249.218269 99.129778 
L 249.889211 97.990007 
L 250.560153 99.21958 
L 251.231095 97.832519 
L 251.902037 98.991772 
L 252.572978 97.860513 
L 253.24392 100.317377 
L 253.914862 101.937523 
L 254.585804 102.45407 
L 255.927688 102.364435 
L 256.59863 104.370055 
L 257.269572 105.853468 
L 258.611455 99.047987 
L 259.282397 98.933572 
L 259.953339 97.18868 
L 260.624281 96.507555 
L 261.295223 101.253637 
L 261.966165 101.619074 
L 262.637107 101.633774 
L 263.308049 98.699637 
L 263.97899 98.104296 
L 264.649932 102.710855 
L 265.320874 105.236187 
L 265.991816 102.815614 
L 266.662758 103.832957 
L 267.3337 102.497633 
L 268.004642 101.68965 
L 268.675584 103.590142 
L 269.346526 103.627355 
L 270.017467 102.211799 
L 271.359351 94.220059 
L 272.701235 94.897268 
L 273.372177 95.014517 
L 274.714061 96.404699 
L 275.385003 96.683559 
L 276.055944 100.782512 
L 276.726886 102.700029 
L 277.397828 102.440057 
L 278.06877 101.814425 
L 278.739712 99.100891 
L 279.410654 102.639696 
L 280.081596 105.207999 
L 280.752538 106.767871 
L 281.423479 108.903685 
L 282.094421 107.034098 
L 282.765363 108.961624 
L 283.436305 110.072453 
L 284.107247 111.552196 
L 284.778189 108.815507 
L 285.449131 108.360604 
L 286.120073 104.499219 
L 286.791015 104.763718 
L 287.461956 111.159764 
L 288.132898 109.903224 
L 288.80384 110.370578 
L 289.474782 109.330158 
L 290.145724 107.913806 
L 290.816666 107.32087 
L 291.487608 108.257186 
L 292.15855 105.449814 
L 292.829491 102.135576 
L 293.500433 97.884728 
L 294.171375 97.075318 
L 294.842317 96.483388 
L 295.513259 92.01824 
L 296.184201 90.779116 
L 296.855143 91.953051 
L 297.526085 92.247146 
L 298.197027 91.475557 
L 298.867968 92.769364 
L 299.53891 92.728465 
L 300.209852 93.922319 
L 300.880794 92.912636 
L 301.551736 93.977075 
L 302.222678 98.022499 
L 302.89362 95.351446 
L 303.564562 96.831801 
L 304.235504 95.813508 
L 304.906445 97.614896 
L 305.577387 92.774528 
L 306.248329 95.399787 
L 306.919271 95.042403 
L 307.590213 96.299853 
L 308.261155 95.067558 
L 309.603039 90.619602 
L 310.27398 89.661909 
L 310.944922 86.629173 
L 311.615864 89.844147 
L 312.286806 90.873921 
L 312.957748 90.529042 
L 313.62869 88.20579 
L 314.299632 88.9566 
L 314.970574 92.973417 
L 315.641516 90.0524 
L 316.312457 90.799115 
L 316.983399 92.100475 
L 317.654341 93.736559 
L 318.325283 93.909803 
L 318.996225 93.267985 
L 319.667167 90.085017 
L 320.338109 91.46173 
L 321.009051 89.879431 
L 321.679992 88.805296 
L 322.350934 86.78029 
L 323.021876 85.244785 
L 323.692818 88.385315 
L 324.36376 87.776187 
L 325.034702 85.439247 
L 325.705644 85.672522 
L 326.376586 85.240077 
L 327.047528 87.957341 
L 327.718469 84.36172 
L 328.389411 82.542404 
L 329.060353 81.049039 
L 330.402237 79.635291 
L 331.073179 84.114013 
L 331.744121 83.335229 
L 332.415063 81.304508 
L 333.086005 76.698894 
L 333.756946 75.086685 
L 334.427888 72.432192 
L 335.09883 70.790418 
L 335.769772 71.641641 
L 336.440714 78.073245 
L 337.111656 74.838795 
L 337.782598 75.228912 
L 338.45354 75.865404 
L 339.124481 78.917158 
L 339.795423 78.704267 
L 340.466365 79.686653 
L 341.137307 79.893208 
L 341.808249 75.683789 
L 342.479191 75.288993 
L 343.150133 74.324268 
L 343.821075 72.247149 
L 344.492017 75.041091 
L 345.162958 72.30743 
L 345.8339 75.954026 
L 346.504842 74.394107 
L 347.175784 71.713089 
L 347.846726 71.60398 
L 348.517668 74.001969 
L 349.18861 79.838997 
L 349.859552 81.140847 
L 350.530493 82.116601 
L 351.201435 83.412595 
L 351.872377 85.390898 
L 352.543319 82.730761 
L 353.214261 83.855573 
L 354.556145 84.859382 
L 355.227087 84.622761 
L 355.898029 88.214959 
L 356.56897 90.017204 
L 357.239912 90.842446 
L 357.910854 87.55469 
L 358.581796 85.038141 
L 359.252738 81.059412 
L 359.92368 82.006115 
L 360.594622 84.008849 
L 361.265564 83.411177 
L 361.936506 80.306212 
L 362.607447 81.982423 
L 363.278389 79.943674 
L 363.949331 84.190995 
L 364.620273 83.846906 
L 365.962157 90.804952 
L 366.633099 90.045567 
L 367.304041 91.878707 
L 367.974982 91.384202 
L 368.645924 92.322084 
L 369.316866 87.442114 
L 369.987808 86.284573 
L 370.65875 89.291612 
L 370.65875 89.291612 
" style="fill:none;stroke:#8172b3;stroke-linecap:round;stroke-width:1.5;"/>
   </g>
   <g id="line2d_22">
    <path clip-path="url(#pf8f8a8e1ea)" d="M 35.85875 113.853571 
L 36.529692 110.246973 
L 37.200634 110.755765 
L 37.871576 112.596334 
L 38.542518 108.952325 
L 39.213459 108.564579 
L 39.884401 112.086224 
L 40.555343 110.158048 
L 41.226285 113.086015 
L 42.568169 114.98203 
L 43.239111 114.662153 
L 43.910053 116.0977 
L 44.580994 119.907584 
L 45.251936 117.292544 
L 45.922878 115.540242 
L 46.59382 118.882685 
L 47.264762 120.736373 
L 47.935704 115.999412 
L 48.606646 113.712339 
L 49.277588 114.083433 
L 49.94853 112.746095 
L 50.619471 113.262676 
L 51.290413 111.687798 
L 51.961355 112.832528 
L 52.632297 114.477954 
L 53.303239 109.692714 
L 53.974181 113.523747 
L 54.645123 115.13829 
L 55.316065 115.094942 
L 55.987007 119.068045 
L 56.657948 118.405759 
L 57.32889 116.363468 
L 57.999832 114.738414 
L 58.670774 114.981827 
L 60.012658 116.856785 
L 60.6836 116.280976 
L 61.354542 115.249172 
L 62.025483 113.57044 
L 62.696425 117.72693 
L 63.367367 119.154884 
L 64.038309 122.585626 
L 64.709251 122.715993 
L 65.380193 122.474441 
L 66.051135 123.444005 
L 66.722077 120.913977 
L 67.393019 117.910337 
L 68.06396 120.539176 
L 68.734902 119.621437 
L 69.405844 120.764022 
L 70.076786 118.091218 
L 70.747728 118.802698 
L 71.41867 121.012167 
L 72.089612 118.672881 
L 72.760554 117.169208 
L 73.431495 118.293605 
L 74.102437 117.90498 
L 74.773379 119.614814 
L 75.444321 118.076325 
L 76.115263 117.677223 
L 76.786205 120.14017 
L 77.457147 124.035316 
L 78.128089 126.571133 
L 78.799031 126.163848 
L 79.469972 128.052349 
L 80.140914 130.819773 
L 80.811856 130.673638 
L 81.482798 131.252635 
L 82.15374 126.988054 
L 82.824682 126.755049 
L 83.495624 130.268977 
L 84.166566 130.255851 
L 84.837508 129.774004 
L 85.508449 130.04777 
L 86.179391 125.035582 
L 86.850333 127.46308 
L 88.192217 131.190136 
L 88.863159 129.960054 
L 89.534101 136.545989 
L 90.205043 137.413849 
L 90.875984 138.689149 
L 91.546926 139.270004 
L 92.217868 136.042463 
L 92.88881 135.606432 
L 93.559752 137.870868 
L 94.230694 134.368295 
L 94.901636 134.207452 
L 95.572578 134.479962 
L 96.24352 135.580675 
L 96.914461 135.341798 
L 97.585403 135.291369 
L 98.256345 139.709645 
L 98.927287 138.402675 
L 99.598229 139.305045 
L 100.269171 140.941576 
L 100.940113 139.837001 
L 101.611055 142.525412 
L 102.281996 142.968313 
L 102.952938 144.431656 
L 103.62388 147.663698 
L 104.294822 146.846233 
L 104.965764 147.595812 
L 105.636706 147.599247 
L 106.307648 146.599151 
L 106.97859 143.20751 
L 107.649532 143.386781 
L 108.320473 142.097081 
L 108.991415 144.442208 
L 109.662357 146.052566 
L 110.333299 150.726339 
L 111.675183 146.052956 
L 112.346125 140.148708 
L 113.017067 137.443649 
L 113.688009 140.445795 
L 114.35895 140.532831 
L 115.029892 141.253016 
L 115.700834 142.623317 
L 117.042718 146.846689 
L 117.71366 150.032378 
L 118.384602 150.36219 
L 119.055544 149.609252 
L 119.726485 147.572165 
L 120.397427 146.913259 
L 121.068369 146.865446 
L 121.739311 146.387417 
L 122.410253 146.553909 
L 123.081195 146.185754 
L 123.752137 146.309963 
L 124.423079 148.981169 
L 125.094021 149.951387 
L 125.764962 150.230303 
L 126.435904 145.925323 
L 127.106846 145.896805 
L 127.777788 140.376463 
L 128.44873 140.549175 
L 129.119672 139.776786 
L 129.790614 140.255864 
L 130.461556 143.117661 
L 131.132497 144.124719 
L 131.803439 143.878072 
L 132.474381 141.731253 
L 133.816265 146.755308 
L 134.487207 148.058897 
L 135.158149 148.493681 
L 135.829091 149.495681 
L 136.500033 144.975327 
L 137.170974 148.450668 
L 137.841916 149.105233 
L 138.512858 148.596008 
L 139.1838 144.94713 
L 139.854742 147.03105 
L 141.196626 140.253521 
L 141.867568 141.271267 
L 142.53851 144.443587 
L 143.209451 144.629103 
L 143.880393 142.226274 
L 144.551335 144.369106 
L 145.222277 141.728935 
L 145.893219 142.480618 
L 146.564161 141.456699 
L 147.235103 139.243364 
L 147.906045 143.752196 
L 148.576986 139.874952 
L 149.247928 139.633849 
L 149.91887 141.598294 
L 150.589812 141.256823 
L 151.260754 139.354862 
L 151.931696 136.589756 
L 152.602638 138.708076 
L 153.27358 138.238117 
L 153.944522 141.314866 
L 154.615463 141.274347 
L 155.286405 144.827531 
L 155.957347 144.013344 
L 156.628289 145.997549 
L 157.299231 146.570681 
L 157.970173 146.733092 
L 158.641115 148.705933 
L 159.312057 147.467177 
L 159.982998 143.077772 
L 160.65394 140.338418 
L 161.324882 140.667186 
L 161.995824 139.349864 
L 162.666766 138.986691 
L 163.337708 139.652255 
L 164.00865 143.448648 
L 164.679592 142.707184 
L 165.350534 141.024801 
L 166.021475 140.630584 
L 166.692417 140.818197 
L 167.363359 140.854844 
L 168.034301 138.239045 
L 168.705243 139.503918 
L 169.376185 138.041453 
L 170.047127 141.053169 
L 170.718069 140.049524 
L 171.389011 138.653309 
L 172.059952 139.628329 
L 172.730894 138.880574 
L 173.401836 142.805635 
L 174.072778 142.515249 
L 174.74372 143.445801 
L 175.414662 141.960183 
L 176.085604 143.072376 
L 176.756546 142.181438 
L 177.427487 138.696132 
L 178.098429 142.289944 
L 178.769371 141.029935 
L 179.440313 137.120714 
L 180.111255 138.513429 
L 181.453139 140.797078 
L 182.124081 141.660233 
L 182.795023 144.877735 
L 183.465964 145.423523 
L 184.136906 147.344181 
L 184.807848 143.633755 
L 185.47879 145.199111 
L 186.149732 143.988939 
L 186.820674 144.457249 
L 187.491616 140.672874 
L 188.162558 139.750783 
L 188.833499 135.811226 
L 189.504441 135.80485 
L 190.175383 132.900668 
L 190.846325 134.15861 
L 191.517267 139.070412 
L 192.188209 134.241608 
L 192.859151 134.765398 
L 193.530093 139.090984 
L 194.201035 141.941878 
L 194.871976 139.515031 
L 195.542918 138.27257 
L 196.21386 135.29236 
L 197.555744 131.789663 
L 198.226686 134.265179 
L 198.897628 135.233353 
L 199.56857 134.400034 
L 200.239512 135.205365 
L 200.910453 137.035436 
L 201.581395 134.784343 
L 202.252337 133.603785 
L 202.923279 133.887064 
L 203.594221 132.52721 
L 204.265163 129.409306 
L 204.936105 129.636621 
L 205.607047 125.186388 
L 206.277988 124.80535 
L 206.94893 127.677694 
L 208.290814 128.033569 
L 208.961756 126.574771 
L 209.632698 126.202485 
L 210.974582 125.753674 
L 211.645524 122.683417 
L 212.316465 128.985689 
L 212.987407 127.601646 
L 213.658349 125.039833 
L 215.000233 125.66054 
L 215.671175 128.297854 
L 216.342117 126.989412 
L 217.013059 128.097566 
L 217.684001 128.634099 
L 218.354942 127.00625 
L 219.025884 128.514341 
L 219.696826 125.633737 
L 220.367768 127.981653 
L 221.03871 127.219637 
L 221.709652 129.257042 
L 223.051536 126.155017 
L 223.722477 126.367342 
L 224.393419 122.749729 
L 225.064361 122.325045 
L 225.735303 124.000518 
L 226.406245 122.191739 
L 227.077187 124.528131 
L 227.748129 127.921379 
L 228.419071 128.557045 
L 229.090013 124.351041 
L 229.760954 124.585134 
L 230.431896 128.626501 
L 231.102838 125.106749 
L 231.77378 125.046507 
L 232.444722 127.036095 
L 233.115664 122.569085 
L 233.786606 120.36966 
L 234.457548 115.758481 
L 235.128489 112.993468 
L 235.799431 112.985477 
L 236.470373 112.308942 
L 237.141315 113.890787 
L 237.812257 114.578717 
L 238.483199 116.432451 
L 239.154141 117.172292 
L 239.825083 116.943022 
L 240.496025 119.321975 
L 241.166966 118.114177 
L 241.837908 121.380771 
L 242.50885 121.118585 
L 243.179792 121.386435 
L 244.521676 122.724297 
L 245.192618 123.943788 
L 245.86356 119.691006 
L 246.534502 117.75021 
L 247.205443 118.383778 
L 247.876385 118.676841 
L 249.218269 120.164918 
L 249.889211 119.470375 
L 250.560153 116.453262 
L 251.231095 119.091227 
L 251.902037 121.224407 
L 252.572978 122.111203 
L 253.24392 124.597821 
L 253.914862 124.403107 
L 254.585804 120.498666 
L 255.256746 117.88394 
L 255.927688 117.081348 
L 256.59863 119.819576 
L 257.269572 123.589273 
L 257.940514 125.424314 
L 258.611455 125.031398 
L 259.282397 127.408167 
L 259.953339 125.103887 
L 260.624281 126.600865 
L 261.295223 124.955233 
L 261.966165 122.326913 
L 262.637107 118.939084 
L 263.308049 117.156219 
L 263.97899 116.907824 
L 264.649932 115.958981 
L 265.320874 117.582314 
L 265.991816 121.443511 
L 266.662758 118.0157 
L 267.3337 116.817012 
L 268.004642 116.507583 
L 268.675584 113.329435 
L 269.346526 113.610696 
L 272.030293 98.571062 
L 272.701235 101.816795 
L 273.372177 100.169718 
L 274.043119 101.631397 
L 274.714061 100.317409 
L 275.385003 98.090706 
L 276.055944 95.447208 
L 276.726886 99.142241 
L 277.397828 101.605519 
L 278.06877 95.937228 
L 279.410654 100.96372 
L 280.081596 100.612386 
L 280.752538 97.958606 
L 281.423479 99.222402 
L 282.094421 101.425108 
L 282.765363 102.169117 
L 283.436305 102.661931 
L 284.107247 101.255626 
L 284.778189 102.682261 
L 285.449131 101.968231 
L 286.120073 99.775843 
L 286.791015 100.999015 
L 287.461956 103.324038 
L 288.132898 104.867158 
L 288.80384 107.783228 
L 289.474782 105.490632 
L 290.816666 108.346554 
L 291.487608 106.22704 
L 292.15855 107.618273 
L 292.829491 107.915975 
L 293.500433 109.820487 
L 294.171375 106.142328 
L 294.842317 106.43056 
L 296.184201 112.416753 
L 296.855143 112.921609 
L 297.526085 111.71045 
L 298.197027 114.384785 
L 298.867968 112.456319 
L 299.53891 115.486324 
L 300.209852 112.021602 
L 300.880794 113.580425 
L 301.551736 110.169866 
L 302.222678 110.917517 
L 303.564562 112.028026 
L 304.235504 110.835221 
L 304.906445 111.262918 
L 305.577387 108.187866 
L 306.248329 109.4502 
L 306.919271 108.871224 
L 307.590213 113.857964 
L 308.261155 115.507267 
L 308.932097 116.681805 
L 309.603039 120.416466 
L 310.27398 120.166315 
L 310.944922 125.34086 
L 311.615864 125.57156 
L 312.286806 127.242247 
L 312.957748 129.369269 
L 313.62869 127.458849 
L 314.299632 125.004444 
L 314.970574 123.584329 
L 315.641516 129.301142 
L 316.312457 127.969412 
L 316.983399 131.404901 
L 317.654341 130.229361 
L 318.325283 129.609079 
L 318.996225 127.029286 
L 319.667167 125.546379 
L 320.338109 125.974135 
L 321.009051 125.130874 
L 321.679992 125.652142 
L 322.350934 125.646227 
L 323.021876 130.294524 
L 324.36376 130.528863 
L 325.034702 135.501574 
L 325.705644 134.515612 
L 326.376586 139.955947 
L 327.047528 142.66633 
L 327.718469 144.852319 
L 328.389411 139.862896 
L 329.731295 135.15725 
L 330.402237 139.278633 
L 331.073179 139.326554 
L 331.744121 138.401821 
L 332.415063 138.053392 
L 333.086005 137.024999 
L 333.756946 132.50907 
L 334.427888 134.294674 
L 335.09883 135.140042 
L 336.440714 134.72334 
L 337.111656 134.463407 
L 337.782598 133.778333 
L 338.45354 133.873755 
L 339.795423 136.355821 
L 340.466365 130.765198 
L 341.137307 126.790096 
L 341.808249 128.195272 
L 342.479191 130.645751 
L 343.150133 131.487598 
L 343.821075 126.624614 
L 344.492017 128.990049 
L 345.162958 130.71879 
L 345.8339 128.212929 
L 346.504842 127.434126 
L 347.175784 123.534746 
L 347.846726 124.322053 
L 348.517668 128.616746 
L 349.18861 131.109505 
L 349.859552 130.42895 
L 350.530493 130.422211 
L 351.201435 131.183898 
L 351.872377 130.019854 
L 353.214261 135.302741 
L 353.885203 136.699748 
L 354.556145 138.777433 
L 355.227087 132.980657 
L 355.898029 136.881193 
L 357.239912 137.925697 
L 357.910854 138.773813 
L 358.581796 135.20186 
L 359.252738 134.685847 
L 359.92368 135.064778 
L 360.594622 136.905315 
L 361.265564 139.316663 
L 361.936506 142.155501 
L 362.607447 143.180279 
L 363.278389 143.709053 
L 363.949331 142.188931 
L 364.620273 145.349243 
L 365.291215 144.94026 
L 365.962157 142.967297 
L 366.633099 142.065326 
L 367.304041 142.210967 
L 367.974982 137.385479 
L 368.645924 135.270314 
L 369.316866 134.160059 
L 369.987808 133.760516 
L 370.65875 133.9604 
L 370.65875 133.9604 
" style="fill:none;stroke:#937860;stroke-linecap:round;stroke-width:1.5;"/>
   </g>
   <g id="patch_3">
    <path d="M 35.85875 235.429922 
L 35.85875 12.229922 
" style="fill:none;stroke:#ffffff;stroke-linecap:square;stroke-linejoin:miter;stroke-width:1.25;"/>
   </g>
   <g id="patch_4">
    <path d="M 370.65875 235.429922 
L 370.65875 12.229922 
" style="fill:none;stroke:#ffffff;stroke-linecap:square;stroke-linejoin:miter;stroke-width:1.25;"/>
   </g>
   <g id="patch_5">
    <path d="M 35.85875 235.429922 
L 370.65875 235.429922 
" style="fill:none;stroke:#ffffff;stroke-linecap:square;stroke-linejoin:miter;stroke-width:1.25;"/>
   </g>
   <g id="patch_6">
    <path d="M 35.85875 12.229922 
L 370.65875 12.229922 
" style="fill:none;stroke:#ffffff;stroke-linecap:square;stroke-linejoin:miter;stroke-width:1.25;"/>
   </g>
   <g id="legend_1">
    <g id="patch_7">
     <path d="M 41.35875 67.709453 
L 149.646875 67.709453 
L 149.646875 17.729922 
L 41.35875 17.729922 
z
" style="fill:#eaeaf2;stroke:#ffffff;stroke-linejoin:miter;"/>
    </g>
    <g id="line2d_23">
     <path d="M 49.05875 26.153516 
L 64.45875 26.153516 
" style="fill:none;stroke:#4c72b0;stroke-linecap:round;stroke-width:1.5;"/>
    </g>
    <g id="line2d_24"/>
    <g id="text_17">
     <!-- A -->
     <defs>
      <path d="M -0.140625 0 
L 27.34375 71.578125 
L 37.546875 71.578125 
L 66.84375 0 
L 56.0625 0 
L 47.703125 21.6875 
L 17.78125 21.6875 
L 9.90625 0 
z
M 20.515625 29.390625 
L 44.78125 29.390625 
L 37.3125 49.21875 
Q 33.890625 58.25 32.234375 64.0625 
Q 30.859375 57.171875 28.375 50.390625 
z
" id="ArialMT-65"/>
     </defs>
     <g style="fill:#262626;" transform="translate(76.55875 30.003516)scale(0.11 -0.11)">
      <use xlink:href="#ArialMT-65"/>
     </g>
    </g>
    <g id="line2d_25">
     <path d="M 49.05875 41.713359 
L 64.45875 41.713359 
" style="fill:none;stroke:#dd8452;stroke-linecap:round;stroke-width:1.5;"/>
    </g>
    <g id="line2d_26"/>
    <g id="text_18">
     <!-- B -->
     <defs>
      <path d="M 7.328125 0 
L 7.328125 71.578125 
L 34.1875 71.578125 
Q 42.390625 71.578125 47.34375 69.40625 
Q 52.296875 67.234375 55.09375 62.71875 
Q 57.90625 58.203125 57.90625 53.265625 
Q 57.90625 48.6875 55.421875 44.625 
Q 52.9375 40.578125 47.90625 38.09375 
Q 54.390625 36.1875 57.875 31.59375 
Q 61.375 27 61.375 20.75 
Q 61.375 15.71875 59.25 11.390625 
Q 57.125 7.078125 54 4.734375 
Q 50.875 2.390625 46.15625 1.1875 
Q 41.453125 0 34.625 0 
z
M 16.796875 41.5 
L 32.28125 41.5 
Q 38.578125 41.5 41.3125 42.328125 
Q 44.921875 43.40625 46.75 45.890625 
Q 48.578125 48.390625 48.578125 52.15625 
Q 48.578125 55.71875 46.875 58.421875 
Q 45.171875 61.140625 41.984375 62.140625 
Q 38.8125 63.140625 31.109375 63.140625 
L 16.796875 63.140625 
z
M 16.796875 8.453125 
L 34.625 8.453125 
Q 39.203125 8.453125 41.0625 8.796875 
Q 44.34375 9.375 46.53125 10.734375 
Q 48.734375 12.109375 50.140625 14.71875 
Q 51.5625 17.328125 51.5625 20.75 
Q 51.5625 24.75 49.515625 27.703125 
Q 47.46875 30.671875 43.828125 31.859375 
Q 40.1875 33.0625 33.34375 33.0625 
L 16.796875 33.0625 
z
" id="ArialMT-66"/>
     </defs>
     <g style="fill:#262626;" transform="translate(76.55875 45.563359)scale(0.11 -0.11)">
      <use xlink:href="#ArialMT-66"/>
     </g>
    </g>
    <g id="line2d_27">
     <path d="M 49.05875 57.273203 
L 64.45875 57.273203 
" style="fill:none;stroke:#55a868;stroke-linecap:round;stroke-width:1.5;"/>
    </g>
    <g id="line2d_28"/>
    <g id="text_19">
     <!-- C -->
     <defs>
      <path d="M 58.796875 25.09375 
L 68.265625 22.703125 
Q 65.28125 11.03125 57.546875 4.90625 
Q 49.8125 -1.21875 38.625 -1.21875 
Q 27.046875 -1.21875 19.796875 3.484375 
Q 12.546875 8.203125 8.765625 17.140625 
Q 4.984375 26.078125 4.984375 36.328125 
Q 4.984375 47.515625 9.25 55.828125 
Q 13.53125 64.15625 21.40625 68.46875 
Q 29.296875 72.796875 38.765625 72.796875 
Q 49.515625 72.796875 56.828125 67.328125 
Q 64.15625 61.859375 67.046875 51.953125 
L 57.71875 49.75 
Q 55.21875 57.5625 50.484375 61.125 
Q 45.75 64.703125 38.578125 64.703125 
Q 30.328125 64.703125 24.78125 60.734375 
Q 19.234375 56.78125 16.984375 50.109375 
Q 14.75 43.453125 14.75 36.375 
Q 14.75 27.25 17.40625 20.4375 
Q 20.0625 13.625 25.671875 10.25 
Q 31.296875 6.890625 37.84375 6.890625 
Q 45.796875 6.890625 51.3125 11.46875 
Q 56.84375 16.0625 58.796875 25.09375 
z
" id="ArialMT-67"/>
     </defs>
     <g style="fill:#262626;" transform="translate(76.55875 61.123203)scale(0.11 -0.11)">
      <use xlink:href="#ArialMT-67"/>
     </g>
    </g>
    <g id="line2d_29">
     <path d="M 109.802813 26.153516 
L 125.202813 26.153516 
" style="fill:none;stroke:#c44e52;stroke-linecap:round;stroke-width:1.5;"/>
    </g>
    <g id="line2d_30"/>
    <g id="text_20">
     <!-- D -->
     <defs>
      <path d="M 7.71875 0 
L 7.71875 71.578125 
L 32.375 71.578125 
Q 40.71875 71.578125 45.125 70.5625 
Q 51.265625 69.140625 55.609375 65.4375 
Q 61.28125 60.640625 64.078125 53.1875 
Q 66.890625 45.75 66.890625 36.1875 
Q 66.890625 28.03125 64.984375 21.734375 
Q 63.09375 15.4375 60.109375 11.296875 
Q 57.125 7.171875 53.578125 4.796875 
Q 50.046875 2.4375 45.046875 1.21875 
Q 40.046875 0 33.546875 0 
z
M 17.1875 8.453125 
L 32.46875 8.453125 
Q 39.546875 8.453125 43.578125 9.765625 
Q 47.609375 11.078125 50 13.484375 
Q 53.375 16.84375 55.25 22.53125 
Q 57.125 28.21875 57.125 36.328125 
Q 57.125 47.5625 53.4375 53.59375 
Q 49.75 59.625 44.484375 61.671875 
Q 40.671875 63.140625 32.234375 63.140625 
L 17.1875 63.140625 
z
" id="ArialMT-68"/>
     </defs>
     <g style="fill:#262626;" transform="translate(137.302813 30.003516)scale(0.11 -0.11)">
      <use xlink:href="#ArialMT-68"/>
     </g>
    </g>
    <g id="line2d_31">
     <path d="M 109.802813 41.713359 
L 125.202813 41.713359 
" style="fill:none;stroke:#8172b3;stroke-linecap:round;stroke-width:1.5;"/>
    </g>
    <g id="line2d_32"/>
    <g id="text_21">
     <!-- E -->
     <defs>
      <path d="M 7.90625 0 
L 7.90625 71.578125 
L 59.671875 71.578125 
L 59.671875 63.140625 
L 17.390625 63.140625 
L 17.390625 41.21875 
L 56.984375 41.21875 
L 56.984375 32.8125 
L 17.390625 32.8125 
L 17.390625 8.453125 
L 61.328125 8.453125 
L 61.328125 0 
z
" id="ArialMT-69"/>
     </defs>
     <g style="fill:#262626;" transform="translate(137.302813 45.563359)scale(0.11 -0.11)">
      <use xlink:href="#ArialMT-69"/>
     </g>
    </g>
    <g id="line2d_33">
     <path d="M 109.802813 57.273203 
L 125.202813 57.273203 
" style="fill:none;stroke:#937860;stroke-linecap:round;stroke-width:1.5;"/>
    </g>
    <g id="line2d_34"/>
    <g id="text_22">
     <!-- F -->
     <defs>
      <path d="M 8.203125 0 
L 8.203125 71.578125 
L 56.5 71.578125 
L 56.5 63.140625 
L 17.671875 63.140625 
L 17.671875 40.96875 
L 51.265625 40.96875 
L 51.265625 32.515625 
L 17.671875 32.515625 
L 17.671875 0 
z
" id="ArialMT-70"/>
     </defs>
     <g style="fill:#262626;" transform="translate(137.302813 61.123203)scale(0.11 -0.11)">
      <use xlink:href="#ArialMT-70"/>
     </g>
    </g>
   </g>
  </g>
 </g>
 <defs>
  <clipPath id="pf8f8a8e1ea">
   <rect height="223.2" width="334.8" x="35.85875" y="12.229922"/>
  </clipPath>
 </defs>
</svg>
